<svg width="75" height="75" viewBox="0 0 75 75" fill="none" xmlns="http://www.w3.org/2000/svg">
<path d="M75 37.5002C75 58.2105 58.2105 75 37.4998 75C16.7891 75 0 58.2105 0 37.5002C0 16.7895 16.7891 0 37.4998 0C58.2105 0 75 16.7895 75 37.5002Z" fill="#1158A6"/>
<path d="M66.4478 28.2757H70.0584V46.7245H66.4478V28.2757ZM39.1928 41.8623H41.6725C40.6762 42.9567 39.2726 43.635 37.4999 43.635C34.1114 43.635 31.3647 40.8879 31.3647 37.5001C31.3647 34.1117 34.1115 31.3649 37.4999 31.3649C40.1434 31.3649 42.3958 33.0367 43.2587 35.3806H47.0118C46.0441 31.0177 42.1543 27.7544 37.4999 27.7544C32.1173 27.7544 27.7542 32.1176 27.7542 37.5001C27.7542 42.8824 32.1173 47.246 37.4999 47.246C40.0417 47.246 42.0625 46.3579 43.619 44.8951V46.7245H47.0119V38.4698H39.1928V41.8623H39.1928ZM56.9933 31.8863H53.3955V36.9198H56.9932C58.3837 36.9198 59.5102 35.7933 59.5102 34.4032C59.5102 33.0132 58.3837 31.8863 56.9933 31.8863ZM55.5268 40.5308H53.3955V46.7245H49.7849V28.2757H56.9933C60.3777 28.2757 63.1208 31.0192 63.1208 34.4033C63.1208 36.8792 61.6515 39.0105 59.5377 39.9773L63.6747 46.7245H59.3244L55.5268 40.5309V40.5308Z" fill="white"/>
</svg>
