<svg width="212" height="59" viewBox="0 0 212 59" fill="none" xmlns="http://www.w3.org/2000/svg">
<g clip-path="url(#clip0_107_9883)">
<path fill-rule="evenodd" clip-rule="evenodd" d="M102.863 4.42862C103.129 4.11175 103.407 3.81262 103.695 3.5287L103.674 3.51856C103.726 3.46659 103.701 3.49321 103.754 3.44251C104.641 2.59709 105.658 1.87589 106.785 1.31439C107.638 0.883446 108.531 0.555166 109.447 0.33082L109.443 0.348565L109.468 0.342227C111.161 -0.0608351 112.857 -0.0988598 114.469 0.178721L114.46 0.134359C114.533 0.145766 114.497 0.140696 114.569 0.152103C116.673 0.515873 118.71 1.4234 120.462 2.89622C125.745 7.33498 126.43 15.2188 121.994 20.5042C120.853 21.863 119.485 22.9162 117.993 23.6577C117.945 23.6818 117.896 23.7059 117.848 23.73L117.837 23.735C117.029 24.128 116.167 24.4398 115.256 24.6578C108.545 26.2574 101.808 22.1114 100.209 15.3975C99.5704 12.7142 99.8491 10.0271 100.842 7.66579L100.877 7.70382C101.354 6.5466 102.014 5.44134 102.862 4.43115L102.863 4.42862ZM108.424 4.63395C107.408 5.15362 106.475 5.8799 105.696 6.81024C102.573 10.5303 103.056 16.0794 106.774 19.2038C109.533 21.522 113.3 21.8541 116.336 20.3496C119.885 18.5548 121.878 14.5026 120.915 10.4619C119.79 5.7354 115.048 2.81764 110.325 3.94317C109.653 4.10287 109.018 4.33736 108.425 4.63395H108.424Z" fill="white"/>
<path fill-rule="evenodd" clip-rule="evenodd" d="M90.4727 1.14328L83.4768 24.4613H87.2091L91.053 11.7167L94.1189 1.14328H90.4727Z" fill="#EC008C"/>
<path fill-rule="evenodd" clip-rule="evenodd" d="M92.363 7.19935L97.5561 24.4613H101.254L94.119 1.14328L92.363 7.19935Z" fill="white"/>
<path fill-rule="evenodd" clip-rule="evenodd" d="M130.847 1.14328L123.852 24.4613H127.585L132.77 7.26273L137.932 24.4613H141.63L134.693 1.14328H130.847Z" fill="#EC008C"/>
<path fill-rule="evenodd" clip-rule="evenodd" d="M144.803 4.1637H140.525V1.0406H152.154V4.1637H148.339V24.4613H144.803V4.1637Z" fill="white"/>
<path d="M75.0636 11.9565H77.2375L76.368 14.6739L75.0636 15.2174H71.8027V11.9565H75.0636Z" fill="white"/>
<path fill-rule="evenodd" clip-rule="evenodd" d="M62.8412 4.42863C63.1072 4.11176 63.3847 3.81263 63.6735 3.52872L63.652 3.51858C63.7039 3.46661 63.6786 3.49323 63.7318 3.44253C64.6187 2.59711 65.6373 1.87591 66.7636 1.31441C67.6162 0.883461 68.5094 0.555181 69.4253 0.330835L69.4215 0.34858L69.4456 0.342242C71.1395 -0.0608198 72.8346 -0.0988446 74.4474 0.178736L74.4385 0.134374C74.5108 0.145781 74.4753 0.140711 74.5475 0.152119C76.6506 0.515889 78.6878 1.42341 80.4399 2.89624C85.723 7.33499 86.4084 15.2188 81.9716 20.5042C80.8314 21.863 79.4631 22.9163 77.9707 23.6577C77.9226 23.6818 77.8744 23.7059 77.8263 23.73L77.8149 23.7351C77.0066 24.128 76.1451 24.4398 75.2342 24.6578C68.5233 26.2574 61.7858 22.1114 60.187 15.3975C59.5497 12.713 59.8284 10.0259 60.8217 7.66454L60.8559 7.70256C61.3335 6.54534 61.9936 5.44009 62.8412 4.4299V4.42863ZM68.4017 4.63397C67.3856 5.15364 66.4532 5.87991 65.674 6.81025C62.551 10.5303 63.0337 16.0794 66.7522 19.2038C69.5115 21.522 73.278 21.8541 76.3136 20.3496C79.8635 18.5548 81.8564 14.5027 80.8935 10.4619C79.7685 5.73542 75.0264 2.81765 70.3033 3.94319C69.6306 4.10289 68.9959 4.33738 68.4029 4.63397H68.4017Z" fill="white"/>
<path fill-rule="evenodd" clip-rule="evenodd" d="M69.3 12.0944C69.6585 12.2021 70.0411 12.0995 70.3984 12.211C70.4022 12.2566 70.4098 12.3479 70.4123 12.3948C70.5035 12.4658 70.596 12.538 70.6834 12.6128C70.781 12.59 70.8798 12.5672 70.9774 12.5444C71.0546 12.7586 71.1699 12.9576 71.2244 13.1794C71.1104 12.9931 71.042 12.7814 70.9039 12.609C70.8025 12.6356 70.7012 12.6597 70.6011 12.6838C70.5479 12.59 70.4719 12.5165 70.3908 12.4493C70.354 12.3733 70.3477 12.2719 70.2755 12.2199C69.96 12.1679 69.6382 12.2186 69.3228 12.1705C69.3367 12.2123 69.3646 12.2959 69.3785 12.3378C69.3291 12.3352 69.2303 12.3314 69.1809 12.3289C69.1631 12.4645 69.1783 12.6077 69.1251 12.737C69.0466 12.7104 68.968 12.6851 68.8895 12.6597C68.8059 12.5646 68.721 12.4709 68.6399 12.3745C68.8021 12.481 68.9376 12.6242 69.1213 12.699C69.0668 12.5228 69.0833 12.3555 69.2467 12.2541C69.2607 12.2148 69.2886 12.1362 69.3012 12.0969L69.3 12.0944Z" fill="#EC008C"/>
<path fill-rule="evenodd" clip-rule="evenodd" d="M71.8438 4.01542C72.4482 3.9305 73.0576 3.99007 73.6606 4.05852C74.0369 4.12823 74.4246 4.15738 74.7831 4.29554C75.1074 4.43877 75.4634 4.50468 75.7726 4.68212C75.9043 4.7531 75.8967 4.92421 75.9474 5.04716C76.0107 5.11054 76.0754 5.17264 76.14 5.23602C75.8612 5.28418 75.58 5.307 75.3013 5.35643C75.6117 5.39192 75.9183 5.26897 76.2248 5.30827C76.42 5.4198 76.5112 5.65302 76.6607 5.81653C76.6721 5.77343 76.6936 5.68978 76.7037 5.64795C76.7164 5.71259 76.7291 5.77597 76.7418 5.84061C76.8811 5.90018 77.0268 5.95342 77.1573 6.03454C77.2219 6.13974 77.2612 6.25888 77.3106 6.37169C77.2701 6.36409 77.189 6.34888 77.1484 6.34C77.1548 6.41225 77.1624 6.48323 77.1687 6.55548C77.0154 6.45281 76.8722 6.33747 76.7367 6.21325C76.6898 6.20311 76.5961 6.18537 76.5479 6.17523C76.6049 6.27663 76.6619 6.37549 76.7177 6.47816C76.6493 6.45281 76.5809 6.42746 76.5137 6.40338C76.4542 6.29944 76.3933 6.19551 76.3313 6.09284C76.2819 6.18283 76.2337 6.27283 76.1856 6.36282C76.0006 6.23607 75.7916 6.13974 75.6281 5.98511C75.4305 5.73034 75.3241 5.39952 75.0656 5.19546C74.7996 5.0497 74.4955 4.97998 74.2472 4.80127C74.0686 4.67072 73.8734 4.56678 73.6631 4.49834C73.3831 4.52242 73.1095 4.45017 72.8447 4.37032C72.7991 4.41215 72.756 4.45524 72.7142 4.49961C72.7434 4.53129 72.8004 4.59213 72.8295 4.62382C72.7522 4.71001 72.6737 4.7962 72.5913 4.87732C72.6357 4.81648 72.6825 4.75691 72.7282 4.69733C72.6977 4.63903 72.6673 4.58072 72.6369 4.52242C72.5292 4.46792 72.4165 4.41975 72.305 4.37286C72.5419 4.3437 72.7674 4.24991 72.9524 4.10035C72.5939 3.98247 72.2125 3.99895 71.8413 4.01923L71.8438 4.01542Z" fill="#EC008C"/>
<path fill-rule="evenodd" clip-rule="evenodd" d="M70.2551 4.29047C70.6453 4.12189 71.0824 4.12949 71.4891 4.02303C71.4853 4.02936 71.4764 4.04077 71.4726 4.04711C71.4257 4.08006 71.3751 4.10541 71.3206 4.12316L71.3016 4.1295C71.3789 4.16498 71.4574 4.20047 71.536 4.23596C71.2813 4.29173 71.0229 4.27779 70.7657 4.27779C70.5072 4.33356 70.2576 4.43369 69.9878 4.43496C70.0752 4.38553 70.1639 4.33736 70.2538 4.29047H70.2551Z" fill="#EC008C"/>
<path fill-rule="evenodd" clip-rule="evenodd" d="M70.7593 4.45524C70.9759 4.42989 71.2749 4.28666 71.4181 4.53256C71.6575 4.66184 71.9552 4.63142 72.2074 4.54143C72.2036 4.60607 72.1947 4.73409 72.1909 4.79873C72.068 4.73409 71.94 4.67832 71.802 4.73282C71.4573 4.67832 71.1127 4.6048 70.7618 4.60987L70.7669 4.58579C70.8834 4.57312 71 4.56171 71.1165 4.54523C71.0013 4.4996 70.8809 4.47172 70.7593 4.45397V4.45524Z" fill="#EC008C"/>
<path fill-rule="evenodd" clip-rule="evenodd" d="M73.2832 4.57057C73.4897 4.6162 73.714 4.59846 73.904 4.70112C73.8597 4.70239 73.7722 4.70493 73.7292 4.70493C73.7836 4.77844 73.8368 4.85195 73.8901 4.92674C73.738 4.88871 73.5898 4.83928 73.4416 4.78858C73.2579 4.91279 73.3161 4.66563 73.2845 4.57057H73.2832Z" fill="#EC008C"/>
<path fill-rule="evenodd" clip-rule="evenodd" d="M72.3366 4.6441C72.4329 4.62002 72.4658 4.65551 72.4367 4.74676C72.3391 4.77085 72.3062 4.73536 72.3366 4.6441Z" fill="#EC008C"/>
<path fill-rule="evenodd" clip-rule="evenodd" d="M72.9208 4.69859C73.0171 4.66817 73.0488 4.69859 73.0146 4.79239C72.9183 4.82408 72.8866 4.79239 72.9208 4.69859Z" fill="#EC008C"/>
<path fill-rule="evenodd" clip-rule="evenodd" d="M69.1011 5.09785C69.4077 4.8735 69.7953 4.85195 70.1526 4.94702C70.2388 5.03954 70.3477 5.12193 70.482 5.09785C70.724 5.06362 70.9495 5.16376 71.1826 5.20812C71.3372 5.23981 71.4829 5.16376 71.626 5.11559C71.6197 5.14601 71.607 5.20558 71.6007 5.236C71.659 5.23474 71.7781 5.23093 71.8364 5.22967C71.6869 5.33106 71.7553 5.50725 71.7084 5.65047C71.6298 5.71258 71.5374 5.75187 71.4512 5.79877C71.4753 5.87989 71.4994 5.96228 71.526 6.0434C71.4322 6.08142 71.3397 6.12198 71.2472 6.16507C71.251 6.13339 71.2586 6.07255 71.2624 6.04213C71.1674 6.07508 71.0699 6.10297 70.9698 6.0979C70.9799 6.15747 70.9989 6.27788 71.0103 6.33745C70.9394 6.27281 70.8697 6.20817 70.8013 6.14226C70.6467 6.09536 70.4871 6.06241 70.3249 6.07128C70.3059 6.06241 70.2679 6.0434 70.2476 6.03452C70.1298 6.06494 70.0145 6.03072 69.903 6.0003C69.898 5.93693 69.8967 5.87355 69.8866 5.81144C69.7219 5.87735 69.561 5.9534 69.3887 5.99523C69.5154 5.93693 69.6306 5.85834 69.5648 5.69737C69.4672 5.77595 69.3722 5.86088 69.267 5.92805C69.21 5.80637 69.2898 5.69737 69.3355 5.58837C69.3177 5.55541 69.281 5.49077 69.2632 5.45781C69.319 5.3881 69.3697 5.31205 69.4077 5.23093C69.305 5.18657 69.2024 5.14094 69.1011 5.09658V5.09785Z" fill="#EC008C"/>
<path fill-rule="evenodd" clip-rule="evenodd" d="M73.7366 4.96096C73.9127 4.95716 74.0938 4.94068 74.2661 4.99518C74.2281 5.10292 74.0837 5.09785 73.9976 5.14982C73.9101 5.08644 73.8227 5.02434 73.7366 4.96096Z" fill="#EC008C"/>
<path fill-rule="evenodd" clip-rule="evenodd" d="M72.0756 5.07885C72.1731 5.06998 72.2707 5.0611 72.3695 5.05096L72.3594 5.06617C72.2986 5.12448 72.2656 5.19799 72.2631 5.28545C72.2086 5.34883 72.1554 5.41093 72.1009 5.47177C72.22 5.46924 72.3416 5.46797 72.462 5.4705C72.2821 5.5681 72.0895 5.64162 71.8906 5.68851C71.8995 5.63021 71.9172 5.5136 71.9261 5.45529C71.978 5.40966 72.0313 5.36277 72.0832 5.31841C72.0794 5.23855 72.0781 5.1587 72.0756 5.07885Z" fill="#EC008C"/>
<path fill-rule="evenodd" clip-rule="evenodd" d="M72.3962 5.30192C72.4431 5.25756 72.49 5.21447 72.5369 5.1701C72.5711 5.25376 72.6053 5.33615 72.6382 5.4198C72.5546 5.38558 72.4748 5.34375 72.3962 5.30192Z" fill="#EC008C"/>
<path fill-rule="evenodd" clip-rule="evenodd" d="M68.2548 6.25761C68.3092 6.12832 68.4537 6.09156 68.5765 6.05861C68.5613 6.1448 68.5449 6.23226 68.5297 6.31718C68.4676 6.36154 68.4068 6.4059 68.346 6.45026C68.3092 6.38816 68.2421 6.33619 68.2535 6.25634L68.2548 6.25761Z" fill="#EC008C"/>
<path fill-rule="evenodd" clip-rule="evenodd" d="M76.5024 6.64546C76.6519 6.68475 76.771 6.78489 76.8951 6.87361C76.8166 6.94205 76.738 7.01177 76.6582 7.07894C76.7342 7.12204 76.8178 7.1588 76.8875 7.21457C76.8989 7.30456 76.9065 7.39455 76.9129 7.48454C76.9547 7.43764 76.9977 7.39075 77.0421 7.34512C77.089 7.34892 77.1852 7.35779 77.2321 7.36159C77.2841 7.60242 77.431 7.80141 77.5387 8.01815C77.5526 8.1956 77.5412 8.37432 77.5501 8.55177C77.6375 8.66077 77.7211 8.77104 77.8022 8.88385C77.8288 8.87751 77.882 8.86484 77.9087 8.8585C78.2342 9.1589 78.3774 9.58224 78.5535 9.9777C78.271 9.78757 77.9302 9.61773 77.7959 9.28184C77.6287 8.89653 77.5184 8.4415 77.1548 8.18927C77.2068 8.36038 77.2942 8.51501 77.3791 8.66965C77.3373 8.64049 77.2537 8.58219 77.2118 8.55304C77.089 8.82428 77.2904 9.07651 77.4285 9.29705C77.3221 9.36677 77.2055 9.43394 77.17 9.56576C77.1118 9.71533 76.9813 9.8256 76.9255 9.97516C76.9509 10.344 77.0294 10.7103 76.98 11.0817C77.1194 11.1032 77.2651 11.159 77.3981 11.0855C77.3791 11.0373 77.3411 10.9423 77.3221 10.8941C77.4462 10.908 77.5907 10.927 77.6565 11.0513C77.7566 11.2617 77.8732 11.4645 77.9707 11.6761C78.0493 12.1122 78.1114 12.5786 77.9923 13.0121C77.9644 13.1477 77.8174 13.1109 77.7173 13.1223C77.6857 13.0412 77.5894 12.9271 77.6755 12.8486C77.8516 12.6927 77.7047 12.443 77.6755 12.2554C77.6755 12.4113 77.6958 12.5672 77.7199 12.7218C77.5184 12.8004 77.6274 13.0197 77.6755 13.1642C77.7034 13.495 77.298 13.6978 77.3221 14.0337C77.355 13.9475 77.3867 13.8613 77.4158 13.7738C77.4526 13.7624 77.526 13.7409 77.5628 13.7307C77.5653 13.6724 77.5716 13.5546 77.5742 13.4963C77.6464 13.5381 77.7034 13.5964 77.744 13.6724C77.6793 13.8093 77.6236 13.9513 77.5767 14.0945C77.6122 14.1148 77.6844 14.1515 77.7199 14.1706C77.6553 14.2884 77.5564 14.3835 77.4602 14.4748C77.426 14.3543 77.4298 14.1883 77.2651 14.1794C77.2765 14.1338 77.298 14.0425 77.3081 13.9956C77.2068 14.182 77.1004 14.367 76.9471 14.5166C76.9547 14.4152 76.9635 14.3151 76.9724 14.2149C76.7304 14.2099 76.7203 14.5191 76.6113 14.6763C76.5378 14.7498 76.3643 14.8335 76.5049 14.9349C76.553 14.9349 76.6506 14.9336 76.7 14.9323C76.7101 14.9678 76.7317 15.0388 76.7418 15.0755C76.8166 15.0058 76.8799 14.926 76.9357 14.8398C76.9863 14.8335 77.0864 14.8195 77.1358 14.8132C76.9863 14.9906 76.8837 15.1998 76.8343 15.4266C76.8799 15.4317 76.9711 15.4406 77.018 15.4457C77.0991 15.5382 77.184 15.6269 77.2739 15.7118C77.2258 15.727 77.1295 15.7575 77.0801 15.7727C77.1472 15.7803 77.2803 15.7942 77.3474 15.8006C77.2866 15.8905 77.2258 15.9818 77.165 16.0731C77.241 16.0414 77.3183 16.0097 77.3943 15.9793C77.3753 16.2987 77.222 16.5851 77.1219 16.8843C76.9623 17.1644 76.7634 17.5066 76.4074 17.5421C76.3149 17.7614 76.0805 17.8476 75.8955 17.9692C75.9183 18.0136 75.9639 18.1036 75.988 18.1479C75.988 18.1733 75.9855 18.2227 75.9855 18.2481C75.9386 18.2912 75.8917 18.3355 75.8474 18.3799C75.8056 18.3812 75.7232 18.3837 75.6814 18.3837C75.7384 18.2722 75.8385 18.1961 75.9449 18.1327C75.9247 18.0858 75.8816 17.9908 75.86 17.9439C75.6966 17.9768 75.5357 18.0263 75.3697 18.0326C75.3571 17.9984 75.333 17.9312 75.3216 17.897C75.2469 17.9008 75.1721 17.9059 75.0986 17.9109C74.9162 18.0605 74.6539 18.0605 74.4842 18.2253C74.4132 18.3241 74.2903 18.3013 74.1852 18.3127C74.1408 18.224 74.094 18.1353 74.0483 18.0478C73.9913 18.0415 73.8773 18.0275 73.8203 18.0199C73.8748 17.9388 73.9305 17.8577 73.9875 17.7778C73.985 17.6866 73.9837 17.5979 73.9837 17.5066C73.9166 17.461 73.8494 17.4166 73.7836 17.371C73.6556 17.5028 73.61 17.2987 73.5099 17.262C73.3604 17.2594 73.2134 17.3127 73.0931 17.4001C73.2299 17.371 73.3655 17.338 73.5036 17.3101C73.5492 17.3849 73.6075 17.4496 73.6746 17.5053C73.572 17.5725 73.4694 17.6409 73.368 17.7107C73.3021 17.8653 73.2717 18.0732 73.0868 18.1302C73.0183 18.2557 72.955 18.385 72.9018 18.5181C72.8625 18.442 72.8245 18.366 72.7852 18.2912C72.8245 18.2823 72.9031 18.2671 72.9436 18.2595C72.8942 18.1986 72.8486 18.1365 72.7865 18.0896C72.6661 18.1543 72.5863 18.2646 72.542 18.3926C72.3988 18.3951 72.2557 18.39 72.1163 18.4255C71.9858 18.461 71.9364 18.6068 71.8198 18.6613C71.4714 18.8121 71.1598 19.0567 70.7721 19.1049C70.7645 19.2836 70.7417 19.4611 70.6897 19.6334C70.5681 19.6905 70.4465 19.7513 70.3274 19.8147C70.0386 19.5181 69.8523 19.1417 69.6686 18.7754C69.5521 18.5333 69.6015 18.2582 69.5787 18.0009C69.5571 17.9832 69.514 17.9464 69.4925 17.9287C69.4824 18.063 69.4064 18.1403 69.2708 18.0934C69.1682 18.0339 69.0998 17.9325 69.0199 17.8488C69.0782 17.8349 69.196 17.8083 69.2543 17.7956C69.1314 17.7525 69.0149 17.6942 68.9072 17.6219C68.9528 17.5941 69.0428 17.5357 69.0871 17.5066C68.9921 17.5015 68.8971 17.4977 68.8033 17.4927C68.7552 17.3862 68.7058 17.281 68.6551 17.1758C68.427 17.1111 68.199 17.0351 67.9887 16.9235C67.9849 16.8931 67.9773 16.8348 67.9735 16.8057C67.9469 16.8171 67.8937 16.8412 67.8671 16.8526C67.6656 16.7182 67.3869 16.6054 67.3514 16.3354C67.3425 16.1821 67.1525 16.2163 67.0486 16.1745C66.8801 15.9615 66.699 15.7359 66.6812 15.4545C66.6698 15.2961 66.5609 15.1757 66.4734 15.0527C66.4899 14.8018 66.4304 14.5584 66.3582 14.3214C66.4164 14.2669 66.476 14.2124 66.5343 14.1566C66.5026 13.9994 66.4823 13.841 66.4671 13.6813C66.2327 13.5368 65.9996 13.3746 65.84 13.1464C65.7462 13.0083 65.6284 12.8891 65.4852 12.8055C65.4662 12.661 65.4586 12.4975 65.299 12.4404C65.2382 12.1667 65.3395 11.9094 65.427 11.6546C65.5334 11.8675 65.7526 11.9664 65.9439 12.0843C66.1086 12.2807 66.0769 12.5913 66.2809 12.7649C66.3886 12.8739 66.5786 12.917 66.6077 13.0881C66.5862 13.2846 66.514 13.4696 66.481 13.6648C66.5254 13.5761 66.5621 13.4823 66.5925 13.3872C66.6267 13.4861 66.6622 13.5875 66.699 13.6851C66.7522 13.6851 66.8599 13.6826 66.9131 13.6813C66.9169 13.8207 66.9169 13.9614 66.9143 14.1034C67.0055 14.3569 67.174 14.5812 67.4604 14.618C67.4819 14.3784 67.5364 14.1401 67.5123 13.8993C67.5541 13.9373 67.5972 13.9754 67.6403 14.0134C67.7606 13.9855 67.8721 14.0324 67.9785 14.0844C68.0951 14.0501 68.2129 14.0235 68.332 14.0032C68.3459 14.1579 68.3447 14.3277 68.4916 14.4203C68.5208 14.4786 68.5512 14.5369 68.5816 14.5952C68.5803 14.5445 68.5778 14.4431 68.5765 14.3924C68.5373 14.3696 68.4587 14.3239 68.4194 14.3011C68.441 14.149 68.3611 14.0223 68.2712 13.9095C68.1534 13.9564 68.0343 14.002 67.9152 14.0463C67.9317 13.9703 67.9633 13.8169 67.9798 13.7409C67.957 13.7941 67.9127 13.898 67.8899 13.95L67.8442 13.9462C67.8468 13.7966 67.7492 13.7003 67.6276 13.6344C67.5845 13.4582 67.5529 13.2795 67.5186 13.1021C67.5706 13.2161 67.6403 13.1452 67.7112 13.0856C67.748 13.1033 67.8202 13.1388 67.8569 13.1578C67.9038 13.0704 67.9519 12.9842 68.0001 12.8967C67.9342 12.8372 67.8683 12.7776 67.8037 12.718C67.7695 12.7142 67.7366 12.7104 67.7024 12.7066H67.5199C67.5199 12.7066 67.5174 12.7142 67.5161 12.718C67.4705 12.7142 67.378 12.7066 67.3324 12.7028C67.2843 12.7421 67.2374 12.7814 67.1892 12.8194C67.1538 13.026 67.1246 13.2339 67.0968 13.4418C66.9574 13.2225 66.9207 12.9538 66.7572 12.7459C66.5951 12.5317 66.5254 12.2719 66.4886 12.0095C66.6179 11.9423 66.7737 11.8967 66.8573 11.7674C66.8941 11.7687 66.9688 11.7712 67.0055 11.7725C66.9637 11.7484 66.8789 11.7002 66.8358 11.6761C66.8054 11.6875 66.7458 11.7104 66.7154 11.7218C66.6166 11.6736 66.5165 11.6254 66.4164 11.5773C66.4063 11.666 66.3974 11.7535 66.3886 11.8422C66.3341 11.8206 66.2796 11.7978 66.2251 11.7775C66.2543 11.6939 66.2783 11.6052 66.3341 11.5342C66.3417 11.4378 66.3467 11.3402 66.3518 11.2439C66.2391 11.2338 66.1276 11.2249 66.0161 11.2097C66.0807 11.1489 66.1554 11.1413 66.2429 11.1843C66.2492 11.0753 66.2492 10.9651 66.2479 10.8561L66.3683 10.8878C66.2935 10.6609 66.0858 10.4999 66.0642 10.2527C66.182 10.2185 66.3011 10.183 66.4202 10.1501C66.4646 10.1032 66.5076 10.0575 66.5533 10.0119C66.6103 10.1957 66.6622 10.3808 66.7154 10.5658C66.7572 10.5658 66.8421 10.5671 66.8839 10.5683C66.9055 10.6026 66.9498 10.671 66.9713 10.7052C66.8649 10.9917 66.946 11.2883 67.0841 11.5469C67.0486 11.5912 66.9789 11.6799 66.9435 11.7243C67.0131 11.6749 67.0816 11.6229 67.1512 11.5722C67.0575 11.3529 66.9308 11.126 66.9878 10.8789C67.0233 10.7521 66.9916 10.6279 66.9523 10.5062C66.9903 10.4923 67.0676 10.4657 67.1069 10.4517C67.1981 10.235 67.3159 10.0145 67.2741 9.7711C67.4135 9.59491 67.5795 9.31353 67.8468 9.42634C67.8506 9.38198 67.8582 9.29452 67.862 9.25142C67.995 9.23241 68.1306 9.22988 68.2598 9.18805C68.4131 8.95737 68.6082 8.7609 68.8109 8.57332C68.8464 8.55811 68.9186 8.52769 68.9553 8.51374C68.9693 8.47445 68.9984 8.3946 69.0123 8.35404C69.0909 8.3477 69.1707 8.3401 69.2505 8.33376C69.3139 8.57585 69.433 8.88005 69.2556 9.09806C68.9617 9.23241 68.9655 8.83695 68.9186 8.6557C68.8831 8.74316 68.8502 8.83188 68.8147 8.91934C68.6817 9.03849 68.5208 9.27297 68.7387 9.40099C68.759 9.31987 68.7805 9.23748 68.7995 9.15636C68.8172 9.2134 68.8514 9.33001 68.8692 9.38705C68.9832 9.2717 69.2708 9.09932 69.2936 9.37817C69.4089 9.23748 69.5254 9.09172 69.6927 9.0106C69.6433 9.16143 69.4279 9.18171 69.4773 9.37691C69.68 9.31607 69.9283 9.21086 70.0968 9.40099C70.24 9.4162 70.387 9.43521 70.4845 9.55309C70.5174 9.50366 70.5833 9.40226 70.6175 9.35156C70.5833 9.29452 70.5491 9.23875 70.5149 9.18298C70.6834 9.36677 70.857 9.55055 70.9735 9.77236C70.9976 9.75462 71.0432 9.71659 71.0673 9.69758C71.0267 9.54802 71.0407 9.39465 71.1002 9.25142C71.2244 9.15509 71.3257 8.99793 71.5044 9.0068C71.4005 9.25269 71.3321 9.50999 71.2877 9.77236C71.2776 9.90038 71.1699 9.98403 71.0977 10.0791C71.0369 10.0664 70.9178 10.0411 70.8595 10.0284C70.9305 10.1082 71.0166 10.1729 71.104 10.235C71.3143 10.1273 71.3764 9.88137 71.5551 9.74955C71.5551 9.81292 71.5525 9.94094 71.5513 10.0043C71.5893 10.0385 71.6273 10.0728 71.6665 10.107C71.6526 9.92066 71.6729 9.67096 71.4144 9.67223C71.4588 9.5176 71.5006 9.3617 71.5424 9.20579C71.5779 9.35156 71.7045 9.42507 71.8287 9.48971C71.7907 9.41873 71.7502 9.34775 71.7122 9.27677C71.8287 9.19185 71.9288 9.25142 72.0162 9.34142C72.0048 9.44662 71.9972 9.55309 71.9921 9.65829C72.2443 9.5214 72.0301 9.20833 71.9592 9.01947C72.0175 9.01187 72.1353 8.99793 72.1936 8.99159C72.2227 9.01947 72.2835 9.07524 72.3139 9.10313C72.3519 8.98272 72.3519 8.84202 72.4254 8.73682C72.5876 8.63035 72.784 8.60881 72.9715 8.57839C72.9816 8.55177 72.9993 8.496 73.0095 8.46938C73.0183 8.4022 73.0272 8.3363 73.0373 8.26912C73.1108 8.31855 73.1843 8.36925 73.2565 8.41995C73.3173 8.3984 73.3769 8.37686 73.4364 8.35658C73.4934 8.42629 73.5517 8.496 73.61 8.56444C73.5137 8.74316 73.4149 8.92188 73.3262 9.1044C73.4542 9.00933 73.5783 8.9092 73.7025 8.80907C73.7494 8.88258 73.7988 8.95737 73.8469 9.03215C73.8279 8.96244 73.8089 8.89399 73.7899 8.82428C73.8241 8.80907 73.8925 8.77865 73.9267 8.76217C74.0699 8.83822 74.2941 8.83315 74.3043 8.62402C74.3625 8.59993 74.4208 8.57712 74.4804 8.55304C74.5095 8.61641 74.5399 8.67979 74.5703 8.74443C74.6793 8.79006 74.787 8.83695 74.8959 8.88385C74.83 8.68612 75.0137 8.60247 75.1632 8.5505C75.1354 8.43896 75.034 8.32869 75.0796 8.20828C75.1493 8.21715 75.2887 8.23616 75.3583 8.24504C75.3431 8.20701 75.3127 8.13096 75.2963 8.09294C75.4154 8.09167 75.5357 8.08787 75.6548 8.07899C75.6903 7.97506 75.7359 7.87366 75.7916 7.77987C75.9399 7.83564 76.0932 7.88253 76.2452 7.92563C76.1793 7.85972 76.1096 7.79508 76.0437 7.73043C76.1223 7.61636 76.2097 7.50862 76.3047 7.40976C76.2312 7.38568 76.1565 7.36159 76.0843 7.33751C76.1223 7.12711 76.2579 6.9674 76.4289 6.84826C76.4859 6.8508 76.5999 6.8546 76.6557 6.85713C76.6025 6.78615 76.5505 6.71771 76.4998 6.64546H76.5024ZM74.6109 15.1262C74.6109 15.1262 74.6185 15.1262 74.6223 15.1237C74.7008 15.1072 74.6375 15.1047 74.7097 15.0908L74.7122 15.106C74.7857 15.0908 74.8845 15.087 74.9048 15.0337C74.9124 15.0134 74.9111 15.0084 74.9441 14.9932V15.002C74.9694 14.997 74.9694 14.9906 74.9783 14.9602C74.9871 14.9298 75.0061 14.9437 75.0302 14.9323C75.0416 14.9272 75.0467 14.9234 75.0606 14.9184C75.0695 14.9146 75.0834 14.912 75.091 14.9044C75.1088 14.8892 75.0872 14.8766 75.1189 14.8664C75.1366 14.8613 75.1354 14.8842 75.1835 14.8689C75.2202 14.8575 75.1974 14.8385 75.2646 14.8411L75.3279 14.8385C75.3419 14.8347 75.3406 14.8271 75.3482 14.8195C75.3647 14.8106 75.3761 14.8284 75.4002 14.8018L75.4141 14.7916C75.4141 14.7916 75.4154 14.7916 75.4154 14.7904C75.4154 14.7904 75.4217 14.7828 75.423 14.7815L75.4369 14.7612V14.7599C75.4445 14.7498 75.4445 14.7473 75.4584 14.7409C75.4622 14.7397 75.4648 14.7384 75.4698 14.7371C75.4952 14.727 75.4939 14.7168 75.5053 14.708C75.5243 14.694 75.5218 14.7067 75.5268 14.6839C75.5294 14.675 75.5294 14.6763 75.5357 14.6699C75.556 14.6497 75.5496 14.6471 75.5496 14.6205L75.5737 14.5584C75.5953 14.5204 75.6016 14.5356 75.6282 14.514L75.6548 14.4925C75.6662 14.4811 75.6649 14.4735 75.6814 14.4557C75.7004 14.4355 75.6814 14.3987 75.6586 14.3797C75.6497 14.3594 75.632 14.3404 75.6168 14.3353C75.6016 14.3303 75.5953 14.3328 75.5851 14.3201C75.5801 14.3138 75.5813 14.3138 75.5737 14.3087C75.5699 14.3062 75.5674 14.3036 75.5661 14.3011C75.5648 14.2808 75.5712 14.2808 75.5712 14.2491C75.5712 14.2314 75.5775 14.2137 75.5801 14.1972C75.5839 14.1668 75.6016 14.1414 75.6459 14.1363C75.6662 14.1338 75.6801 14.1452 75.6928 14.1566C75.7042 14.1655 75.7118 14.1668 75.7245 14.1706C75.7372 14.1756 75.7283 14.1744 75.746 14.1706C75.7828 14.1642 75.8005 14.1642 75.8347 14.1477C75.8562 14.1376 75.8676 14.1224 75.8841 14.0983L75.8904 14.0894C75.8968 14.0806 75.8993 14.0818 75.9019 14.0692C75.9044 14.0476 75.9031 14.0375 75.9221 14.0235C75.9361 14.0121 75.9386 13.9994 75.931 13.983C75.9259 13.9728 75.9221 13.9728 75.9171 13.964C75.931 13.9602 75.9234 13.964 75.9323 13.9551C75.9551 13.9627 75.9551 13.9614 75.9842 13.9538C76.0045 13.9487 76.0121 13.9424 76.0361 13.9373C76.0437 13.9158 76.0653 13.9196 76.0868 13.893L76.1071 13.855C76.1134 13.8435 76.1324 13.8296 76.135 13.8182C76.14 13.7966 76.1223 13.8093 76.1236 13.7814C76.1236 13.7738 76.1261 13.7688 76.1274 13.7624C76.1286 13.7472 76.1223 13.7307 76.1274 13.7193C76.1324 13.7092 76.1324 13.7193 76.1375 13.7016C76.14 13.6914 76.1375 13.6927 76.1426 13.6838L76.1476 13.6762C76.1476 13.6762 76.1514 13.6699 76.1527 13.6661C76.1793 13.661 76.2135 13.6737 76.2211 13.6484C76.2287 13.6243 76.2211 13.5989 76.2287 13.5774C76.2312 13.5774 76.2389 13.5812 76.2414 13.5824C76.2515 13.5875 76.2439 13.5862 76.2553 13.59C76.2718 13.5824 76.2959 13.5508 76.3035 13.5368C76.3136 13.5165 76.3237 13.5241 76.3402 13.5115C76.3427 13.5089 76.3478 13.5039 76.3478 13.5026C76.363 13.4886 76.3845 13.4963 76.382 13.4722C76.3947 13.4709 76.3985 13.4772 76.4074 13.4836C76.4264 13.5013 76.4745 13.4848 76.4998 13.4734C76.5112 13.4671 76.51 13.4658 76.5176 13.4582C76.5176 13.4582 76.5188 13.4582 76.5188 13.457L76.5226 13.4532C76.5315 13.4418 76.5277 13.4265 76.5214 13.4189C76.5112 13.4075 76.5163 13.4202 76.51 13.3999C76.5049 13.3834 76.51 13.3898 76.4986 13.3809C76.4935 13.3771 76.4897 13.3733 76.4859 13.3695V13.3657C76.4808 13.3492 76.4859 13.3556 76.4732 13.3467C76.4618 13.3378 76.453 13.3277 76.4403 13.3188L76.3263 13.2643C76.2946 13.2504 76.3136 13.244 76.2642 13.2415C76.2591 13.2415 76.2591 13.2415 76.2541 13.2415C76.2414 13.239 76.2515 13.2415 76.2439 13.2364C76.2388 13.2313 76.2363 13.2263 76.23 13.2212C76.2135 13.2085 76.1983 13.2161 76.1818 13.2212C76.1552 13.2275 76.1552 13.2149 76.1337 13.2351C76.1274 13.2415 76.1198 13.2428 76.1122 13.2491C76.0995 13.2592 76.1058 13.277 76.1033 13.2909L76.0906 13.3327C76.083 13.3302 76.0868 13.3315 76.0805 13.3277C76.0805 13.3277 76.0868 13.3264 76.0678 13.3226C76.0678 13.3226 76.0666 13.3226 76.0653 13.3226C76.045 13.3201 76.0133 13.3036 75.9842 13.3315C75.9475 13.367 75.9639 13.348 75.9386 13.3518C75.9171 13.3556 75.9057 13.3733 75.9082 13.3911C75.8904 13.3949 75.874 13.3834 75.8613 13.372C75.8613 13.353 75.8942 13.3416 75.8917 13.3201C75.8892 13.3023 75.8765 13.3099 75.8702 13.2846C75.8626 13.2567 75.8879 13.2542 75.8828 13.2263C75.8803 13.2098 75.8778 13.2161 75.8727 13.206C75.8664 13.1933 75.8727 13.1768 75.8752 13.1654C75.8828 13.1376 75.8816 13.0704 75.8854 13.0387C75.8854 13.0285 75.8854 13.0298 75.8841 13.0171C75.8841 13.0057 75.8854 13.0019 75.8854 12.9943C75.8854 12.9791 75.8727 12.9728 75.8613 12.9639C75.8613 12.9639 75.86 12.9639 75.8588 12.9626C75.8588 12.9449 75.8461 12.9386 75.8347 12.9297C75.8208 12.9183 75.8119 12.9221 75.7929 12.9284C75.7676 12.9373 75.7676 12.936 75.7524 12.95L75.7194 12.9791C75.6624 12.9893 75.6383 12.9512 75.5965 12.9576C75.5775 12.9614 75.556 12.9652 75.5382 12.9715C75.5078 12.9817 75.5091 12.9943 75.4825 13.0298C75.4711 13.045 75.4458 13.0843 75.4344 13.0932C75.4052 13.1173 75.4382 13.1515 75.4128 13.1718C75.3989 13.1832 75.3938 13.1895 75.3748 13.1946C75.3089 13.2098 75.3216 13.2402 75.295 13.2504C75.2785 13.2567 75.2735 13.2542 75.2621 13.2681C75.2456 13.2871 75.2101 13.2706 75.1962 13.3175L75.1936 13.3201L75.186 13.3239L75.1734 13.3289L74.6058 15.1262H74.6109ZM75.1784 13.3289C75.1721 13.3327 75.1696 13.3353 75.1658 13.3391C75.1632 13.3391 75.1582 13.3353 75.1569 13.3353C75.1569 13.3353 75.1556 13.3353 75.1544 13.3353C75.1455 13.3327 75.1468 13.3353 75.1366 13.3289L75.1316 13.3251C75.1088 13.3353 75.1202 13.3289 75.11 13.3442C75.105 13.3505 75.0936 13.3606 75.0809 13.3594C75.0708 13.3594 75.0695 13.353 75.0479 13.353C75.0264 13.353 75.0239 13.3606 75.0125 13.3594C75.0023 13.3594 74.996 13.3467 74.9403 13.3581C74.8896 13.3682 74.9086 13.3771 74.8642 13.3771C74.8478 13.3442 74.8592 13.3543 74.8224 13.3467C74.8186 13.3467 74.8148 13.3454 74.811 13.3442C74.811 13.3327 74.8123 13.3213 74.8098 13.3163L74.7996 13.3074C74.7946 13.3049 74.7908 13.3036 74.787 13.3023C74.787 13.2935 74.787 13.2858 74.7857 13.282C74.7857 13.282 74.7756 13.2732 74.7743 13.2732C74.7566 13.263 74.7477 13.2681 74.7312 13.2795L74.7021 13.2947C74.6957 13.2719 74.6869 13.2858 74.6704 13.2757C74.6666 13.2732 74.6603 13.2694 74.6552 13.2668C74.6413 13.258 74.6197 13.225 74.5817 13.2364C74.564 13.2415 74.5754 13.2415 74.5615 13.2491C74.5374 13.2618 74.5386 13.2466 74.5184 13.2453H74.469C74.469 13.2453 74.4538 13.2466 74.4462 13.2478C74.4436 13.2478 74.4373 13.2478 74.4348 13.2478C74.4208 13.2478 74.4335 13.2478 74.4208 13.2478C74.3968 13.2478 74.398 13.2592 74.3942 13.2732C74.3638 13.2795 74.3663 13.2808 74.3575 13.2985C74.3448 13.2998 74.3397 13.2884 74.3068 13.3163C74.2954 13.3264 74.3017 13.3378 74.2726 13.3454C74.2726 13.3454 74.2663 13.3467 74.2625 13.348C74.2574 13.3391 74.2574 13.3378 74.2409 13.3429C74.2295 13.3467 74.227 13.3492 74.2257 13.3581L74.2054 13.3619C74.1978 13.3505 74.208 13.3619 74.194 13.3543C74.1864 13.3492 74.1877 13.3505 74.1814 13.3454C74.1712 13.3378 74.1674 13.3365 74.1535 13.3327C74.1459 13.3378 74.1434 13.3416 74.1358 13.3454C74.1244 13.3404 74.132 13.3429 74.1256 13.3391C74.1155 13.3327 74.118 13.3353 74.1016 13.3327C74.0838 13.3289 74.0788 13.3302 74.0661 13.3188C74.0623 13.315 74.0623 13.315 74.0572 13.3112C74.0306 13.2935 74.0547 13.3061 74.0357 13.2681L74.0065 13.2085C73.9875 13.1743 74.023 13.135 73.9445 13.1261C73.9115 13.1223 73.9039 13.1211 73.89 13.1338C73.8798 13.1185 73.8634 13.1274 73.8482 13.1223C73.8342 13.1185 73.8228 13.1071 73.8102 13.1021C73.8013 13.0983 73.776 13.0907 73.7671 13.0919C73.7532 13.0932 73.7494 13.0983 73.7405 13.1008C73.7215 13.1046 73.743 13.1008 73.7139 13.0995C73.6923 13.0995 73.7037 13.0995 73.6746 13.0843C73.6341 13.0615 73.6328 13.0856 73.6075 13.0678C73.6024 13.064 73.6062 13.0653 73.5999 13.0628C73.5631 13.0412 73.5745 13.0374 73.5479 13.0488C73.5454 13.0564 73.5479 13.0716 73.5441 13.078C73.5441 13.0805 73.5378 13.0843 73.5365 13.0894C73.5289 13.1033 73.5416 13.1046 73.5264 13.1173C73.5061 13.1325 73.515 13.1198 73.5086 13.1414L73.5061 13.1477V13.149L73.5023 13.154C73.477 13.1591 73.4871 13.1667 73.4922 13.1895C73.4668 13.2073 73.4453 13.2022 73.4542 13.2402C73.4567 13.2542 73.4605 13.2694 73.4592 13.2795C73.4554 13.3011 73.4466 13.2846 73.4516 13.315C73.4656 13.3175 73.4732 13.3112 73.4757 13.3302C73.4757 13.3404 73.4757 13.3556 73.4808 13.3708C73.4871 13.3911 73.5036 13.3936 73.5327 13.4025C73.539 13.4354 73.5378 13.424 73.5302 13.4379L73.5188 13.476C73.515 13.4937 73.5188 13.4899 73.5036 13.5039C73.4985 13.5077 73.501 13.5051 73.4972 13.5102C73.4934 13.5153 73.4934 13.5191 73.4909 13.5254C73.4301 13.5381 73.4618 13.5419 73.4339 13.566C73.4263 13.5723 73.42 13.5748 73.4073 13.5774C73.3896 13.5584 73.3997 13.547 73.3655 13.547C73.3021 13.547 73.3465 13.5508 73.3211 13.5431C73.3123 13.5406 73.3161 13.5419 73.3034 13.5431V13.552C73.2882 13.5546 73.2895 13.5482 73.2793 13.5419C73.273 13.5381 73.2591 13.5343 73.2477 13.5343C73.221 13.5343 73.2122 13.5482 73.1932 13.566C73.1704 13.5482 73.1425 13.5533 73.1349 13.5533C73.126 13.5533 73.1298 13.5533 73.1235 13.5495C73.1172 13.5457 73.1121 13.5406 73.1032 13.5381C73.0766 13.533 73.0792 13.5533 73.0614 13.5229C73.0487 13.5026 73.0449 13.5089 73.0475 13.4772C73.05 13.4456 73.0589 13.4456 73.0095 13.4392L72.9841 13.4354C72.9563 13.4354 72.9525 13.4481 72.9246 13.4392C72.9018 13.4316 72.8891 13.424 72.8955 13.4557C72.8625 13.462 72.8815 13.4544 72.86 13.4532C72.8549 13.4316 72.86 13.4316 72.8625 13.4126C72.8486 13.4025 72.8359 13.3999 72.8182 13.4037C72.8207 13.4151 72.8207 13.4101 72.8182 13.4189C72.789 13.4088 72.7954 13.4075 72.7878 13.3987C72.7713 13.3809 72.7624 13.3949 72.7523 13.4037L72.7574 13.4278C72.7485 13.4278 72.7447 13.4278 72.7384 13.4278C72.7219 13.4227 72.7016 13.4303 72.6915 13.4405C72.6826 13.4494 72.6889 13.4418 72.6851 13.4494C72.6826 13.4532 72.6826 13.4557 72.6788 13.4582L72.6345 13.4848C72.6269 13.4886 72.6193 13.4925 72.6079 13.4963C72.5939 13.5001 72.5673 13.4963 72.5737 13.5267C72.5508 13.5267 72.5534 13.5153 72.5242 13.5216C72.5192 13.5355 72.5166 13.5457 72.5103 13.5584C72.5002 13.5584 72.4938 13.5533 72.485 13.5558C72.4672 13.5596 72.4761 13.5647 72.4736 13.571C72.4634 13.5977 72.4204 13.59 72.4242 13.6281C72.428 13.6623 72.4242 13.6369 72.4242 13.6623C72.3976 13.6572 72.4026 13.6686 72.3836 13.68C72.3697 13.6889 72.3443 13.6851 72.3481 13.7117C72.3241 13.7029 72.3127 13.6775 72.2557 13.7079C72.2455 13.713 72.2455 13.7117 72.2354 13.7358C72.2316 13.7447 72.2329 13.7447 72.2354 13.7561C72.2037 13.7637 72.2024 13.7802 72.2062 13.8017C72.1809 13.8195 72.1644 13.8334 72.1961 13.8524C72.2012 13.855 72.2024 13.855 72.21 13.8575C72.2189 13.86 72.2291 13.8512 72.2227 13.8752C72.2151 13.9095 72.243 13.9158 72.281 13.9323C72.2962 13.9386 72.3013 13.9411 72.3051 13.9602C72.3114 13.9918 72.3076 13.9754 72.3228 13.9931C72.3443 14.0172 72.3342 14.0007 72.357 14.0159C72.376 14.0286 72.3646 14.0299 72.3823 14.0311C72.4001 14.0324 72.409 14.0248 72.409 14.0096C72.4571 14.0261 72.4571 14.0578 72.4888 14.0578C72.4888 14.0476 72.4913 14.0476 72.4989 14.04C72.5014 14.0527 72.5052 14.0552 72.509 14.0717C72.5141 14.0717 72.5356 14.078 72.5394 14.0806C72.5483 14.0856 72.5661 14.1401 72.5661 14.1452C72.5673 14.1604 72.5585 14.168 72.5889 14.2022C72.5927 14.206 72.5952 14.2098 72.6003 14.2137L72.6142 14.2213C72.6281 14.2301 72.6294 14.2327 72.6345 14.2441C72.6446 14.2694 72.6459 14.2605 72.6497 14.277V14.2808C72.6471 14.3024 72.6535 14.2935 72.6395 14.3303C72.6319 14.3493 72.6319 14.3683 72.6269 14.3848C72.6383 14.3886 72.6332 14.3898 72.6459 14.3898C72.6522 14.4215 72.6509 14.4228 72.6383 14.4456C72.6332 14.4557 72.6307 14.4608 72.6256 14.4697C72.6129 14.4912 72.6142 14.4798 72.6079 14.5115C72.6079 14.5115 72.6079 14.5128 72.6079 14.514C72.599 14.5559 72.618 14.5483 72.6231 14.58C72.6256 14.5964 72.6218 14.5939 72.6319 14.6053C72.6535 14.6002 72.6573 14.5977 72.6712 14.6015L72.675 14.6028C72.6788 14.604 72.6788 14.6028 72.6813 14.6053C72.694 14.6104 72.6839 14.6104 72.7003 14.6142C72.7079 14.6154 72.7206 14.6154 72.7282 14.6154C72.7409 14.6167 72.7282 14.6129 72.7396 14.6218C72.7498 14.6307 72.7384 14.6256 72.7523 14.6294C72.7726 14.6319 72.8093 14.6154 72.8346 14.6243C72.8435 14.6269 72.8486 14.6307 72.8587 14.6307C72.8904 14.6307 72.884 14.6154 72.9081 14.6218C72.9829 14.6408 72.9917 14.6294 73.0728 14.6547L73.088 14.6649C73.0944 14.6699 73.0994 14.6712 73.107 14.6776L73.1628 14.7194C73.1881 14.7397 73.1843 14.7283 73.2033 14.7447C73.2147 14.7561 73.2134 14.7523 73.2489 14.7612H73.2578C73.2578 14.7612 73.2591 14.7637 73.2654 14.7637C73.2793 14.765 73.2869 14.7612 73.2958 14.7612C73.3249 14.7612 73.2869 14.803 73.3199 14.8157C73.3376 14.822 73.3338 14.8132 73.3465 14.8322C73.3794 14.8829 73.3503 14.8956 73.4111 14.9488C73.4098 14.964 73.4048 14.9526 73.4086 14.9703C73.4187 14.9703 73.463 15.0033 73.4668 15.0096C73.4706 15.016 73.477 15.0312 73.4909 15.0388L73.6011 15.0363C73.6214 15.0337 73.6442 15.0451 73.6721 15.0464C73.7037 15.0489 73.6873 15.0426 73.7291 15.0502L73.7836 15.0578C73.7975 15.0578 73.8089 15.0578 73.8241 15.0578C73.8393 15.0578 73.8634 15.0692 73.9027 15.0616C73.928 15.0565 73.928 15.0553 73.947 15.0477L74.0027 15.0223C74.0192 15.0134 74.0382 15.0299 74.0598 15.0261C74.0661 15.0185 74.0686 15.0147 74.0686 15.0033C74.1079 14.9957 74.0902 15.0033 74.1434 15.0058C74.1497 15.0058 74.1472 15.0058 74.151 15.0058C74.151 15.0058 74.1522 15.0058 74.1535 15.0058C74.1535 15.0058 74.1548 15.0058 74.156 15.0058C74.156 15.0058 74.1573 15.0058 74.1586 15.0058C74.1763 15.0084 74.1725 15.0058 74.1826 14.9957C74.2029 14.9957 74.2637 15.0008 74.2815 15.0147L74.3182 15.0413C74.3245 15.0464 74.3309 15.0477 74.3397 15.0502C74.3397 15.0502 74.3499 15.054 74.3511 15.054C74.3549 15.0565 74.3562 15.0616 74.36 15.0654C74.379 15.0616 74.436 15.0527 74.455 15.0565C74.493 15.0641 74.4867 15.0755 74.5082 15.0755C74.5158 15.0755 74.5222 15.073 74.5323 15.0743C74.5551 15.0755 74.5526 15.0971 74.5969 15.0908C74.5969 15.0908 74.6045 15.0908 74.6096 15.0895C74.6121 15.0895 74.6147 15.0895 74.6159 15.0882L74.6223 15.1262L75.1898 13.3289H75.1784Z" fill="#EC008C"/>
<path fill-rule="evenodd" clip-rule="evenodd" d="M70.473 6.93953C70.6276 6.87742 70.6402 7.17148 70.4705 7.14993C70.2994 7.16261 70.4565 7.01431 70.473 6.93953Z" fill="#EC008C"/>
<path fill-rule="evenodd" clip-rule="evenodd" d="M70.691 7.0612C70.8012 7.03332 70.838 7.07388 70.8012 7.18162C70.6897 7.20823 70.653 7.16894 70.691 7.0612Z" fill="#EC008C"/>
<path fill-rule="evenodd" clip-rule="evenodd" d="M66.4759 7.5175C66.4227 7.32104 66.6152 7.28301 66.7432 7.2133C66.7369 7.25259 66.7229 7.32991 66.7166 7.3692C66.6368 7.41864 66.5557 7.46807 66.4771 7.51623L66.4759 7.5175Z" fill="#EC008C"/>
<path fill-rule="evenodd" clip-rule="evenodd" d="M66.7738 7.48961C66.9081 7.40595 67.0424 7.32103 67.1805 7.24118C67.1298 7.3261 67.0791 7.41102 67.0297 7.49595C66.9739 7.49721 66.9182 7.49975 66.8637 7.50228C66.737 7.69114 66.5711 7.84831 66.4038 7.99914C66.3937 8.03336 66.3747 8.10307 66.3646 8.1373C66.3266 8.12716 66.2505 8.10561 66.2113 8.09547C66.2075 8.01688 66.2049 7.93703 66.2024 7.85845C66.3101 7.86732 66.3506 7.77353 66.3988 7.69621C66.4494 7.70635 66.5014 7.71776 66.5533 7.7279C66.6116 7.68353 66.6712 7.64044 66.7307 7.59608C66.7408 7.56946 66.7636 7.51496 66.775 7.48834L66.7738 7.48961Z" fill="#EC008C"/>
<path fill-rule="evenodd" clip-rule="evenodd" d="M67.0664 8.12842C67.1982 7.91042 67.4579 7.83183 67.6783 7.73804C67.7594 7.79381 67.8392 7.84831 67.9203 7.90408C67.7556 8.0435 67.5744 8.16138 67.3844 8.26278C67.2792 8.21715 67.1728 8.17152 67.0677 8.12969L67.0664 8.12842Z" fill="#EC008C"/>
<path fill-rule="evenodd" clip-rule="evenodd" d="M74.4651 7.9421C74.5728 7.9345 74.6666 7.88507 74.7477 7.81409C74.7122 7.90535 74.678 7.99787 74.645 8.0904C74.5842 8.04097 74.5234 7.99154 74.4639 7.9421H74.4651Z" fill="#EC008C"/>
<path fill-rule="evenodd" clip-rule="evenodd" d="M68.0076 7.88381C68.0899 7.82804 68.1381 7.84578 68.1545 7.93577C68.0709 7.99281 68.0228 7.97506 68.0076 7.88381Z" fill="#EC008C"/>
<path fill-rule="evenodd" clip-rule="evenodd" d="M68.0203 8.05618C68.2749 7.91802 68.5701 7.88887 68.8552 7.91041C68.8488 8.07012 68.7487 8.1918 68.6499 8.30714C68.7247 8.25644 68.7994 8.20574 68.8754 8.15631C68.9033 8.16898 68.9616 8.19433 68.9907 8.20574C69.0921 8.16391 69.1947 8.12335 69.2973 8.08533C69.182 8.22855 69.0237 8.32362 68.9008 8.45544C68.6449 8.6557 68.3953 8.87371 68.2394 9.1627C68.1115 9.1741 67.9848 9.18424 67.8568 9.19185C67.7796 9.13861 67.7023 9.08538 67.6263 9.03341C67.6326 8.98398 67.6453 8.88385 67.6516 8.83188C67.7568 8.75583 67.8543 8.66457 67.9759 8.61134C68.1216 8.59486 68.2699 8.60373 68.4168 8.58218C68.4954 8.50867 68.5448 8.40981 68.6056 8.32235C68.5296 8.32108 68.4536 8.31981 68.3788 8.31728C68.2952 8.3515 68.2116 8.38699 68.1292 8.41995C67.9265 8.31728 67.7225 8.38572 67.5553 8.51881C67.5249 8.58345 67.4945 8.64809 67.4628 8.71274C67.435 8.66711 67.4071 8.62021 67.3792 8.57585C67.2639 8.70513 67.1106 8.78879 66.9611 8.87244C66.913 8.85216 66.8167 8.81033 66.7686 8.78879C66.9485 8.61767 67.084 8.37432 67.3399 8.30841C67.5591 8.24123 67.7441 8.10434 67.9265 7.97125C67.9506 7.99153 67.9987 8.03463 68.0215 8.05491L68.0203 8.05618Z" fill="#EC008C"/>
<path fill-rule="evenodd" clip-rule="evenodd" d="M69.0099 7.95097C69.1138 7.87112 69.2557 8.0397 69.115 8.09927C68.9997 8.1994 68.8693 8.01688 69.0099 7.95097Z" fill="#EC008C"/>
<path fill-rule="evenodd" clip-rule="evenodd" d="M65.4561 8.20321C65.4979 8.13603 65.5423 8.06885 65.5853 8.00294C65.4941 8.33503 65.3357 8.6443 65.2597 8.98018C65.1444 9.02201 65.0279 9.06383 64.9126 9.10566C64.9202 8.7533 65.1343 8.45417 65.4333 8.28433C65.3801 8.2932 65.2737 8.31221 65.2205 8.32109C65.2559 8.28306 65.3269 8.20448 65.3624 8.16645C65.3852 8.17532 65.432 8.19434 65.4561 8.20448V8.20321Z" fill="#EC008C"/>
<path fill-rule="evenodd" clip-rule="evenodd" d="M65.9248 8.02449C65.9629 8.1411 65.9755 8.2932 66.1149 8.33629C66.1301 8.42248 66.1453 8.50867 66.1618 8.59486C66.1339 8.56317 66.0794 8.4998 66.0528 8.46811C65.9895 8.63415 65.9299 8.80273 65.878 8.97257C65.8007 8.98271 65.7234 8.99412 65.6461 9.00426C65.5625 9.10313 65.4776 9.20072 65.394 9.29959C65.432 9.28311 65.508 9.24889 65.546 9.23241C65.6005 9.35029 65.6626 9.46563 65.7247 9.58097C65.7804 9.55308 65.8374 9.52393 65.8932 9.49605C65.9198 9.58604 65.9476 9.67603 65.973 9.76729C65.845 9.81926 65.7183 9.87249 65.5916 9.92319C65.6322 9.837 65.6727 9.74955 65.7145 9.66336C65.6132 9.6849 65.4827 9.68364 65.432 9.79264C65.2952 10.0474 65.228 10.3326 65.1824 10.6165C65.1267 10.6697 65.0735 10.7242 65.0203 10.78C65.185 10.3605 65.2141 9.89531 65.4497 9.49985C65.3408 9.23368 65.2306 8.89652 65.4244 8.64176C65.6474 8.48839 65.8362 8.28433 65.9236 8.02449H65.9248Z" fill="#EC008C"/>
<path fill-rule="evenodd" clip-rule="evenodd" d="M71.047 8.37686C71.2282 8.32869 71.4183 8.33123 71.6045 8.32109C71.4069 8.46178 71.1395 8.40981 70.933 8.5353C70.7062 8.63036 70.4833 8.804 70.4921 9.07525C70.4643 9.04863 70.4377 9.02075 70.4098 8.99413C70.3971 8.91935 70.3844 8.84583 70.373 8.77232C70.61 8.65951 70.8089 8.48206 71.0483 8.37559L71.047 8.37686Z" fill="#EC008C"/>
<path fill-rule="evenodd" clip-rule="evenodd" d="M66.3149 8.37939C66.4555 8.32996 66.4606 8.54036 66.3289 8.54036C66.1832 8.5898 66.1832 8.3832 66.3149 8.37939Z" fill="#EC008C"/>
<path fill-rule="evenodd" clip-rule="evenodd" d="M66.7839 8.36545C66.8308 8.31855 67.0043 8.34897 66.9195 8.43389C66.846 8.54797 66.604 8.46178 66.7839 8.36545Z" fill="#EC008C"/>
<path fill-rule="evenodd" clip-rule="evenodd" d="M66.0933 8.69246C66.1858 8.62148 66.3049 8.59867 66.4113 8.55557C66.4404 8.58092 66.5012 8.62909 66.5304 8.65317C66.5456 8.73429 66.5621 8.81541 66.5785 8.89653C66.5494 8.93709 66.4911 9.01694 66.462 9.0575L66.5025 9.08538C66.5785 9.10947 66.6545 9.13228 66.7306 9.1551C66.7179 9.24636 66.7065 9.33761 66.6951 9.42887C66.7306 9.4124 66.8015 9.37944 66.837 9.3617C66.7952 9.51253 66.804 9.69758 66.6735 9.80785C66.5494 9.9308 66.4227 10.0512 66.2909 10.1653C66.2605 10.1311 66.1997 10.0614 66.1706 10.0259C66.1655 10.0728 66.1566 10.1678 66.1516 10.2147C66.0743 10.088 65.8741 9.9815 65.9362 9.81166C66.0882 9.76603 66.0984 9.96122 66.1528 10.0499C66.1592 9.84334 66.1693 9.63548 66.22 9.43394C66.2593 9.3148 66.3708 9.23368 66.4088 9.11327C66.3442 9.16397 66.2859 9.22101 66.2251 9.27551C66.1452 9.22227 66.0553 9.14242 65.9894 9.26157C66.035 9.2679 66.1262 9.28311 66.1731 9.28945C66.1402 9.46436 66.1579 9.66083 66.049 9.81166C65.9805 9.6659 66.0173 9.39338 65.7791 9.42887C65.7246 9.13355 65.9261 8.90794 66.092 8.69119L66.0933 8.69246Z" fill="#EC008C"/>
<path fill-rule="evenodd" clip-rule="evenodd" d="M64.6642 9.00934C64.6896 8.93075 64.7276 8.85597 64.7669 8.78372C64.7922 8.81161 64.8429 8.86864 64.8682 8.89653C64.8099 9.09172 64.7339 9.28438 64.6123 9.45042C64.6237 9.30339 64.6402 9.15636 64.6642 9.0106V9.00934Z" fill="#EC008C"/>
<path fill-rule="evenodd" clip-rule="evenodd" d="M65.6386 9.1044C65.7399 9.01694 65.8033 9.2058 65.7146 9.2565C65.6133 9.34142 65.5512 9.15636 65.6386 9.1044Z" fill="#EC008C"/>
<path fill-rule="evenodd" clip-rule="evenodd" d="M67.0625 9.23495C67.1157 9.21721 67.1676 9.20073 67.2208 9.18298C67.2056 9.26157 67.1891 9.34142 67.1752 9.42127C67.2259 9.40353 67.3272 9.36804 67.3779 9.35156C67.364 9.49859 67.3437 9.64942 67.255 9.77363C67.1347 9.75842 67.1777 9.59619 67.1309 9.5176C67.1258 9.57084 67.1157 9.67857 67.1093 9.73181C67.0067 9.75082 66.9041 9.76983 66.8027 9.78885C66.8395 9.62154 66.8914 9.45803 66.9573 9.30086C66.989 9.32874 67.0523 9.38705 67.084 9.4162C67.0789 9.35536 67.0713 9.29452 67.0625 9.23368V9.23495Z" fill="#EC008C"/>
<path fill-rule="evenodd" clip-rule="evenodd" d="M67.4374 9.1196C67.54 9.15636 67.6034 9.24255 67.6591 9.33254C67.5704 9.39591 67.4818 9.45929 67.3931 9.52266C67.407 9.38831 67.4209 9.25395 67.4387 9.1196H67.4374Z" fill="#EC008C"/>
<path fill-rule="evenodd" clip-rule="evenodd" d="M64.5679 9.6342C64.6249 9.53914 64.6908 9.44788 64.7668 9.36549C64.7592 9.66082 64.7985 9.97009 64.6883 10.2515C64.5679 10.3186 64.4894 10.4289 64.4552 10.5633C64.4362 10.6444 64.4146 10.7255 64.3956 10.8066C64.4476 10.7255 64.4995 10.6444 64.5502 10.5633C64.5426 10.6304 64.5274 10.7635 64.5198 10.832C64.483 10.8345 64.4096 10.8383 64.3728 10.8421C64.2601 11.0272 64.1878 11.235 64.122 11.4404C64.2145 11.3048 64.2816 11.1552 64.3449 11.0056C64.3792 10.9841 64.4488 10.941 64.483 10.9194C64.5172 11.3149 64.4349 11.7091 64.483 12.1045C64.5477 12.0475 64.6123 11.9892 64.6769 11.9309C64.7111 12.1159 64.7339 12.3023 64.7554 12.4886C64.6845 12.6229 64.6224 12.7611 64.5895 12.9094C64.6528 12.8042 64.7124 12.6965 64.777 12.5925C64.8023 12.9905 65.1051 13.2668 65.2242 13.6306C65.2749 13.7662 65.1608 13.8841 65.0962 13.9906C65.0823 13.8359 65.1 13.6737 65.0392 13.5267C64.9721 13.9665 65.0836 14.419 64.9683 14.8537C65.0063 14.9158 65.043 14.9767 65.081 15.0375C65.0557 15.2086 65.0341 15.3835 65.0886 15.5521C65.057 15.5699 64.9936 15.6054 64.9619 15.6231C64.9556 15.6789 64.9455 15.7904 64.9391 15.8449C64.9873 15.76 65.0379 15.6751 65.0899 15.5914C65.1342 15.7194 65.1646 15.8538 65.1862 15.9881C65.1342 15.9438 65.0303 15.855 64.9797 15.812C64.9949 15.85 65.024 15.9286 65.0379 15.9679C65.2508 16.1618 65.3471 16.4368 65.4548 16.6954C65.4497 16.7195 65.4383 16.7651 65.4332 16.7892C65.489 16.8843 65.5447 16.9793 65.6005 17.0731C65.793 17.2455 66.1478 17.3469 66.1212 17.6587C65.9552 17.5497 65.8336 17.3912 65.6853 17.2594C65.7728 17.3887 65.8665 17.5129 65.9527 17.6435C65.8462 17.5953 65.7424 17.5433 65.6359 17.4964C65.7487 17.6638 65.9451 17.679 66.1288 17.6878C66.1465 17.6384 66.182 17.5395 66.1997 17.4901C66.2694 17.5472 66.3353 17.6105 66.3948 17.679C66.3847 17.8006 66.2871 17.8704 66.1883 17.9198C66.0629 18.0149 65.9286 17.8805 65.8146 17.8298C65.6448 17.7525 65.5409 17.5966 65.4624 17.4356L65.6283 17.4698C65.5054 17.3215 65.3813 17.1758 65.2571 17.0287C65.0379 16.7626 64.9531 16.4191 64.7668 16.1339C64.7972 16.0148 64.8707 15.94 64.9847 15.9121C64.91 15.8804 64.8327 15.8525 64.7567 15.8272C64.7301 15.689 64.6984 15.5483 64.5907 15.4469C64.5223 15.6117 64.6857 15.7334 64.7466 15.869C64.7339 15.9704 64.7212 16.0718 64.7098 16.1732C64.6047 15.9488 64.5071 15.7194 64.4121 15.4913C64.4438 15.4862 64.5071 15.4773 64.5388 15.4723C64.3741 15.2378 64.3475 14.9425 64.1891 14.7067C64.1815 14.514 64.1638 14.3214 64.0903 14.1427C64.1258 14.1452 64.198 14.1515 64.2347 14.1541C64.2423 13.9956 64.2803 13.841 64.369 13.7092C64.5261 14.0654 64.6617 14.4456 64.9277 14.7384C64.7453 14.3695 64.5058 14.0235 64.3969 13.6243C64.421 13.3809 64.5426 13.1604 64.5971 12.9246C64.4336 13.1692 64.3918 13.4658 64.2981 13.7383C64.1714 13.3758 64.2157 12.9867 64.1182 12.6179C64.0916 12.2212 64.1207 11.8219 64.1017 11.4252C64.0903 11.4936 64.0675 11.6318 64.0574 11.7002L63.9775 11.7066C64.0193 10.9448 64.255 10.2122 64.4906 9.49224C64.5109 9.52773 64.5502 9.59998 64.5705 9.63674L64.5679 9.6342Z" fill="#EC008C"/>
<path fill-rule="evenodd" clip-rule="evenodd" d="M64.9709 9.97516C64.9443 9.88137 64.9785 9.84461 65.0735 9.86489C65.0988 9.95742 65.0646 9.99417 64.9709 9.97516Z" fill="#EC008C"/>
<path fill-rule="evenodd" clip-rule="evenodd" d="M66.5671 9.95362C66.633 9.90672 66.7002 9.85982 66.766 9.81293C66.9231 9.8218 67.0815 9.83067 67.2411 9.83828C67.2399 9.9701 67.2145 10.1019 67.1423 10.2147C67.122 10.2933 67.1043 10.3732 67.0866 10.453L66.9992 10.382C66.9409 10.4429 66.8813 10.5024 66.8231 10.5633C66.7128 10.3706 66.647 10.159 66.5684 9.95362H66.5671Z" fill="#EC008C"/>
<path fill-rule="evenodd" clip-rule="evenodd" d="M65.6992 10.126C65.7385 10.0347 65.7841 9.94601 65.8487 9.86996C65.8981 9.96756 65.9564 10.0614 66.0261 10.1488C66.0299 10.1932 66.0362 10.2819 66.0388 10.325C65.997 10.3288 65.9133 10.3364 65.8715 10.3402C66.0514 10.377 66.1173 10.5468 66.206 10.6837C66.1946 10.7623 66.1819 10.8421 66.1718 10.9207C66.1084 10.9942 66.0476 11.069 65.9855 11.1438C65.9767 11.1932 65.9589 11.2934 65.9501 11.3441C65.8513 11.2122 65.7195 11.0931 65.6701 10.9309C65.7043 10.742 65.7018 10.5164 65.8589 10.3808C65.812 10.3098 65.7651 10.2401 65.7182 10.1691C65.6295 10.306 65.5345 10.4391 65.418 10.5544C65.4395 10.434 65.4648 10.3149 65.4915 10.1957C65.5333 10.202 65.6156 10.2135 65.6561 10.2198C65.6219 10.1361 65.589 10.0525 65.5548 9.96883C65.5865 9.96756 65.6511 9.96376 65.6828 9.96249C65.6866 10.0031 65.6929 10.0842 65.6967 10.1247L65.6992 10.126Z" fill="#EC008C"/>
<path fill-rule="evenodd" clip-rule="evenodd" d="M64.6895 10.3123C64.7896 10.3579 64.673 10.6267 64.5603 10.5671C64.4982 10.4682 64.5983 10.3491 64.6895 10.3123Z" fill="#EC008C"/>
<path fill-rule="evenodd" clip-rule="evenodd" d="M65.356 10.6292C65.5549 10.6102 65.6309 10.3858 65.7677 10.2667C65.7208 10.4961 65.6448 10.7192 65.5536 10.9334C65.5181 10.9106 65.4472 10.8637 65.4117 10.8409C65.4472 10.813 65.5181 10.7559 65.5536 10.728C65.4877 10.6938 65.4218 10.6609 65.356 10.6292Z" fill="#EC008C"/>
<path fill-rule="evenodd" clip-rule="evenodd" d="M77.6287 10.7648C77.782 10.9232 77.9454 11.0728 78.1038 11.2274C78.1544 11.3415 78.1481 11.4733 78.1696 11.595C78.0543 11.3871 77.9175 11.1919 77.7452 11.0272C77.6654 10.9625 77.6515 10.8573 77.6287 10.7648Z" fill="#EC008C"/>
<path fill-rule="evenodd" clip-rule="evenodd" d="M65.4714 10.9866C65.6589 10.889 65.7235 11.1501 65.8185 11.2591C65.93 11.3669 65.7171 11.4049 65.6563 11.4632C65.5892 11.4201 65.5208 11.377 65.4536 11.3364C65.4561 11.2198 65.4574 11.1032 65.4714 10.9879V10.9866Z" fill="#EC008C"/>
<path fill-rule="evenodd" clip-rule="evenodd" d="M65.1595 11.1235C65.2115 11.1096 65.3141 11.0829 65.3648 11.0703C65.3863 11.1565 65.4091 11.2439 65.4319 11.3301C65.3965 11.3124 65.3255 11.2769 65.29 11.2591C65.2343 11.3225 65.1785 11.3846 65.1228 11.4467C65.1291 11.3377 65.1405 11.23 65.1595 11.1222V11.1235Z" fill="#EC008C"/>
<path fill-rule="evenodd" clip-rule="evenodd" d="M65.5183 11.5278C65.6107 11.4949 65.6437 11.5278 65.6183 11.6254C65.5259 11.6571 65.4929 11.6254 65.5183 11.5278Z" fill="#EC008C"/>
<path fill-rule="evenodd" clip-rule="evenodd" d="M63.9434 11.6559C64.1334 11.9867 64.0599 12.3656 64.0017 12.7205C64.0333 12.7396 64.0967 12.7763 64.1284 12.7953C64.136 13.0501 64.16 13.3049 64.2006 13.5571C64.2259 13.7358 64.2601 13.95 64.1132 14.0894C64.0485 14.0679 64.0067 14.021 63.9865 13.95C63.8408 13.1984 63.8192 12.4151 63.9421 11.6571L63.9434 11.6559Z" fill="#EC008C"/>
<path fill-rule="evenodd" clip-rule="evenodd" d="M78.4255 12.0272C78.5674 12.0361 78.7106 12.031 78.8525 12.0222C78.8234 12.083 78.7967 12.1426 78.7689 12.2034C78.7714 12.2414 78.7765 12.3175 78.7803 12.3555C78.6308 12.4075 78.5978 12.5494 78.6004 12.6901C78.5725 12.4607 78.5978 12.2085 78.4268 12.0272H78.4255Z" fill="#EC008C"/>
<path fill-rule="evenodd" clip-rule="evenodd" d="M66.9296 13.2782C66.7041 13.1654 66.4444 12.8828 66.6572 12.6382C66.7383 12.8562 66.9271 13.0336 66.9296 13.2782Z" fill="#EC008C"/>
<path fill-rule="evenodd" clip-rule="evenodd" d="M78.7208 12.7535C78.7563 12.756 78.826 12.7598 78.8602 12.7624C78.9805 12.9943 78.9716 13.2732 79.0641 13.5191C79.0122 13.6446 78.964 13.7726 78.9172 13.9006C78.8893 13.9158 78.831 13.9462 78.8031 13.9614C78.8057 14.0692 78.8069 14.1769 78.8082 14.2846C78.7727 14.2466 78.7043 14.168 78.6701 14.13C78.627 14.1883 78.5396 14.3062 78.4966 14.3658L78.6803 14.31C78.6308 14.4114 78.5827 14.5128 78.5346 14.6142H78.5156C78.5029 14.5648 78.4776 14.4684 78.4636 14.4203C78.2508 14.5838 78.4484 14.7815 78.4636 14.9805C78.4357 14.9843 78.3787 14.9906 78.3496 14.9932C78.3471 14.9475 78.342 14.8537 78.3395 14.8068C78.3103 14.8094 78.252 14.8145 78.2229 14.817C78.2786 14.5318 78.4091 14.258 78.6232 14.0565C78.7246 13.9893 78.7081 13.8664 78.7221 13.7624C78.7867 13.5888 78.8678 13.4113 78.8399 13.2212C78.8234 13.0602 78.7145 12.9196 78.7195 12.756L78.7208 12.7535Z" fill="#EC008C"/>
<path fill-rule="evenodd" clip-rule="evenodd" d="M66.6393 13.1185C66.6875 13.1832 66.7356 13.2478 66.7825 13.315C66.9016 13.3657 67.0207 13.4164 67.1385 13.4709C67.1423 13.5279 67.1512 13.642 67.155 13.6991C67.0967 13.7536 67.0384 13.8068 66.9814 13.8613C66.9738 13.8157 66.9573 13.7231 66.9484 13.6775C66.7698 13.5546 66.6038 13.348 66.6381 13.1198L66.6393 13.1185Z" fill="#EC008C"/>
<path fill-rule="evenodd" clip-rule="evenodd" d="M65.6207 13.1921C65.883 13.1287 65.9679 13.4303 66.168 13.5343C66.0996 13.6141 66.0388 13.7003 65.9641 13.7738C65.8044 13.7852 65.6461 13.7371 65.5042 13.6648C65.38 13.5951 65.5384 13.495 65.5916 13.4405C65.6017 13.3568 65.6106 13.2744 65.6207 13.1921Z" fill="#EC008C"/>
<path fill-rule="evenodd" clip-rule="evenodd" d="M65.9919 13.8004C66.0692 13.732 66.1275 13.6395 66.22 13.5888C66.4315 13.675 66.4328 13.9297 66.4797 14.1173C66.4227 14.182 66.3657 14.2466 66.3099 14.3125C66.3707 14.5825 66.5152 14.8842 66.3378 15.1427C65.9856 14.9868 65.978 14.58 65.8488 14.2707C65.788 14.1275 65.7411 13.9817 65.7246 13.8271C65.8133 13.8233 65.9032 13.8144 65.9919 13.7992V13.8004Z" fill="#EC008C"/>
<path fill-rule="evenodd" clip-rule="evenodd" d="M65.2572 13.9728C65.2319 13.8448 65.3117 13.7371 65.4054 13.6598C65.527 13.7206 65.7184 13.7472 65.712 13.9234C65.617 13.8917 65.5245 13.8575 65.4308 13.8245C65.4447 13.879 65.4713 13.9868 65.484 14.04C65.427 14.0235 65.3142 13.9893 65.2572 13.9728Z" fill="#EC008C"/>
<path fill-rule="evenodd" clip-rule="evenodd" d="M65.5016 13.8803C65.8171 14.0375 65.8361 14.4253 65.945 14.7181C65.9856 14.9247 66.1401 15.0743 66.296 15.2036C66.4797 15.6206 66.4556 16.101 66.69 16.4964C66.8015 16.6637 67.1537 16.7753 66.9687 17.0161C66.5747 17.063 66.353 16.6092 65.9704 16.6346C65.8297 16.4597 65.6815 16.2873 65.4965 16.158C65.4193 15.812 65.2647 15.4786 65.2799 15.1186C65.228 14.7397 65.1937 14.3582 65.1697 13.9766C65.2837 14.0197 65.4003 14.0616 65.5155 14.1034C65.5117 14.0476 65.5041 13.9361 65.5003 13.8803H65.5016Z" fill="#EC008C"/>
<path fill-rule="evenodd" clip-rule="evenodd" d="M77.6274 14.3505C77.6794 14.2986 77.7339 14.2504 77.7909 14.2035C77.9682 14.2453 77.9923 14.4418 78.0519 14.5825C77.9581 14.6763 77.8656 14.7701 77.7719 14.8651C77.7377 14.6902 77.6933 14.5166 77.6274 14.3505Z" fill="#EC008C"/>
<path fill-rule="evenodd" clip-rule="evenodd" d="M65.5384 16.2518C65.7005 16.3836 65.8373 16.542 65.9729 16.7017C66.2947 16.6472 66.6089 16.9502 66.6266 17.2696C66.2782 17.2721 65.9856 17.0414 65.7081 16.8576C65.4953 16.736 65.5409 16.4559 65.5384 16.2518Z" fill="#EC008C"/>
<path fill-rule="evenodd" clip-rule="evenodd" d="M66.6509 16.3468C66.7396 16.3899 66.827 16.4343 66.9157 16.4812C66.9815 16.4635 67.1133 16.4292 67.1792 16.4115C67.1234 16.5116 67.069 16.6118 67.0132 16.7119C66.8675 16.6168 66.7307 16.5053 66.6509 16.3468Z" fill="#EC008C"/>
<path fill-rule="evenodd" clip-rule="evenodd" d="M67.0182 16.7258C67.0764 16.6865 67.1372 16.6485 67.1968 16.6092C67.3311 16.8082 67.5224 16.9679 67.6047 17.1999C67.3526 17.2658 67.1144 17.4635 66.8433 17.3659C66.6647 17.3279 66.6305 17.1339 66.5874 16.9882C66.6951 17.0173 66.8028 17.0503 66.913 17.0668C67.0093 17.0541 67.0384 16.9438 67.098 16.8817C67.0777 16.8424 67.0384 16.7651 67.0182 16.7258Z" fill="#EC008C"/>
<path fill-rule="evenodd" clip-rule="evenodd" d="M77.45 17.1479C77.2701 17.0097 77.4437 16.8006 77.5413 16.6662C77.54 16.831 77.5159 16.9958 77.45 17.1479Z" fill="#EC008C"/>
<path fill-rule="evenodd" clip-rule="evenodd" d="M65.2748 17.1707C65.366 17.1289 65.48 17.3456 65.3622 17.3558C65.2837 17.3114 65.2545 17.2506 65.2748 17.1707Z" fill="#EC008C"/>
<path fill-rule="evenodd" clip-rule="evenodd" d="M73.3819 17.8298C73.4566 17.6371 73.7062 17.608 73.8076 17.4267C73.9862 17.5484 73.9761 17.7702 73.8253 17.9084C73.8177 17.9489 73.8012 18.0275 73.7924 18.0668C73.9609 18.0529 74.0559 18.1632 74.1154 18.3064C74.194 18.3419 74.2738 18.3774 74.3549 18.4129C74.1458 18.5358 73.8975 18.6169 73.7506 18.8222C73.8367 18.9034 73.9229 18.9858 74.009 19.0669C73.9786 19.1239 73.9482 19.181 73.9153 19.2367C73.8684 19.1391 73.8152 19.0466 73.7518 18.9579C73.6239 19.0555 73.4908 19.167 73.3173 19.1467C73.3515 18.8818 73.1817 18.6549 72.9321 18.5802C73.0195 18.2886 73.2818 18.1112 73.3806 17.8285L73.3819 17.8298Z" fill="#EC008C"/>
<path fill-rule="evenodd" clip-rule="evenodd" d="M77.5209 17.6308C77.5881 17.5979 77.6578 17.5687 77.7287 17.5434C77.7186 17.7094 77.6463 17.8628 77.6349 18.0301C77.6172 18.1188 77.6007 18.2088 77.5805 18.2975C77.5817 18.2341 77.5843 18.1074 77.5855 18.044H77.4626C77.4766 17.9046 77.4854 17.7652 77.5209 17.6308Z" fill="#EC008C"/>
<path fill-rule="evenodd" clip-rule="evenodd" d="M74.6096 18.2062C74.8135 18.1201 75.0162 18.0339 75.2088 17.9236C75.2798 17.9882 75.3507 18.0529 75.4217 18.1188C75.3013 18.2569 75.1923 18.4129 75.1632 18.5992C75.1214 18.5561 75.0403 18.4699 74.9998 18.4255C74.9516 18.4597 74.9035 18.4927 74.8553 18.5269C75.0986 18.5611 75.3076 18.7044 75.4926 18.8565C75.4863 18.9972 75.3064 18.987 75.2113 19.0453C75.2101 18.9946 75.2088 18.8958 75.2075 18.8463C75.1835 18.8463 75.1353 18.8425 75.1113 18.8413C75.0809 18.7994 75.02 18.7158 74.9884 18.674C75.0416 18.7982 75.1163 18.9122 75.1847 19.0301C74.9896 19.0757 74.7958 19.1315 74.6311 19.2494C74.6438 19.2862 74.6666 19.3571 74.678 19.3939C74.55 19.3711 74.4233 19.3457 74.2954 19.3216C74.2371 19.3964 74.1788 19.4699 74.1218 19.5447C74.1294 19.3698 73.9685 19.2278 74.0496 19.0529C73.9723 18.9667 73.8532 18.8996 73.8481 18.7716C73.9495 18.6689 74.0889 18.6169 74.213 18.5485C74.2814 18.5814 74.3511 18.6131 74.4208 18.6461C74.4208 18.7272 74.4183 18.8083 74.4183 18.8894C74.5754 18.7779 74.7629 18.7297 74.9453 18.6816L74.9377 18.6334C74.7844 18.6714 74.6349 18.7209 74.4892 18.7804C74.4765 18.7145 74.4639 18.6473 74.4525 18.5814C74.4132 18.5764 74.3359 18.5662 74.2966 18.5611C74.3676 18.4243 74.5183 18.3533 74.5754 18.2062C74.6184 18.2481 74.6628 18.2899 74.7071 18.3317C74.8439 18.3596 74.9795 18.3875 75.1163 18.4154C74.9681 18.3013 74.7705 18.3 74.6096 18.2101V18.2062Z" fill="#EC008C"/>
<path fill-rule="evenodd" clip-rule="evenodd" d="M75.5078 18.6816C75.6168 18.7614 75.8132 18.802 75.7942 18.9756C75.8271 19.2786 75.4584 19.3495 75.2494 19.4497C75.295 19.3723 75.3406 19.295 75.3862 19.2164C75.2456 19.3166 75.1176 19.4459 74.9479 19.4966C74.8174 19.4877 74.7451 19.3685 74.6641 19.2862C74.9048 19.0922 75.2291 19.1049 75.5091 19.0048C75.485 19.0973 75.461 19.1898 75.4394 19.2824C75.6206 19.1328 75.5116 18.8768 75.5078 18.6816Z" fill="#EC008C"/>
<path fill-rule="evenodd" clip-rule="evenodd" d="M76.9991 19.129C77.2258 19.1328 76.9915 19.399 76.866 19.3014C76.8268 19.2202 76.9306 19.148 76.9991 19.129Z" fill="#EC008C"/>
<path fill-rule="evenodd" clip-rule="evenodd" d="M76.8241 19.3191C76.8799 19.347 76.9914 19.4015 77.0471 19.4281C76.9154 19.6157 76.7697 19.7982 76.5834 19.9351C76.3554 20.0466 76.1083 20.1113 75.8765 20.2102C75.8093 20.1595 75.7422 20.1075 75.675 20.0568C75.874 20.034 76.0767 19.9896 76.2249 19.8426C76.3402 19.8236 76.4529 19.7893 76.5518 19.7234C76.4441 19.7437 76.3364 19.7653 76.23 19.7868C76.3643 19.6626 76.5087 19.5485 76.667 19.456C76.6354 19.5447 76.6037 19.6322 76.5733 19.7222C76.6772 19.6018 76.7823 19.475 76.8254 19.3166L76.8241 19.3191Z" fill="#EC008C"/>
<path fill-rule="evenodd" clip-rule="evenodd" d="M77.2751 19.4573C77.3143 19.4053 77.5006 19.4332 77.3992 19.5092C77.3359 19.5536 77.27 19.5929 77.2029 19.6271C77.0977 19.6132 77.2231 19.4687 77.2763 19.4573H77.2751Z" fill="#EC008C"/>
<path fill-rule="evenodd" clip-rule="evenodd" d="M70.753 19.7589C70.8835 19.8236 70.9925 19.9212 71.09 20.0289C70.9823 20.0606 70.8075 20.1354 70.7505 19.9883C70.7505 19.9313 70.753 19.8172 70.753 19.7589Z" fill="#EC008C"/>
<path fill-rule="evenodd" clip-rule="evenodd" d="M73.9443 19.8578C74.0571 19.6284 74.2674 19.8553 74.3155 20.0036C74.1901 19.9579 74.0672 19.9098 73.9443 19.8578Z" fill="#EC008C"/>
<path fill-rule="evenodd" clip-rule="evenodd" d="M74.2942 20.0707C74.4576 20.0657 74.6198 20.0352 74.782 20.0137C74.7896 20.1024 74.7984 20.1924 74.8073 20.2811C74.6122 20.2862 74.3879 20.271 74.2942 20.0707Z" fill="#EC008C"/>
<path fill-rule="evenodd" clip-rule="evenodd" d="M73.4441 20.2393C73.5873 20.2342 73.7329 20.2165 73.8748 20.2532C74.2638 20.361 74.6705 20.3863 75.0569 20.5029C75.219 20.5689 75.3888 20.5498 75.5522 20.4953C75.4205 20.5334 75.2913 20.5841 75.1722 20.6512C75.1392 20.6246 75.1076 20.5993 75.0746 20.5752C74.4982 20.8021 73.9851 20.3673 73.4454 20.2393H73.4441Z" fill="#EC008C"/>
<path fill-rule="evenodd" clip-rule="evenodd" d="M132.77 7.26273L137.931 24.4613H141.63L134.693 1.14328H134.494L132.77 7.26273Z" fill="white"/>
</g>
<path d="M43.7623 41.65H44.9823L45.1323 41.27L42.6923 36.02H44.2923L45.2723 38.19L45.8523 39.58H45.8823L46.3923 38.18L47.2523 36.02H48.7423L46.2823 42.02C46.2089 42.2 46.1256 42.3533 46.0323 42.48C45.9456 42.6 45.8423 42.7 45.7223 42.78C45.6023 42.86 45.4623 42.9167 45.3023 42.95C45.1489 42.9833 44.9689 43 44.7623 43H43.7623V41.65ZM52.5172 37.75H53.8972L51.8772 43.81C51.7439 44.2167 51.5539 44.5167 51.3072 44.71C51.0672 44.9033 50.7205 45 50.2672 45H49.3472V43.85H50.3372L50.5172 43.27L48.6772 37.75H50.1472L50.9172 40.2L51.2972 41.72H51.3572L51.7472 40.2L52.5172 37.75ZM54.649 37.75H56.129V38.63H56.179C56.2523 38.3367 56.419 38.0967 56.679 37.91C56.9457 37.7233 57.249 37.63 57.589 37.63C58.2557 37.63 58.759 37.8633 59.099 38.33C59.439 38.7967 59.609 39.4767 59.609 40.37C59.609 41.2633 59.439 41.9467 59.099 42.42C58.759 42.8867 58.2557 43.12 57.589 43.12C57.4157 43.12 57.2523 43.0933 57.099 43.04C56.9457 42.9933 56.8057 42.9267 56.679 42.84C56.559 42.7467 56.4557 42.64 56.369 42.52C56.2823 42.3933 56.219 42.26 56.179 42.12H56.129V45H54.649V37.75ZM57.099 41.92C57.379 41.92 57.609 41.8233 57.789 41.63C57.9757 41.43 58.069 41.1633 58.069 40.83V39.92C58.069 39.5867 57.9757 39.3233 57.789 39.13C57.609 38.93 57.379 38.83 57.099 38.83C56.819 38.83 56.5857 38.9 56.399 39.04C56.219 39.1733 56.129 39.36 56.129 39.6V41.15C56.129 41.39 56.219 41.58 56.399 41.72C56.5857 41.8533 56.819 41.92 57.099 41.92ZM66.9763 43C66.7096 43 66.4863 42.9167 66.3063 42.75C66.1329 42.5833 66.0229 42.36 65.9763 42.08H65.9163C65.8363 42.42 65.6596 42.68 65.3863 42.86C65.1129 43.0333 64.7763 43.12 64.3763 43.12C63.8496 43.12 63.4463 42.98 63.1663 42.7C62.8863 42.42 62.7463 42.05 62.7463 41.59C62.7463 41.0367 62.9463 40.6267 63.3463 40.36C63.7529 40.0867 64.3029 39.95 64.9963 39.95H65.8263V39.62C65.8263 39.3667 65.7596 39.1667 65.6263 39.02C65.4929 38.8667 65.2696 38.79 64.9563 38.79C64.6629 38.79 64.4296 38.8533 64.2563 38.98C64.0829 39.1067 63.9396 39.25 63.8263 39.41L62.9463 38.63C63.1596 38.3167 63.4263 38.0733 63.7463 37.9C64.0729 37.72 64.5129 37.63 65.0663 37.63C65.8129 37.63 66.3729 37.7933 66.7463 38.12C67.1196 38.4467 67.3063 38.9233 67.3063 39.55V41.85H67.7963V43H66.9763ZM64.9263 42.09C65.1729 42.09 65.3829 42.0367 65.5563 41.93C65.7363 41.8233 65.8263 41.65 65.8263 41.41V40.79H65.1063C64.5263 40.79 64.2363 40.9867 64.2363 41.38V41.53C64.2363 41.7233 64.2963 41.8667 64.4163 41.96C64.5363 42.0467 64.7063 42.09 64.9263 42.09ZM68.7896 37.75H70.3896L71.7096 39.9H71.7496L73.0696 37.75H74.6696V43H73.2296V39.59H73.1996L72.7996 40.32L71.7296 42.06L70.6596 40.32L70.2596 39.59H70.2296V43H68.7896V37.75ZM76.0455 37.75H77.5255V39.31H78.9055C79.1588 39.31 79.3955 39.35 79.6155 39.43C79.8355 39.51 80.0255 39.63 80.1855 39.79C80.3521 39.9433 80.4821 40.1333 80.5755 40.36C80.6688 40.5867 80.7155 40.85 80.7155 41.15C80.7155 41.45 80.6688 41.7167 80.5755 41.95C80.4821 42.1767 80.3521 42.37 80.1855 42.53C80.0255 42.6833 79.8355 42.8 79.6155 42.88C79.3955 42.96 79.1588 43 78.9055 43H76.0455V37.75ZM78.5855 41.95C78.7788 41.95 78.9321 41.9 79.0455 41.8C79.1655 41.6933 79.2255 41.5433 79.2255 41.35V40.96C79.2255 40.7667 79.1655 40.62 79.0455 40.52C78.9321 40.4133 78.7788 40.36 78.5855 40.36H77.5255V41.95H78.5855ZM83.7709 43.12C83.3776 43.12 83.0276 43.0567 82.7209 42.93C82.4143 42.7967 82.1576 42.6133 81.9509 42.38C81.7443 42.14 81.5876 41.85 81.4809 41.51C81.3743 41.17 81.3209 40.79 81.3209 40.37C81.3209 39.95 81.3743 39.5733 81.4809 39.24C81.5876 38.9 81.7443 38.61 81.9509 38.37C82.1576 38.13 82.4143 37.9467 82.7209 37.82C83.0276 37.6933 83.3776 37.63 83.7709 37.63C84.3043 37.63 84.7476 37.75 85.1009 37.99C85.4609 38.23 85.7176 38.5667 85.8709 39L84.6709 39.52C84.6243 39.32 84.5276 39.15 84.3809 39.01C84.2343 38.87 84.0309 38.8 83.7709 38.8C83.4709 38.8 83.2443 38.9 83.0909 39.1C82.9376 39.2933 82.8609 39.5567 82.8609 39.89V40.87C82.8609 41.2033 82.9376 41.4667 83.0909 41.66C83.2443 41.8533 83.4709 41.95 83.7709 41.95C84.0376 41.95 84.2476 41.88 84.4009 41.74C84.5609 41.5933 84.6776 41.4033 84.7509 41.17L85.9009 41.67C85.7276 42.17 85.4576 42.5367 85.0909 42.77C84.7309 43.0033 84.2909 43.12 83.7709 43.12ZM86.817 37.75H90.367V38.9H88.297V43H86.817V37.75ZM95.0915 43C94.8248 43 94.6015 42.9167 94.4215 42.75C94.2482 42.5833 94.1382 42.36 94.0915 42.08H94.0315C93.9515 42.42 93.7748 42.68 93.5015 42.86C93.2282 43.0333 92.8915 43.12 92.4915 43.12C91.9648 43.12 91.5615 42.98 91.2815 42.7C91.0015 42.42 90.8615 42.05 90.8615 41.59C90.8615 41.0367 91.0615 40.6267 91.4615 40.36C91.8682 40.0867 92.4182 39.95 93.1115 39.95H93.9415V39.62C93.9415 39.3667 93.8748 39.1667 93.7415 39.02C93.6082 38.8667 93.3848 38.79 93.0715 38.79C92.7782 38.79 92.5448 38.8533 92.3715 38.98C92.1982 39.1067 92.0548 39.25 91.9415 39.41L91.0615 38.63C91.2748 38.3167 91.5415 38.0733 91.8615 37.9C92.1882 37.72 92.6282 37.63 93.1815 37.63C93.9282 37.63 94.4882 37.7933 94.8615 38.12C95.2348 38.4467 95.4215 38.9233 95.4215 39.55V41.85H95.9115V43H95.0915ZM93.0415 42.09C93.2882 42.09 93.4982 42.0367 93.6715 41.93C93.8515 41.8233 93.9415 41.65 93.9415 41.41V40.79H93.2215C92.6415 40.79 92.3515 40.9867 92.3515 41.38V41.53C92.3515 41.7233 92.4115 41.8667 92.5315 41.96C92.6515 42.0467 92.8215 42.09 93.0415 42.09ZM96.3648 41.85H97.0448C97.1115 41.7633 97.1682 41.6533 97.2148 41.52C97.2682 41.3867 97.3115 41.2267 97.3448 41.04C97.3848 40.8467 97.4148 40.6167 97.4348 40.35C97.4548 40.0833 97.4648 39.77 97.4648 39.41V37.75H101.635V43H100.155V38.9H98.8848V39.49C98.8848 39.9433 98.8682 40.3433 98.8348 40.69C98.8015 41.03 98.7515 41.3267 98.6848 41.58C98.6182 41.8267 98.5382 42.0367 98.4448 42.21C98.3582 42.3767 98.2615 42.5133 98.1548 42.62C97.9948 42.78 97.8082 42.8933 97.5948 42.96C97.3882 43.0267 97.1282 43.06 96.8148 43.06H96.3648V41.85ZM103.018 37.75H104.498V39.31H105.768C106.021 39.31 106.258 39.35 106.478 39.43C106.698 39.51 106.888 39.63 107.048 39.79C107.215 39.9433 107.345 40.1333 107.438 40.36C107.531 40.5867 107.578 40.85 107.578 41.15C107.578 41.45 107.531 41.7167 107.438 41.95C107.345 42.1767 107.215 42.37 107.048 42.53C106.888 42.6833 106.698 42.8 106.478 42.88C106.258 42.96 106.021 43 105.768 43H103.018V37.75ZM105.448 41.95C105.641 41.95 105.795 41.9 105.908 41.8C106.028 41.6933 106.088 41.5433 106.088 41.35V40.96C106.088 40.7667 106.028 40.62 105.908 40.52C105.795 40.4133 105.641 40.36 105.448 40.36H104.498V41.95H105.448ZM108.248 37.75H109.728V43H108.248V37.75ZM111.104 37.75H112.584V39.76H114.364V37.75H115.844V43H114.364V40.91H112.584V43H111.104V37.75ZM121.72 43.12C121.334 43.12 120.987 43.0567 120.68 42.93C120.38 42.8033 120.124 42.62 119.91 42.38C119.704 42.14 119.544 41.85 119.43 41.51C119.317 41.17 119.26 40.79 119.26 40.37C119.26 39.95 119.317 39.57 119.43 39.23C119.544 38.89 119.704 38.6033 119.91 38.37C120.124 38.13 120.38 37.9467 120.68 37.82C120.987 37.6933 121.334 37.63 121.72 37.63C122.107 37.63 122.45 37.6933 122.75 37.82C123.057 37.9467 123.314 38.13 123.52 38.37C123.734 38.6033 123.897 38.89 124.01 39.23C124.124 39.57 124.18 39.95 124.18 40.37C124.18 40.79 124.124 41.17 124.01 41.51C123.897 41.85 123.734 42.14 123.52 42.38C123.314 42.62 123.057 42.8033 122.75 42.93C122.45 43.0567 122.107 43.12 121.72 43.12ZM121.72 42.05C122.04 42.05 122.29 41.9567 122.47 41.77C122.65 41.5833 122.74 41.31 122.74 40.95V40.85H120.7V40.95C120.7 41.31 120.79 41.5833 120.97 41.77C121.15 41.9567 121.4 42.05 121.72 42.05ZM120.7 39.87H122.74V39.8C122.74 39.44 122.65 39.1667 122.47 38.98C122.29 38.7933 122.04 38.7 121.72 38.7C121.4 38.7 121.15 38.7933 120.97 38.98C120.79 39.1667 120.7 39.44 120.7 39.8V39.87ZM127.365 43.12C126.978 43.12 126.632 43.0567 126.325 42.93C126.025 42.8033 125.768 42.62 125.555 42.38C125.348 42.14 125.188 41.85 125.075 41.51C124.962 41.17 124.905 40.79 124.905 40.37C124.905 39.95 124.962 39.57 125.075 39.23C125.188 38.89 125.348 38.6033 125.555 38.37C125.768 38.13 126.025 37.9467 126.325 37.82C126.632 37.6933 126.978 37.63 127.365 37.63C127.752 37.63 128.095 37.6933 128.395 37.82C128.702 37.9467 128.958 38.13 129.165 38.37C129.378 38.6033 129.542 38.89 129.655 39.23C129.768 39.57 129.825 39.95 129.825 40.37C129.825 40.79 129.768 41.17 129.655 41.51C129.542 41.85 129.378 42.14 129.165 42.38C128.958 42.62 128.702 42.8033 128.395 42.93C128.095 43.0567 127.752 43.12 127.365 43.12ZM127.365 42.05C127.685 42.05 127.935 41.9567 128.115 41.77C128.295 41.5833 128.385 41.31 128.385 40.95V40.85H126.345V40.95C126.345 41.31 126.435 41.5833 126.615 41.77C126.795 41.9567 127.045 42.05 127.365 42.05ZM126.345 39.87H128.385V39.8C128.385 39.44 128.295 39.1667 128.115 38.98C127.935 38.7933 127.685 38.7 127.365 38.7C127.045 38.7 126.795 38.7933 126.615 38.98C126.435 39.1667 126.345 39.44 126.345 39.8V39.87ZM130.879 37.75H132.359V38.63H132.409C132.483 38.3367 132.649 38.0967 132.909 37.91C133.176 37.7233 133.479 37.63 133.819 37.63C134.486 37.63 134.989 37.8633 135.329 38.33C135.669 38.7967 135.839 39.4767 135.839 40.37C135.839 41.2633 135.669 41.9467 135.329 42.42C134.989 42.8867 134.486 43.12 133.819 43.12C133.646 43.12 133.483 43.0933 133.329 43.04C133.176 42.9933 133.036 42.9267 132.909 42.84C132.789 42.7467 132.686 42.64 132.599 42.52C132.513 42.3933 132.449 42.26 132.409 42.12H132.359V45H130.879V37.75ZM133.329 41.92C133.609 41.92 133.839 41.8233 134.019 41.63C134.206 41.43 134.299 41.1633 134.299 40.83V39.92C134.299 39.5867 134.206 39.3233 134.019 39.13C133.839 38.93 133.609 38.83 133.329 38.83C133.049 38.83 132.816 38.9 132.629 39.04C132.449 39.1733 132.359 39.36 132.359 39.6V41.15C132.359 41.39 132.449 41.58 132.629 41.72C132.816 41.8533 133.049 41.92 133.329 41.92ZM139.883 40.77H139.833C139.713 40.9833 139.54 41.1533 139.313 41.28C139.093 41.4 138.813 41.46 138.473 41.46C137.88 41.46 137.447 41.3067 137.173 41C136.907 40.6933 136.773 40.2233 136.773 39.59V37.75H138.253V39.52C138.253 39.78 138.313 39.97 138.433 40.09C138.56 40.2033 138.763 40.26 139.043 40.26C139.323 40.26 139.533 40.21 139.673 40.11C139.813 40.01 139.883 39.8833 139.883 39.73V37.75H141.363V43H139.883V40.77ZM142.205 41.85H142.885C142.951 41.7633 143.008 41.6533 143.055 41.52C143.108 41.3867 143.151 41.2267 143.185 41.04C143.225 40.8467 143.255 40.6167 143.275 40.35C143.295 40.0833 143.305 39.77 143.305 39.41V37.75H147.475V43H145.995V38.9H144.725V39.49C144.725 39.9433 144.708 40.3433 144.675 40.69C144.641 41.03 144.591 41.3267 144.525 41.58C144.458 41.8267 144.378 42.0367 144.285 42.21C144.198 42.3767 144.101 42.5133 143.995 42.62C143.835 42.78 143.648 42.8933 143.435 42.96C143.228 43.0267 142.968 43.06 142.655 43.06H142.205V41.85ZM150.988 43.12C150.601 43.12 150.255 43.0567 149.948 42.93C149.648 42.8033 149.391 42.62 149.178 42.38C148.971 42.14 148.811 41.85 148.698 41.51C148.585 41.17 148.528 40.79 148.528 40.37C148.528 39.95 148.585 39.57 148.698 39.23C148.811 38.89 148.971 38.6033 149.178 38.37C149.391 38.13 149.648 37.9467 149.948 37.82C150.255 37.6933 150.601 37.63 150.988 37.63C151.375 37.63 151.718 37.6933 152.018 37.82C152.325 37.9467 152.581 38.13 152.788 38.37C153.001 38.6033 153.165 38.89 153.278 39.23C153.391 39.57 153.448 39.95 153.448 40.37C153.448 40.79 153.391 41.17 153.278 41.51C153.165 41.85 153.001 42.14 152.788 42.38C152.581 42.62 152.325 42.8033 152.018 42.93C151.718 43.0567 151.375 43.12 150.988 43.12ZM150.988 42.05C151.308 42.05 151.558 41.9567 151.738 41.77C151.918 41.5833 152.008 41.31 152.008 40.95V40.85H149.968V40.95C149.968 41.31 150.058 41.5833 150.238 41.77C150.418 41.9567 150.668 42.05 150.988 42.05ZM149.968 39.87H152.008V39.8C152.008 39.44 151.918 39.1667 151.738 38.98C151.558 38.7933 151.308 38.7 150.988 38.7C150.668 38.7 150.418 38.7933 150.238 38.98C150.058 39.1667 149.968 39.44 149.968 39.8V39.87ZM153.884 41.85H154.564C154.631 41.7633 154.688 41.6533 154.734 41.52C154.788 41.3867 154.831 41.2267 154.864 41.04C154.904 40.8467 154.934 40.6167 154.954 40.35C154.974 40.0833 154.984 39.77 154.984 39.41V37.75H159.154V43H157.674V38.9H156.404V39.49C156.404 39.9433 156.388 40.3433 156.354 40.69C156.321 41.03 156.271 41.3267 156.204 41.58C156.138 41.8267 156.058 42.0367 155.964 42.21C155.878 42.3767 155.781 42.5133 155.674 42.62C155.514 42.78 155.328 42.8933 155.114 42.96C154.908 43.0267 154.648 43.06 154.334 43.06H153.884V41.85ZM161.568 38.9H160.048V37.75H164.568V38.9H163.048V43H161.568V38.9ZM165.539 41.31C165.839 41.31 166.059 41.3867 166.199 41.54C166.345 41.6867 166.419 41.8767 166.419 42.11V42.31C166.419 42.7167 166.319 43.1167 166.119 43.51C165.925 43.9033 165.669 44.2233 165.349 44.47H164.349C164.582 44.25 164.782 44.03 164.949 43.81C165.115 43.5967 165.242 43.3567 165.329 43.09C165.095 43.05 164.925 42.96 164.819 42.82C164.712 42.6733 164.659 42.5033 164.659 42.31V42.11C164.659 41.8767 164.729 41.6867 164.869 41.54C165.015 41.3867 165.239 41.31 165.539 41.31ZM5.08086 53.14H2.42086V56H0.900859V49.02H2.42086V51.8H5.08086V49.02H6.60086V56H5.08086V53.14ZM9.31719 56L7.45719 50.75H8.91719L9.60719 52.87L10.0572 54.55H10.1372L10.5972 52.87L11.2572 50.75H12.6572L10.7972 56V58H9.31719V56ZM14.698 56L12.838 50.75H14.298L14.988 52.87L15.438 54.55H15.518L15.978 52.87L16.638 50.75H18.038L16.178 56V58H14.698V56ZM18.8189 50.75H20.2989V51.63H20.3489C20.4222 51.3367 20.5889 51.0967 20.8489 50.91C21.1156 50.7233 21.4189 50.63 21.7589 50.63C22.4256 50.63 22.9289 50.8633 23.2689 51.33C23.6089 51.7967 23.7789 52.4767 23.7789 53.37C23.7789 54.2633 23.6089 54.9467 23.2689 55.42C22.9289 55.8867 22.4256 56.12 21.7589 56.12C21.5856 56.12 21.4222 56.0933 21.2689 56.04C21.1156 55.9933 20.9756 55.9267 20.8489 55.84C20.7289 55.7467 20.6256 55.64 20.5389 55.52C20.4522 55.3933 20.3889 55.26 20.3489 55.12H20.2989V58H18.8189V50.75ZM21.2689 54.92C21.5489 54.92 21.7789 54.8233 21.9589 54.63C22.1456 54.43 22.2389 54.1633 22.2389 53.83V52.92C22.2389 52.5867 22.1456 52.3233 21.9589 52.13C21.7789 51.93 21.5489 51.83 21.2689 51.83C20.9889 51.83 20.7556 51.9 20.5689 52.04C20.3889 52.1733 20.2989 52.36 20.2989 52.6V54.15C20.2989 54.39 20.3889 54.58 20.5689 54.72C20.7556 54.8533 20.9889 54.92 21.2689 54.92ZM27.0229 56.12C26.6296 56.12 26.2796 56.0567 25.9729 55.93C25.6662 55.7967 25.4096 55.6133 25.2029 55.38C24.9962 55.14 24.8396 54.85 24.7329 54.51C24.6262 54.17 24.5729 53.79 24.5729 53.37C24.5729 52.95 24.6262 52.5733 24.7329 52.24C24.8396 51.9 24.9962 51.61 25.2029 51.37C25.4096 51.13 25.6662 50.9467 25.9729 50.82C26.2796 50.6933 26.6296 50.63 27.0229 50.63C27.5562 50.63 27.9996 50.75 28.3529 50.99C28.7129 51.23 28.9696 51.5667 29.1229 52L27.9229 52.52C27.8762 52.32 27.7796 52.15 27.6329 52.01C27.4862 51.87 27.2829 51.8 27.0229 51.8C26.7229 51.8 26.4962 51.9 26.3429 52.1C26.1896 52.2933 26.1129 52.5567 26.1129 52.89V53.87C26.1129 54.2033 26.1896 54.4667 26.3429 54.66C26.4962 54.8533 26.7229 54.95 27.0229 54.95C27.2896 54.95 27.4996 54.88 27.6529 54.74C27.8129 54.5933 27.9296 54.4033 28.0029 54.17L29.1529 54.67C28.9796 55.17 28.7096 55.5367 28.3429 55.77C27.9829 56.0033 27.5429 56.12 27.0229 56.12ZM31.177 51.9H29.657V50.75H34.177V51.9H32.657V56H31.177V51.9ZM37.1501 56.12C36.7634 56.12 36.4167 56.0567 36.1101 55.93C35.8101 55.8033 35.5534 55.62 35.3401 55.38C35.1334 55.14 34.9734 54.85 34.8601 54.51C34.7467 54.17 34.6901 53.79 34.6901 53.37C34.6901 52.95 34.7467 52.57 34.8601 52.23C34.9734 51.89 35.1334 51.6033 35.3401 51.37C35.5534 51.13 35.8101 50.9467 36.1101 50.82C36.4167 50.6933 36.7634 50.63 37.1501 50.63C37.5367 50.63 37.8801 50.6933 38.1801 50.82C38.4867 50.9467 38.7434 51.13 38.9501 51.37C39.1634 51.6033 39.3267 51.89 39.4401 52.23C39.5534 52.57 39.6101 52.95 39.6101 53.37C39.6101 53.79 39.5534 54.17 39.4401 54.51C39.3267 54.85 39.1634 55.14 38.9501 55.38C38.7434 55.62 38.4867 55.8033 38.1801 55.93C37.8801 56.0567 37.5367 56.12 37.1501 56.12ZM37.1501 55.05C37.4701 55.05 37.7201 54.9567 37.9001 54.77C38.0801 54.5833 38.1701 54.31 38.1701 53.95V53.85H36.1301V53.95C36.1301 54.31 36.2201 54.5833 36.4001 54.77C36.5801 54.9567 36.8301 55.05 37.1501 55.05ZM36.1301 52.87H38.1701V52.8C38.1701 52.44 38.0801 52.1667 37.9001 51.98C37.7201 51.7933 37.4701 51.7 37.1501 51.7C36.8301 51.7 36.5801 51.7933 36.4001 51.98C36.2201 52.1667 36.1301 52.44 36.1301 52.8V52.87ZM40.6646 50.75H42.1446V51.63H42.1946C42.2679 51.3367 42.4346 51.0967 42.6946 50.91C42.9613 50.7233 43.2646 50.63 43.6046 50.63C44.2713 50.63 44.7746 50.8633 45.1146 51.33C45.4546 51.7967 45.6246 52.4767 45.6246 53.37C45.6246 54.2633 45.4546 54.9467 45.1146 55.42C44.7746 55.8867 44.2713 56.12 43.6046 56.12C43.4313 56.12 43.2679 56.0933 43.1146 56.04C42.9613 55.9933 42.8213 55.9267 42.6946 55.84C42.5746 55.7467 42.4713 55.64 42.3846 55.52C42.2979 55.3933 42.2346 55.26 42.1946 55.12H42.1446V58H40.6646V50.75ZM43.1146 54.92C43.3946 54.92 43.6246 54.8233 43.8046 54.63C43.9913 54.43 44.0846 54.1633 44.0846 53.83V52.92C44.0846 52.5867 43.9913 52.3233 43.8046 52.13C43.6246 51.93 43.3946 51.83 43.1146 51.83C42.8346 51.83 42.6013 51.9 42.4146 52.04C42.2346 52.1733 42.1446 52.36 42.1446 52.6V54.15C42.1446 54.39 42.2346 54.58 42.4146 54.72C42.6013 54.8533 42.8346 54.92 43.1146 54.92ZM48.8786 56.12C48.4919 56.12 48.1453 56.0567 47.8386 55.93C47.5386 55.8033 47.2819 55.62 47.0686 55.38C46.8619 55.14 46.7019 54.85 46.5886 54.51C46.4753 54.17 46.4186 53.79 46.4186 53.37C46.4186 52.95 46.4753 52.57 46.5886 52.23C46.7019 51.89 46.8619 51.6033 47.0686 51.37C47.2819 51.13 47.5386 50.9467 47.8386 50.82C48.1453 50.6933 48.4919 50.63 48.8786 50.63C49.2653 50.63 49.6086 50.6933 49.9086 50.82C50.2153 50.9467 50.4719 51.13 50.6786 51.37C50.8919 51.6033 51.0553 51.89 51.1686 52.23C51.2819 52.57 51.3386 52.95 51.3386 53.37C51.3386 53.79 51.2819 54.17 51.1686 54.51C51.0553 54.85 50.8919 55.14 50.6786 55.38C50.4719 55.62 50.2153 55.8033 49.9086 55.93C49.6086 56.0567 49.2653 56.12 48.8786 56.12ZM48.8786 55.05C49.1986 55.05 49.4486 54.9567 49.6286 54.77C49.8086 54.5833 49.8986 54.31 49.8986 53.95V53.85H47.8586V53.95C47.8586 54.31 47.9486 54.5833 48.1286 54.77C48.3086 54.9567 48.5586 55.05 48.8786 55.05ZM47.8586 52.87H49.8986V52.8C49.8986 52.44 49.8086 52.1667 49.6286 51.98C49.4486 51.7933 49.1986 51.7 48.8786 51.7C48.5586 51.7 48.3086 51.7933 48.1286 51.98C47.9486 52.1667 47.8586 52.44 47.8586 52.8V52.87ZM52.3931 50.75H55.9431V51.9H53.8731V56H52.3931V50.75ZM59.903 53.77H59.853C59.733 53.9833 59.5596 54.1533 59.333 54.28C59.113 54.4 58.833 54.46 58.493 54.46C57.8996 54.46 57.4663 54.3067 57.193 54C56.9263 53.6933 56.793 53.2233 56.793 52.59V50.75H58.273V52.52C58.273 52.78 58.333 52.97 58.453 53.09C58.5796 53.2033 58.783 53.26 59.063 53.26C59.343 53.26 59.553 53.21 59.693 53.11C59.833 53.01 59.903 52.8833 59.903 52.73V50.75H61.383V56H59.903V53.77ZM62.7642 50.75H64.2142V52.86L64.0842 54.08H64.1142L64.7242 52.96L66.1842 50.75H67.5042V56H66.0542V53.89L66.1842 52.67H66.1542L65.5442 53.79L64.0842 56H62.7642V50.75ZM68.8873 50.75H70.3373V52.86L70.2073 54.08H70.2373L70.8473 52.96L72.3073 50.75H73.6273V56H72.1773V53.89L72.3073 52.67H72.2773L71.6673 53.79L70.2073 56H68.8873V50.75ZM71.2673 50.21C70.8273 50.21 70.4706 50.1133 70.1973 49.92C69.9239 49.7267 69.7106 49.45 69.5573 49.09L69.3473 48.58L70.4973 48.15L70.8173 49.16C70.8573 49.18 70.9206 49.1967 71.0073 49.21C71.0939 49.2233 71.1806 49.23 71.2673 49.23C71.3539 49.23 71.4406 49.2233 71.5273 49.21C71.6139 49.1967 71.6773 49.18 71.7173 49.16L72.0373 48.15L73.1873 48.58L72.9773 49.09C72.8239 49.45 72.6106 49.7267 72.3373 49.92C72.0639 50.1133 71.7073 50.21 71.2673 50.21ZM75.0103 50.75H76.4903V52.76H78.2703V50.75H79.7503V56H78.2703V53.91H76.4903V56H75.0103V50.75ZM85.3266 56.12C84.8066 56.12 84.3666 56.04 84.0066 55.88C83.6533 55.7133 83.33 55.48 83.0366 55.18L83.9066 54.3C84.2933 54.74 84.77 54.96 85.3366 54.96C85.6366 54.96 85.86 54.91 86.0066 54.81C86.1533 54.7033 86.2266 54.56 86.2266 54.38V54.27C86.2266 53.97 86.03 53.82 85.6366 53.82H84.4766V52.84H85.5066C85.9 52.84 86.0966 52.69 86.0966 52.39V52.29C86.0966 52.1367 86.03 52.0167 85.8966 51.93C85.7633 51.8367 85.5633 51.79 85.2966 51.79C85.0233 51.79 84.7766 51.8467 84.5566 51.96C84.3366 52.0667 84.16 52.2167 84.0266 52.41L83.1466 51.63C83.4066 51.31 83.7233 51.0633 84.0966 50.89C84.47 50.7167 84.9066 50.63 85.4066 50.63C86.1333 50.63 86.6766 50.7667 87.0366 51.04C87.4033 51.3067 87.5866 51.65 87.5866 52.07C87.5866 52.41 87.4966 52.6733 87.3166 52.86C87.1366 53.0467 86.8566 53.1667 86.4766 53.22V53.27C86.8566 53.31 87.1566 53.4333 87.3766 53.64C87.6033 53.84 87.7166 54.1067 87.7166 54.44C87.7166 54.9667 87.5066 55.38 87.0866 55.68C86.6666 55.9733 86.08 56.12 85.3266 56.12ZM92.6891 56C92.4225 56 92.1991 55.9167 92.0191 55.75C91.8458 55.5833 91.7358 55.36 91.6891 55.08H91.6291C91.5491 55.42 91.3725 55.68 91.0991 55.86C90.8258 56.0333 90.4891 56.12 90.0891 56.12C89.5625 56.12 89.1591 55.98 88.8791 55.7C88.5991 55.42 88.4591 55.05 88.4591 54.59C88.4591 54.0367 88.6591 53.6267 89.0591 53.36C89.4658 53.0867 90.0158 52.95 90.7091 52.95H91.5391V52.62C91.5391 52.3667 91.4725 52.1667 91.3391 52.02C91.2058 51.8667 90.9825 51.79 90.6691 51.79C90.3758 51.79 90.1425 51.8533 89.9691 51.98C89.7958 52.1067 89.6525 52.25 89.5391 52.41L88.6591 51.63C88.8725 51.3167 89.1391 51.0733 89.4591 50.9C89.7858 50.72 90.2258 50.63 90.7791 50.63C91.5258 50.63 92.0858 50.7933 92.4591 51.12C92.8325 51.4467 93.0191 51.9233 93.0191 52.55V54.85H93.5091V56H92.6891ZM90.6391 55.09C90.8858 55.09 91.0958 55.0367 91.2691 54.93C91.4491 54.8233 91.5391 54.65 91.5391 54.41V53.79H90.8191C90.2391 53.79 89.9491 53.9867 89.9491 54.38V54.53C89.9491 54.7233 90.0091 54.8667 90.1291 54.96C90.2491 55.0467 90.4191 55.09 90.6391 55.09ZM93.9925 56L95.7225 53.33L94.0125 50.75H95.6925L96.6725 52.4H96.7125L97.6625 50.75H99.2225L97.4825 53.38L99.2325 56H97.5525L96.5425 54.29H96.5025L95.5325 56H93.9925ZM104.291 56.12C103.771 56.12 103.331 56.04 102.971 55.88C102.618 55.7133 102.295 55.48 102.001 55.18L102.871 54.3C103.258 54.74 103.735 54.96 104.301 54.96C104.601 54.96 104.825 54.91 104.971 54.81C105.118 54.7033 105.191 54.56 105.191 54.38V54.27C105.191 53.97 104.995 53.82 104.601 53.82H103.441V52.84H104.471C104.865 52.84 105.061 52.69 105.061 52.39V52.29C105.061 52.1367 104.995 52.0167 104.861 51.93C104.728 51.8367 104.528 51.79 104.261 51.79C103.988 51.79 103.741 51.8467 103.521 51.96C103.301 52.0667 103.125 52.2167 102.991 52.41L102.111 51.63C102.371 51.31 102.688 51.0633 103.061 50.89C103.435 50.7167 103.871 50.63 104.371 50.63C105.098 50.63 105.641 50.7667 106.001 51.04C106.368 51.3067 106.551 51.65 106.551 52.07C106.551 52.41 106.461 52.6733 106.281 52.86C106.101 53.0467 105.821 53.1667 105.441 53.22V53.27C105.821 53.31 106.121 53.4333 106.341 53.64C106.568 53.84 106.681 54.1067 106.681 54.44C106.681 54.9667 106.471 55.38 106.051 55.68C105.631 55.9733 105.045 56.12 104.291 56.12ZM108.894 52.84H110.534V52.81C110.534 52.51 110.451 52.2667 110.284 52.08C110.117 51.8867 109.874 51.79 109.554 51.79C109.234 51.79 109.001 51.85 108.854 51.97C108.707 52.09 108.597 52.26 108.524 52.48L107.344 51.87C107.531 51.49 107.797 51.19 108.144 50.97C108.491 50.7433 108.961 50.63 109.554 50.63C110.387 50.63 111.014 50.8767 111.434 51.37C111.861 51.8633 112.074 52.53 112.074 53.37C112.074 53.79 112.021 54.17 111.914 54.51C111.807 54.85 111.644 55.14 111.424 55.38C111.211 55.6133 110.944 55.7967 110.624 55.93C110.311 56.0567 109.944 56.12 109.524 56.12C109.244 56.12 108.994 56.0933 108.774 56.04C108.554 55.9933 108.357 55.9167 108.184 55.81C108.011 55.7033 107.854 55.5667 107.714 55.4C107.574 55.2333 107.441 55.0333 107.314 54.8L108.444 54.21C108.544 54.47 108.677 54.66 108.844 54.78C109.011 54.9 109.237 54.96 109.524 54.96C109.877 54.96 110.134 54.87 110.294 54.69C110.454 54.5033 110.534 54.23 110.534 53.87V53.82H108.894V52.84ZM114.246 52.84H115.886V52.81C115.886 52.51 115.802 52.2667 115.636 52.08C115.469 51.8867 115.226 51.79 114.906 51.79C114.586 51.79 114.352 51.85 114.206 51.97C114.059 52.09 113.949 52.26 113.876 52.48L112.696 51.87C112.882 51.49 113.149 51.19 113.496 50.97C113.842 50.7433 114.312 50.63 114.906 50.63C115.739 50.63 116.366 50.8767 116.786 51.37C117.212 51.8633 117.426 52.53 117.426 53.37C117.426 53.79 117.372 54.17 117.266 54.51C117.159 54.85 116.996 55.14 116.776 55.38C116.562 55.6133 116.296 55.7967 115.976 55.93C115.662 56.0567 115.296 56.12 114.876 56.12C114.596 56.12 114.346 56.0933 114.126 56.04C113.906 55.9933 113.709 55.9167 113.536 55.81C113.362 55.7033 113.206 55.5667 113.066 55.4C112.926 55.2333 112.792 55.0333 112.666 54.8L113.796 54.21C113.896 54.47 114.029 54.66 114.196 54.78C114.362 54.9 114.589 54.96 114.876 54.96C115.229 54.96 115.486 54.87 115.646 54.69C115.806 54.5033 115.886 54.23 115.886 53.87V53.82H114.246V52.84ZM117.859 54.85H118.539C118.606 54.7633 118.662 54.6533 118.709 54.52C118.762 54.3867 118.806 54.2267 118.839 54.04C118.879 53.8467 118.909 53.6167 118.929 53.35C118.949 53.0833 118.959 52.77 118.959 52.41V50.75H123.129V56H121.649V51.9H120.379V52.49C120.379 52.9433 120.362 53.3433 120.329 53.69C120.296 54.03 120.246 54.3267 120.179 54.58C120.112 54.8267 120.032 55.0367 119.939 55.21C119.852 55.3767 119.756 55.5133 119.649 55.62C119.489 55.78 119.302 55.8933 119.089 55.96C118.882 56.0267 118.622 56.06 118.309 56.06H117.859V54.85ZM124.512 50.75H125.962V52.86L125.832 54.08H125.862L126.472 52.96L127.932 50.75H129.252V56H127.802V53.89L127.932 52.67H127.902L127.292 53.79L125.832 56H124.512V50.75ZM130.635 50.75H132.085V52.86L131.955 54.08H131.985L132.595 52.96L134.055 50.75H135.375V56H133.925V53.89L134.055 52.67H134.025L133.415 53.79L131.955 56H130.635V50.75ZM133.015 50.21C132.575 50.21 132.219 50.1133 131.945 49.92C131.672 49.7267 131.459 49.45 131.305 49.09L131.095 48.58L132.245 48.15L132.565 49.16C132.605 49.18 132.669 49.1967 132.755 49.21C132.842 49.2233 132.929 49.23 133.015 49.23C133.102 49.23 133.189 49.2233 133.275 49.21C133.362 49.1967 133.425 49.18 133.465 49.16L133.785 48.15L134.935 48.58L134.725 49.09C134.572 49.45 134.359 49.7267 134.085 49.92C133.812 50.1133 133.455 50.21 133.015 50.21ZM136.758 50.75H138.238V52.76H140.018V50.75H141.498V56H140.018V53.91H138.238V56H136.758V50.75ZM144.735 56L146.465 53.33L144.755 50.75H146.435L147.415 52.4H147.455L148.405 50.75H149.965L148.225 53.38L149.975 56H148.295L147.285 54.29H147.245L146.275 56H144.735ZM152.814 56.12C152.427 56.12 152.081 56.0567 151.774 55.93C151.474 55.8033 151.217 55.62 151.004 55.38C150.797 55.14 150.637 54.85 150.524 54.51C150.411 54.17 150.354 53.79 150.354 53.37C150.354 52.95 150.411 52.57 150.524 52.23C150.637 51.89 150.797 51.6033 151.004 51.37C151.217 51.13 151.474 50.9467 151.774 50.82C152.081 50.6933 152.427 50.63 152.814 50.63C153.201 50.63 153.544 50.6933 153.844 50.82C154.151 50.9467 154.407 51.13 154.614 51.37C154.827 51.6033 154.991 51.89 155.104 52.23C155.217 52.57 155.274 52.95 155.274 53.37C155.274 53.79 155.217 54.17 155.104 54.51C154.991 54.85 154.827 55.14 154.614 55.38C154.407 55.62 154.151 55.8033 153.844 55.93C153.544 56.0567 153.201 56.12 152.814 56.12ZM152.814 55.05C153.134 55.05 153.384 54.9567 153.564 54.77C153.744 54.5833 153.834 54.31 153.834 53.95V53.85H151.794V53.95C151.794 54.31 151.884 54.5833 152.064 54.77C152.244 54.9567 152.494 55.05 152.814 55.05ZM151.794 52.87H153.834V52.8C153.834 52.44 153.744 52.1667 153.564 51.98C153.384 51.7933 153.134 51.7 152.814 51.7C152.494 51.7 152.244 51.7933 152.064 51.98C151.884 52.1667 151.794 52.44 151.794 52.8V52.87ZM156.329 50.75H159.879V51.9H157.809V56H156.329V50.75ZM160.482 54.85H161.022L161.572 53.77C161.705 53.5233 161.899 53.3733 162.152 53.32V53.27C161.905 53.21 161.719 53.0533 161.592 52.8L161.142 51.9H160.602V50.75H161.212C161.492 50.75 161.722 50.8067 161.902 50.92C162.082 51.0333 162.239 51.2233 162.372 51.49L163.012 52.76H163.672V50.75H165.152V52.76H165.812L166.452 51.49C166.585 51.2233 166.742 51.0333 166.922 50.92C167.102 50.8067 167.332 50.75 167.612 50.75H168.222V51.9H167.682L167.232 52.8C167.105 53.0533 166.919 53.21 166.672 53.27V53.32C166.925 53.3733 167.119 53.5233 167.252 53.77L167.802 54.85H168.342V56H167.672C167.392 56 167.162 55.9467 166.982 55.84C166.802 55.7267 166.642 55.53 166.502 55.25L165.812 53.91H165.152V56H163.672V53.91H163.012L162.322 55.25C162.182 55.53 162.022 55.7267 161.842 55.84C161.662 55.9467 161.432 56 161.152 56H160.482V54.85ZM168.894 54.85H169.574C169.641 54.7633 169.697 54.6533 169.744 54.52C169.797 54.3867 169.841 54.2267 169.874 54.04C169.914 53.8467 169.944 53.6167 169.964 53.35C169.984 53.0833 169.994 52.77 169.994 52.41V50.75H174.164V56H172.684V51.9H171.414V52.49C171.414 52.9433 171.397 53.3433 171.364 53.69C171.331 54.03 171.281 54.3267 171.214 54.58C171.147 54.8267 171.067 55.0367 170.974 55.21C170.887 55.3767 170.791 55.5133 170.684 55.62C170.524 55.78 170.337 55.8933 170.124 55.96C169.917 56.0267 169.657 56.06 169.344 56.06H168.894V54.85ZM175.547 50.75H176.997V52.86L176.867 54.08H176.897L177.507 52.96L178.967 50.75H180.287V56H178.837V53.89L178.967 52.67H178.937L178.327 53.79L176.867 56H175.547V50.75ZM181.67 50.75H183.12V52.86L182.99 54.08H183.02L183.63 52.96L185.09 50.75H186.41V56H184.96V53.89L185.09 52.67H185.06L184.45 53.79L182.99 56H181.67V50.75ZM184.05 50.21C183.61 50.21 183.254 50.1133 182.98 49.92C182.707 49.7267 182.494 49.45 182.34 49.09L182.13 48.58L183.28 48.15L183.6 49.16C183.64 49.18 183.704 49.1967 183.79 49.21C183.877 49.2233 183.964 49.23 184.05 49.23C184.137 49.23 184.224 49.2233 184.31 49.21C184.397 49.1967 184.46 49.18 184.5 49.16L184.82 48.15L185.97 48.58L185.76 49.09C185.607 49.45 185.394 49.7267 185.12 49.92C184.847 50.1133 184.49 50.21 184.05 50.21ZM187.794 50.75H189.274V52.76H191.054V50.75H192.534V56H191.054V53.91H189.274V56H187.794V50.75ZM197.31 51.9H195.79V50.75H200.31V51.9H198.79V56H197.31V51.9ZM203.283 56.12C202.896 56.12 202.55 56.0567 202.243 55.93C201.943 55.8033 201.686 55.62 201.473 55.38C201.266 55.14 201.106 54.85 200.993 54.51C200.88 54.17 200.823 53.79 200.823 53.37C200.823 52.95 200.88 52.57 200.993 52.23C201.106 51.89 201.266 51.6033 201.473 51.37C201.686 51.13 201.943 50.9467 202.243 50.82C202.55 50.6933 202.896 50.63 203.283 50.63C203.67 50.63 204.013 50.6933 204.313 50.82C204.62 50.9467 204.876 51.13 205.083 51.37C205.296 51.6033 205.46 51.89 205.573 52.23C205.686 52.57 205.743 52.95 205.743 53.37C205.743 53.79 205.686 54.17 205.573 54.51C205.46 54.85 205.296 55.14 205.083 55.38C204.876 55.62 204.62 55.8033 204.313 55.93C204.013 56.0567 203.67 56.12 203.283 56.12ZM203.283 55.05C203.603 55.05 203.853 54.9567 204.033 54.77C204.213 54.5833 204.303 54.31 204.303 53.95V53.85H202.263V53.95C202.263 54.31 202.353 54.5833 202.533 54.77C202.713 54.9567 202.963 55.05 203.283 55.05ZM202.263 52.87H204.303V52.8C204.303 52.44 204.213 52.1667 204.033 51.98C203.853 51.7933 203.603 51.7 203.283 51.7C202.963 51.7 202.713 51.7933 202.533 51.98C202.353 52.1667 202.263 52.44 202.263 52.8V52.87ZM206.797 50.75H209.787C210.267 50.75 210.634 50.87 210.887 51.11C211.141 51.35 211.267 51.67 211.267 52.07C211.267 52.41 211.177 52.6733 210.997 52.86C210.817 53.0467 210.537 53.1667 210.157 53.22V53.27C211.031 53.35 211.467 53.7533 211.467 54.48C211.467 54.9467 211.321 55.3167 211.027 55.59C210.734 55.8633 210.327 56 209.807 56H206.797V50.75ZM209.537 54.95C209.671 54.95 209.777 54.9133 209.857 54.84C209.937 54.7667 209.977 54.6633 209.977 54.53V54.22C209.977 54.0867 209.937 53.9833 209.857 53.91C209.777 53.83 209.671 53.79 209.537 53.79H208.237V54.95H209.537ZM209.357 52.91C209.491 52.91 209.594 52.8733 209.667 52.8C209.741 52.7267 209.777 52.6233 209.777 52.49V52.22C209.777 52.0867 209.741 51.9833 209.667 51.91C209.594 51.8367 209.491 51.8 209.357 51.8H208.237V52.91H209.357Z" fill="#4D5358"/>
<defs>
<clipPath id="clip0_107_9883">
<rect width="92.3077" height="25" fill="white" transform="translate(59.8462)"/>
</clipPath>
</defs>
</svg>
