<svg width="85" height="23" viewBox="0 0 85 23" fill="none" xmlns="http://www.w3.org/2000/svg">
<g clip-path="url(#clip0_107_10041)">
<path fill-rule="evenodd" clip-rule="evenodd" d="M39.5755 4.07431C39.8203 3.78279 40.0755 3.50759 40.3413 3.24639L40.3215 3.23706C40.3693 3.18925 40.346 3.21374 40.3949 3.16709C41.2108 2.38931 42.1468 1.72581 43.1841 1.20923C43.9685 0.812755 44.7903 0.510737 45.633 0.304339L45.6295 0.320664L45.6516 0.314834C47.21 -0.0559835 48.7695 -0.0909663 50.2533 0.164408L50.2451 0.123595C50.3115 0.134089 50.2789 0.129425 50.3453 0.13992C52.2802 0.474588 54.1544 1.30951 55.7664 2.66451C60.6268 6.74816 61.2574 14.0013 57.1756 18.8639C56.1266 20.1139 54.8677 21.0829 53.4947 21.7651C53.4504 21.7873 53.4061 21.8094 53.3618 21.8316L53.3513 21.8362C52.6077 22.1977 51.8151 22.4846 50.9771 22.6851C44.8031 24.1568 38.6046 20.3425 37.1337 14.1657C36.5462 11.6971 36.8026 9.22494 37.7164 7.05251L37.7479 7.0875C38.1873 6.02285 38.7946 5.00602 39.5744 4.07665L39.5755 4.07431ZM44.6912 4.26322C43.7564 4.74132 42.8985 5.40949 42.1817 6.2654C39.3086 9.68788 39.7527 14.793 43.1736 17.6674C45.7122 19.8002 49.1775 20.1057 51.9701 18.7216C55.2361 17.0704 57.0695 13.3424 56.1837 9.62491C55.1486 5.27656 50.7859 2.59221 46.4407 3.6277C45.8218 3.77463 45.2378 3.99036 44.6924 4.26322H44.6912Z" fill="white"/>
<path fill-rule="evenodd" clip-rule="evenodd" d="M28.1765 1.05182L21.7402 22.5044H25.174L28.7103 10.7794L31.531 1.05182H28.1765Z" fill="#EC008C"/>
<path fill-rule="evenodd" clip-rule="evenodd" d="M29.9153 6.62341L34.6929 22.5044H38.0952L31.5308 1.05182L29.9153 6.62341Z" fill="white"/>
<path fill-rule="evenodd" clip-rule="evenodd" d="M65.3206 1.05182L58.8855 22.5044H62.3193L67.0899 6.68171L71.8384 22.5044H75.2407L68.8592 1.05182H65.3206Z" fill="#EC008C"/>
<path fill-rule="evenodd" clip-rule="evenodd" d="M78.1605 3.83062H74.2244V0.957367H84.9231V3.83062H81.4136V22.5044H78.1605V3.83062Z" fill="white"/>
<path d="M14 11H17L15.2 13.5L14 14H11V11H14Z" fill="white"/>
<path fill-rule="evenodd" clip-rule="evenodd" d="M2.75532 4.07431C3.00009 3.78279 3.25535 3.50759 3.5211 3.24639L3.50129 3.23706C3.54907 3.18925 3.52576 3.21374 3.57472 3.16709C4.39061 2.38931 5.32773 1.72581 6.36391 1.20923C7.14834 0.812755 7.97006 0.510737 8.81277 0.304339L8.80927 0.320664L8.83142 0.314834C10.3898 -0.0559835 11.9493 -0.0909663 13.4331 0.164408L13.4249 0.123595C13.4913 0.134089 13.4587 0.129425 13.5251 0.13992C15.46 0.474588 17.3342 1.30951 18.9462 2.66451C23.8066 6.74816 24.4372 14.0013 20.3554 18.8639C19.3064 20.1139 18.0475 21.0829 16.6745 21.7651C16.6302 21.7873 16.5859 21.8094 16.5416 21.8316L16.5311 21.8362C15.7875 22.1977 14.9949 22.4846 14.1569 22.6851C7.98288 24.1568 1.78441 20.3425 0.313465 14.1657C-0.272815 11.6959 -0.0163902 9.22378 0.897413 7.05135L0.928883 7.08633C1.3683 6.02169 1.97556 5.00486 2.75532 4.07548V4.07431ZM7.87099 4.26322C6.93621 4.74132 6.07835 5.40949 5.36153 6.2654C2.48841 9.68788 2.93249 14.793 6.35342 17.6674C8.89202 19.8002 12.3573 20.1057 15.1499 18.7216C18.4159 17.0704 20.2493 13.3424 19.3635 9.62491C18.3284 5.27656 13.9657 2.59221 9.6205 3.6277C9.00159 3.77463 8.41764 3.99036 7.87216 4.26322H7.87099Z" fill="white"/>
<path fill-rule="evenodd" clip-rule="evenodd" d="M8.69735 11.1269C9.0272 11.226 9.3792 11.1315 9.70789 11.2341C9.71139 11.2761 9.71838 11.3601 9.72071 11.4032C9.80463 11.4685 9.88972 11.535 9.97014 11.6038C10.0599 11.5828 10.1508 11.5618 10.2406 11.5408C10.3117 11.7379 10.4177 11.921 10.4678 12.125C10.3629 11.9536 10.3 11.7589 10.173 11.6003C10.0797 11.6248 9.98646 11.6469 9.89438 11.6691C9.84543 11.5828 9.7755 11.5152 9.7009 11.4534C9.6671 11.3834 9.66127 11.2901 9.59483 11.2423C9.30461 11.1945 9.00855 11.2411 8.71833 11.1968C8.73115 11.2353 8.75679 11.3123 8.76961 11.3508C8.72415 11.3484 8.63324 11.3449 8.58778 11.3426C8.57147 11.4674 8.58545 11.5991 8.5365 11.7181C8.46423 11.6936 8.39197 11.6703 8.3197 11.6469C8.24278 11.5595 8.16468 11.4732 8.09009 11.3846C8.23928 11.4825 8.364 11.6143 8.533 11.6831C8.48288 11.521 8.49803 11.3671 8.64839 11.2738C8.66121 11.2376 8.68686 11.1653 8.69851 11.1292L8.69735 11.1269Z" fill="#EC008C"/>
<path fill-rule="evenodd" clip-rule="evenodd" d="M11.038 3.69417C11.5939 3.61604 12.1546 3.67085 12.7094 3.73382C13.0556 3.79795 13.4122 3.82477 13.7421 3.95188C14.0405 4.08365 14.368 4.14428 14.6524 4.30754C14.7736 4.37284 14.7666 4.53026 14.8132 4.64337C14.8715 4.70167 14.931 4.75881 14.9904 4.81712C14.734 4.86143 14.4752 4.88242 14.2188 4.9279C14.5044 4.96055 14.7864 4.84744 15.0685 4.88359C15.248 4.9862 15.3319 5.20076 15.4695 5.35119C15.4799 5.31154 15.4998 5.23458 15.5091 5.1961C15.5207 5.25557 15.5324 5.31387 15.5441 5.37334C15.6723 5.42815 15.8063 5.47713 15.9264 5.55176C15.9858 5.64854 16.0219 5.75815 16.0674 5.86194C16.0301 5.85494 15.9555 5.84095 15.9182 5.83278C15.924 5.89925 15.931 5.96455 15.9368 6.03102C15.7958 5.93657 15.6641 5.83045 15.5394 5.71617C15.4963 5.70685 15.41 5.69052 15.3657 5.68119C15.4182 5.77448 15.4706 5.86543 15.5219 5.95989C15.459 5.93657 15.396 5.91324 15.3342 5.89109C15.2795 5.79547 15.2235 5.69985 15.1664 5.6054C15.121 5.68819 15.0767 5.77098 15.0324 5.85377C14.8622 5.73716 14.6699 5.64854 14.5195 5.50628C14.3377 5.27189 14.2398 4.96754 14.002 4.7798C13.7572 4.6457 13.4775 4.58157 13.2491 4.41715C13.0847 4.29704 12.9052 4.20142 12.7117 4.13845C12.4541 4.16061 12.2024 4.09414 11.9588 4.02068C11.9168 4.05916 11.8772 4.09881 11.8387 4.13962C11.8655 4.16877 11.918 4.22474 11.9448 4.2539C11.8737 4.33319 11.8014 4.41248 11.7257 4.48711C11.7665 4.43114 11.8096 4.37634 11.8515 4.32153C11.8236 4.26789 11.7956 4.21425 11.7676 4.16061C11.6685 4.11047 11.5648 4.06615 11.4622 4.02301C11.6802 3.99619 11.8877 3.9099 12.0578 3.7723C11.728 3.66385 11.3772 3.67901 11.0356 3.69767L11.038 3.69417Z" fill="#EC008C"/>
<path fill-rule="evenodd" clip-rule="evenodd" d="M9.57626 3.94722C9.93525 3.79213 10.3374 3.79912 10.7115 3.70117C10.708 3.707 10.6999 3.7175 10.6964 3.72333C10.6532 3.75365 10.6066 3.77697 10.5565 3.79329L10.539 3.79912C10.6101 3.83177 10.6824 3.86442 10.7546 3.89708C10.5204 3.94838 10.2826 3.93556 10.046 3.93556C9.8082 3.98686 9.57859 4.07899 9.33032 4.08015C9.41075 4.03467 9.49234 3.99036 9.57509 3.94722H9.57626Z" fill="#EC008C"/>
<path fill-rule="evenodd" clip-rule="evenodd" d="M10.04 4.09882C10.2394 4.0755 10.5144 3.94373 10.6461 4.16996C10.8664 4.2889 11.1403 4.26091 11.3723 4.17812C11.3688 4.23759 11.3606 4.35537 11.3571 4.41484C11.2441 4.35537 11.1263 4.30406 10.9993 4.3542C10.6823 4.30406 10.3652 4.23642 10.0424 4.24109L10.047 4.21893C10.1543 4.20727 10.2615 4.19678 10.3687 4.18162C10.2627 4.13964 10.1519 4.11398 10.04 4.09766V4.09882Z" fill="#EC008C"/>
<path fill-rule="evenodd" clip-rule="evenodd" d="M12.3621 4.20493C12.552 4.2469 12.7584 4.23058 12.9332 4.32503C12.8924 4.3262 12.812 4.32853 12.7723 4.32853C12.8225 4.39616 12.8714 4.4638 12.9204 4.5326C12.7805 4.49761 12.6441 4.45214 12.5078 4.40549C12.3387 4.51977 12.3924 4.29238 12.3632 4.20493H12.3621Z" fill="#EC008C"/>
<path fill-rule="evenodd" clip-rule="evenodd" d="M11.4913 4.27255C11.5798 4.2504 11.6101 4.28305 11.5833 4.36701C11.4936 4.38916 11.4633 4.35651 11.4913 4.27255Z" fill="#EC008C"/>
<path fill-rule="evenodd" clip-rule="evenodd" d="M12.0286 4.32271C12.1172 4.29473 12.1464 4.32271 12.1149 4.40901C12.0263 4.43816 11.9972 4.40901 12.0286 4.32271Z" fill="#EC008C"/>
<path fill-rule="evenodd" clip-rule="evenodd" d="M8.5144 4.69004C8.79647 4.48364 9.15313 4.46381 9.48182 4.55127C9.56108 4.6364 9.66132 4.71219 9.78487 4.69004C10.0075 4.65855 10.215 4.75067 10.4294 4.79149C10.5716 4.82064 10.7057 4.75067 10.8374 4.70636C10.8315 4.73435 10.8199 4.78915 10.8141 4.81714C10.8677 4.81597 10.9772 4.81248 11.0309 4.81131C10.8933 4.9046 10.9563 5.06668 10.9131 5.19845C10.8409 5.25559 10.7558 5.29174 10.6765 5.33488C10.6987 5.40951 10.7208 5.48531 10.7453 5.55994C10.659 5.59492 10.574 5.63224 10.4889 5.67189C10.4924 5.64273 10.4994 5.58676 10.5029 5.55877C10.4154 5.58909 10.3257 5.61475 10.2336 5.61008C10.2429 5.66489 10.2604 5.77567 10.2709 5.83047C10.2056 5.771 10.1415 5.71153 10.0786 5.6509C9.93639 5.60775 9.78953 5.57743 9.64034 5.58559C9.62286 5.57743 9.58789 5.55994 9.56924 5.55178C9.46084 5.57976 9.35478 5.54828 9.25221 5.52029C9.24754 5.46199 9.24638 5.40368 9.23705 5.34655C9.08553 5.40718 8.9375 5.47715 8.77899 5.51563C8.89554 5.46199 9.00161 5.38969 8.941 5.2416C8.85125 5.3139 8.76383 5.39202 8.66709 5.45383C8.61464 5.34188 8.68807 5.2416 8.73003 5.14131C8.71372 5.111 8.67991 5.05152 8.6636 5.02121C8.71488 4.95707 8.7615 4.88711 8.79647 4.81248C8.70206 4.77166 8.60765 4.72968 8.5144 4.68887V4.69004Z" fill="#EC008C"/>
<path fill-rule="evenodd" clip-rule="evenodd" d="M12.7793 4.56408C12.9413 4.56059 13.108 4.54543 13.2665 4.59557C13.2315 4.69469 13.0987 4.69002 13.0194 4.73783C12.939 4.67953 12.8586 4.62239 12.7793 4.56408Z" fill="#EC008C"/>
<path fill-rule="evenodd" clip-rule="evenodd" d="M11.2512 4.67254C11.341 4.66437 11.4307 4.65621 11.5216 4.64688L11.5123 4.66087C11.4564 4.71451 11.4261 4.78215 11.4237 4.86261C11.3736 4.92091 11.3247 4.97805 11.2745 5.03402C11.3841 5.03169 11.496 5.03053 11.6067 5.03286C11.4412 5.12265 11.264 5.19028 11.0811 5.23343C11.0892 5.17979 11.1055 5.0725 11.1137 5.01886C11.1615 4.97689 11.2104 4.93374 11.2582 4.89293C11.2547 4.81946 11.2536 4.746 11.2512 4.67254Z" fill="#EC008C"/>
<path fill-rule="evenodd" clip-rule="evenodd" d="M11.5461 4.87777C11.5893 4.83696 11.6324 4.79731 11.6755 4.7565C11.707 4.83346 11.7385 4.90926 11.7688 4.98622C11.6918 4.95474 11.6184 4.91625 11.5461 4.87777Z" fill="#EC008C"/>
<path fill-rule="evenodd" clip-rule="evenodd" d="M7.73575 5.75699C7.78587 5.63805 7.91874 5.60423 8.0318 5.57391C8.01781 5.65321 8.00266 5.73367 7.98868 5.8118C7.93156 5.85261 7.87561 5.89342 7.81967 5.93424C7.78587 5.8771 7.72409 5.82929 7.73458 5.75582L7.73575 5.75699Z" fill="#EC008C"/>
<path fill-rule="evenodd" clip-rule="evenodd" d="M15.3236 6.11383C15.4612 6.14998 15.5707 6.2421 15.6849 6.32373C15.6127 6.3867 15.5404 6.45083 15.467 6.51263C15.5369 6.55228 15.6138 6.5861 15.6779 6.63741C15.6884 6.7202 15.6954 6.80299 15.7013 6.88578C15.7397 6.84264 15.7794 6.79949 15.8201 6.75751C15.8633 6.76101 15.9519 6.76917 15.995 6.77267C16.0428 6.99423 16.178 7.17731 16.277 7.37671C16.2899 7.53996 16.2794 7.70438 16.2875 7.86763C16.368 7.96792 16.4449 8.06937 16.5195 8.17315C16.544 8.16732 16.5929 8.15566 16.6174 8.14983C16.9169 8.42619 17.0487 8.81567 17.2107 9.17949C16.9507 9.00457 16.6372 8.84832 16.5137 8.5393C16.3598 8.18481 16.2584 7.76618 15.9239 7.53413C15.9717 7.69155 16.0521 7.83382 16.1302 7.97608C16.0917 7.94926 16.0148 7.89562 15.9763 7.8688C15.8633 8.11834 16.0486 8.35039 16.1756 8.55329C16.0777 8.61743 15.9705 8.67923 15.9379 8.80051C15.8843 8.93811 15.7642 9.03956 15.7129 9.17715C15.7362 9.51649 15.8085 9.85349 15.763 10.1952C15.8912 10.215 16.0253 10.2663 16.1477 10.1987C16.1302 10.1543 16.0952 10.0669 16.0777 10.0226C16.192 10.0354 16.3248 10.0529 16.3854 10.1672C16.4775 10.3607 16.5848 10.5473 16.6745 10.7421C16.7468 11.1432 16.8039 11.5723 16.6943 11.9711C16.6687 12.0959 16.5335 12.0621 16.4414 12.0726C16.4123 11.9979 16.3237 11.893 16.4029 11.8207C16.5649 11.6773 16.4297 11.4475 16.4029 11.275C16.4029 11.4184 16.4216 11.5618 16.4437 11.7041C16.2584 11.7764 16.3586 11.9781 16.4029 12.111C16.4286 12.4154 16.0556 12.602 16.0777 12.911C16.108 12.8317 16.1372 12.7524 16.164 12.6719C16.1978 12.6614 16.2654 12.6416 16.2992 12.6323C16.3015 12.5786 16.3074 12.4702 16.3097 12.4166C16.3761 12.455 16.4286 12.5087 16.4659 12.5786C16.4064 12.7046 16.3551 12.8352 16.312 12.967C16.3447 12.9856 16.4111 13.0194 16.4437 13.0369C16.3843 13.1454 16.2934 13.2328 16.2048 13.3168C16.1733 13.206 16.1768 13.0532 16.0253 13.0451C16.0358 13.0031 16.0556 12.9191 16.0649 12.876C15.9717 13.0474 15.8738 13.2177 15.7327 13.3553C15.7397 13.262 15.7479 13.1699 15.756 13.0777C15.5334 13.0731 15.5241 13.3576 15.4239 13.5022C15.3563 13.5698 15.1966 13.6468 15.3259 13.7401C15.3702 13.7401 15.46 13.7389 15.5054 13.7377C15.5148 13.7704 15.5346 13.8357 15.5439 13.8695C15.6127 13.8054 15.671 13.7319 15.7222 13.6526C15.7689 13.6468 15.8609 13.634 15.9064 13.6281C15.7689 13.7914 15.6745 13.9838 15.629 14.1925C15.671 14.1972 15.7549 14.2053 15.798 14.21C15.8726 14.2951 15.9507 14.3768 16.0334 14.4549C15.9892 14.4689 15.9006 14.4969 15.8551 14.5109C15.9169 14.5179 16.0393 14.5307 16.101 14.5365C16.0451 14.6193 15.9892 14.7033 15.9332 14.7872C16.0031 14.7581 16.0742 14.7289 16.1442 14.7009C16.1267 14.9948 15.9857 15.2583 15.8936 15.5335C15.7467 15.7912 15.5637 16.1061 15.2362 16.1387C15.1511 16.3405 14.9355 16.4198 14.7653 16.5317C14.7863 16.5725 14.8283 16.6553 14.8504 16.6961C14.8504 16.7194 14.8481 16.7649 14.8481 16.7882C14.8049 16.8279 14.7618 16.8687 14.721 16.9095C14.6826 16.9107 14.6068 16.913 14.5683 16.913C14.6208 16.8104 14.7129 16.7404 14.8108 16.6821C14.7921 16.639 14.7525 16.5515 14.7327 16.5084C14.5823 16.5387 14.4343 16.5842 14.2816 16.59C14.2699 16.5585 14.2478 16.4967 14.2373 16.4652C14.1685 16.4687 14.0998 16.4734 14.0322 16.4781C13.8643 16.6157 13.6231 16.6157 13.4669 16.7672C13.4016 16.8582 13.2885 16.8372 13.1918 16.8477C13.151 16.7661 13.1079 16.6845 13.0659 16.604C13.0135 16.5982 12.9086 16.5853 12.8561 16.5783C12.9062 16.5037 12.9575 16.4291 13.01 16.3556C13.0076 16.2717 13.0065 16.19 13.0065 16.1061C12.9447 16.0641 12.8829 16.0233 12.8223 15.9813C12.7046 16.1026 12.6626 15.9148 12.5706 15.881C12.433 15.8787 12.2978 15.9277 12.1871 16.0081C12.313 15.9813 12.4377 15.951 12.5647 15.9253C12.6067 15.9941 12.6603 16.0536 12.7221 16.1049C12.6277 16.1667 12.5333 16.2297 12.44 16.2938C12.3794 16.4361 12.3514 16.6273 12.1813 16.6798C12.1183 16.7952 12.06 16.9142 12.0111 17.0366C11.9749 16.9667 11.94 16.8967 11.9038 16.8279C11.94 16.8197 12.0122 16.8057 12.0495 16.7987C12.0041 16.7428 11.9621 16.6856 11.905 16.6425C11.7943 16.7019 11.7209 16.8034 11.6801 16.9212C11.5483 16.9235 11.4166 16.9188 11.2884 16.9515C11.1684 16.9841 11.1229 17.1182 11.0157 17.1684C10.6952 17.3071 10.4084 17.5322 10.0518 17.5765C10.0448 17.7409 10.0238 17.9042 9.976 18.0628C9.86411 18.1152 9.75221 18.1712 9.64265 18.2295C9.3769 17.9567 9.20556 17.6103 9.03656 17.2733C8.92932 17.0506 8.97478 16.7976 8.9538 16.5608C8.93399 16.5445 8.89436 16.5107 8.87454 16.4944C8.86522 16.618 8.79528 16.6891 8.67057 16.646C8.57616 16.5912 8.51322 16.4979 8.43979 16.4209C8.4934 16.4081 8.6018 16.3836 8.65542 16.3719C8.54236 16.3323 8.43512 16.2787 8.33605 16.2122C8.37801 16.1865 8.46077 16.1329 8.50156 16.1061C8.41414 16.1014 8.32673 16.0979 8.24047 16.0932C8.19618 15.9953 8.15073 15.8985 8.1041 15.8017C7.8943 15.7423 7.6845 15.6723 7.49102 15.5697C7.48752 15.5417 7.48053 15.488 7.47703 15.4612C7.45255 15.4717 7.4036 15.4939 7.37912 15.5044C7.1938 15.3808 6.93737 15.277 6.90474 15.0286C6.89658 14.8875 6.72174 14.919 6.62617 14.8805C6.47115 14.6846 6.30447 14.477 6.28815 14.2182C6.27766 14.0724 6.17743 13.9616 6.097 13.8485C6.11215 13.6176 6.05737 13.3937 5.99093 13.1757C6.04455 13.1255 6.09933 13.0754 6.15295 13.0241C6.12381 12.8795 6.10516 12.7337 6.09117 12.5868C5.87554 12.4539 5.66108 12.3046 5.51422 12.0947C5.42797 11.9676 5.31957 11.858 5.18786 11.781C5.17038 11.6481 5.16338 11.4977 5.01652 11.4452C4.96057 11.1933 5.05382 10.9566 5.13424 10.7222C5.23215 10.9181 5.43379 11.0091 5.60979 11.1175C5.76132 11.2983 5.73218 11.584 5.91983 11.7437C6.01891 11.844 6.19374 11.8837 6.22055 12.0411C6.20074 12.2218 6.1343 12.3921 6.10399 12.5716C6.14479 12.49 6.17859 12.4037 6.20656 12.3163C6.23803 12.4072 6.27067 12.5005 6.30447 12.5903C6.35343 12.5903 6.4525 12.588 6.50145 12.5868C6.50495 12.7151 6.50495 12.8445 6.50262 12.9751C6.58654 13.2083 6.74156 13.4147 7.00498 13.4485C7.02479 13.2282 7.07491 13.0089 7.05276 12.7874C7.09123 12.8224 7.13086 12.8573 7.17049 12.8923C7.28122 12.8667 7.38379 12.9098 7.48169 12.9576C7.58892 12.9261 7.69732 12.9017 7.80689 12.883C7.81971 13.0253 7.81854 13.1815 7.95375 13.2666C7.98055 13.3203 8.00853 13.3739 8.0365 13.4276C8.03534 13.3809 8.033 13.2876 8.03184 13.241C7.99571 13.22 7.92344 13.178 7.88731 13.157C7.90712 13.0171 7.83369 12.9005 7.75094 12.7967C7.64254 12.8398 7.53298 12.8818 7.42341 12.9226C7.43857 12.8527 7.46771 12.7116 7.48286 12.6416C7.46188 12.6906 7.42108 12.7862 7.4001 12.834L7.35814 12.8305C7.36047 12.6929 7.27072 12.6043 7.15883 12.5437C7.1192 12.3816 7.09006 12.2172 7.05859 12.0539C7.10638 12.1589 7.17049 12.0936 7.23576 12.0387C7.26956 12.0551 7.336 12.0877 7.3698 12.1052C7.41292 12.0248 7.45722 11.9455 7.50151 11.865C7.4409 11.8102 7.38029 11.7554 7.32084 11.7006C7.28937 11.6971 7.25907 11.6936 7.2276 11.6901H7.05976C7.05976 11.6901 7.05743 11.6971 7.05626 11.7006C7.0143 11.6971 6.92921 11.6901 6.88725 11.6866C6.84296 11.7227 6.79984 11.7589 6.75555 11.7939C6.72291 11.9839 6.6961 12.1752 6.67046 12.3664C6.54225 12.1647 6.50845 11.9175 6.35809 11.7262C6.20889 11.5292 6.14479 11.2901 6.11099 11.0487C6.22988 10.9869 6.37324 10.9449 6.45017 10.826C6.48397 10.8272 6.55274 10.8295 6.58654 10.8307C6.54807 10.8085 6.46998 10.7642 6.43035 10.7421C6.40238 10.7525 6.3476 10.7735 6.31962 10.784C6.22871 10.7397 6.13663 10.6954 6.04455 10.6511C6.03523 10.7327 6.02707 10.8132 6.01891 10.8948C5.96879 10.875 5.91867 10.854 5.86855 10.8353C5.89536 10.7584 5.9175 10.6767 5.96879 10.6114C5.97578 10.5228 5.98044 10.433 5.98511 10.3444C5.88137 10.3351 5.7788 10.3269 5.67623 10.3129C5.73568 10.257 5.80444 10.25 5.88487 10.2896C5.8907 10.1893 5.8907 10.0879 5.88953 9.98759L6.00026 10.0167C5.93149 9.80801 5.74034 9.65992 5.72052 9.43253C5.82892 9.40104 5.93848 9.36839 6.04805 9.33808C6.08884 9.29493 6.12847 9.25295 6.17043 9.21097C6.22288 9.38005 6.27067 9.5503 6.31962 9.72055C6.35809 9.72055 6.43618 9.72172 6.47464 9.72288C6.49446 9.75437 6.53525 9.81734 6.55507 9.84882C6.45716 10.1124 6.53176 10.3852 6.6588 10.6231C6.62617 10.6639 6.56206 10.7455 6.52943 10.7864C6.59353 10.7409 6.65647 10.6931 6.72058 10.6464C6.63433 10.4447 6.51777 10.236 6.57022 10.0086C6.60286 9.89197 6.57372 9.77769 6.53758 9.66575C6.57255 9.65292 6.64365 9.62843 6.67978 9.6156C6.7637 9.4162 6.8721 9.2133 6.83364 8.98941C6.96185 8.82733 7.11454 8.56845 7.36047 8.67224C7.36397 8.63142 7.37096 8.55096 7.37446 8.51132C7.49684 8.49382 7.62156 8.49149 7.74045 8.45301C7.88148 8.24078 8.06098 8.06004 8.24747 7.88746C8.2801 7.87346 8.34654 7.84548 8.38034 7.83265C8.39316 7.7965 8.41997 7.72304 8.43279 7.68572C8.50506 7.67989 8.57849 7.6729 8.65192 7.66707C8.7102 7.88979 8.81976 8.16965 8.65658 8.37022C8.38617 8.49382 8.38967 8.13 8.34654 7.96325C8.31391 8.04371 8.2836 8.12534 8.25097 8.2058C8.12858 8.31541 7.98055 8.53114 8.18103 8.64891C8.19968 8.57428 8.21949 8.49849 8.23698 8.42386C8.2533 8.47633 8.28477 8.58361 8.30108 8.63609C8.40599 8.52997 8.67057 8.37138 8.69155 8.62792C8.79762 8.49849 8.90485 8.36439 9.0587 8.28976C9.01325 8.42852 8.8151 8.44718 8.86056 8.62676C9.04705 8.57079 9.2755 8.474 9.43052 8.64891C9.56223 8.66291 9.69743 8.6804 9.78718 8.78885C9.81749 8.74337 9.87809 8.65008 9.90956 8.60344C9.87809 8.55096 9.84662 8.49965 9.81515 8.44835C9.97017 8.61743 10.1299 8.78651 10.2371 8.99058C10.2592 8.97425 10.3012 8.93927 10.3233 8.92178C10.286 8.78418 10.2989 8.64308 10.3536 8.51132C10.4679 8.42269 10.5611 8.2781 10.7255 8.28626C10.6299 8.51248 10.5669 8.7492 10.5261 8.99058C10.5168 9.10835 10.4178 9.18532 10.3513 9.27277C10.2954 9.26111 10.1858 9.23779 10.1322 9.22613C10.1975 9.29959 10.2767 9.35906 10.3571 9.4162C10.5506 9.31709 10.6077 9.09086 10.7721 8.96959C10.7721 9.02789 10.7698 9.14567 10.7686 9.20397C10.8036 9.23546 10.8385 9.26694 10.8747 9.29843C10.8618 9.12701 10.8805 8.89729 10.6427 8.89846C10.6835 8.75619 10.722 8.61277 10.7604 8.46934C10.7931 8.60344 10.9096 8.67107 11.0238 8.73054C10.9889 8.66524 10.9516 8.59994 10.9166 8.53464C11.0238 8.45651 11.1159 8.51132 11.1963 8.59411C11.1859 8.69089 11.1789 8.78885 11.1742 8.88563C11.4062 8.75969 11.2092 8.47167 11.1439 8.29792C11.1975 8.29092 11.3059 8.2781 11.3595 8.27227C11.3863 8.29792 11.4423 8.34923 11.4703 8.37488C11.5052 8.2641 11.5052 8.13467 11.5728 8.03788C11.722 7.93993 11.9027 7.92011 12.0752 7.89212C12.0845 7.86763 12.1008 7.81632 12.1102 7.79184C12.1183 7.73003 12.1265 7.6694 12.1358 7.60759C12.2034 7.65307 12.271 7.69972 12.3374 7.74636C12.3934 7.72654 12.4482 7.70671 12.5029 7.68805C12.5554 7.75219 12.609 7.81632 12.6626 7.87929C12.574 8.04371 12.4831 8.20813 12.4015 8.37605C12.5193 8.28859 12.6335 8.19647 12.7477 8.10435C12.7908 8.17198 12.8363 8.24078 12.8806 8.30958C12.8631 8.24545 12.8456 8.18248 12.8281 8.11834C12.8596 8.10435 12.9226 8.07636 12.954 8.0612C13.0857 8.13117 13.292 8.12651 13.3014 7.9341C13.355 7.91194 13.4086 7.89096 13.4634 7.8688C13.4902 7.9271 13.5182 7.98541 13.5461 8.04488C13.6464 8.08686 13.7454 8.13 13.8457 8.17315C13.7851 7.99124 13.9541 7.91428 14.0916 7.86647C14.066 7.76385 13.9727 7.6624 14.0147 7.55162C14.0788 7.55978 14.207 7.57728 14.2711 7.58544C14.2571 7.55046 14.2291 7.48049 14.214 7.44551C14.3236 7.44434 14.4343 7.44084 14.5439 7.43268C14.5765 7.33706 14.6184 7.24377 14.6697 7.15748C14.8061 7.20879 14.9471 7.25194 15.087 7.29158C15.0264 7.23095 14.9623 7.17148 14.9017 7.11201C14.9739 7.00706 15.0544 6.90794 15.1418 6.81698C15.0742 6.79483 15.0054 6.77267 14.939 6.75052C14.9739 6.55695 15.0987 6.41002 15.256 6.30041C15.3085 6.30274 15.4134 6.30624 15.4646 6.30857C15.4157 6.24327 15.3679 6.1803 15.3213 6.11383H15.3236ZM13.5834 13.9162C13.5834 13.9162 13.5904 13.9162 13.5939 13.9138C13.6662 13.8987 13.6079 13.8963 13.6743 13.8835L13.6767 13.8975C13.7443 13.8835 13.8352 13.88 13.8538 13.831C13.8608 13.8124 13.8597 13.8077 13.89 13.7937V13.8019C13.9133 13.7972 13.9133 13.7914 13.9214 13.7634C13.9296 13.7354 13.9471 13.7482 13.9692 13.7377C13.9797 13.7331 13.9844 13.7296 13.9972 13.7249C14.0054 13.7214 14.0182 13.7191 14.0252 13.7121C14.0415 13.6981 14.0217 13.6864 14.0508 13.6771C14.0671 13.6724 14.066 13.6934 14.1103 13.6794C14.1441 13.6689 14.1231 13.6514 14.1849 13.6538L14.2431 13.6514C14.256 13.648 14.2548 13.641 14.2618 13.634C14.2769 13.6258 14.2874 13.6421 14.3096 13.6176L14.3224 13.6083C14.3224 13.6083 14.3236 13.6083 14.3236 13.6071C14.3236 13.6071 14.3294 13.6001 14.3306 13.599L14.3434 13.5803V13.5792C14.3504 13.5698 14.3504 13.5675 14.3632 13.5617C14.3667 13.5605 14.369 13.5593 14.3737 13.5582C14.397 13.5488 14.3958 13.5395 14.4063 13.5313C14.4238 13.5185 14.4215 13.5302 14.4261 13.5092C14.4285 13.501 14.4285 13.5022 14.4343 13.4964C14.4529 13.4777 14.4471 13.4754 14.4471 13.4509L14.4693 13.3937C14.4891 13.3588 14.4949 13.3728 14.5194 13.3529L14.5439 13.3331C14.5543 13.3226 14.5532 13.3156 14.5683 13.2993C14.5858 13.2806 14.5683 13.2468 14.5473 13.2293C14.5392 13.2107 14.5229 13.1932 14.5089 13.1885C14.4949 13.1838 14.4891 13.1862 14.4797 13.1745C14.4751 13.1687 14.4762 13.1687 14.4693 13.164C14.4658 13.1617 14.4634 13.1594 14.4623 13.157C14.4611 13.1384 14.4669 13.1384 14.4669 13.1092C14.4669 13.0929 14.4728 13.0766 14.4751 13.0614C14.4786 13.0334 14.4949 13.0101 14.5357 13.0054C14.5543 13.0031 14.5672 13.0136 14.5788 13.0241C14.5893 13.0323 14.5963 13.0334 14.608 13.0369C14.6196 13.0416 14.6115 13.0404 14.6278 13.0369C14.6616 13.0311 14.6779 13.0311 14.7094 13.0159C14.7292 13.0066 14.7397 12.9926 14.7548 12.9705L14.7606 12.9623C14.7665 12.9541 14.7688 12.9553 14.7711 12.9436C14.7735 12.9238 14.7723 12.9145 14.7898 12.9017C14.8026 12.8912 14.8049 12.8795 14.7979 12.8643C14.7933 12.855 14.7898 12.855 14.7851 12.8468C14.7979 12.8433 14.791 12.8468 14.7991 12.8387C14.8201 12.8457 14.8201 12.8445 14.8469 12.8375C14.8655 12.8329 14.8725 12.827 14.8947 12.8224C14.9017 12.8025 14.9215 12.806 14.9413 12.7815L14.96 12.7466C14.9658 12.7361 14.9833 12.7232 14.9856 12.7127C14.9903 12.6929 14.9739 12.7046 14.9751 12.6789C14.9751 12.6719 14.9774 12.6673 14.9786 12.6614C14.9798 12.6474 14.9739 12.6323 14.9786 12.6218C14.9833 12.6125 14.9833 12.6218 14.9879 12.6055C14.9903 12.5961 14.9879 12.5973 14.9926 12.5891L14.9973 12.5821C14.9973 12.5821 15.0008 12.5763 15.0019 12.5728C15.0264 12.5681 15.0579 12.5798 15.0649 12.5565C15.0719 12.5343 15.0649 12.511 15.0719 12.4912C15.0742 12.4912 15.0812 12.4947 15.0835 12.4959C15.0928 12.5005 15.0858 12.4994 15.0963 12.5028C15.1115 12.4959 15.1336 12.4667 15.1406 12.4539C15.1499 12.4352 15.1593 12.4422 15.1744 12.4306C15.1768 12.4282 15.1814 12.4236 15.1814 12.4224C15.1954 12.4096 15.2152 12.4166 15.2129 12.3944C15.2245 12.3932 15.228 12.3991 15.2362 12.4049C15.2537 12.4212 15.298 12.4061 15.3213 12.3956C15.3318 12.3897 15.3306 12.3886 15.3376 12.3816C15.3376 12.3816 15.3388 12.3816 15.3388 12.3804L15.3423 12.3769C15.3504 12.3664 15.3469 12.3524 15.3411 12.3454C15.3318 12.3349 15.3364 12.3466 15.3306 12.3279C15.3259 12.3128 15.3306 12.3186 15.3201 12.3104C15.3155 12.3069 15.312 12.3034 15.3085 12.2999V12.2965C15.3038 12.2813 15.3085 12.2871 15.2968 12.279C15.2863 12.2708 15.2782 12.2615 15.2665 12.2533L15.1616 12.2032C15.1325 12.1903 15.1499 12.1845 15.1045 12.1822C15.0998 12.1822 15.0998 12.1822 15.0952 12.1822C15.0835 12.1798 15.0928 12.1822 15.0858 12.1775C15.0812 12.1728 15.0788 12.1682 15.073 12.1635C15.0579 12.1519 15.0439 12.1589 15.0287 12.1635C15.0043 12.1693 15.0043 12.1577 14.9844 12.1763C14.9786 12.1822 14.9716 12.1833 14.9646 12.1892C14.953 12.1985 14.9588 12.2148 14.9565 12.2277L14.9448 12.2661C14.9378 12.2638 14.9413 12.265 14.9355 12.2615C14.9355 12.2615 14.9413 12.2603 14.9238 12.2568C14.9238 12.2568 14.9227 12.2568 14.9215 12.2568C14.9028 12.2545 14.8737 12.2393 14.8469 12.265C14.8131 12.2976 14.8282 12.2801 14.8049 12.2836C14.7851 12.2871 14.7746 12.3034 14.777 12.3198C14.7606 12.3233 14.7455 12.3128 14.7338 12.3023C14.7338 12.2848 14.7641 12.2743 14.7618 12.2545C14.7595 12.2381 14.7478 12.2451 14.742 12.2218C14.735 12.1962 14.7583 12.1938 14.7537 12.1682C14.7513 12.153 14.749 12.1589 14.7443 12.1495C14.7385 12.1379 14.7443 12.1227 14.7467 12.1122C14.7537 12.0866 14.7525 12.0248 14.756 11.9956C14.756 11.9863 14.756 11.9874 14.7548 11.9758C14.7548 11.9653 14.756 11.9618 14.756 11.9548C14.756 11.9408 14.7443 11.935 14.7338 11.9268C14.7338 11.9268 14.7327 11.9268 14.7315 11.9256C14.7315 11.9093 14.7199 11.9035 14.7094 11.8953C14.6965 11.8848 14.6884 11.8883 14.6709 11.8941C14.6476 11.9023 14.6476 11.9011 14.6336 11.914L14.6033 11.9408C14.5508 11.9501 14.5287 11.9151 14.4902 11.921C14.4728 11.9245 14.4529 11.928 14.4366 11.9338C14.4086 11.9431 14.4098 11.9548 14.3853 11.9874C14.3748 12.0014 14.3515 12.0376 14.341 12.0457C14.3142 12.0679 14.3445 12.0994 14.3212 12.118C14.3084 12.1285 14.3037 12.1344 14.2863 12.139C14.2257 12.153 14.2373 12.181 14.2128 12.1903C14.1977 12.1962 14.193 12.1938 14.1825 12.2067C14.1674 12.2242 14.1347 12.209 14.1219 12.2521L14.1196 12.2545L14.1126 12.258L14.1009 12.2626L13.5788 13.9162H13.5834ZM14.1056 12.2626C14.0998 12.2661 14.0974 12.2685 14.0939 12.272C14.0916 12.272 14.087 12.2685 14.0858 12.2685C14.0858 12.2685 14.0846 12.2685 14.0835 12.2685C14.0753 12.2661 14.0765 12.2685 14.0671 12.2626L14.0625 12.2591C14.0415 12.2685 14.052 12.2626 14.0427 12.2766C14.038 12.2825 14.0275 12.2918 14.0159 12.2906C14.0065 12.2906 14.0054 12.2848 13.9855 12.2848C13.9657 12.2848 13.9634 12.2918 13.9529 12.2906C13.9436 12.2906 13.9378 12.279 13.8865 12.2895C13.8399 12.2988 13.8573 12.3069 13.8165 12.3069C13.8014 12.2766 13.8119 12.286 13.7781 12.279C13.7746 12.279 13.7711 12.2778 13.7676 12.2766C13.7676 12.2661 13.7688 12.2556 13.7664 12.251L13.7571 12.2428C13.7524 12.2405 13.7489 12.2393 13.7454 12.2381C13.7454 12.23 13.7454 12.223 13.7443 12.2195C13.7443 12.2195 13.735 12.2113 13.7338 12.2113C13.7175 12.202 13.7093 12.2067 13.6942 12.2172L13.6673 12.2311C13.6615 12.2102 13.6534 12.223 13.6382 12.2137C13.6347 12.2113 13.6289 12.2078 13.6242 12.2055C13.6114 12.1973 13.5916 12.167 13.5566 12.1775C13.5403 12.1822 13.5508 12.1822 13.538 12.1892C13.5158 12.2008 13.517 12.1868 13.4983 12.1857H13.4529C13.4529 12.1857 13.4389 12.1868 13.4319 12.188C13.4296 12.188 13.4237 12.188 13.4214 12.188C13.4086 12.188 13.4202 12.188 13.4086 12.188C13.3864 12.188 13.3876 12.1985 13.3841 12.2113C13.3561 12.2172 13.3585 12.2183 13.3503 12.2346C13.3387 12.2358 13.334 12.2253 13.3037 12.251C13.2932 12.2603 13.299 12.2708 13.2722 12.2778C13.2722 12.2778 13.2664 12.279 13.2629 12.2801C13.2582 12.272 13.2582 12.2708 13.2431 12.2755C13.2326 12.279 13.2303 12.2813 13.2291 12.2895L13.2104 12.293C13.2035 12.2825 13.2128 12.293 13.2 12.286C13.193 12.2813 13.1941 12.2825 13.1883 12.2778C13.179 12.2708 13.1755 12.2696 13.1627 12.2661C13.1557 12.2708 13.1533 12.2743 13.1463 12.2778C13.1358 12.2731 13.1428 12.2755 13.137 12.272C13.1277 12.2661 13.13 12.2685 13.1149 12.2661C13.0986 12.2626 13.0939 12.2638 13.0822 12.2533C13.0787 12.2498 13.0787 12.2498 13.0741 12.2463C13.0496 12.23 13.0717 12.2416 13.0543 12.2067L13.0275 12.1519C13.01 12.1204 13.0426 12.0842 12.9703 12.0761C12.94 12.0726 12.933 12.0714 12.9202 12.0831C12.9109 12.0691 12.8957 12.0772 12.8818 12.0726C12.8689 12.0691 12.8584 12.0586 12.8468 12.0539C12.8386 12.0504 12.8153 12.0434 12.8072 12.0446C12.7943 12.0457 12.7908 12.0504 12.7827 12.0527C12.7652 12.0562 12.785 12.0527 12.7582 12.0516C12.7384 12.0516 12.7489 12.0516 12.7221 12.0376C12.6848 12.0166 12.6836 12.0387 12.6603 12.0224C12.6556 12.0189 12.6591 12.0201 12.6533 12.0178C12.6195 11.9979 12.63 11.9944 12.6055 12.0049C12.6032 12.0119 12.6055 12.0259 12.602 12.0317C12.602 12.0341 12.5962 12.0376 12.595 12.0422C12.588 12.0551 12.5997 12.0562 12.5857 12.0679C12.5671 12.0819 12.5752 12.0702 12.5694 12.0901L12.5671 12.0959V12.097L12.5636 12.1017C12.5402 12.1064 12.5496 12.1134 12.5542 12.1344C12.5309 12.1507 12.5111 12.146 12.5193 12.181C12.5216 12.1938 12.5251 12.2078 12.5239 12.2172C12.5204 12.237 12.5123 12.2218 12.5169 12.2498C12.5298 12.2521 12.5367 12.2463 12.5391 12.2638C12.5391 12.2731 12.5391 12.2871 12.5437 12.3011C12.5496 12.3198 12.5647 12.3221 12.5915 12.3303C12.5974 12.3606 12.5962 12.3501 12.5892 12.3629L12.5787 12.3979C12.5752 12.4142 12.5787 12.4107 12.5647 12.4236C12.5601 12.4271 12.5624 12.4247 12.5589 12.4294C12.5554 12.434 12.5554 12.4375 12.5531 12.4434C12.4971 12.455 12.5263 12.4585 12.5006 12.4807C12.4936 12.4865 12.4878 12.4889 12.4761 12.4912C12.4598 12.4737 12.4691 12.4632 12.4377 12.4632C12.3794 12.4632 12.4202 12.4667 12.3969 12.4597C12.3887 12.4574 12.3922 12.4585 12.3806 12.4597V12.4679C12.3666 12.4702 12.3677 12.4644 12.3584 12.4585C12.3526 12.455 12.3398 12.4515 12.3293 12.4515C12.3048 12.4515 12.2966 12.4644 12.2792 12.4807C12.2582 12.4644 12.2325 12.469 12.2255 12.469C12.2174 12.469 12.2209 12.469 12.2151 12.4655C12.2092 12.462 12.2046 12.4574 12.1964 12.455C12.1719 12.4504 12.1743 12.469 12.1579 12.441C12.1463 12.4224 12.1428 12.4282 12.1451 12.3991C12.1474 12.3699 12.1556 12.3699 12.1102 12.3641L12.0868 12.3606C12.0612 12.3606 12.0577 12.3722 12.0321 12.3641C12.0111 12.3571 11.9994 12.3501 12.0053 12.3792C11.9749 12.3851 11.9924 12.3781 11.9726 12.3769C11.968 12.3571 11.9726 12.3571 11.9749 12.3396C11.9621 12.3303 11.9505 12.3279 11.9342 12.3314C11.9365 12.3419 11.9365 12.3373 11.9342 12.3454C11.9073 12.3361 11.9132 12.3349 11.9062 12.3268C11.891 12.3104 11.8829 12.3233 11.8735 12.3314L11.8782 12.3536C11.87 12.3536 11.8665 12.3536 11.8607 12.3536C11.8456 12.3489 11.8269 12.3559 11.8176 12.3653C11.8094 12.3734 11.8153 12.3664 11.8118 12.3734C11.8094 12.3769 11.8094 12.3792 11.8059 12.3816L11.7651 12.4061C11.7582 12.4096 11.7512 12.4131 11.7407 12.4166C11.7278 12.4201 11.7034 12.4166 11.7092 12.4445C11.6882 12.4445 11.6905 12.434 11.6637 12.4399C11.6591 12.4527 11.6567 12.462 11.6509 12.4737C11.6416 12.4737 11.6358 12.469 11.6276 12.4714C11.6113 12.4749 11.6194 12.4795 11.6171 12.4854C11.6078 12.5098 11.5682 12.5028 11.5717 12.5378C11.5752 12.5693 11.5717 12.546 11.5717 12.5693C11.5472 12.5647 11.5518 12.5751 11.5344 12.5856C11.5215 12.5938 11.4982 12.5903 11.5017 12.6148C11.4796 12.6066 11.4691 12.5833 11.4166 12.6113C11.4073 12.616 11.4073 12.6148 11.398 12.6369C11.3945 12.6451 11.3957 12.6451 11.398 12.6556C11.3689 12.6626 11.3677 12.6778 11.3712 12.6976C11.3479 12.7139 11.3327 12.7267 11.3619 12.7442C11.3665 12.7466 11.3677 12.7466 11.3747 12.7489C11.3828 12.7512 11.3922 12.7431 11.3863 12.7652C11.3793 12.7967 11.405 12.8025 11.44 12.8177C11.4539 12.8235 11.4586 12.8259 11.4621 12.8433C11.4679 12.8725 11.4644 12.8573 11.4784 12.8737C11.4982 12.8958 11.4889 12.8807 11.5099 12.8947C11.5274 12.9063 11.5169 12.9075 11.5332 12.9086C11.5495 12.9098 11.5577 12.9028 11.5577 12.8888C11.602 12.904 11.602 12.9331 11.6311 12.9331C11.6311 12.9238 11.6334 12.9238 11.6404 12.9168C11.6428 12.9285 11.6463 12.9308 11.6498 12.946C11.6544 12.946 11.6742 12.9518 11.6777 12.9541C11.6859 12.9588 11.7022 13.0089 11.7022 13.0136C11.7034 13.0276 11.6952 13.0346 11.7232 13.0661C11.7267 13.0696 11.729 13.0731 11.7337 13.0766L11.7465 13.0836C11.7593 13.0917 11.7605 13.0941 11.7651 13.1046C11.7745 13.1279 11.7756 13.1197 11.7791 13.1349V13.1384C11.7768 13.1582 11.7826 13.15 11.7698 13.1838C11.7628 13.2013 11.7628 13.2188 11.7582 13.234C11.7686 13.2375 11.764 13.2387 11.7756 13.2387C11.7815 13.2678 11.7803 13.269 11.7686 13.29C11.764 13.2993 11.7616 13.304 11.757 13.3121C11.7453 13.3319 11.7465 13.3214 11.7407 13.3506C11.7407 13.3506 11.7407 13.3518 11.7407 13.3529C11.7325 13.3914 11.75 13.3844 11.7547 13.4136C11.757 13.4287 11.7535 13.4264 11.7628 13.4369C11.7826 13.4322 11.7861 13.4299 11.7989 13.4334L11.8024 13.4346C11.8059 13.4357 11.8059 13.4346 11.8083 13.4369C11.8199 13.4416 11.8106 13.4416 11.8258 13.4451C11.8327 13.4462 11.8444 13.4462 11.8514 13.4462C11.8631 13.4474 11.8514 13.4439 11.8619 13.452C11.8712 13.4602 11.8607 13.4555 11.8735 13.459C11.8922 13.4614 11.926 13.4462 11.9493 13.4544C11.9575 13.4567 11.9621 13.4602 11.9714 13.4602C12.0006 13.4602 11.9948 13.4462 12.0169 13.452C12.0857 13.4695 12.0938 13.459 12.1684 13.4824L12.1824 13.4917C12.1882 13.4964 12.1929 13.4975 12.1999 13.5034L12.2512 13.5418C12.2745 13.5605 12.271 13.55 12.2885 13.5652C12.299 13.5757 12.2978 13.5722 12.3304 13.5803H12.3386C12.3386 13.5803 12.3398 13.5827 12.3456 13.5827C12.3584 13.5838 12.3654 13.5803 12.3736 13.5803C12.4004 13.5803 12.3654 13.6188 12.3957 13.6305C12.412 13.6363 12.4085 13.6281 12.4202 13.6456C12.4505 13.6923 12.4237 13.7039 12.4796 13.7529C12.4785 13.7669 12.4738 13.7564 12.4773 13.7727C12.4866 13.7727 12.5274 13.803 12.5309 13.8089C12.5344 13.8147 12.5402 13.8287 12.5531 13.8357L12.6545 13.8334C12.6731 13.831 12.6941 13.8415 12.7197 13.8427C12.7489 13.845 12.7337 13.8392 12.7722 13.8462L12.8223 13.8532C12.8351 13.8532 12.8456 13.8532 12.8596 13.8532C12.8736 13.8532 12.8957 13.8637 12.9319 13.8567C12.9552 13.852 12.9552 13.8509 12.9727 13.8439L13.024 13.8205C13.0391 13.8124 13.0566 13.8275 13.0764 13.824C13.0822 13.817 13.0846 13.8135 13.0846 13.803C13.1207 13.796 13.1044 13.803 13.1533 13.8054C13.1592 13.8054 13.1568 13.8054 13.1603 13.8054C13.1603 13.8054 13.1615 13.8054 13.1627 13.8054C13.1627 13.8054 13.1638 13.8054 13.165 13.8054C13.165 13.8054 13.1662 13.8054 13.1673 13.8054C13.1836 13.8077 13.1801 13.8054 13.1895 13.796C13.2081 13.796 13.2641 13.8007 13.2804 13.8135L13.3142 13.838C13.32 13.8427 13.3258 13.8439 13.334 13.8462C13.334 13.8462 13.3433 13.8497 13.3445 13.8497C13.348 13.852 13.3491 13.8567 13.3526 13.8602C13.3701 13.8567 13.4226 13.8485 13.4401 13.852C13.475 13.859 13.4692 13.8695 13.489 13.8695C13.496 13.8695 13.5018 13.8672 13.5112 13.8683C13.5321 13.8695 13.5298 13.8893 13.5706 13.8835C13.5706 13.8835 13.5776 13.8835 13.5823 13.8823C13.5846 13.8823 13.5869 13.8823 13.5881 13.8812L13.5939 13.9162L14.1161 12.2626H14.1056Z" fill="#EC008C"/>
<path fill-rule="evenodd" clip-rule="evenodd" d="M9.77677 6.38435C9.91896 6.32721 9.93062 6.59774 9.77443 6.57792C9.61708 6.58958 9.76161 6.45315 9.77677 6.38435Z" fill="#EC008C"/>
<path fill-rule="evenodd" clip-rule="evenodd" d="M9.9772 6.49631C10.0786 6.47066 10.1124 6.50797 10.0786 6.60709C9.97604 6.63158 9.94224 6.59543 9.9772 6.49631Z" fill="#EC008C"/>
<path fill-rule="evenodd" clip-rule="evenodd" d="M6.09942 6.91609C6.05046 6.73535 6.22763 6.70037 6.34535 6.63623C6.33952 6.67238 6.3267 6.74351 6.32088 6.77966C6.24745 6.82514 6.17285 6.87061 6.10058 6.91493L6.09942 6.91609Z" fill="#EC008C"/>
<path fill-rule="evenodd" clip-rule="evenodd" d="M6.37333 6.89045C6.49688 6.81349 6.62043 6.73536 6.74747 6.6619C6.70085 6.74002 6.65423 6.81815 6.60877 6.89628C6.55749 6.89745 6.5062 6.89978 6.45608 6.90211C6.33952 7.07586 6.18684 7.22045 6.03298 7.35922C6.02366 7.3907 6.00617 7.45484 5.99685 7.48632C5.96188 7.47699 5.89195 7.45717 5.85582 7.44784C5.85232 7.37554 5.84999 7.30208 5.84766 7.22978C5.94673 7.23795 5.98403 7.15165 6.02832 7.08052C6.07494 7.08985 6.12273 7.10035 6.17052 7.10968C6.22413 7.06886 6.27892 7.02921 6.3337 6.9884C6.34302 6.96391 6.364 6.91377 6.37449 6.88928L6.37333 6.89045Z" fill="#EC008C"/>
<path fill-rule="evenodd" clip-rule="evenodd" d="M6.64258 7.47814C6.7638 7.27758 7.00274 7.20528 7.20555 7.11899C7.28014 7.1703 7.35357 7.22044 7.42817 7.27175C7.27665 7.40002 7.10997 7.50846 6.93513 7.60175C6.83839 7.55977 6.74049 7.51779 6.64374 7.47931L6.64258 7.47814Z" fill="#EC008C"/>
<path fill-rule="evenodd" clip-rule="evenodd" d="M13.4494 7.30674C13.5485 7.29974 13.6347 7.25427 13.7093 7.18896C13.6767 7.27292 13.6452 7.35805 13.6149 7.44317C13.559 7.3977 13.503 7.35222 13.4482 7.30674H13.4494Z" fill="#EC008C"/>
<path fill-rule="evenodd" clip-rule="evenodd" d="M7.50854 7.2531C7.58431 7.20179 7.6286 7.21812 7.64375 7.30091C7.56682 7.35339 7.52253 7.33706 7.50854 7.2531Z" fill="#EC008C"/>
<path fill-rule="evenodd" clip-rule="evenodd" d="M7.52023 7.41168C7.75451 7.28458 8.02609 7.25775 8.28834 7.27758C8.28251 7.42451 8.19043 7.53645 8.09952 7.64257C8.16829 7.59592 8.23705 7.54928 8.30699 7.5038C8.33263 7.51546 8.38625 7.53878 8.41305 7.54928C8.5063 7.5108 8.60071 7.47348 8.69512 7.4385C8.58905 7.57027 8.44336 7.65772 8.3303 7.779C8.09485 7.96324 7.86524 8.16381 7.72187 8.42968C7.60415 8.44017 7.4876 8.4495 7.36987 8.4565C7.29877 8.40752 7.22767 8.35855 7.15774 8.31074C7.16357 8.26526 7.17522 8.17314 7.18105 8.12533C7.27779 8.05536 7.36754 7.9714 7.47944 7.92243C7.61348 7.90727 7.74985 7.91543 7.88505 7.89561C7.95732 7.82797 8.00277 7.73702 8.05872 7.65656C7.98879 7.65539 7.91885 7.65423 7.85009 7.65189C7.77316 7.68338 7.69623 7.71603 7.62047 7.74635C7.43398 7.65189 7.24632 7.71486 7.09247 7.8373C7.06449 7.89677 7.03652 7.95624 7.00738 8.01571C6.98174 7.97374 6.9561 7.93059 6.93045 7.88978C6.82439 8.00872 6.68336 8.08568 6.54582 8.16264C6.50153 8.14398 6.41294 8.1055 6.36865 8.08568C6.53416 7.92826 6.65888 7.70437 6.89432 7.64373C7.09597 7.58193 7.26614 7.45599 7.43398 7.33355C7.45612 7.35221 7.50042 7.39186 7.5214 7.41051L7.52023 7.41168Z" fill="#EC008C"/>
<path fill-rule="evenodd" clip-rule="evenodd" d="M8.43053 7.31489C8.5261 7.24143 8.65665 7.39652 8.52727 7.45132C8.4212 7.54344 8.30115 7.37553 8.43053 7.31489Z" fill="#EC008C"/>
<path fill-rule="evenodd" clip-rule="evenodd" d="M5.16116 7.54694C5.19962 7.48514 5.24042 7.42334 5.28005 7.3627C5.19613 7.66822 5.05043 7.95274 4.9805 8.26176C4.87443 8.30024 4.7672 8.33872 4.66113 8.3772C4.66813 8.05303 4.86511 7.77783 5.14018 7.62157C5.09123 7.62974 4.99332 7.64723 4.94436 7.65539C4.977 7.62041 5.04227 7.54811 5.07491 7.51313C5.09589 7.52129 5.13901 7.53878 5.16116 7.54811V7.54694Z" fill="#EC008C"/>
<path fill-rule="evenodd" clip-rule="evenodd" d="M5.59222 7.38254C5.62719 7.48982 5.63885 7.62975 5.76706 7.6694C5.78104 7.74869 5.79503 7.82798 5.81018 7.90728C5.78454 7.87813 5.73442 7.81982 5.70995 7.79067C5.65167 7.94343 5.59689 8.09852 5.5491 8.25477C5.478 8.2641 5.4069 8.2746 5.3358 8.28393C5.25887 8.37488 5.18078 8.46467 5.10385 8.55563C5.13882 8.54047 5.20875 8.50898 5.24372 8.49382C5.29384 8.60227 5.35095 8.70838 5.40806 8.8145C5.45935 8.78884 5.5118 8.76202 5.56308 8.73637C5.58756 8.81916 5.6132 8.90196 5.63651 8.98591C5.51879 9.03372 5.40224 9.0827 5.28568 9.12934C5.32298 9.05005 5.36028 8.96959 5.39874 8.89029C5.30549 8.91012 5.18544 8.90895 5.13882 9.00924C5.01294 9.24362 4.95116 9.50599 4.9092 9.7672C4.85792 9.81617 4.80896 9.86631 4.76001 9.91762C4.91153 9.53165 4.93834 9.10369 5.15514 8.73987C5.0549 8.49499 4.95349 8.18481 5.13182 7.95042C5.33696 7.80933 5.51063 7.62159 5.59106 7.38254H5.59222Z" fill="#EC008C"/>
<path fill-rule="evenodd" clip-rule="evenodd" d="M10.3047 7.7067C10.4713 7.66239 10.6462 7.66472 10.8175 7.6554C10.6357 7.78483 10.3897 7.73702 10.1998 7.85246C9.99111 7.93992 9.78597 8.09968 9.79413 8.34922C9.76849 8.32473 9.74401 8.29908 9.71837 8.27459C9.70672 8.20579 9.69506 8.13816 9.68457 8.07052C9.90253 7.96674 10.0855 7.80349 10.3058 7.70554L10.3047 7.7067Z" fill="#EC008C"/>
<path fill-rule="evenodd" clip-rule="evenodd" d="M5.95143 7.70904C6.08081 7.66356 6.08547 7.85713 5.96425 7.85713C5.83021 7.90261 5.83021 7.71254 5.95143 7.70904Z" fill="#EC008C"/>
<path fill-rule="evenodd" clip-rule="evenodd" d="M6.38269 7.69622C6.42581 7.65308 6.58549 7.68106 6.5074 7.75919C6.4398 7.86414 6.21718 7.78484 6.38269 7.69622Z" fill="#EC008C"/>
<path fill-rule="evenodd" clip-rule="evenodd" d="M5.74737 7.99706C5.83246 7.93176 5.94202 7.91077 6.03993 7.87112C6.06673 7.89445 6.12268 7.93876 6.14949 7.96091C6.16348 8.03554 6.17863 8.11017 6.19378 8.1848C6.16697 8.22212 6.11336 8.29558 6.08655 8.3329L6.12385 8.35855C6.19378 8.38071 6.26372 8.4017 6.33365 8.42269C6.32199 8.50664 6.3115 8.5906 6.30101 8.67456C6.33365 8.6594 6.39892 8.62908 6.43156 8.61276C6.39309 8.75152 6.40125 8.92177 6.2812 9.02322C6.16697 9.13633 6.05042 9.24711 5.9292 9.35206C5.90122 9.32058 5.84528 9.25644 5.81847 9.22379C5.81381 9.26694 5.80565 9.35439 5.80099 9.39754C5.72989 9.28093 5.54573 9.18298 5.60284 9.02672C5.74271 8.98474 5.75203 9.16432 5.80215 9.24595C5.80798 9.05587 5.8173 8.86463 5.86393 8.67923C5.90006 8.56961 6.00263 8.49498 6.0376 8.3842C5.97815 8.43085 5.92454 8.48332 5.86859 8.53346C5.79516 8.48449 5.7124 8.41102 5.65179 8.52064C5.69375 8.52647 5.77767 8.54046 5.8208 8.54629C5.7905 8.70721 5.80681 8.88796 5.70657 9.02672C5.64363 8.89262 5.67744 8.64191 5.45831 8.67456C5.40819 8.40286 5.59351 8.1953 5.7462 7.9959L5.74737 7.99706Z" fill="#EC008C"/>
<path fill-rule="evenodd" clip-rule="evenodd" d="M4.43255 8.28859C4.45587 8.21629 4.49083 8.14749 4.52696 8.08102C4.55028 8.10668 4.5969 8.15915 4.62021 8.18481C4.56659 8.36438 4.49666 8.54163 4.38477 8.69439C4.39526 8.55912 4.41041 8.42385 4.43255 8.28975V8.28859Z" fill="#EC008C"/>
<path fill-rule="evenodd" clip-rule="evenodd" d="M5.32886 8.37604C5.42211 8.29558 5.48038 8.46933 5.3988 8.51597C5.30555 8.5941 5.24844 8.42385 5.32886 8.37604Z" fill="#EC008C"/>
<path fill-rule="evenodd" clip-rule="evenodd" d="M6.63909 8.49614C6.68804 8.47982 6.73583 8.46466 6.78478 8.44833C6.7708 8.52063 6.75564 8.5941 6.74282 8.66756C6.78945 8.65123 6.88269 8.61858 6.92931 8.60342C6.91649 8.73869 6.89784 8.87746 6.81625 8.99173C6.70552 8.97774 6.74515 8.82848 6.70203 8.75618C6.69737 8.80516 6.68804 8.90428 6.68221 8.95325C6.5878 8.97074 6.49339 8.98824 6.40015 9.00573C6.43395 8.8518 6.48174 8.70138 6.54235 8.55678C6.57148 8.58243 6.62976 8.63608 6.6589 8.6629C6.65424 8.60692 6.64725 8.55095 6.63909 8.49498V8.49614Z" fill="#EC008C"/>
<path fill-rule="evenodd" clip-rule="evenodd" d="M6.98391 8.39005C7.07832 8.42386 7.1366 8.50316 7.18788 8.58595C7.10629 8.64425 7.0247 8.70256 6.94312 8.76086C6.95594 8.63726 6.96876 8.51365 6.98508 8.39005H6.98391Z" fill="#EC008C"/>
<path fill-rule="evenodd" clip-rule="evenodd" d="M4.34393 8.86348C4.39639 8.77603 4.45699 8.69207 4.52693 8.61627C4.51993 8.88797 4.55607 9.1725 4.45466 9.43137C4.34393 9.49317 4.27167 9.59462 4.2402 9.71823C4.22272 9.79286 4.2029 9.86749 4.18542 9.94212C4.23321 9.86749 4.28099 9.79286 4.32762 9.71823C4.32062 9.78003 4.30664 9.90247 4.29964 9.96544C4.26584 9.96777 4.19824 9.97127 4.16444 9.97477C4.0607 10.145 3.99426 10.3363 3.93366 10.5252C4.01874 10.4004 4.08052 10.2628 4.13879 10.1252C4.17027 10.1054 4.23437 10.0657 4.26584 10.0459C4.29731 10.4097 4.22155 10.7724 4.26584 11.1362C4.32529 11.0837 4.38473 11.0301 4.44417 10.9764C4.47564 11.1467 4.49662 11.3181 4.51644 11.4895C4.45117 11.6131 4.39405 11.7402 4.36375 11.8767C4.42203 11.7799 4.47681 11.6808 4.53625 11.5851C4.55956 11.9513 4.83813 12.2055 4.9477 12.5402C4.99432 12.6649 4.88942 12.7734 4.82998 12.8713C4.81715 12.7291 4.83347 12.5798 4.77753 12.4446C4.71575 12.8492 4.81832 13.2655 4.71225 13.6655C4.74722 13.7226 4.78102 13.7786 4.81599 13.8345C4.79268 13.992 4.77286 14.1529 4.82298 14.308C4.79384 14.3243 4.73556 14.3569 4.70643 14.3733C4.7006 14.4246 4.69127 14.5272 4.68545 14.5773C4.72974 14.4992 4.77636 14.4211 4.82415 14.3441C4.86494 14.4619 4.89292 14.5855 4.91273 14.7091C4.86494 14.6683 4.76937 14.5867 4.72274 14.547C4.73673 14.582 4.76354 14.6543 4.77636 14.6904C4.97217 14.8689 5.06076 15.1219 5.15983 15.3598C5.15517 15.3819 5.14468 15.4239 5.14002 15.4461C5.1913 15.5335 5.24259 15.621 5.29387 15.7073C5.47104 15.8659 5.79739 15.9592 5.77292 16.246C5.62023 16.1457 5.50833 16 5.37196 15.8787C5.45239 15.9976 5.53864 16.1119 5.6179 16.232C5.51999 16.1877 5.42441 16.1399 5.32651 16.0968C5.43024 16.2507 5.6109 16.2647 5.77991 16.2728C5.79623 16.2274 5.82886 16.1364 5.84518 16.0909C5.90929 16.1434 5.9699 16.2017 6.02468 16.2647C6.01535 16.3766 5.92561 16.4408 5.83469 16.4862C5.7193 16.5737 5.59575 16.4501 5.49085 16.4034C5.33467 16.3323 5.23909 16.1889 5.16682 16.0408L5.31951 16.0723C5.20645 15.9358 5.09223 15.8017 4.978 15.6665C4.77636 15.4216 4.69827 15.1056 4.52693 14.8432C4.5549 14.7336 4.6225 14.6648 4.72741 14.6391C4.65864 14.61 4.58754 14.5843 4.5176 14.561C4.49313 14.4339 4.46399 14.3045 4.36491 14.2112C4.30197 14.3628 4.45233 14.4747 4.50828 14.5995C4.49662 14.6928 4.48497 14.7861 4.47448 14.8794C4.37774 14.673 4.28799 14.4619 4.20057 14.252C4.22971 14.2473 4.28799 14.2392 4.31713 14.2345C4.1656 14.0188 4.14113 13.7471 3.99543 13.5302C3.98844 13.3529 3.97212 13.1757 3.90452 13.0113C3.93715 13.0136 4.00359 13.0194 4.03739 13.0218C4.04438 12.876 4.07935 12.7337 4.16094 12.6125C4.30547 12.9401 4.43019 13.29 4.67496 13.5593C4.50711 13.22 4.28682 12.9017 4.18658 12.5343C4.20873 12.3105 4.32062 12.1076 4.37074 11.8907C4.22038 12.1157 4.18192 12.3886 4.09567 12.6393C3.97911 12.3058 4.01991 11.9478 3.93016 11.6085C3.90568 11.2435 3.93249 10.8762 3.91501 10.5112C3.90452 10.5741 3.88354 10.7012 3.87421 10.7642L3.80078 10.77C3.83924 10.0692 4.05604 9.39522 4.27284 8.73288C4.29148 8.76553 4.32762 8.832 4.34627 8.86582L4.34393 8.86348Z" fill="#EC008C"/>
<path fill-rule="evenodd" clip-rule="evenodd" d="M4.71457 9.17713C4.6901 9.09084 4.72157 9.05703 4.80898 9.07568C4.8323 9.16081 4.80083 9.19463 4.71457 9.17713Z" fill="#EC008C"/>
<path fill-rule="evenodd" clip-rule="evenodd" d="M6.18335 9.15733C6.24396 9.11418 6.30573 9.07104 6.36634 9.02789C6.51087 9.03606 6.65657 9.04422 6.80343 9.05122C6.80226 9.17249 6.77895 9.29376 6.71252 9.39754C6.69387 9.46984 6.67755 9.54331 6.66123 9.61677L6.58081 9.55147C6.52719 9.60744 6.47241 9.66225 6.41879 9.71822C6.31739 9.54097 6.25678 9.34624 6.18452 9.15733H6.18335Z" fill="#EC008C"/>
<path fill-rule="evenodd" clip-rule="evenodd" d="M5.38498 9.3159C5.42111 9.23194 5.46307 9.15032 5.52251 9.08035C5.56797 9.17014 5.62159 9.25643 5.68569 9.33689C5.68919 9.37771 5.69502 9.45933 5.69735 9.49898C5.65888 9.50248 5.58196 9.50947 5.54349 9.51297C5.709 9.54679 5.76961 9.70305 5.8512 9.82898C5.84071 9.90128 5.82906 9.97475 5.81973 10.047C5.76145 10.1147 5.70551 10.1835 5.64839 10.2523C5.64023 10.2978 5.62392 10.3899 5.61576 10.4365C5.52484 10.3152 5.40363 10.2056 5.35817 10.0564C5.38964 9.88262 5.38731 9.67506 5.53184 9.55029C5.48871 9.48499 5.44559 9.42085 5.40246 9.35555C5.32087 9.48149 5.23345 9.60393 5.12622 9.71004C5.14604 9.59926 5.16935 9.48965 5.19382 9.38004C5.23229 9.38587 5.30805 9.39636 5.34535 9.40219C5.31388 9.32523 5.28357 9.24827 5.2521 9.17131C5.28124 9.17014 5.34068 9.16664 5.36982 9.16548C5.37332 9.20279 5.37915 9.27742 5.38265 9.31474L5.38498 9.3159Z" fill="#EC008C"/>
<path fill-rule="evenodd" clip-rule="evenodd" d="M4.45594 9.48734C4.54802 9.52931 4.44078 9.77653 4.33705 9.72172C4.27994 9.63076 4.37202 9.52115 4.45594 9.48734Z" fill="#EC008C"/>
<path fill-rule="evenodd" clip-rule="evenodd" d="M5.06909 9.77885C5.25209 9.76135 5.32202 9.55496 5.4479 9.44534C5.40477 9.65641 5.33484 9.86164 5.25092 10.0587C5.21828 10.0377 5.15301 9.99457 5.12038 9.97358C5.15301 9.94793 5.21828 9.89545 5.25092 9.8698C5.19031 9.83832 5.1297 9.808 5.06909 9.77885Z" fill="#EC008C"/>
<path fill-rule="evenodd" clip-rule="evenodd" d="M16.3599 9.90363C16.5009 10.0494 16.6513 10.187 16.797 10.3292C16.8436 10.4342 16.8377 10.5555 16.8576 10.6674C16.7515 10.4762 16.6256 10.2966 16.4671 10.145C16.3937 10.0855 16.3808 9.98875 16.3599 9.90363Z" fill="#EC008C"/>
<path fill-rule="evenodd" clip-rule="evenodd" d="M5.17501 10.1077C5.34751 10.0179 5.40696 10.2581 5.49437 10.3584C5.59694 10.4575 5.40113 10.4925 5.34518 10.5462C5.28341 10.5065 5.22047 10.4669 5.15869 10.4295C5.16102 10.3223 5.16219 10.215 5.17501 10.1089V10.1077Z" fill="#EC008C"/>
<path fill-rule="evenodd" clip-rule="evenodd" d="M4.88829 10.2336C4.93608 10.2208 5.03049 10.1963 5.07712 10.1847C5.09693 10.264 5.11791 10.3444 5.13889 10.4237C5.10625 10.4074 5.04098 10.3747 5.00835 10.3584C4.95706 10.4167 4.90578 10.4739 4.85449 10.531C4.86032 10.4307 4.87081 10.3316 4.88829 10.2325V10.2336Z" fill="#EC008C"/>
<path fill-rule="evenodd" clip-rule="evenodd" d="M5.21828 10.6056C5.30337 10.5753 5.33367 10.6056 5.31036 10.6954C5.22528 10.7246 5.19497 10.6954 5.21828 10.6056Z" fill="#EC008C"/>
<path fill-rule="evenodd" clip-rule="evenodd" d="M3.7694 10.7234C3.94423 11.0277 3.87663 11.3764 3.82302 11.7029C3.85216 11.7204 3.91043 11.7542 3.93957 11.7717C3.94657 12.0061 3.96871 12.2405 4.00601 12.4725C4.02932 12.6369 4.06079 12.834 3.92559 12.9623C3.86614 12.9425 3.82768 12.8993 3.80903 12.834C3.67499 12.1425 3.65517 11.4219 3.76823 10.7246L3.7694 10.7234Z" fill="#EC008C"/>
<path fill-rule="evenodd" clip-rule="evenodd" d="M17.093 11.0651C17.2236 11.0732 17.3553 11.0686 17.4858 11.0604C17.459 11.1164 17.4345 11.1712 17.4089 11.2271C17.4112 11.2621 17.4159 11.3321 17.4194 11.3671C17.2818 11.4149 17.2515 11.5455 17.2539 11.6749C17.2282 11.4639 17.2515 11.2318 17.0942 11.0651H17.093Z" fill="#EC008C"/>
<path fill-rule="evenodd" clip-rule="evenodd" d="M6.51672 12.216C6.30925 12.1122 6.07031 11.8522 6.26612 11.6271C6.34072 11.8277 6.51439 11.9909 6.51672 12.216Z" fill="#EC008C"/>
<path fill-rule="evenodd" clip-rule="evenodd" d="M17.3646 11.7332C17.3972 11.7355 17.4613 11.739 17.4928 11.7414C17.6035 11.9548 17.5953 12.2113 17.6804 12.4375C17.6326 12.553 17.5883 12.6708 17.5452 12.7885C17.5196 12.8025 17.466 12.8305 17.4403 12.8445C17.4427 12.9436 17.4438 13.0427 17.445 13.1419C17.4123 13.1069 17.3494 13.0346 17.3179 12.9996C17.2783 13.0532 17.1979 13.1617 17.1583 13.2165L17.3273 13.1652C17.2818 13.2585 17.2375 13.3518 17.1932 13.445H17.1757C17.1641 13.3996 17.1408 13.3109 17.128 13.2666C16.9321 13.4171 17.114 13.599 17.128 13.782C17.1023 13.7855 17.0499 13.7914 17.0231 13.7937C17.0207 13.7517 17.0161 13.6654 17.0137 13.6223C16.9869 13.6246 16.9333 13.6293 16.9065 13.6316C16.9578 13.3692 17.0778 13.1174 17.2748 12.932C17.3681 12.8702 17.3529 12.757 17.3657 12.6614C17.4252 12.5017 17.4998 12.3384 17.4741 12.1635C17.459 12.0154 17.3587 11.886 17.3634 11.7355L17.3646 11.7332Z" fill="#EC008C"/>
<path fill-rule="evenodd" clip-rule="evenodd" d="M6.2497 12.0691C6.29399 12.1285 6.33828 12.188 6.38141 12.2498C6.49097 12.2964 6.60053 12.3431 6.70893 12.3932C6.71243 12.4457 6.72059 12.5507 6.72408 12.6031C6.67047 12.6533 6.61685 12.7022 6.5644 12.7524C6.55741 12.7104 6.54226 12.6253 6.5341 12.5833C6.36975 12.4702 6.21706 12.2801 6.24853 12.0702L6.2497 12.0691Z" fill="#EC008C"/>
<path fill-rule="evenodd" clip-rule="evenodd" d="M5.31253 12.1367C5.5538 12.0784 5.63189 12.3559 5.81605 12.4515C5.75311 12.525 5.69716 12.6043 5.6284 12.6719C5.48153 12.6824 5.33584 12.6381 5.2053 12.5716C5.09107 12.5075 5.23677 12.4154 5.28572 12.3652C5.29504 12.2883 5.3032 12.2125 5.31253 12.1367Z" fill="#EC008C"/>
<path fill-rule="evenodd" clip-rule="evenodd" d="M5.65414 12.6964C5.72524 12.6334 5.77885 12.5483 5.86394 12.5017C6.05859 12.581 6.05975 12.8154 6.10288 12.9879C6.05043 13.0474 5.99798 13.1069 5.94669 13.1675C6.00264 13.4159 6.13552 13.6934 5.97234 13.9313C5.64831 13.7879 5.64132 13.4136 5.52243 13.129C5.46648 12.9973 5.42336 12.8632 5.4082 12.7209C5.48979 12.7174 5.57255 12.7092 5.65414 12.6953V12.6964Z" fill="#EC008C"/>
<path fill-rule="evenodd" clip-rule="evenodd" d="M4.97801 12.855C4.95469 12.7372 5.02812 12.6381 5.11438 12.567C5.22627 12.623 5.40227 12.6474 5.39644 12.8095C5.30903 12.7804 5.22394 12.7489 5.13769 12.7186C5.15051 12.7687 5.17499 12.8678 5.18664 12.9168C5.13419 12.9017 5.03046 12.8702 4.97801 12.855Z" fill="#EC008C"/>
<path fill-rule="evenodd" clip-rule="evenodd" d="M5.20308 12.7699C5.49331 12.9145 5.51079 13.2713 5.61103 13.5407C5.64833 13.7307 5.79053 13.8683 5.93389 13.9873C6.1029 14.3709 6.08075 14.8129 6.29638 15.1767C6.39895 15.3306 6.72298 15.4332 6.55281 15.6548C6.19032 15.6979 5.98634 15.2805 5.63434 15.3038C5.50496 15.1429 5.36859 14.9843 5.19842 14.8653C5.12732 14.547 4.98512 14.2403 4.99911 13.9091C4.95132 13.5605 4.91985 13.2095 4.89771 12.8585C5.00261 12.8981 5.10984 12.9366 5.2159 12.9751C5.21241 12.9238 5.20541 12.8212 5.20192 12.7699H5.20308Z" fill="#EC008C"/>
<path fill-rule="evenodd" clip-rule="evenodd" d="M16.3586 13.2025C16.4064 13.1547 16.4565 13.1104 16.509 13.0672C16.6722 13.1057 16.6943 13.2865 16.7491 13.4159C16.6629 13.5022 16.5778 13.5885 16.4915 13.6759C16.46 13.515 16.4193 13.3553 16.3586 13.2025Z" fill="#EC008C"/>
<path fill-rule="evenodd" clip-rule="evenodd" d="M5.23689 14.9516C5.38608 15.0729 5.51196 15.2187 5.63668 15.3656C5.93273 15.3155 6.22179 15.5941 6.23811 15.888C5.91758 15.8903 5.64833 15.6781 5.39307 15.509C5.19726 15.3971 5.23922 15.1394 5.23689 14.9516Z" fill="#EC008C"/>
<path fill-rule="evenodd" clip-rule="evenodd" d="M6.26025 15.0391C6.34184 15.0787 6.42227 15.1196 6.50386 15.1627C6.56447 15.1464 6.68569 15.1149 6.74629 15.0986C6.69501 15.1907 6.64489 15.2828 6.59361 15.3749C6.45957 15.2875 6.33368 15.1849 6.26025 15.0391Z" fill="#EC008C"/>
<path fill-rule="evenodd" clip-rule="evenodd" d="M6.5982 15.3878C6.65181 15.3516 6.70776 15.3166 6.76254 15.2805C6.88609 15.4636 7.06209 15.6105 7.13785 15.8239C6.90591 15.8845 6.68678 16.0664 6.43735 15.9766C6.273 15.9417 6.24153 15.7632 6.2019 15.6291C6.30098 15.656 6.40005 15.6863 6.50145 15.7014C6.59004 15.6898 6.61685 15.5883 6.67163 15.5312C6.65298 15.495 6.61685 15.4239 6.5982 15.3878Z" fill="#EC008C"/>
<path fill-rule="evenodd" clip-rule="evenodd" d="M16.1955 15.7761C16.03 15.649 16.1897 15.4566 16.2794 15.3329C16.2782 15.4845 16.2561 15.6361 16.1955 15.7761Z" fill="#EC008C"/>
<path fill-rule="evenodd" clip-rule="evenodd" d="M4.99451 15.7971C5.07843 15.7586 5.18333 15.958 5.07493 15.9673C5.00267 15.9265 4.97586 15.8705 4.99451 15.7971Z" fill="#EC008C"/>
<path fill-rule="evenodd" clip-rule="evenodd" d="M12.4528 16.4034C12.5216 16.2262 12.7512 16.1993 12.8445 16.0326C13.0088 16.1445 12.9995 16.3486 12.8608 16.4757C12.8538 16.513 12.8386 16.5853 12.8305 16.6215C12.9855 16.6086 13.0729 16.7101 13.1277 16.8419C13.2 16.8745 13.2734 16.9072 13.348 16.9398C13.1557 17.0529 12.9272 17.1276 12.792 17.3165C12.8713 17.3911 12.9505 17.4669 13.0298 17.5415C13.0018 17.594 12.9738 17.6465 12.9435 17.6978C12.9004 17.608 12.8515 17.5229 12.7932 17.4412C12.6755 17.531 12.5531 17.6336 12.3934 17.615C12.4249 17.3713 12.2687 17.1625 12.0391 17.0937C12.1195 16.8255 12.3608 16.6623 12.4517 16.4022L12.4528 16.4034Z" fill="#EC008C"/>
<path fill-rule="evenodd" clip-rule="evenodd" d="M16.2606 16.2204C16.3224 16.19 16.3865 16.1632 16.4518 16.1399C16.4425 16.2927 16.376 16.4337 16.3655 16.5877C16.3492 16.6693 16.3341 16.7521 16.3154 16.8337C16.3166 16.7754 16.3189 16.6588 16.3201 16.6005H16.207C16.2199 16.4722 16.228 16.344 16.2606 16.2204Z" fill="#EC008C"/>
<path fill-rule="evenodd" clip-rule="evenodd" d="M13.5823 16.7498C13.77 16.6705 13.9565 16.5912 14.1337 16.4897C14.1989 16.5492 14.2642 16.6087 14.3295 16.6693C14.2187 16.7964 14.1185 16.9398 14.0917 17.1112C14.0532 17.0716 13.9786 16.9923 13.9413 16.9515C13.897 16.983 13.8528 17.0133 13.8085 17.0448C14.0322 17.0763 14.2246 17.208 14.3947 17.348C14.3889 17.4774 14.2234 17.4681 14.136 17.5217C14.1348 17.4751 14.1337 17.3841 14.1325 17.3386C14.1103 17.3386 14.0661 17.3351 14.0439 17.334C14.0159 17.2955 13.96 17.2185 13.9308 17.18C13.9798 17.2943 14.0486 17.3993 14.1115 17.5077C13.932 17.5497 13.7537 17.601 13.6022 17.7094C13.6138 17.7433 13.6348 17.8086 13.6453 17.8424C13.5276 17.8214 13.411 17.7981 13.2933 17.7759C13.2397 17.8447 13.186 17.9123 13.1336 17.9811C13.1406 17.8202 12.9926 17.6896 13.0672 17.5287C12.9961 17.4494 12.8865 17.3876 12.8818 17.2698C12.9751 17.1754 13.1033 17.1276 13.2175 17.0646C13.2805 17.0949 13.3446 17.1241 13.4087 17.1544C13.4087 17.229 13.4063 17.3036 13.4063 17.3783C13.5509 17.2757 13.7234 17.2313 13.8912 17.187L13.8842 17.1427C13.7432 17.1777 13.6057 17.2232 13.4716 17.278C13.46 17.2174 13.4483 17.1556 13.4378 17.0949C13.4017 17.0903 13.3306 17.0809 13.2944 17.0763C13.3597 16.9503 13.4984 16.885 13.5509 16.7498C13.5905 16.7882 13.6313 16.8267 13.6721 16.8652C13.798 16.8909 13.9227 16.9165 14.0486 16.9422C13.9122 16.8372 13.7304 16.836 13.5823 16.7533V16.7498Z" fill="#EC008C"/>
<path fill-rule="evenodd" clip-rule="evenodd" d="M14.4086 17.187C14.5088 17.2605 14.6895 17.2978 14.672 17.4576C14.7023 17.7363 14.3631 17.8016 14.1708 17.8937C14.2128 17.8226 14.2547 17.7514 14.2967 17.6791C14.1673 17.7713 14.0496 17.8902 13.8934 17.9368C13.7734 17.9287 13.7069 17.8191 13.6323 17.7433C13.8538 17.5649 14.1522 17.5765 14.4098 17.4844C14.3876 17.5695 14.3655 17.6546 14.3457 17.7398C14.5123 17.6022 14.4121 17.3666 14.4086 17.187Z" fill="#EC008C"/>
<path fill-rule="evenodd" clip-rule="evenodd" d="M15.7805 17.5987C15.9891 17.6022 15.7735 17.847 15.6581 17.7573C15.6219 17.6826 15.7175 17.6162 15.7805 17.5987Z" fill="#EC008C"/>
<path fill-rule="evenodd" clip-rule="evenodd" d="M15.6197 17.7736C15.671 17.7992 15.7735 17.8494 15.8248 17.8739C15.7036 18.0464 15.5695 18.2144 15.3982 18.3403C15.1884 18.4429 14.9611 18.5024 14.7478 18.5933C14.686 18.5467 14.6243 18.4989 14.5625 18.4522C14.7455 18.4312 14.932 18.3904 15.0684 18.2552C15.1744 18.2377 15.2782 18.2062 15.3691 18.1456C15.27 18.1642 15.1709 18.184 15.073 18.2039C15.1966 18.0896 15.3294 17.9846 15.4751 17.8995C15.446 17.9811 15.4169 18.0616 15.3889 18.1444C15.4845 18.0336 15.5812 17.917 15.6208 17.7712L15.6197 17.7736Z" fill="#EC008C"/>
<path fill-rule="evenodd" clip-rule="evenodd" d="M16.0346 17.9007C16.0707 17.8529 16.2421 17.8785 16.1488 17.9485C16.0905 17.9893 16.0299 18.0254 15.9681 18.0569C15.8714 18.0441 15.9868 17.9112 16.0358 17.9007H16.0346Z" fill="#EC008C"/>
<path fill-rule="evenodd" clip-rule="evenodd" d="M10.0343 18.1782C10.1544 18.2377 10.2546 18.3275 10.3444 18.4266C10.2453 18.4558 10.0844 18.5246 10.032 18.3893C10.032 18.3368 10.0343 18.2319 10.0343 18.1782Z" fill="#EC008C"/>
<path fill-rule="evenodd" clip-rule="evenodd" d="M12.9705 18.2692C13.0742 18.0581 13.2677 18.2668 13.312 18.4033C13.1966 18.3613 13.0835 18.317 12.9705 18.2692Z" fill="#EC008C"/>
<path fill-rule="evenodd" clip-rule="evenodd" d="M13.292 18.4651C13.4424 18.4604 13.5915 18.4324 13.7407 18.4126C13.7477 18.4942 13.7559 18.577 13.764 18.6586C13.5845 18.6633 13.3782 18.6493 13.292 18.4651Z" fill="#EC008C"/>
<path fill-rule="evenodd" clip-rule="evenodd" d="M12.51 18.6202C12.6417 18.6155 12.7758 18.5992 12.9063 18.633C13.2641 18.7321 13.6383 18.7554 13.9938 18.8627C14.143 18.9234 14.2992 18.9059 14.4495 18.8557C14.3283 18.8907 14.2094 18.9373 14.0998 18.9991C14.0695 18.9747 14.0404 18.9513 14.0101 18.9292C13.4798 19.1379 13.0077 18.7379 12.5112 18.6202H12.51Z" fill="#EC008C"/>
<path fill-rule="evenodd" clip-rule="evenodd" d="M67.0898 6.68171L71.8384 22.5044H75.2406L68.8592 1.05182H68.6762L67.0898 6.68171Z" fill="white"/>
</g>
<defs>
<clipPath id="clip0_107_10041">
<rect width="84.9231" height="23" fill="white"/>
</clipPath>
</defs>
</svg>
