<svg width="88" height="23" viewBox="0 0 88 23" fill="none" xmlns="http://www.w3.org/2000/svg">
<g clip-path="url(#clip0_107_9962)">
<path d="M14 11H17L15.2 13.5L14 14H11V11H14Z" fill="white"/>
<path fill-rule="evenodd" clip-rule="evenodd" d="M50.2096 0.040863C51.6679 0.040863 53.0656 0.294303 54.3555 0.757971L54.3955 0.771986L54.4149 0.778993C55.7569 1.26836 57.0298 2.00181 58.1611 2.98404C59.4098 4.06905 60.3642 5.35143 61.0195 6.73776C61.0328 6.76579 61.0461 6.79382 61.0595 6.82185C61.0788 6.86273 61.097 6.90361 61.1152 6.94448C61.1418 7.00405 61.1685 7.06361 61.1939 7.12434L61.2121 7.16756C61.7377 8.4079 62.0441 9.75685 62.0865 11.17V11.1782C62.089 11.2635 62.0902 11.3487 62.0914 11.434V11.4679V11.4994C62.0914 11.5216 62.0914 11.545 62.0914 11.5671C62.0914 11.6349 62.0914 11.7026 62.089 11.7704C62.089 11.8007 62.0865 11.8311 62.0865 11.8626C62.0841 11.9269 62.0817 11.9911 62.0793 12.0553C62.0781 12.0915 62.0756 12.1266 62.0732 12.1616C62.0696 12.2188 62.0659 12.2772 62.0623 12.3345C62.0587 12.3765 62.0551 12.4174 62.0526 12.4594C62.0478 12.5097 62.0441 12.5599 62.0393 12.6101C62.0345 12.658 62.0296 12.7059 62.0236 12.7538C62.0187 12.797 62.0139 12.8402 62.0078 12.8822C62.0005 12.936 61.9945 12.9897 61.986 13.0434C61.9812 13.0796 61.9751 13.1158 61.9703 13.152C61.9618 13.2116 61.9521 13.27 61.9424 13.3295C61.9376 13.3599 61.9315 13.3903 61.9267 13.4206C61.9158 13.4849 61.9037 13.5479 61.8915 13.611C61.8867 13.6367 61.8819 13.6624 61.8758 13.6881C61.8625 13.7547 61.8491 13.8212 61.8346 13.8878C61.8298 13.9112 61.8237 13.9345 61.8189 13.9579C61.8031 14.0256 61.7874 14.0934 61.7716 14.1599C61.7656 14.1833 61.7595 14.2055 61.7547 14.2288C61.7377 14.2966 61.7208 14.3632 61.7014 14.4297C61.6953 14.4531 61.6881 14.4776 61.682 14.501C61.6638 14.5664 61.6445 14.6318 61.6251 14.6972C61.6178 14.7229 61.6093 14.7497 61.6009 14.7754C61.5815 14.8373 61.5621 14.8992 61.5415 14.9611C61.5318 14.9915 61.5209 15.0219 61.5112 15.0511C61.4918 15.1083 61.4725 15.1655 61.4519 15.2228C61.4398 15.2578 61.4264 15.2928 61.4131 15.3279C61.395 15.3781 61.3756 15.4295 61.3562 15.4797C61.3392 15.5229 61.3223 15.5661 61.3053 15.6093C61.2884 15.6514 61.2726 15.6923 61.2557 15.7343C61.2351 15.7834 61.2145 15.8324 61.1939 15.8815C61.1782 15.9177 61.1624 15.9539 61.1467 15.9901C61.1224 16.0438 61.0982 16.0987 61.0728 16.1524C61.0595 16.1816 61.0461 16.2108 61.0328 16.24C61.005 16.2984 60.9759 16.358 60.948 16.4164C60.9359 16.4409 60.9238 16.4654 60.9117 16.49C60.8814 16.5507 60.8499 16.6114 60.8172 16.6722C60.8063 16.6943 60.7942 16.7154 60.7833 16.7376C60.7506 16.7995 60.7155 16.8614 60.6816 16.9233C60.6707 16.9431 60.6598 16.963 60.6489 16.9828C60.6137 17.0436 60.5786 17.1043 60.5435 17.165C60.5314 17.186 60.5193 17.2059 60.5072 17.2269C60.472 17.2853 60.4357 17.3437 60.3994 17.4021C60.3848 17.4243 60.3715 17.4477 60.357 17.4698C60.3231 17.5247 60.2879 17.5785 60.2516 17.6322C60.2334 17.6591 60.2165 17.6859 60.1983 17.7128C60.1656 17.7618 60.1317 17.8109 60.0978 17.8599C60.076 17.8915 60.0542 17.9218 60.0324 17.9534C60.0009 17.9978 59.9694 18.0421 59.9367 18.0865C59.9112 18.1216 59.8846 18.1566 59.8592 18.1916C59.8301 18.2302 59.801 18.2687 59.7708 18.3084C59.7393 18.3493 59.7078 18.3902 59.6751 18.4311C59.6496 18.4638 59.6242 18.4965 59.5976 18.528C59.56 18.5735 59.5225 18.6203 59.4849 18.6658C59.4619 18.6927 59.4401 18.7207 59.4171 18.7476C59.3747 18.7966 59.3323 18.8457 59.2899 18.8947C59.2693 18.9181 59.2487 18.9414 59.2281 18.966C59.1821 19.0174 59.1349 19.0687 59.0876 19.1201C59.0719 19.1365 59.0574 19.154 59.0428 19.1704L59.0307 19.1832C58.9859 19.2311 58.9399 19.2778 58.8951 19.3257C58.8721 19.3502 58.8478 19.3747 58.8248 19.3993C58.7921 19.432 58.7594 19.4647 58.7267 19.4974C57.805 20.4107 56.7597 21.1465 55.6406 21.7001L55.6103 21.7153C55.5425 21.7491 55.4747 21.7807 55.4056 21.8134L55.3318 21.8484C55.2773 21.8729 55.2227 21.8975 55.1682 21.922C55.1283 21.9395 55.0871 21.957 55.0471 21.9745C55.0084 21.9909 54.9708 22.0072 54.9321 22.0236C54.8739 22.0481 54.817 22.0715 54.7589 22.0948C54.7358 22.1042 54.7128 22.1135 54.6898 22.1217C54.6172 22.1497 54.5445 22.1778 54.4706 22.2046L54.4452 22.214C53.2606 22.6496 51.9852 22.9066 50.6541 22.9533C50.6154 22.9544 50.5778 22.9568 50.5391 22.9579C50.5003 22.9579 50.4616 22.9579 50.424 22.9603C50.361 22.9603 50.2981 22.9626 50.2351 22.9626H50.2145C50.1891 22.9626 50.1636 22.9626 50.1382 22.9626C50.0704 22.9626 50.0037 22.9626 49.9359 22.9603C49.9008 22.9603 49.8657 22.9579 49.8318 22.9568C49.7688 22.9544 49.707 22.9533 49.644 22.9498C49.6028 22.9474 49.5617 22.9451 49.5217 22.9428C49.466 22.9393 49.4103 22.9369 49.3545 22.9322C49.3073 22.9287 49.2613 22.9252 49.214 22.9217C49.1656 22.9182 49.1172 22.9136 49.0687 22.9089C49.0166 22.9042 48.9645 22.8984 48.9125 22.8937C48.8701 22.889 48.8277 22.8844 48.7841 22.8797C48.7272 22.8727 48.669 22.8657 48.6121 22.8587C48.5758 22.854 48.5406 22.8493 48.5043 22.8447C48.4413 22.8353 48.3783 22.8271 48.3153 22.8166C48.2851 22.812 48.256 22.8073 48.2257 22.8026C48.1579 22.7921 48.0901 22.7804 48.0235 22.7676C47.998 22.7629 47.9738 22.7582 47.9484 22.7536C47.8781 22.7407 47.8079 22.7267 47.7376 22.7127C47.7146 22.708 47.6928 22.7033 47.6698 22.6987C47.5971 22.6835 47.5244 22.6671 47.453 22.6508C47.4324 22.6461 47.4118 22.6414 47.3912 22.6368C47.3185 22.6192 47.2471 22.6017 47.1744 22.5842C47.1514 22.5784 47.1284 22.5725 47.1054 22.5667C47.0363 22.5492 46.9673 22.5305 46.8983 22.5106C46.8728 22.5036 46.8474 22.4966 46.822 22.4884C46.7553 22.4697 46.6887 22.4499 46.6221 22.43C46.5942 22.4219 46.5664 22.4125 46.5373 22.4032C46.4756 22.3833 46.4138 22.3646 46.352 22.3436C46.3169 22.3319 46.2818 22.3203 46.2479 22.3086C46.1933 22.2899 46.1401 22.2712 46.0856 22.2525C46.0432 22.2373 46.0008 22.221 45.9584 22.2058C45.9124 22.1883 45.8663 22.1719 45.8203 22.1544C45.7719 22.1357 45.7234 22.117 45.6762 22.0972C45.6362 22.0808 45.5962 22.0656 45.5575 22.0493C45.503 22.0271 45.4473 22.0037 45.3928 21.9804C45.3613 21.9675 45.3298 21.9535 45.2983 21.9395C45.2377 21.9126 45.1784 21.8858 45.119 21.8589C45.0924 21.8472 45.0657 21.8344 45.0391 21.8227C44.9773 21.7935 44.9155 21.7643 44.8538 21.734C44.8295 21.7223 44.8065 21.7106 44.7823 21.6989C44.7193 21.6674 44.6564 21.6358 44.5946 21.6031C44.5728 21.5915 44.5498 21.5798 44.528 21.5693C44.4662 21.5366 44.4056 21.5039 44.3439 21.47C44.3196 21.4572 44.2966 21.4443 44.2724 21.4303C44.2143 21.3976 44.1561 21.3649 44.0992 21.331C44.0726 21.3158 44.0459 21.3007 44.0205 21.2843C43.966 21.2528 43.9127 21.2201 43.8594 21.1874C43.8291 21.1687 43.8 21.1512 43.7698 21.1325C43.7201 21.1009 43.6704 21.0694 43.6208 21.0379C43.5869 21.0168 43.5542 20.9947 43.5203 20.9725C43.4754 20.9433 43.4306 20.9129 43.3858 20.8825C43.3483 20.8568 43.3107 20.8311 43.2732 20.8043C43.2344 20.7774 43.1957 20.7494 43.1557 20.7225C43.1121 20.691 43.0685 20.6595 43.0249 20.6279C42.9922 20.6046 42.9595 20.58 42.928 20.5555C42.8783 20.5181 42.8299 20.4808 42.7814 20.4434C42.7548 20.4224 42.7269 20.4013 42.7003 20.3803C42.647 20.3383 42.5937 20.2951 42.5404 20.2519C42.5186 20.2343 42.4968 20.2156 42.4738 20.1981C42.4181 20.1514 42.3624 20.1047 42.3079 20.058C42.2921 20.044 42.2764 20.0311 42.2606 20.0183L42.2485 20.0078C42.1964 19.9634 42.1456 19.9167 42.0959 19.8711C42.0729 19.8501 42.0487 19.8291 42.0257 19.808C41.9881 19.7742 41.9518 19.7391 41.9154 19.7053C40.9719 18.8188 40.2113 17.8132 39.6396 16.7364L39.6239 16.7072C39.5887 16.6418 39.5548 16.5764 39.5221 16.5098C39.51 16.4865 39.4979 16.4619 39.4858 16.4386C39.4604 16.386 39.4349 16.3335 39.4095 16.2809C39.3913 16.2424 39.3732 16.2038 39.355 16.1653C39.338 16.1279 39.3199 16.0894 39.3029 16.0508C39.2787 15.9959 39.2532 15.9399 39.2302 15.885C39.2205 15.8628 39.2121 15.8418 39.2024 15.8196C39.1733 15.7495 39.1442 15.6782 39.1152 15.6082L39.1055 15.5836C38.6549 14.4461 38.3885 13.2209 38.3388 11.942C38.3376 11.9 38.3352 11.858 38.334 11.8159C38.334 11.782 38.334 11.7482 38.3327 11.7143C38.3315 11.6501 38.3303 11.5858 38.3303 11.5228V11.5052C38.3303 11.4831 38.3303 11.4597 38.3303 11.4375C38.3303 11.3698 38.3303 11.302 38.3327 11.2343C38.3327 11.2027 38.3352 11.1712 38.3364 11.1397C38.3388 11.0766 38.3412 11.0135 38.3436 10.9516C38.3461 10.9143 38.3473 10.8769 38.3497 10.8395C38.3533 10.7835 38.357 10.7274 38.3606 10.6725C38.3642 10.6305 38.3679 10.5884 38.3715 10.5452C38.3763 10.495 38.38 10.4448 38.3848 10.3945C38.3897 10.3467 38.3945 10.2988 38.4006 10.2521C38.4054 10.2088 38.4103 10.1656 38.4163 10.1224C38.4236 10.0687 38.4296 10.015 38.4381 9.96241C38.443 9.9262 38.449 9.89 38.4539 9.85379C38.4623 9.79423 38.472 9.73583 38.4817 9.67743C38.4866 9.64707 38.4926 9.61553 38.4975 9.58517C38.5084 9.5221 38.5205 9.45903 38.5326 9.39596C38.5374 9.3691 38.5435 9.34341 38.5483 9.31655C38.5617 9.25114 38.575 9.18457 38.5895 9.11917C38.5944 9.09464 38.6004 9.07128 38.6053 9.04675C38.621 8.97901 38.6368 8.91127 38.6525 8.8447C38.6573 8.82251 38.6634 8.80149 38.6695 8.7793C38.6864 8.71156 38.7046 8.64382 38.7227 8.57608C38.7288 8.55272 38.7361 8.52819 38.7433 8.50484C38.7615 8.43943 38.7797 8.3752 38.8003 8.30979C38.8087 8.28293 38.816 8.25724 38.8245 8.23037C38.8439 8.16847 38.8632 8.1054 38.8838 8.0435C38.8935 8.01431 38.9032 7.98511 38.9129 7.95591C38.9323 7.89868 38.9517 7.84145 38.9722 7.78422C38.9856 7.74802 38.9989 7.71181 39.0122 7.67444C39.0304 7.62539 39.0486 7.57517 39.0679 7.52611C39.0849 7.48173 39.1031 7.43735 39.12 7.39414C39.1358 7.35326 39.1527 7.31238 39.1697 7.2715C39.1903 7.22128 39.2121 7.17223 39.2327 7.12201C39.2484 7.08697 39.2629 7.05077 39.2787 7.01573C39.3029 6.96083 39.3283 6.90594 39.3538 6.85105C39.3671 6.82302 39.3792 6.79382 39.3925 6.76579C39.4204 6.70623 39.4495 6.64666 39.4797 6.5871C39.4918 6.56374 39.5028 6.54038 39.5149 6.51702C39.5464 6.45512 39.5778 6.39322 39.6105 6.33249C39.6214 6.31147 39.6323 6.29044 39.6432 6.26942C39.6772 6.20635 39.7111 6.14445 39.7462 6.08139C39.7571 6.0627 39.7668 6.04284 39.7777 6.02416C39.8128 5.96226 39.8479 5.90152 39.8843 5.84079C39.8964 5.81977 39.9085 5.79991 39.9206 5.77889C39.9557 5.7205 39.9909 5.66327 40.0272 5.60487C40.0417 5.58151 40.0563 5.55815 40.0708 5.5348C40.1047 5.48107 40.1398 5.42735 40.175 5.37362C40.1919 5.34676 40.2101 5.3199 40.2283 5.2942C40.2622 5.24398 40.2961 5.19493 40.33 5.14471C40.3506 5.11434 40.3724 5.08398 40.393 5.05361C40.4245 5.00923 40.4572 4.96368 40.4899 4.9193C40.5153 4.88426 40.5407 4.84922 40.5674 4.81418C40.5965 4.77447 40.6267 4.73593 40.6558 4.69622C40.6861 4.65651 40.7176 4.61564 40.7491 4.57593C40.7757 4.54206 40.8024 4.50935 40.829 4.47548C40.8653 4.42994 40.9029 4.38555 40.9392 4.34117C40.9622 4.31314 40.9865 4.28394 41.0095 4.25591C41.0506 4.20686 41.093 4.15898 41.1354 4.11109C41.156 4.08657 41.1778 4.06321 41.1984 4.03868C41.2444 3.98729 41.2905 3.93707 41.3365 3.88685C41.3522 3.86933 41.368 3.85181 41.3837 3.83546L41.4043 3.81327L41.4322 3.78407C41.4903 3.72334 41.5484 3.66261 41.6066 3.60304L41.6151 3.59487C42.5622 2.63717 43.6426 1.87101 44.8041 1.29872C44.8816 1.26018 44.9604 1.22281 45.0379 1.1866L45.0924 1.16091C45.1529 1.13288 45.2147 1.10485 45.2765 1.07798C45.3346 1.05229 45.394 1.02659 45.4533 1.00207L45.4884 0.986884C46.937 0.38073 48.5346 0.0443668 50.2145 0.0443668L50.2096 0.040863ZM54.4403 4.54089C54.1508 4.37738 53.8505 4.22905 53.5392 4.09941L53.5259 4.09357L53.4908 4.07956C53.3248 4.01065 53.1565 3.94875 52.9869 3.89152C52.1173 3.59604 51.1822 3.43486 50.2084 3.43486C49.3267 3.43486 48.4764 3.56684 47.6771 3.81093C47.4057 3.89503 47.1369 3.99196 46.874 4.10175L46.8244 4.12277C46.7941 4.13562 46.7638 4.14847 46.7335 4.16248C46.6887 4.18233 46.6427 4.20219 46.5979 4.22321L46.5688 4.23723C45.6604 4.66119 44.8429 5.23931 44.1549 5.93539C44.1113 5.98094 44.0677 6.02533 44.0253 6.06971L44.0108 6.08489C43.9926 6.10358 43.9757 6.12343 43.9575 6.14212C43.926 6.17599 43.8945 6.20986 43.8642 6.2449C43.8485 6.26241 43.8327 6.2811 43.817 6.29979C43.7879 6.33249 43.7601 6.36519 43.7322 6.39789C43.714 6.41892 43.6971 6.43994 43.6789 6.46213C43.6547 6.49133 43.6293 6.52169 43.605 6.55206C43.5844 6.57659 43.5651 6.60228 43.5445 6.62798C43.5239 6.65484 43.5033 6.68053 43.4827 6.7074C43.4609 6.73542 43.4391 6.76462 43.4173 6.79382C43.3991 6.81718 43.3822 6.84054 43.3652 6.86507C43.3422 6.8966 43.3192 6.9293 43.2962 6.962C43.2817 6.98186 43.2671 7.00288 43.2538 7.0239C43.2284 7.06011 43.2041 7.09631 43.1799 7.13252L43.146 7.18391C43.1206 7.22245 43.0951 7.26216 43.0697 7.30187L43.0406 7.34859C43.0152 7.38946 42.9898 7.43034 42.9643 7.47239L42.9377 7.51677C42.9122 7.55881 42.888 7.60086 42.8638 7.64407L42.8396 7.68729C42.8153 7.7305 42.7923 7.77371 42.7681 7.81693L42.7451 7.86131C42.7221 7.90452 42.7003 7.94773 42.6785 7.99212C42.67 8.00847 42.6627 8.02482 42.6543 8.04117C42.6337 8.08321 42.6131 8.12526 42.5925 8.1673C42.5828 8.18716 42.5743 8.20701 42.5658 8.2257C42.5477 8.26541 42.5295 8.30395 42.5126 8.34366C42.5016 8.36819 42.492 8.39155 42.4811 8.41607C42.4665 8.45111 42.4508 8.48615 42.4362 8.52119C42.4241 8.55038 42.412 8.58075 42.4011 8.60995C42.389 8.64032 42.3769 8.67068 42.3648 8.70105C42.3515 8.73608 42.3381 8.77112 42.326 8.80616C42.3163 8.83186 42.3067 8.85755 42.2982 8.88324C42.2848 8.92179 42.2715 8.9615 42.2582 9.00004C42.2509 9.02223 42.2425 9.04442 42.2352 9.06778C42.2207 9.11099 42.2073 9.15304 42.1952 9.19625C42.1892 9.21494 42.1831 9.23362 42.1783 9.25231C42.1649 9.29786 42.1516 9.34224 42.1395 9.38779C42.1347 9.40531 42.1298 9.42283 42.125 9.44035C42.1116 9.48706 42.0995 9.53378 42.0886 9.58167C42.085 9.59802 42.0802 9.6132 42.0765 9.62955C42.0644 9.67743 42.0535 9.72532 42.0426 9.7732L42.0317 9.82226C42.022 9.86897 42.0123 9.91453 42.0026 9.96124L41.9917 10.0173C41.9833 10.0617 41.9748 10.1061 41.9675 10.1504C41.9639 10.1715 41.9602 10.1937 41.9566 10.2147C41.9493 10.2567 41.9433 10.2976 41.9372 10.3397C41.9336 10.3653 41.93 10.391 41.9263 10.4156C41.9215 10.4529 41.9166 10.4903 41.9118 10.5277C41.9082 10.5592 41.9045 10.5896 41.9009 10.6211C41.8973 10.6538 41.8936 10.6865 41.89 10.7192C41.8864 10.7543 41.8827 10.7905 41.8803 10.8255C41.8779 10.8547 41.8755 10.8851 41.873 10.9143C41.8694 10.954 41.867 10.9949 41.8646 11.0357C41.8634 11.0603 41.8621 11.0848 41.8597 11.1093C41.8573 11.156 41.8561 11.2016 41.8537 11.2483C41.8537 11.2682 41.8525 11.2892 41.8512 11.309C41.85 11.3569 41.85 11.4048 41.8488 11.4539C41.8488 11.4737 41.8488 11.4936 41.8488 11.5134C41.8488 11.5601 41.8488 11.6069 41.8512 11.6536C41.8512 11.6746 41.8512 11.6968 41.8512 11.7178C41.8512 11.7517 41.8537 11.7844 41.8549 11.8171C41.89 12.686 42.0705 13.5491 42.3939 14.3702L42.4011 14.3889C42.4205 14.4379 42.4411 14.4858 42.4605 14.5348L42.4823 14.5862C42.498 14.6248 42.515 14.6622 42.5319 14.6995C42.544 14.7264 42.5562 14.7544 42.5695 14.7813C42.5816 14.8081 42.5937 14.8338 42.607 14.8607C42.6252 14.8992 42.6434 14.9366 42.6627 14.9752L42.6857 15.0219C42.71 15.0686 42.733 15.1153 42.7584 15.162L42.7693 15.1819C43.1884 15.9667 43.7371 16.6768 44.3875 17.2865C44.4081 17.3052 44.4274 17.325 44.448 17.3437C44.4674 17.3612 44.4868 17.3776 44.505 17.3951C44.5377 17.4243 44.5704 17.4547 44.6043 17.4839C44.6212 17.4979 44.6382 17.5119 44.6539 17.5271C44.6903 17.5574 44.7266 17.589 44.7629 17.6193C44.7811 17.6345 44.7993 17.6485 44.8174 17.6637C44.8514 17.6918 44.8865 17.7198 44.9204 17.7466C44.9422 17.7642 44.964 17.7805 44.987 17.798C45.0173 17.8214 45.0488 17.8459 45.0803 17.8693C45.1057 17.8891 45.1323 17.9078 45.159 17.9277C45.1869 17.9475 45.2147 17.9674 45.2414 17.9872C45.2704 18.0083 45.2995 18.0281 45.3298 18.0491C45.3552 18.0667 45.3794 18.0842 45.4049 18.1005C45.4376 18.1227 45.4703 18.1449 45.5042 18.1671C45.526 18.1811 45.5466 18.1951 45.5684 18.2091C45.6047 18.2325 45.6423 18.257 45.6798 18.2804L45.7343 18.3143C45.7743 18.3388 45.8155 18.3633 45.8554 18.3878L45.9039 18.4159C45.9463 18.4404 45.9899 18.4649 46.0323 18.4894L46.0771 18.514C46.1219 18.5385 46.1655 18.563 46.2103 18.5864L46.2527 18.6086C46.2975 18.6319 46.3435 18.6553 46.3883 18.6775L46.4344 18.6997C46.4792 18.7219 46.5252 18.7441 46.57 18.7651C46.5858 18.7733 46.6027 18.7803 46.6185 18.7873C46.6621 18.8071 46.7069 18.827 46.7505 18.8468C46.7711 18.8562 46.7905 18.8644 46.8111 18.8725C46.8522 18.89 46.8922 18.9076 46.9334 18.9239C46.9588 18.9344 46.9843 18.9438 47.0097 18.9543C47.046 18.9683 47.0824 18.9835 47.1187 18.9975C47.149 19.0092 47.1805 19.0209 47.2107 19.0314C47.2422 19.043 47.2737 19.0547 47.3052 19.0664C47.3403 19.0793 47.3767 19.0909 47.413 19.1038C47.4397 19.1131 47.4675 19.1225 47.4942 19.1318C47.5353 19.1458 47.5765 19.1587 47.6177 19.1715C47.6395 19.1785 47.6625 19.1855 47.6843 19.1925C47.7291 19.2066 47.7739 19.2194 47.8188 19.2323C47.8381 19.2381 47.8575 19.2439 47.8769 19.2486C47.9241 19.2614 47.9726 19.2743 48.021 19.2871C48.038 19.2918 48.0549 19.2965 48.0719 19.3C48.1203 19.3128 48.17 19.3245 48.2197 19.3362L48.2693 19.3479C48.319 19.3596 48.3674 19.3701 48.4171 19.3806L48.4692 19.3911C48.5164 19.4004 48.5648 19.4098 48.6121 19.4191C48.6315 19.4226 48.6508 19.4261 48.6714 19.4296C48.7175 19.4378 48.7635 19.446 48.8107 19.453L48.8761 19.4635C48.9197 19.4705 48.9633 19.4763 49.0057 19.4822C49.0324 19.4857 49.0578 19.4892 49.0845 19.4927C49.1244 19.4974 49.1644 19.5032 49.2044 19.5079C49.2346 19.5114 49.2661 19.5149 49.2964 19.5184C49.3315 19.5219 49.3667 19.5254 49.4018 19.5289C49.4381 19.5324 49.4745 19.5347 49.512 19.5382C49.5423 19.5406 49.5738 19.5429 49.604 19.5453C49.6452 19.5476 49.6864 19.5499 49.7276 19.5523C49.7542 19.5534 49.7809 19.5558 49.8075 19.5569C49.8536 19.5593 49.9008 19.5604 49.9468 19.5616C49.9686 19.5616 49.9904 19.5628 50.0134 19.5639C50.0631 19.5651 50.1127 19.5651 50.1624 19.5663C50.183 19.5663 50.2036 19.5663 50.2242 19.5663C50.2714 19.5663 50.3174 19.5663 50.3647 19.5651C50.3889 19.5651 50.4143 19.5651 50.4386 19.5639C50.47 19.5639 50.5015 19.5616 50.533 19.5604C51.4366 19.5266 52.3341 19.3525 53.188 19.0407L53.2073 19.0337C53.2582 19.015 53.3079 18.9952 53.3587 18.9765L53.412 18.9555C53.452 18.9403 53.4907 18.9239 53.5295 18.9076C53.5574 18.8959 53.5864 18.8842 53.6143 18.8725C53.6421 18.8608 53.67 18.848 53.6979 18.8363C53.7366 18.8188 53.7754 18.8025 53.8129 18.7849L53.8638 18.7616C53.9122 18.7394 53.9607 18.716 54.0079 18.6927L54.0285 18.6822C54.8424 18.2781 55.5788 17.749 56.2111 17.1218C56.2305 17.102 56.251 17.0833 56.2704 17.0634C56.2886 17.0447 56.3055 17.026 56.3237 17.0085C56.354 16.977 56.3855 16.9454 56.4158 16.9127C56.4303 16.8964 56.4448 16.88 56.4606 16.8649C56.4921 16.8298 56.5248 16.796 56.5563 16.7597C56.572 16.7422 56.5865 16.7247 56.6023 16.7072C56.6314 16.6745 56.6604 16.6406 56.6883 16.6079C56.7065 16.5869 56.7234 16.5659 56.7416 16.5437C56.7658 16.5145 56.7912 16.4841 56.8155 16.4538C56.836 16.4292 56.8554 16.4035 56.876 16.3778C56.8966 16.351 56.9172 16.3241 56.9378 16.2984C56.9596 16.2704 56.9802 16.2424 57.002 16.2132C57.0201 16.1886 57.0383 16.1653 57.0553 16.1407C57.0783 16.1092 57.1013 16.0777 57.1243 16.045C57.1388 16.024 57.1534 16.0041 57.1679 15.9831C57.1933 15.9469 57.2176 15.9107 57.2418 15.8745L57.2757 15.8231C57.3011 15.7845 57.3266 15.7448 57.352 15.7051L57.3811 15.6584C57.4065 15.6175 57.432 15.5755 57.4574 15.5346L57.4828 15.4925C57.5083 15.4493 57.5337 15.4061 57.5579 15.3617L57.5797 15.322C57.6039 15.2776 57.6282 15.2333 57.6524 15.1889L57.6754 15.1445C57.6984 15.1013 57.7202 15.0569 57.7432 15.0137L57.7662 14.967C57.788 14.9238 57.8086 14.8806 57.8292 14.8373C57.8377 14.8187 57.8462 14.8 57.8547 14.7813C57.8728 14.7416 57.891 14.7019 57.9092 14.6622C57.9201 14.6388 57.9298 14.6143 57.9407 14.5897C57.9564 14.5535 57.9709 14.5173 57.9867 14.4823C57.9976 14.4543 58.0085 14.4274 58.0194 14.3994C58.0327 14.3667 58.0448 14.3351 58.0581 14.3024C58.0715 14.2686 58.0836 14.2347 58.0957 14.2008C58.1054 14.1751 58.1151 14.1483 58.1248 14.1226C58.1381 14.084 58.1514 14.0443 58.1647 14.0058C58.172 13.9836 58.1805 13.9614 58.1877 13.938C58.2011 13.896 58.2144 13.8539 58.2277 13.8131C58.2338 13.7932 58.2398 13.7734 58.2459 13.7523C58.2592 13.708 58.2725 13.6624 58.2846 13.618C58.2895 13.6005 58.2943 13.583 58.2992 13.5655C58.3125 13.5187 58.3246 13.472 58.3355 13.4241L58.3476 13.3763C58.3597 13.3295 58.3706 13.2828 58.3803 13.2361L58.3924 13.1824C58.4021 13.138 58.4118 13.0936 58.4203 13.0481L58.4324 12.9862C58.4409 12.943 58.4481 12.8997 58.4566 12.8577C58.4603 12.8343 58.4651 12.8122 58.4687 12.7888C58.476 12.7491 58.482 12.7082 58.4881 12.6685C58.4917 12.6416 58.4966 12.6148 58.5002 12.5879C58.5051 12.5505 58.5099 12.5143 58.5148 12.477C58.5184 12.4454 58.522 12.4151 58.5257 12.3835C58.5293 12.3508 58.5329 12.3181 58.5366 12.2843C58.5402 12.2492 58.5438 12.213 58.5462 12.1768C58.5487 12.1476 58.5511 12.1196 58.5535 12.0904C58.5571 12.0483 58.5596 12.0075 58.562 11.9654C58.5632 11.942 58.5644 11.9175 58.5656 11.8942C58.568 11.8474 58.5693 11.7996 58.5717 11.7528C58.5717 11.7342 58.5729 11.7143 58.5741 11.6956C58.5753 11.6454 58.5753 11.594 58.5765 11.5438C58.5765 11.5228 58.5765 11.5029 58.5765 11.4819V11.4574C58.5765 11.3978 58.5753 11.3371 58.5729 11.2775V11.2717C58.5462 10.3747 58.3646 9.48356 58.0327 8.63681L58.0194 8.60294C58.0024 8.5609 57.9855 8.51885 57.9673 8.47681C57.9564 8.45111 57.9467 8.42659 57.9358 8.40206C57.4743 7.3299 56.7634 6.33716 55.8102 5.5091C55.3814 5.13653 54.9236 4.81535 54.444 4.54322L54.4403 4.54089Z" fill="white"/>
<path fill-rule="evenodd" clip-rule="evenodd" d="M81.0078 3.88686H76.937V1.0231H88V3.88686H84.3713V22.499H81.0078V3.88686Z" fill="white"/>
<path fill-rule="evenodd" clip-rule="evenodd" d="M2.85837 4.07506C3.1115 3.78425 3.37675 3.50862 3.6529 3.24817L3.63231 3.23882C3.68197 3.19094 3.65775 3.21547 3.70862 3.16875C4.55524 2.39091 5.52661 1.72753 6.60335 1.2113C7.41606 0.815374 8.26995 0.512881 9.14321 0.306158L9.13958 0.322509L9.16259 0.316669C10.7795 -0.0547319 12.3965 -0.0886019 13.9371 0.166006L13.9286 0.125129C13.9977 0.13564 13.9637 0.130969 14.0328 0.14148C16.0397 0.476675 17.9849 1.31174 19.6575 2.66537C24.6997 6.74961 25.3549 14.0013 21.1194 18.8634C20.0306 20.113 18.7249 21.0824 17.3006 21.7645C17.2545 21.7867 17.2085 21.8089 17.1625 21.8299L17.1516 21.8346C16.3801 22.1966 15.5577 22.4839 14.688 22.6825C8.28206 24.1541 1.85187 20.3396 0.325773 14.1625C-0.282242 11.6958 -0.0169925 9.22329 0.931367 7.05094L0.964069 7.08598C1.41948 6.02083 2.04929 5.00473 2.85958 4.07506H2.85837ZM8.167 4.2631C7.19684 4.74078 6.30783 5.41 5.56295 6.26493C2.58221 9.68695 3.04247 14.792 6.59245 17.6662C9.22679 19.7989 12.8216 20.1037 15.7187 18.7209C19.1064 17.0694 21.0092 13.3414 20.0899 9.62505C19.0156 5.27686 14.4906 2.59296 9.98136 3.62891C9.33943 3.77607 8.73262 3.99097 8.167 4.26426V4.2631Z" fill="white"/>
<path fill-rule="evenodd" clip-rule="evenodd" d="M9.02335 11.1257C9.36491 11.2249 9.73069 11.1303 10.071 11.2331C10.0747 11.2752 10.0819 11.3593 10.0844 11.4013C10.1716 11.4667 10.26 11.5321 10.3435 11.6022C10.4368 11.5812 10.5313 11.5601 10.6245 11.5391C10.6984 11.7353 10.8086 11.9187 10.8595 12.1231C10.7517 11.9514 10.6851 11.7564 10.5531 11.5987C10.4562 11.6232 10.3605 11.6454 10.2636 11.6676C10.2139 11.5812 10.1401 11.5134 10.0626 11.4515C10.0274 11.3814 10.0214 11.288 9.95233 11.2401C9.65196 11.1934 9.34432 11.239 9.04273 11.1946C9.05606 11.2331 9.0827 11.3102 9.09602 11.3487C9.04879 11.3464 8.95432 11.3429 8.90708 11.3394C8.89012 11.4644 8.90466 11.5963 8.85379 11.7155C8.77869 11.6909 8.7036 11.6676 8.62972 11.6442C8.55099 11.5566 8.46863 11.4702 8.39111 11.3814C8.54493 11.4796 8.67574 11.6115 8.85015 11.6793C8.79807 11.5181 8.81382 11.3639 8.97006 11.2705C8.98338 11.2343 9.00882 11.1619 9.02214 11.1257H9.02335Z" fill="#EC008C"/>
<path fill-rule="evenodd" clip-rule="evenodd" d="M11.4519 3.69414C12.0284 3.61589 12.611 3.67078 13.1863 3.73385C13.5448 3.79692 13.9154 3.82495 14.2582 3.95108C14.5683 4.08306 14.9074 4.14379 15.2017 4.30613C15.3265 4.37154 15.3204 4.52804 15.3689 4.64133C15.4294 4.69973 15.4912 4.75695 15.553 4.81535C15.2877 4.85973 15.0176 4.88076 14.7524 4.9263C15.0491 4.95901 15.341 4.84572 15.6341 4.88192C15.8194 4.9847 15.9066 5.1996 16.0508 5.34909C16.0617 5.30938 16.0822 5.2323 16.0919 5.19376C16.104 5.25332 16.1162 5.31172 16.1283 5.37128C16.2615 5.42618 16.3996 5.47523 16.5243 5.54881C16.5861 5.64575 16.6224 5.75436 16.6697 5.85831C16.6309 5.8513 16.5534 5.83729 16.5146 5.82911C16.5207 5.89568 16.528 5.96109 16.534 6.02649C16.3887 5.93189 16.2518 5.82561 16.1222 5.71115C16.0774 5.70181 15.9878 5.68546 15.9417 5.67611C15.9962 5.76838 16.0508 5.86065 16.104 5.95408C16.0386 5.93072 15.9732 5.90853 15.909 5.88517C15.8521 5.7894 15.7952 5.69363 15.7358 5.59903C15.6886 5.68195 15.6426 5.76488 15.5966 5.8478C15.4197 5.73101 15.2211 5.64341 15.0648 5.50092C14.8759 5.26734 14.7754 4.96251 14.5283 4.77447C14.2752 4.64016 13.9845 4.57593 13.7471 4.41125C13.5763 4.29095 13.3898 4.19635 13.1899 4.13328C12.9223 4.15547 12.6619 4.0889 12.4087 4.01532C12.3651 4.05269 12.3239 4.09357 12.284 4.13445C12.3118 4.16248 12.3663 4.21971 12.393 4.24891C12.3191 4.32833 12.244 4.40658 12.1653 4.48249C12.2077 4.42643 12.2513 4.37154 12.2961 4.31665C12.267 4.26292 12.2391 4.2092 12.2089 4.15664C12.1059 4.10642 11.9981 4.06204 11.8915 4.01882C12.118 3.99196 12.3324 3.9067 12.5092 3.76772C12.1665 3.6591 11.8031 3.67429 11.4482 3.69297L11.4519 3.69414Z" fill="#EC008C"/>
<path fill-rule="evenodd" clip-rule="evenodd" d="M9.93404 3.9476C10.3059 3.79344 10.7237 3.80045 11.1113 3.70117C11.1077 3.70701 11.0992 3.71752 11.0956 3.72336C11.0508 3.75373 11.0023 3.77709 10.9514 3.79344L10.9333 3.79928C11.0071 3.83198 11.0822 3.86468 11.1573 3.89738C10.9151 3.94877 10.668 3.93593 10.4221 3.93593C10.1751 3.98731 9.93646 4.07958 9.67969 4.08075C9.76326 4.0352 9.84804 3.99082 9.93404 3.94877V3.9476Z" fill="#EC008C"/>
<path fill-rule="evenodd" clip-rule="evenodd" d="M10.4163 4.09825C10.6234 4.07489 10.9092 3.94291 11.0461 4.16949C11.275 4.28862 11.5596 4.26059 11.7994 4.17767C11.7958 4.23723 11.7873 4.35519 11.7837 4.41475C11.6674 4.35519 11.5439 4.3038 11.4131 4.35402C11.0836 4.3038 10.7554 4.23606 10.4199 4.24073L10.4247 4.21854C10.535 4.20686 10.6476 4.19635 10.7578 4.18117C10.6476 4.13912 10.5325 4.1146 10.4163 4.09708V4.09825Z" fill="#EC008C"/>
<path fill-rule="evenodd" clip-rule="evenodd" d="M12.8252 4.20572C13.0214 4.24776 13.2358 4.23141 13.4175 4.32602C13.3751 4.32718 13.2927 4.32952 13.2503 4.32952C13.3024 4.39726 13.3533 4.465 13.4041 4.53391C13.2588 4.49887 13.1171 4.45332 12.9754 4.4066C12.7998 4.51989 12.8555 4.29448 12.8252 4.20572Z" fill="#EC008C"/>
<path fill-rule="evenodd" clip-rule="evenodd" d="M11.9218 4.27229C12.0138 4.2501 12.0453 4.2828 12.0162 4.36689C11.923 4.38908 11.8915 4.35638 11.9218 4.27229Z" fill="#EC008C"/>
<path fill-rule="evenodd" clip-rule="evenodd" d="M12.48 4.32249C12.5721 4.29446 12.6024 4.32249 12.5697 4.40891C12.4776 4.43811 12.4473 4.40891 12.48 4.32249Z" fill="#EC008C"/>
<path fill-rule="evenodd" clip-rule="evenodd" d="M8.83322 4.68922C9.12633 4.48366 9.49574 4.46381 9.8373 4.55024C9.91966 4.6355 10.0238 4.71141 10.1522 4.68922C10.3835 4.65769 10.5991 4.74995 10.822 4.79083C10.9698 4.82003 11.1078 4.74995 11.2447 4.70557C11.2386 4.73243 11.2265 4.78849 11.2205 4.81652C11.2762 4.81536 11.39 4.81185 11.4458 4.81068C11.3028 4.90295 11.3694 5.06646 11.3234 5.19727C11.2483 5.25333 11.1611 5.2907 11.0776 5.33392C11.1006 5.40866 11.1236 5.48341 11.1478 5.55933C11.0582 5.59436 10.9698 5.63174 10.8826 5.67028C10.8862 5.64225 10.8935 5.58502 10.8971 5.55816C10.8062 5.58852 10.7142 5.61422 10.6173 5.60955C10.627 5.66444 10.6452 5.77539 10.6548 5.83029C10.587 5.77072 10.5204 5.71116 10.455 5.65042C10.3072 5.60721 10.1546 5.57685 9.9996 5.58502C9.98143 5.57685 9.94509 5.55933 9.92571 5.55115C9.81307 5.57918 9.70286 5.54765 9.59627 5.51962C9.59143 5.46122 9.59021 5.40282 9.58053 5.3456C9.42428 5.40633 9.27046 5.4764 9.10453 5.51378C9.22565 5.46005 9.33587 5.38764 9.27288 5.24048C9.17962 5.31289 9.08878 5.38998 8.98826 5.45304C8.93375 5.34209 9.01006 5.24048 9.05366 5.14121C9.0367 5.11084 9.00158 5.05128 8.98462 5.02091C9.03791 4.95668 9.08636 4.8866 9.1227 4.81185C9.02459 4.77098 8.9277 4.72893 8.82959 4.68805L8.83322 4.68922Z" fill="#EC008C"/>
<path fill-rule="evenodd" clip-rule="evenodd" d="M13.2576 4.56308C13.4259 4.55958 13.5991 4.5444 13.7626 4.59462C13.7263 4.69389 13.5882 4.68922 13.5071 4.73711C13.4235 4.67871 13.3399 4.62148 13.2576 4.56308Z" fill="#EC008C"/>
<path fill-rule="evenodd" clip-rule="evenodd" d="M11.6734 4.67288C11.7667 4.6647 11.8599 4.65653 11.9544 4.64719L11.9447 4.6612C11.8866 4.71493 11.8563 4.78267 11.8527 4.86325C11.8006 4.92165 11.7497 4.97888 11.6976 5.03494C11.8115 5.0326 11.9278 5.03143 12.0428 5.03377C11.8708 5.1237 11.6867 5.19144 11.4966 5.23465C11.5051 5.18093 11.522 5.07348 11.5305 5.02092C11.5802 4.97888 11.631 4.93566 11.6807 4.89479C11.677 4.82121 11.6758 4.74763 11.6734 4.67405V4.67288Z" fill="#EC008C"/>
<path fill-rule="evenodd" clip-rule="evenodd" d="M11.9788 4.87726C12.0236 4.83639 12.0684 4.79668 12.1132 4.7558C12.1459 4.83171 12.1786 4.9088 12.2101 4.98588C12.1302 4.95435 12.0539 4.9158 11.9788 4.87726Z" fill="#EC008C"/>
<path fill-rule="evenodd" clip-rule="evenodd" d="M8.0254 5.75673C8.07748 5.6376 8.21556 5.60373 8.33304 5.57336C8.31851 5.65278 8.30276 5.7322 8.28823 5.81162C8.22888 5.8525 8.17195 5.89338 8.11382 5.93425C8.07869 5.87819 8.0145 5.82914 8.0254 5.75673Z" fill="#EC008C"/>
<path fill-rule="evenodd" clip-rule="evenodd" d="M15.898 6.11411C16.0409 6.15032 16.1535 6.24259 16.2722 6.32434C16.1971 6.38741 16.122 6.45164 16.0457 6.51354C16.1184 6.55325 16.1983 6.58712 16.265 6.63851C16.2759 6.72144 16.2831 6.80436 16.2892 6.88728C16.3292 6.84407 16.3703 6.80085 16.4127 6.75881C16.4575 6.76231 16.5484 6.77049 16.5944 6.77399C16.6441 6.9959 16.7846 7.17926 16.8875 7.37781C16.9008 7.54132 16.8899 7.70483 16.8984 7.86834C16.982 7.96878 17.0619 8.07039 17.1394 8.17434C17.1649 8.1685 17.2157 8.15682 17.2412 8.15098C17.5525 8.42778 17.6893 8.81787 17.8565 9.17992C17.5864 9.00473 17.2606 8.84823 17.1334 8.5399C16.9735 8.18485 16.8693 7.76673 16.5205 7.53431C16.5702 7.69082 16.6537 7.8333 16.7349 7.97696C16.6949 7.9501 16.615 7.89637 16.575 7.86951C16.4575 8.11828 16.6501 8.35069 16.7821 8.55391C16.6804 8.61815 16.5702 8.68005 16.5351 8.80152C16.4793 8.93933 16.3546 9.04094 16.3013 9.17876C16.3255 9.51745 16.4006 9.85499 16.3534 10.1972C16.4866 10.217 16.6259 10.2684 16.7531 10.2007C16.7349 10.1563 16.6986 10.0687 16.6804 10.0255C16.7991 10.0384 16.936 10.0559 16.9989 10.1703C17.0946 10.3642 17.206 10.5511 17.2993 10.7449C17.3744 11.1467 17.4325 11.5753 17.3199 11.9736C17.2933 12.0974 17.154 12.0647 17.0571 12.0752C17.0268 12.0005 16.9347 11.8954 17.0171 11.8241C17.1855 11.6805 17.045 11.4504 17.0171 11.2787C17.0171 11.4223 17.0365 11.566 17.0595 11.7073C16.8681 11.7797 16.9711 11.9818 17.0171 12.1149C17.0438 12.4198 16.6574 12.6055 16.6792 12.915C16.7107 12.8355 16.741 12.7561 16.7688 12.6755C16.8039 12.6662 16.8742 12.6452 16.9093 12.6358C16.9117 12.5821 16.9178 12.4735 16.9202 12.4198C16.9892 12.4583 17.0437 12.512 17.0825 12.5821C17.0207 12.7082 16.9674 12.839 16.9226 12.971C16.9565 12.9885 17.0256 13.0236 17.0595 13.0411C16.9977 13.1497 16.9045 13.2361 16.8112 13.3202C16.7785 13.2093 16.7821 13.0574 16.6247 13.0493C16.6356 13.0072 16.6562 12.9231 16.6659 12.8811C16.569 13.0528 16.4672 13.2233 16.3219 13.3599C16.3291 13.2677 16.3376 13.1742 16.3461 13.082C16.116 13.0773 16.1051 13.3623 16.0009 13.5071C15.9307 13.5748 15.7647 13.6519 15.8992 13.7454C15.9452 13.7454 16.0385 13.7442 16.0845 13.743C16.0942 13.7757 16.1148 13.8411 16.1245 13.8738C16.1959 13.8096 16.2565 13.736 16.3098 13.6578C16.357 13.6519 16.4527 13.6391 16.5011 13.6332C16.3582 13.7967 16.2601 13.9883 16.2129 14.1973C16.2565 14.202 16.3437 14.2102 16.3873 14.2149C16.4648 14.299 16.546 14.3807 16.6307 14.4601C16.5847 14.4741 16.4927 14.5022 16.4466 14.5162C16.5108 14.5232 16.638 14.536 16.701 14.5419C16.6428 14.6248 16.5847 14.7089 16.5278 14.793C16.6005 14.7638 16.6731 14.7358 16.747 14.7066C16.7288 14.9997 16.5823 15.2637 16.4866 15.5381C16.334 15.7962 16.1451 16.1104 15.8047 16.1431C15.7163 16.3452 15.4922 16.4234 15.3166 16.5355C15.3384 16.5764 15.382 16.6593 15.4038 16.7002C15.4038 16.7236 15.4014 16.7691 15.4014 16.7925C15.3566 16.8322 15.313 16.8731 15.2694 16.9128C15.2306 16.9139 15.1507 16.9163 15.1107 16.9163C15.1652 16.8135 15.2609 16.7434 15.3614 16.685C15.342 16.6418 15.3009 16.5542 15.2803 16.511C15.1252 16.5414 14.9714 16.5869 14.8127 16.5928C14.8006 16.5612 14.7776 16.4993 14.7667 16.4678C14.6953 16.4713 14.6238 16.476 14.5535 16.4806C14.3791 16.6185 14.1296 16.6185 13.9673 16.7703C13.9007 16.8614 13.782 16.8404 13.6815 16.8509C13.6391 16.7691 13.5955 16.6874 13.5507 16.6068C13.4962 16.6009 13.3872 16.5881 13.3327 16.5811C13.3848 16.5063 13.438 16.4316 13.4925 16.358C13.4901 16.2751 13.4889 16.1922 13.4889 16.1081C13.4247 16.066 13.3617 16.0251 13.2975 15.9843C13.1752 16.1046 13.1316 15.9177 13.0371 15.8838C12.8942 15.8815 12.7549 15.9305 12.6387 16.0111C12.7695 15.9843 12.8991 15.9539 13.0299 15.9282C13.0735 15.9971 13.128 16.0567 13.1934 16.1081C13.0953 16.17 12.9984 16.233 12.9015 16.2973C12.8385 16.4398 12.8094 16.6301 12.6326 16.6827C12.5672 16.7983 12.5066 16.9174 12.4558 17.0389C12.4182 16.9688 12.3819 16.8999 12.3443 16.831C12.3819 16.8228 12.457 16.8088 12.4957 16.8018C12.4485 16.7469 12.4049 16.6885 12.3456 16.6453C12.2305 16.7049 12.1542 16.8065 12.113 16.9245C11.9774 16.9268 11.8393 16.9221 11.7073 16.9548C11.5825 16.9875 11.5353 17.1218 11.4251 17.1721C11.0932 17.311 10.794 17.5353 10.4258 17.5797C10.4186 17.7443 10.3968 17.9078 10.3471 18.0667C10.2308 18.1192 10.1158 18.1753 10.0007 18.2325C9.72455 17.9604 9.54771 17.6135 9.37088 17.2772C9.25945 17.0541 9.30669 16.8018 9.28489 16.5647C9.2643 16.5484 9.22312 16.5145 9.20253 16.4982C9.19284 16.6208 9.12016 16.6932 8.99057 16.6488C8.89246 16.5939 8.82706 16.5005 8.75075 16.4234C8.80647 16.4106 8.91911 16.386 8.97482 16.3744C8.85734 16.3346 8.74591 16.2821 8.64417 16.2144C8.68777 16.1887 8.77255 16.1349 8.81616 16.1081C8.72532 16.1034 8.63448 16.0999 8.54485 16.0952C8.49883 15.9971 8.45159 15.9002 8.40314 15.8044C8.18513 15.7448 7.96832 15.6748 7.76727 15.572C7.76363 15.5451 7.75637 15.4902 7.75273 15.4634C7.7273 15.4739 7.67643 15.4961 7.65099 15.5066C7.45963 15.3828 7.19195 15.2788 7.15804 15.0301C7.14956 14.8899 6.96788 14.9203 6.86857 14.8817C6.70748 14.6867 6.53428 14.4788 6.51853 14.2195C6.50763 14.0735 6.40347 13.9626 6.3199 13.8493C6.33564 13.6181 6.27872 13.3938 6.20968 13.1754C6.2654 13.1252 6.32232 13.075 6.37804 13.0247C6.34776 12.8799 6.32838 12.7339 6.31384 12.5879C6.08977 12.4548 5.86813 12.3065 5.71552 12.0962C5.62589 11.9689 5.51446 11.8591 5.37638 11.7821C5.35822 11.6489 5.35095 11.4994 5.19834 11.4469C5.1402 11.1946 5.2371 10.9575 5.32067 10.7239C5.42241 10.919 5.63073 11.0112 5.81483 11.1187C5.97229 11.2985 5.94201 11.5859 6.13701 11.7447C6.23996 11.8451 6.42164 11.8848 6.4495 12.0413C6.42891 12.2212 6.36108 12.3929 6.32838 12.5716C6.37077 12.4898 6.40589 12.4046 6.43375 12.3158C6.46645 12.4069 6.50037 12.4992 6.53549 12.5903C6.58636 12.5903 6.68931 12.5879 6.74018 12.5868C6.74382 12.7152 6.74381 12.8449 6.74139 12.9745C6.8286 13.2081 6.98969 13.4137 7.26341 13.4475C7.284 13.2268 7.33609 13.0084 7.31307 12.7865C7.35304 12.8215 7.39422 12.8566 7.4354 12.8904C7.55047 12.8647 7.65705 12.9068 7.75879 12.9547C7.87022 12.9231 7.98165 12.8998 8.09671 12.8799C8.11003 13.0212 8.10882 13.1789 8.24932 13.2642C8.27718 13.3179 8.30625 13.3716 8.33531 13.4253C8.3341 13.3786 8.33168 13.2864 8.33047 13.2396C8.29292 13.2186 8.21783 13.1766 8.18028 13.1556C8.20087 13.0166 8.12457 12.8986 8.03857 12.7958C7.92593 12.839 7.81208 12.8799 7.69944 12.922C7.71519 12.8519 7.74547 12.7117 7.76121 12.6405C7.73941 12.6895 7.69702 12.7853 7.67522 12.8332L7.63161 12.8297C7.63404 12.6919 7.54078 12.6043 7.42571 12.5424C7.38453 12.3812 7.35425 12.2154 7.32155 12.0519C7.37121 12.157 7.43661 12.0916 7.50444 12.0367C7.53956 12.053 7.6086 12.0857 7.64373 12.1032C7.68854 12.0227 7.73457 11.9432 7.78059 11.8627C7.71761 11.8078 7.65584 11.7529 7.59286 11.698C7.56015 11.6945 7.52866 11.691 7.49596 11.6875H7.32155C7.32155 11.6875 7.31913 11.6945 7.31792 11.698C7.27431 11.6945 7.1859 11.6875 7.1423 11.684C7.09627 11.7202 7.05146 11.7552 7.00543 11.7914C6.97152 11.9818 6.94366 12.1733 6.91823 12.3649C6.785 12.1628 6.74987 11.9152 6.59363 11.7248C6.4386 11.5275 6.37198 11.2892 6.33686 11.0474C6.4604 10.9855 6.60816 10.9435 6.68931 10.8244C6.72444 10.8255 6.7959 10.8279 6.83102 10.829C6.79105 10.8068 6.7099 10.7625 6.66872 10.7403C6.63965 10.7508 6.58273 10.7718 6.55366 10.7823C6.45919 10.7379 6.3635 10.6936 6.26782 10.6492C6.25934 10.7309 6.24965 10.8115 6.24117 10.8933C6.18909 10.8734 6.13701 10.8524 6.08614 10.8337C6.114 10.7566 6.1358 10.6749 6.1903 10.6106C6.19757 10.5219 6.20241 10.4331 6.20726 10.3432C6.10067 10.3338 5.99288 10.3257 5.88629 10.3116C5.94806 10.2556 6.01952 10.2486 6.1031 10.2883C6.10915 10.1878 6.10915 10.0862 6.10794 9.98579L6.223 10.015C6.15276 9.8071 5.95291 9.65761 5.93232 9.43103C6.04496 9.39949 6.15881 9.36679 6.27266 9.33643C6.31505 9.29321 6.35624 9.25117 6.39984 9.20912C6.45434 9.3773 6.504 9.54782 6.55487 9.71834C6.59484 9.71834 6.67599 9.71951 6.71596 9.72067C6.73655 9.75221 6.77894 9.81528 6.79953 9.84681C6.69779 10.1108 6.77531 10.3829 6.90733 10.6211C6.87341 10.662 6.8068 10.7426 6.77288 10.7847C6.8395 10.7391 6.9049 10.6912 6.97152 10.6445C6.88189 10.4425 6.76077 10.2334 6.81649 10.0068C6.8504 9.89002 6.82012 9.77557 6.78257 9.66461C6.81891 9.65177 6.89279 9.62724 6.92913 9.61439C7.01633 9.41585 7.12897 9.21146 7.089 8.98838C7.22223 8.82604 7.37969 8.56676 7.63525 8.67071C7.63888 8.62983 7.64615 8.55041 7.64978 8.5107C7.77575 8.49318 7.90655 8.49085 8.02888 8.45231C8.17544 8.23974 8.36075 8.05988 8.55454 7.88703C8.58845 7.87301 8.65749 7.84498 8.6914 7.83213C8.70473 7.79593 8.73258 7.72235 8.74591 7.68498C8.821 7.67914 8.89731 7.67213 8.97361 7.66746C9.03417 7.88936 9.14681 8.16967 8.97845 8.37055C8.69867 8.49318 8.70109 8.12996 8.65749 7.96411C8.62358 8.0447 8.59209 8.12528 8.55938 8.20704C8.43342 8.31682 8.27839 8.53172 8.48671 8.64968C8.50609 8.57494 8.52668 8.50019 8.54485 8.42427C8.56181 8.47683 8.59451 8.58311 8.61147 8.63684C8.72047 8.53056 8.9942 8.37172 9.01721 8.62866C9.12743 8.49902 9.23765 8.36471 9.39753 8.28996C9.35029 8.42895 9.1456 8.44763 9.19284 8.62633C9.38663 8.57143 9.62402 8.47333 9.78389 8.64852C9.91955 8.66253 10.0613 8.68005 10.1533 8.78867C10.1848 8.74312 10.2478 8.64968 10.2805 8.60414C10.2478 8.55158 10.2151 8.50019 10.1824 8.4488C10.3435 8.61815 10.5082 8.78633 10.6208 8.99189C10.6426 8.97554 10.6874 8.9405 10.7092 8.92298C10.6705 8.78516 10.6838 8.64384 10.7407 8.51187C10.8594 8.42311 10.9563 8.27828 11.1259 8.28763C11.0266 8.51304 10.9612 8.75013 10.92 8.99189C10.9103 9.10985 10.8073 9.18693 10.7383 9.27336C10.6802 9.26168 10.5675 9.23832 10.5106 9.22664C10.5784 9.30022 10.6608 9.35978 10.7432 9.41701C10.9442 9.31774 11.0036 9.09233 11.1743 8.9697C11.1743 9.02809 11.1719 9.14489 11.1707 9.20328C11.207 9.23482 11.2434 9.26635 11.2809 9.29672C11.2676 9.1262 11.287 8.89612 11.0399 8.89729C11.0823 8.7548 11.1223 8.61114 11.1622 8.46866C11.1961 8.60297 11.3173 8.67071 11.4347 8.7291C11.3984 8.6637 11.3596 8.5983 11.3233 8.53289C11.4347 8.45464 11.5292 8.50953 11.6128 8.59246C11.6019 8.68939 11.5946 8.78633 11.5898 8.88444C11.8296 8.7583 11.6261 8.46982 11.5583 8.29697C11.614 8.28996 11.7254 8.27712 11.7824 8.27128C11.8102 8.29697 11.8683 8.34836 11.8974 8.37289C11.9338 8.26193 11.9338 8.13229 12.004 8.03535C12.1578 7.93725 12.3468 7.91739 12.5248 7.88936C12.5333 7.86484 12.5515 7.81345 12.5611 7.78892C12.5696 7.72702 12.5781 7.66629 12.5878 7.60556C12.6568 7.65111 12.7283 7.69782 12.7973 7.74337C12.8555 7.72352 12.9124 7.70366 12.9693 7.68498C13.0238 7.74921 13.0795 7.81345 13.1352 7.87652C13.0432 8.04119 12.9487 8.2047 12.8652 8.37405C12.9875 8.28646 13.105 8.19419 13.2237 8.10193C13.2685 8.16967 13.3157 8.23857 13.3617 8.30631C13.3436 8.24208 13.3254 8.17901 13.3072 8.11477C13.3399 8.10076 13.4053 8.07273 13.438 8.05871C13.5749 8.12879 13.7881 8.12412 13.799 7.93141C13.8547 7.90922 13.9104 7.8882 13.9673 7.866C13.9952 7.9244 14.0243 7.9828 14.0533 8.04236C14.1575 8.08441 14.2592 8.12762 14.3634 8.17083C14.3004 7.98864 14.476 7.91155 14.6177 7.86484C14.5911 7.76206 14.4942 7.66045 14.5378 7.55066C14.6044 7.55884 14.7377 7.57636 14.8043 7.58453C14.7897 7.5495 14.7607 7.48059 14.7461 7.44555C14.86 7.44438 14.9738 7.44088 15.0889 7.4327C15.1228 7.33693 15.1664 7.24467 15.2197 7.15707C15.3614 7.20846 15.5068 7.25051 15.6533 7.29138C15.5903 7.23065 15.5237 7.17109 15.4607 7.11152C15.5358 7.00641 15.6194 6.9083 15.7102 6.81604C15.64 6.79385 15.5685 6.77166 15.4995 6.74947C15.5358 6.55559 15.6642 6.4096 15.8277 6.29981C15.8822 6.30215 15.99 6.30565 16.0445 6.30799C15.9937 6.24375 15.944 6.17952 15.8955 6.11295L15.898 6.11411ZM14.0921 13.9159C14.0921 13.9159 14.0994 13.9159 14.103 13.9135C14.1781 13.8984 14.1175 13.896 14.1866 13.8832L14.189 13.8972C14.2592 13.8832 14.3537 13.8797 14.3731 13.8306C14.3804 13.8119 14.3791 13.8073 14.4106 13.7932V13.8014C14.4349 13.7967 14.4349 13.7909 14.4433 13.7629C14.4518 13.7348 14.47 13.7477 14.493 13.7372C14.5039 13.7325 14.5087 13.729 14.5221 13.7243C14.5305 13.7208 14.5439 13.7185 14.5511 13.7115C14.5681 13.6975 14.5475 13.6858 14.5778 13.6764C14.5947 13.6718 14.5935 13.6928 14.6395 13.6788C14.6747 13.6683 14.6529 13.6508 14.7171 13.6531L14.7776 13.6508C14.7909 13.6472 14.7897 13.6402 14.797 13.6332C14.8127 13.6251 14.8236 13.6414 14.8467 13.6169L14.86 13.6075C14.86 13.6075 14.8612 13.6075 14.8612 13.6064C14.8612 13.6064 14.8672 13.5994 14.8685 13.5982L14.8818 13.5795V13.5783C14.889 13.569 14.889 13.5667 14.9024 13.5608C14.906 13.5597 14.9084 13.5585 14.9133 13.5573C14.9375 13.548 14.9363 13.5386 14.9472 13.5305C14.9654 13.5176 14.9629 13.5293 14.9678 13.5083C14.9702 13.5001 14.9702 13.5013 14.9763 13.4954C14.9956 13.4767 14.9896 13.4756 14.9896 13.4499L15.0126 13.3926C15.032 13.3576 15.0392 13.3716 15.0647 13.3518L15.0901 13.3319C15.101 13.3214 15.0998 13.3144 15.1143 13.298C15.1325 13.2794 15.1143 13.2455 15.0925 13.2291C15.0841 13.2104 15.0671 13.1929 15.0526 13.1883C15.038 13.1824 15.032 13.1859 15.0223 13.1742C15.0174 13.1684 15.0186 13.1684 15.0114 13.1637C15.0077 13.1614 15.0053 13.1591 15.0041 13.1567C15.0029 13.138 15.009 13.138 15.009 13.1088C15.009 13.0925 15.015 13.0761 15.0174 13.0609C15.0211 13.0329 15.038 13.0096 15.0804 13.0049C15.0998 13.0026 15.1131 13.0131 15.1252 13.0236C15.1361 13.0317 15.1434 13.0329 15.1555 13.0364C15.1676 13.0411 15.1591 13.0399 15.1761 13.0364C15.2112 13.0306 15.2282 13.0306 15.2597 13.0154C15.2803 13.0061 15.2912 12.992 15.3069 12.9698L15.313 12.9617C15.319 12.9535 15.3214 12.9547 15.3239 12.943C15.3263 12.9231 15.3251 12.915 15.3432 12.9009C15.3566 12.8904 15.359 12.8788 15.3517 12.8636C15.3481 12.8542 15.3432 12.8542 15.3384 12.846C15.3517 12.8425 15.3445 12.846 15.3529 12.8379C15.3747 12.8449 15.3747 12.8437 15.4026 12.8367C15.422 12.832 15.4292 12.8262 15.4523 12.8215C15.4595 12.8017 15.4801 12.8052 15.5007 12.7806L15.5201 12.7456C15.5261 12.7351 15.5443 12.7222 15.5467 12.7117C15.5516 12.6919 15.5346 12.7036 15.5358 12.6779C15.5358 12.6709 15.5382 12.6662 15.5395 12.6603C15.5407 12.6463 15.5346 12.6312 15.5395 12.6206C15.5443 12.6113 15.5443 12.6206 15.5491 12.6043C15.5516 12.5949 15.5491 12.5961 15.554 12.5879L15.5588 12.5809C15.5588 12.5809 15.5625 12.5751 15.5637 12.5716C15.5891 12.5669 15.6218 12.5786 15.6291 12.5552C15.6364 12.533 15.6291 12.5097 15.6364 12.4898C15.6388 12.4898 15.646 12.4933 15.6485 12.4945C15.6582 12.4992 15.6509 12.498 15.6618 12.5015C15.6775 12.4945 15.7005 12.4653 15.7066 12.4525C15.7163 12.4338 15.726 12.4408 15.7417 12.4291C15.7441 12.4268 15.749 12.4221 15.749 12.4209C15.7635 12.4081 15.7841 12.4151 15.7817 12.3929C15.7938 12.3917 15.7974 12.3976 15.8059 12.4034C15.8241 12.4198 15.8701 12.4046 15.8943 12.3941C15.9052 12.3882 15.904 12.3871 15.9113 12.38C15.9113 12.38 15.9125 12.38 15.9125 12.3789L15.9161 12.3754C15.9246 12.3649 15.921 12.352 15.9149 12.3438C15.9052 12.3333 15.9101 12.345 15.904 12.3263C15.8992 12.3111 15.904 12.317 15.8931 12.3088C15.8883 12.3053 15.8846 12.3018 15.881 12.2983V12.2948C15.8762 12.2796 15.881 12.2854 15.8689 12.2773C15.858 12.2691 15.8495 12.2597 15.8374 12.2516L15.7284 12.2014C15.6981 12.1885 15.7163 12.1827 15.6691 12.1803C15.6642 12.1803 15.6642 12.1803 15.6594 12.1803C15.6473 12.178 15.6569 12.1803 15.6497 12.1757C15.6448 12.171 15.6424 12.1663 15.6364 12.1616C15.6206 12.15 15.6061 12.157 15.5903 12.1616C15.5649 12.1675 15.5649 12.1558 15.5443 12.1745C15.5382 12.1803 15.531 12.1815 15.5237 12.1873C15.5116 12.1967 15.5177 12.213 15.5152 12.2259L15.5031 12.2644C15.4959 12.2621 15.4995 12.2633 15.4934 12.2597C15.4934 12.2597 15.4995 12.2586 15.4813 12.2551C15.4813 12.2551 15.4801 12.2551 15.4789 12.2551C15.4595 12.2527 15.4292 12.2376 15.4014 12.2633C15.3663 12.296 15.382 12.2784 15.3578 12.2819C15.3372 12.2854 15.3263 12.3018 15.3287 12.3181C15.3118 12.3216 15.296 12.3111 15.2839 12.3006C15.2839 12.2843 15.3154 12.2726 15.313 12.2527C15.3105 12.2364 15.2984 12.2446 15.2924 12.22C15.2851 12.1943 15.3093 12.192 15.3045 12.1663C15.3021 12.1511 15.2996 12.157 15.2948 12.1476C15.2887 12.1359 15.2948 12.1208 15.2972 12.1103C15.3045 12.0846 15.3033 12.0227 15.3069 11.9935C15.3069 11.9841 15.3069 11.9853 15.3057 11.9736C15.3057 11.9631 15.3069 11.9596 15.3069 11.9526C15.3069 11.9386 15.2948 11.9327 15.2839 11.9246C15.2839 11.9246 15.2827 11.9246 15.2815 11.9234C15.2815 11.907 15.2694 11.9012 15.2585 11.893C15.2451 11.8825 15.2367 11.886 15.2185 11.8919C15.1943 11.9 15.1943 11.8989 15.1797 11.9117L15.1482 11.9386C15.0937 11.9479 15.0707 11.9129 15.0308 11.9187C15.0126 11.9222 14.992 11.9257 14.975 11.9316C14.946 11.9409 14.9472 11.9526 14.9218 11.9853C14.9108 11.9993 14.8866 12.0355 14.8757 12.0437C14.8479 12.0659 14.8794 12.0974 14.8551 12.1161C14.8418 12.1266 14.837 12.1324 14.8188 12.1371C14.7558 12.1511 14.7679 12.1792 14.7425 12.1885C14.7267 12.1943 14.7219 12.192 14.711 12.2049C14.6953 12.2224 14.6613 12.2072 14.648 12.2504L14.6456 12.2527L14.6383 12.2562L14.6262 12.2609L14.0836 13.9147L14.0921 13.9159ZM14.6335 12.2621C14.6274 12.2656 14.625 12.2679 14.6214 12.2714C14.619 12.2714 14.6141 12.2679 14.6129 12.2679C14.6129 12.2679 14.6117 12.2679 14.6105 12.2679C14.602 12.2656 14.6032 12.2679 14.5935 12.2621L14.5887 12.2586C14.5669 12.2679 14.5778 12.2621 14.5681 12.2761C14.5632 12.2819 14.5523 12.2913 14.5402 12.2901C14.5305 12.2901 14.5293 12.2843 14.5087 12.2843C14.4894 12.2843 14.4857 12.2913 14.4748 12.2901C14.4651 12.2901 14.4591 12.2784 14.4058 12.2889C14.3573 12.2983 14.3755 12.3065 14.3331 12.3065C14.3174 12.2761 14.3283 12.2854 14.2931 12.2784C14.2895 12.2784 14.2859 12.2773 14.2835 12.2761C14.2835 12.2656 14.2847 12.2551 14.2822 12.2504L14.2726 12.2422C14.2677 12.2399 14.2641 12.2387 14.2604 12.2376C14.2604 12.2294 14.2604 12.2224 14.2592 12.2189C14.2592 12.2189 14.2495 12.2107 14.2483 12.2107C14.2314 12.2025 14.2229 12.2072 14.2072 12.2165L14.1793 12.2306C14.1732 12.2095 14.1648 12.2224 14.149 12.213C14.1454 12.2107 14.1393 12.2072 14.1345 12.2049C14.1212 12.1967 14.1006 12.1663 14.0642 12.1768C14.0473 12.1815 14.0582 12.1815 14.0449 12.1885C14.0218 12.2002 14.0231 12.1862 14.0037 12.185H13.9564C13.9564 12.185 13.9419 12.1862 13.9346 12.1873C13.9322 12.1873 13.9262 12.1873 13.9237 12.1873C13.9104 12.1873 13.9225 12.1873 13.9104 12.1873C13.8874 12.1873 13.8886 12.1978 13.885 12.2107C13.8559 12.2165 13.8583 12.2177 13.8498 12.2341C13.8377 12.2352 13.8329 12.2247 13.8014 12.2504C13.7905 12.2597 13.7966 12.2703 13.7687 12.2773C13.7687 12.2773 13.7626 12.2784 13.759 12.2796C13.7542 12.2714 13.7542 12.2703 13.7384 12.2749C13.7275 12.2784 13.7251 12.2808 13.7239 12.2889L13.7045 12.2925C13.6972 12.2831 13.7069 12.2925 13.6936 12.2854C13.6863 12.2808 13.6876 12.2819 13.6815 12.2773C13.6718 12.2703 13.6682 12.2691 13.6548 12.2656C13.6476 12.2703 13.6452 12.2738 13.6379 12.2773C13.627 12.2738 13.6343 12.2749 13.6282 12.2714C13.6185 12.2656 13.6209 12.2679 13.6052 12.2656C13.5882 12.2621 13.5834 12.2633 13.5725 12.2527C13.5689 12.2492 13.5689 12.2492 13.564 12.2457C13.5386 12.2294 13.5616 12.2411 13.5434 12.206L13.5168 12.1511C13.4986 12.1196 13.5325 12.0846 13.4574 12.0752C13.4259 12.0717 13.4187 12.0705 13.4053 12.0822C13.3957 12.0682 13.3799 12.0764 13.3654 12.0717C13.3521 12.0682 13.3412 12.0577 13.329 12.053C13.3206 12.0495 13.2963 12.0425 13.2879 12.0437C13.2745 12.0449 13.2709 12.0495 13.2624 12.0519C13.2443 12.0554 13.2648 12.0519 13.237 12.0507C13.2164 12.0507 13.2273 12.0507 13.1994 12.0367C13.1607 12.0157 13.1595 12.0378 13.1352 12.0215C13.1304 12.018 13.134 12.0192 13.128 12.0168C13.0929 11.997 13.1038 11.9935 13.0783 12.004C13.0759 12.011 13.0783 12.025 13.0747 12.0308C13.0747 12.0332 13.0686 12.0367 13.0674 12.0413C13.0602 12.0542 13.0723 12.0554 13.0577 12.067C13.0384 12.0811 13.0468 12.0694 13.0408 12.0892L13.0384 12.0951C13.0384 12.0951 13.0384 12.0962 13.0384 12.0974L13.0347 12.1021C13.0105 12.1068 13.0202 12.1138 13.025 12.1348C13.0008 12.1511 12.9802 12.1465 12.9887 12.1815C12.9911 12.1943 12.9948 12.2072 12.9935 12.2177C12.9899 12.2376 12.9814 12.2224 12.9863 12.2504C12.9996 12.2527 13.0069 12.2469 13.0093 12.2644C13.0093 12.2738 13.0093 12.2878 13.0141 12.3006C13.0202 12.3193 13.0359 12.3216 13.0638 12.3298C13.0698 12.3602 13.0686 12.3497 13.0614 12.3625L13.0505 12.3976C13.0468 12.4139 13.0505 12.4104 13.0359 12.4233C13.0311 12.4268 13.0335 12.4244 13.0299 12.4291C13.0262 12.4338 13.0262 12.4373 13.0238 12.4431C12.9657 12.4548 12.996 12.4583 12.9693 12.4805C12.962 12.4863 12.956 12.4887 12.9439 12.491C12.9269 12.4735 12.9366 12.463 12.9039 12.463C12.8434 12.463 12.8857 12.4665 12.8615 12.4595C12.853 12.4571 12.8567 12.4583 12.8446 12.4595V12.4676C12.83 12.47 12.8312 12.4641 12.8216 12.4583C12.8155 12.4548 12.8022 12.4513 12.7913 12.4513C12.7658 12.4513 12.7574 12.4641 12.7392 12.4805C12.7174 12.4641 12.6907 12.4688 12.6835 12.4688C12.675 12.4688 12.6786 12.4688 12.6726 12.4653C12.6665 12.4618 12.6617 12.4571 12.6532 12.4548C12.6278 12.4501 12.6302 12.4688 12.6132 12.4408C12.6011 12.4221 12.5975 12.4279 12.5999 12.3987C12.6023 12.3695 12.6108 12.3695 12.5636 12.3637L12.5393 12.3602C12.5127 12.3602 12.5091 12.3719 12.4824 12.3637C12.4606 12.3567 12.4485 12.3497 12.4546 12.3789C12.4231 12.3847 12.4412 12.3777 12.4206 12.3765C12.4158 12.3567 12.4206 12.3567 12.4231 12.3392C12.4097 12.3298 12.3976 12.3275 12.3807 12.331C12.3831 12.3415 12.3831 12.3368 12.3807 12.345C12.3528 12.3357 12.3589 12.3345 12.3516 12.3263C12.3359 12.31 12.3274 12.3228 12.3177 12.331L12.3225 12.3532C12.3141 12.3532 12.3104 12.3532 12.3044 12.3532C12.2886 12.3485 12.2693 12.3555 12.2596 12.3649C12.2511 12.373 12.2571 12.366 12.2535 12.373C12.2511 12.3765 12.2511 12.3789 12.2474 12.3812L12.2051 12.4057C12.1978 12.4092 12.1905 12.4127 12.1796 12.4163C12.1663 12.4198 12.1409 12.4163 12.1469 12.4443C12.1251 12.4443 12.1275 12.4338 12.0997 12.4396C12.0948 12.4525 12.0924 12.4618 12.0864 12.4735C12.0767 12.4735 12.0706 12.4688 12.0621 12.4711C12.0452 12.4746 12.0537 12.4793 12.0512 12.4852C12.0415 12.5085 12.0004 12.5027 12.004 12.5377C12.0064 12.5693 12.004 12.5459 12.004 12.5693C11.9786 12.5646 11.9834 12.5751 11.9652 12.5856C11.9519 12.5938 11.9277 12.5903 11.9313 12.6148C11.9083 12.6066 11.8974 12.5833 11.8429 12.6113C11.8332 12.616 11.8332 12.6148 11.8235 12.637C11.8199 12.6452 11.8211 12.6452 11.8235 12.6557C11.7933 12.6627 11.792 12.6779 11.7957 12.6977C11.7715 12.7141 11.7557 12.7269 11.786 12.7444C11.7908 12.7468 11.792 12.7468 11.7993 12.7491C11.8078 12.7514 11.8175 12.7433 11.8114 12.7655C11.8042 12.797 11.8308 12.8028 11.8671 12.818C11.8817 12.8239 11.8865 12.8262 11.8901 12.8437C11.8962 12.8729 11.8926 12.8577 11.9071 12.8741C11.9277 12.8963 11.918 12.8811 11.9398 12.8951C11.958 12.9068 11.9471 12.9079 11.964 12.9091C11.981 12.9103 11.9895 12.9033 11.9895 12.8893C12.0355 12.9044 12.0355 12.9336 12.0658 12.9336C12.0658 12.9243 12.0682 12.9243 12.0755 12.9173C12.0779 12.929 12.0815 12.9313 12.0851 12.9465C12.09 12.9465 12.1106 12.9523 12.1142 12.9547C12.1227 12.9593 12.1397 13.0096 12.1397 13.0142C12.1409 13.0282 12.1324 13.0353 12.1615 13.0668C12.1651 13.0703 12.1675 13.0738 12.1724 13.0773L12.1857 13.0843C12.199 13.0925 12.2002 13.0948 12.2051 13.1053C12.2147 13.1287 12.216 13.1205 12.2196 13.1357V13.1392C12.2172 13.1591 12.2232 13.1509 12.2099 13.1847C12.2026 13.2023 12.2026 13.2198 12.1978 13.235C12.2087 13.2385 12.2038 13.2396 12.216 13.2396C12.222 13.2688 12.2208 13.27 12.2087 13.291C12.2038 13.3004 12.2014 13.305 12.1966 13.3132C12.1845 13.3331 12.1857 13.3226 12.1796 13.3518C12.1796 13.3518 12.1796 13.3529 12.1796 13.3541C12.1711 13.3915 12.1893 13.3856 12.1942 13.4148C12.1966 13.43 12.1929 13.4277 12.2026 13.4382C12.2232 13.4335 12.2269 13.4312 12.2402 13.4347L12.2438 13.4359C12.2474 13.437 12.2474 13.4359 12.2499 13.4382C12.262 13.4429 12.2523 13.4429 12.268 13.4464C12.2753 13.4475 12.2874 13.4475 12.2947 13.4475C12.3068 13.4487 12.2947 13.4452 12.3056 13.4534C12.3153 13.4615 12.3044 13.4569 12.3177 13.4604C12.3371 13.4627 12.3722 13.4475 12.3952 13.4557C12.4037 13.458 12.4085 13.4615 12.4182 13.4615C12.4485 13.4615 12.4425 13.4475 12.4655 13.4534C12.5369 13.4709 12.5454 13.4604 12.6229 13.4837L12.6375 13.4931C12.6435 13.4978 12.6484 13.4989 12.6556 13.5048L12.7089 13.5433C12.7331 13.562 12.7295 13.5515 12.7477 13.5667C12.7586 13.5772 12.7574 13.5737 12.7913 13.5818H12.7998C12.7998 13.5818 12.801 13.5842 12.807 13.5842C12.8203 13.5853 12.8276 13.5818 12.8361 13.5818C12.8639 13.5818 12.8276 13.6204 12.8591 13.6309C12.8761 13.6367 12.8724 13.6286 12.8845 13.6461C12.916 13.6928 12.8882 13.7045 12.9463 13.7535C12.9451 13.7675 12.9402 13.757 12.9439 13.7734C12.9536 13.7734 12.996 13.8037 12.9996 13.8096C13.0032 13.8154 13.0081 13.8294 13.0226 13.8365L13.128 13.8341C13.1474 13.8318 13.1692 13.8423 13.1958 13.8435C13.2261 13.8458 13.2103 13.84 13.2491 13.847L13.3012 13.854C13.3145 13.854 13.3254 13.854 13.3399 13.854C13.3545 13.854 13.3775 13.8645 13.415 13.8575C13.4393 13.8528 13.4393 13.8516 13.4574 13.8446L13.5107 13.8213C13.5265 13.8131 13.5434 13.8283 13.5652 13.8248C13.5713 13.8178 13.5737 13.8143 13.5737 13.8038C13.6112 13.7967 13.5943 13.8037 13.6439 13.8061C13.65 13.8061 13.6476 13.8061 13.6512 13.8061C13.6512 13.8061 13.6524 13.8061 13.6536 13.8061C13.6536 13.8061 13.6548 13.8061 13.6561 13.8061C13.6561 13.8061 13.6573 13.8061 13.6585 13.8061C13.6754 13.8084 13.6718 13.8061 13.6815 13.7967C13.7009 13.7967 13.759 13.8014 13.776 13.8143L13.8111 13.8388C13.8171 13.8435 13.8232 13.8446 13.8317 13.847C13.8317 13.847 13.8414 13.8505 13.8426 13.8505C13.8462 13.8528 13.8474 13.8575 13.8511 13.861C13.8692 13.8575 13.9237 13.8493 13.9419 13.8528C13.9782 13.8598 13.9722 13.8703 13.9928 13.8703C14 13.8703 14.0061 13.868 14.0158 13.8692C14.0376 13.8703 14.0352 13.8902 14.0776 13.8843C14.0776 13.8843 14.0848 13.8843 14.0897 13.8832C14.0921 13.8832 14.0945 13.8832 14.0957 13.882L14.1018 13.917L14.6444 12.2633L14.6335 12.2621Z" fill="#EC008C"/>
<path fill-rule="evenodd" clip-rule="evenodd" d="M10.1437 6.3839C10.2915 6.32784 10.3036 6.59646 10.1413 6.57778C9.97779 6.58946 10.128 6.45281 10.1437 6.3839Z" fill="#EC008C"/>
<path fill-rule="evenodd" clip-rule="evenodd" d="M10.3508 6.49602C10.4561 6.47033 10.4913 6.5077 10.4561 6.60697C10.3496 6.6315 10.3144 6.59529 10.3508 6.49602Z" fill="#EC008C"/>
<path fill-rule="evenodd" clip-rule="evenodd" d="M6.32729 6.9153C6.27642 6.73428 6.46052 6.70041 6.58164 6.63617C6.57558 6.67238 6.56226 6.74362 6.5562 6.77982C6.4799 6.82537 6.40359 6.87092 6.32729 6.9153Z" fill="#EC008C"/>
<path fill-rule="evenodd" clip-rule="evenodd" d="M6.61192 6.88962C6.7403 6.81254 6.86748 6.73429 6.9995 6.66071C6.95105 6.73896 6.9026 6.81721 6.85537 6.89546C6.80208 6.89663 6.74878 6.89896 6.6967 6.9013C6.57558 7.07532 6.41692 7.21897 6.25704 7.35913C6.24735 7.39066 6.22918 7.4549 6.21949 7.48643C6.18316 7.47709 6.11049 7.45723 6.07415 7.44789C6.07052 7.37548 6.0681 7.3019 6.06567 7.23065C6.16862 7.23883 6.20738 7.1524 6.25341 7.08116C6.30186 7.0905 6.35151 7.10101 6.39996 7.11036C6.45568 7.06948 6.5126 7.02977 6.56953 6.99006C6.57922 6.96553 6.60102 6.91531 6.61192 6.89079V6.88962Z" fill="#EC008C"/>
<path fill-rule="evenodd" clip-rule="evenodd" d="M6.8916 7.47825C7.01757 7.27737 7.26465 7.20612 7.47539 7.11853C7.5517 7.16992 7.62921 7.22014 7.70552 7.27153C7.54806 7.4 7.37487 7.50745 7.1944 7.60088C7.09387 7.55884 6.99334 7.51796 6.8916 7.47825Z" fill="#EC008C"/>
<path fill-rule="evenodd" clip-rule="evenodd" d="M13.9541 7.30656C14.0571 7.29955 14.1467 7.254 14.2242 7.1886C14.1903 7.27269 14.1576 7.35678 14.1273 7.44204C14.0692 7.39649 14.0122 7.35094 13.9553 7.30539L13.9541 7.30656Z" fill="#EC008C"/>
<path fill-rule="evenodd" clip-rule="evenodd" d="M7.79028 7.25284C7.8678 7.20145 7.91504 7.21781 7.93078 7.30073C7.85084 7.35329 7.80482 7.33693 7.79028 7.25284Z" fill="#EC008C"/>
<path fill-rule="evenodd" clip-rule="evenodd" d="M7.80116 7.41168C8.04461 7.28437 8.32561 7.25868 8.59812 7.27736C8.59207 7.42452 8.49639 7.53664 8.40312 7.64176C8.47458 7.59621 8.54604 7.54949 8.6175 7.50277C8.64415 7.51445 8.69986 7.53664 8.72772 7.54832C8.82462 7.50978 8.92151 7.47241 9.02083 7.43737C8.91061 7.56818 8.76042 7.65694 8.64173 7.77841C8.39828 7.96294 8.15846 8.16265 8.0107 8.42894C7.88837 8.43945 7.76725 8.44763 7.64613 8.4558C7.57225 8.40675 7.49958 8.3577 7.4257 8.30981C7.43175 8.26426 7.44386 8.172 7.44992 8.12528C7.55045 8.0552 7.64371 7.97111 7.75877 7.92323C7.89806 7.90805 8.03977 7.91622 8.17905 7.89637C8.25415 7.82863 8.30138 7.73753 8.35952 7.65694C8.28685 7.65577 8.21539 7.65461 8.14272 7.65227C8.06278 7.6838 7.98284 7.71651 7.90412 7.74687C7.71154 7.65344 7.51654 7.71534 7.35666 7.83797C7.32759 7.89753 7.29852 7.9571 7.26824 8.01549C7.2416 7.97345 7.21495 7.9314 7.18951 7.88936C7.0793 8.00849 6.93274 8.0844 6.79103 8.16149C6.74501 8.1428 6.65296 8.10426 6.60693 8.0844C6.77892 7.92673 6.90852 7.70366 7.15318 7.64293C7.36271 7.58103 7.53834 7.45489 7.71396 7.33343C7.73697 7.35211 7.78179 7.39182 7.8048 7.41051L7.80116 7.41168Z" fill="#EC008C"/>
<path fill-rule="evenodd" clip-rule="evenodd" d="M8.74596 7.31358C8.84407 7.24 8.98093 7.39533 8.84649 7.45023C8.73627 7.54249 8.61152 7.37431 8.74596 7.31358Z" fill="#EC008C"/>
<path fill-rule="evenodd" clip-rule="evenodd" d="M5.35335 7.54598C5.39332 7.48408 5.43571 7.42218 5.47689 7.36145C5.38968 7.66745 5.23829 7.95125 5.16562 8.26076C5.0554 8.2993 4.94397 8.33784 4.83496 8.37638C4.84223 8.0517 5.04692 7.77723 5.33276 7.62073C5.2831 7.62891 5.18015 7.64642 5.12928 7.6546C5.16319 7.61956 5.23102 7.54715 5.26372 7.51211C5.28552 7.52029 5.33034 7.53781 5.35335 7.54715V7.54598Z" fill="#EC008C"/>
<path fill-rule="evenodd" clip-rule="evenodd" d="M5.80156 7.38248C5.8379 7.48993 5.85001 7.63009 5.98324 7.66863C5.99778 7.74805 6.01231 7.82747 6.02806 7.90688C6.00141 7.87769 5.95054 7.81929 5.92389 7.79009C5.86334 7.94309 5.80762 8.09726 5.75675 8.25376C5.68287 8.2631 5.60899 8.27361 5.5351 8.28296C5.45517 8.37406 5.37402 8.46399 5.29529 8.55508C5.33162 8.5399 5.40429 8.50837 5.44063 8.49318C5.49271 8.6018 5.55206 8.70808 5.61141 8.8132C5.6647 8.7875 5.7192 8.76064 5.7725 8.73495C5.79793 8.81787 5.82458 8.90079 5.8488 8.98488C5.72647 9.03277 5.60535 9.08182 5.48423 9.12854C5.52299 9.04912 5.56175 8.9697 5.60051 8.88911C5.50361 8.90897 5.37886 8.9078 5.33162 9.00824C5.20082 9.24183 5.13783 9.50461 5.09302 9.76506C5.03973 9.81411 4.98886 9.86433 4.93799 9.91572C5.09544 9.52914 5.12209 9.10167 5.34858 8.73845C5.24442 8.49318 5.13905 8.18252 5.32436 7.94893C5.53631 7.80761 5.71678 7.62074 5.80156 7.38132V7.38248Z" fill="#EC008C"/>
<path fill-rule="evenodd" clip-rule="evenodd" d="M10.69 7.70715C10.8632 7.66277 11.0437 7.66511 11.2217 7.65576C11.0328 7.7854 10.7784 7.73752 10.5798 7.85197C10.363 7.93957 10.151 8.09841 10.1595 8.34951C10.1329 8.32498 10.1074 8.29929 10.082 8.27593C10.0699 8.20702 10.0578 8.13928 10.0469 8.07154C10.2734 7.96877 10.4623 7.80409 10.6912 7.70715H10.69Z" fill="#EC008C"/>
<path fill-rule="evenodd" clip-rule="evenodd" d="M6.17466 7.70832C6.3091 7.66277 6.31394 7.85548 6.18798 7.85665C6.04869 7.9022 6.04869 7.71182 6.17466 7.70832Z" fill="#EC008C"/>
<path fill-rule="evenodd" clip-rule="evenodd" d="M6.62279 7.69665C6.66761 7.65344 6.83354 7.68147 6.75239 7.75972C6.68214 7.86483 6.45202 7.78541 6.62279 7.69665Z" fill="#EC008C"/>
<path fill-rule="evenodd" clip-rule="evenodd" d="M5.96263 7.9968C6.05105 7.9314 6.1649 7.91038 6.26664 7.87067C6.2945 7.89403 6.35264 7.93841 6.38049 7.9606C6.39503 8.03534 6.41077 8.11009 6.42652 8.18484C6.39866 8.22221 6.34295 8.29579 6.31509 8.33317L6.35385 8.35886C6.42652 8.38105 6.49798 8.40207 6.57186 8.4231C6.55975 8.50719 6.54885 8.59128 6.53795 8.67537C6.57186 8.66019 6.63969 8.62982 6.67239 8.61347C6.63242 8.75245 6.6409 8.9218 6.51736 9.02341C6.39866 9.13553 6.27875 9.24765 6.15279 9.35277C6.12372 9.32123 6.0668 9.257 6.03773 9.2243C6.03288 9.26751 6.0244 9.35393 6.01956 9.39832C5.94568 9.28152 5.75552 9.18342 5.81366 9.02692C5.95779 8.98487 5.96869 9.16473 6.01956 9.24649C6.02562 9.05611 6.03531 8.86457 6.08375 8.68004C6.1213 8.57026 6.22788 8.49551 6.26422 8.38455C6.20245 8.43127 6.14673 8.48383 6.08981 8.53405C6.0135 8.485 5.92751 8.41142 5.86574 8.5212C5.90934 8.52704 5.99655 8.54106 6.04015 8.5469C6.00866 8.7069 6.02562 8.8891 5.92145 9.02692C5.85605 8.8926 5.89117 8.64267 5.66347 8.67537C5.61139 8.40324 5.80397 8.19652 5.96263 7.9968Z" fill="#EC008C"/>
<path fill-rule="evenodd" clip-rule="evenodd" d="M4.59898 8.2876C4.62321 8.21519 4.65954 8.14745 4.69709 8.07971C4.72131 8.10541 4.76976 8.15796 4.79399 8.18366C4.73827 8.36352 4.66681 8.53988 4.55054 8.69287C4.56144 8.55739 4.57718 8.42191 4.6002 8.2876H4.59898Z" fill="#EC008C"/>
<path fill-rule="evenodd" clip-rule="evenodd" d="M5.52787 8.37638C5.62356 8.29579 5.68412 8.46981 5.60054 8.51653C5.50365 8.59478 5.4443 8.42427 5.52787 8.37638Z" fill="#EC008C"/>
<path fill-rule="evenodd" clip-rule="evenodd" d="M6.88794 8.49551C6.93881 8.47916 6.98847 8.46397 7.03934 8.44879C7.02481 8.5212 7.01027 8.59478 6.99574 8.66836C7.04418 8.65201 7.14108 8.62048 7.18953 8.60413C7.1762 8.73961 7.15683 8.87859 7.07204 8.99188C6.95698 8.97786 6.99816 8.82837 6.95335 8.75713C6.9485 8.80618 6.93881 8.90545 6.93276 8.9545C6.83586 8.97202 6.73654 8.98954 6.63965 9.00706C6.67477 8.8529 6.72443 8.7034 6.7862 8.55741C6.81648 8.5831 6.87704 8.63683 6.90732 8.66369C6.90248 8.60763 6.89521 8.55157 6.88673 8.49668L6.88794 8.49551Z" fill="#EC008C"/>
<path fill-rule="evenodd" clip-rule="evenodd" d="M7.24526 8.38922C7.34337 8.42309 7.40393 8.50134 7.45601 8.58426C7.37123 8.64149 7.28644 8.70106 7.20166 8.75945C7.21498 8.63565 7.22831 8.51302 7.24526 8.38922Z" fill="#EC008C"/>
<path fill-rule="evenodd" clip-rule="evenodd" d="M4.50678 8.86342C4.56128 8.77582 4.62426 8.6929 4.69693 8.61581C4.68967 8.88794 4.72721 9.17175 4.62184 9.43103C4.50678 9.49293 4.43168 9.59454 4.39898 9.71717C4.38081 9.79192 4.36143 9.86667 4.34206 9.94141C4.39171 9.86667 4.44016 9.79192 4.48982 9.71717C4.48255 9.77907 4.46802 9.9017 4.46075 9.9636C4.42563 9.96594 4.35538 9.96944 4.32025 9.97295C4.21246 10.1435 4.14463 10.3338 4.08044 10.523C4.16886 10.3981 4.23305 10.2614 4.29361 10.1224C4.32631 10.1026 4.39293 10.0629 4.42563 10.043C4.45833 10.4062 4.3796 10.7695 4.42563 11.1339C4.4874 11.0813 4.54796 11.0276 4.61094 10.9739C4.64364 11.1444 4.66544 11.3149 4.68603 11.4877C4.61821 11.6115 4.55886 11.7389 4.52858 11.8755C4.58914 11.7786 4.64606 11.6793 4.70783 11.5835C4.73206 11.9491 5.02153 12.2037 5.13417 12.5389C5.18262 12.6639 5.07361 12.7713 5.01184 12.8694C4.99852 12.7269 5.01548 12.5786 4.95734 12.4431C4.89315 12.8484 4.99973 13.2642 4.88951 13.6636C4.92585 13.7208 4.96097 13.7757 4.99731 13.8329C4.97308 13.9906 4.95249 14.1518 5.00457 14.306C4.9743 14.3223 4.91374 14.355 4.88346 14.3702C4.8774 14.4216 4.86771 14.5232 4.86165 14.5746C4.90768 14.4963 4.95613 14.4181 5.00579 14.341C5.04818 14.459 5.07725 14.5816 5.09784 14.7066C5.04818 14.6657 4.94886 14.5851 4.90041 14.5442C4.91495 14.5793 4.9428 14.6517 4.95613 14.6879C5.15961 14.8666 5.25166 15.1188 5.35461 15.3571C5.34976 15.3793 5.33886 15.4213 5.33402 15.4435C5.38731 15.5311 5.43939 15.6175 5.49389 15.704C5.67678 15.8616 6.01713 15.9562 5.99169 16.2424C5.83303 16.1419 5.71675 15.9959 5.57626 15.8757C5.65983 15.9948 5.74945 16.1092 5.8306 16.2295C5.72886 16.1852 5.62955 16.1384 5.52902 16.0941C5.63681 16.2482 5.82455 16.2622 5.99896 16.2704C6.01592 16.2249 6.04983 16.1338 6.06679 16.0882C6.1334 16.1408 6.19638 16.1992 6.2521 16.2622C6.24362 16.3744 6.14915 16.4386 6.05467 16.4841C5.93477 16.5717 5.80638 16.4479 5.69737 16.4012C5.53507 16.33 5.43697 16.1875 5.36066 16.038L5.51812 16.0695C5.40184 15.9329 5.28194 15.7986 5.16324 15.6643C4.95371 15.419 4.87377 15.1037 4.69451 14.842C4.72358 14.7323 4.79383 14.6645 4.90284 14.6388C4.83138 14.6108 4.75749 14.5839 4.68482 14.5606C4.65939 14.4333 4.62911 14.3036 4.52616 14.2114C4.46075 14.3632 4.61699 14.4741 4.67513 14.6003C4.66302 14.6925 4.65091 14.786 4.64001 14.8794C4.53948 14.6727 4.44622 14.4625 4.35538 14.2511C4.38566 14.2464 4.44622 14.2382 4.4765 14.2335C4.32025 14.0186 4.29361 13.7465 4.14221 13.5293C4.13494 13.3529 4.11799 13.1754 4.04774 13.0107C4.08165 13.0131 4.15069 13.0189 4.18581 13.0212C4.19308 12.8752 4.22942 12.7339 4.3142 12.6113C4.46439 12.9383 4.59277 13.2887 4.84712 13.5585C4.67392 13.2198 4.44501 12.9009 4.34084 12.533C4.36386 12.3088 4.48013 12.1068 4.53221 11.8883C4.37718 12.1126 4.33721 12.3871 4.24637 12.637C4.12525 12.303 4.16764 11.9456 4.07438 11.6069C4.04895 11.2413 4.07681 10.8746 4.05864 10.509C4.04774 10.5721 4.02594 10.6982 4.01625 10.7625L3.93994 10.7683C3.97991 10.0675 4.20519 9.39365 4.42926 8.73144C4.44864 8.76414 4.48619 8.83071 4.50557 8.86458L4.50678 8.86342Z" fill="#EC008C"/>
<path fill-rule="evenodd" clip-rule="evenodd" d="M4.89067 9.17758C4.86524 9.09232 4.89794 9.05728 4.98878 9.07597C5.013 9.16123 4.9803 9.1951 4.89067 9.17758Z" fill="#EC008C"/>
<path fill-rule="evenodd" clip-rule="evenodd" d="M6.41455 9.15656C6.47753 9.11334 6.54051 9.07013 6.60471 9.02692C6.75489 9.03509 6.90629 9.04327 7.05769 9.05027C7.05648 9.17174 7.03226 9.29204 6.96322 9.39598C6.94384 9.46839 6.92688 9.54197 6.90993 9.61555L6.82635 9.55132C6.77064 9.60738 6.71371 9.66227 6.658 9.71833C6.55263 9.54197 6.48964 9.34576 6.41455 9.15656Z" fill="#EC008C"/>
<path fill-rule="evenodd" clip-rule="evenodd" d="M5.58603 9.31655C5.62358 9.23246 5.66718 9.1507 5.72895 9.08063C5.77619 9.17056 5.8319 9.25698 5.89852 9.33757C5.90215 9.37728 5.90821 9.45904 5.91063 9.49991C5.87187 9.50342 5.79072 9.51042 5.75075 9.51393C5.92274 9.5478 5.98451 9.7043 6.07051 9.83044C6.05961 9.90285 6.04749 9.97643 6.0378 10.0488C5.97724 10.1166 5.91911 10.1855 5.85976 10.2544C5.85128 10.2999 5.83432 10.3922 5.82585 10.4389C5.73137 10.3175 5.60541 10.2077 5.55817 10.0594C5.59088 9.88533 5.58845 9.67861 5.73864 9.55364C5.69383 9.4894 5.64901 9.424 5.60541 9.35976C5.52063 9.4859 5.42979 9.60853 5.31836 9.71481C5.33895 9.60386 5.36317 9.49407 5.38861 9.38429C5.42858 9.39013 5.5073 9.40064 5.54606 9.40648C5.51336 9.3294 5.48187 9.25231 5.45038 9.1764C5.48066 9.17523 5.54243 9.17173 5.57271 9.17056C5.57634 9.20793 5.5824 9.28151 5.58603 9.31888V9.31655Z" fill="#EC008C"/>
<path fill-rule="evenodd" clip-rule="evenodd" d="M4.62315 9.48709C4.71883 9.52914 4.6074 9.77674 4.49961 9.72068C4.44026 9.62958 4.53594 9.51979 4.62315 9.48709Z" fill="#EC008C"/>
<path fill-rule="evenodd" clip-rule="evenodd" d="M5.25902 9.7779C5.44918 9.76038 5.52185 9.55482 5.65145 9.44504C5.60663 9.65643 5.53396 9.86082 5.44797 10.0582C5.41406 10.0372 5.34623 9.99396 5.31232 9.97294C5.34623 9.94725 5.41406 9.89469 5.44676 9.869C5.38378 9.83746 5.32079 9.8071 5.25781 9.7779H5.25902Z" fill="#EC008C"/>
<path fill-rule="evenodd" clip-rule="evenodd" d="M16.9736 9.90403C17.1202 10.05 17.2764 10.1867 17.4278 10.3292C17.4763 10.4343 17.4702 10.5557 17.4908 10.6679C17.3806 10.4763 17.2498 10.2965 17.0851 10.1446C17.01 10.0851 16.9954 9.98812 16.9736 9.90286V9.90403Z" fill="#EC008C"/>
<path fill-rule="evenodd" clip-rule="evenodd" d="M5.36925 10.1072C5.54851 10.0173 5.61028 10.2579 5.69991 10.3584C5.80649 10.4576 5.60422 10.4927 5.54609 10.5452C5.48189 10.5055 5.41649 10.4658 5.35229 10.4284C5.35472 10.321 5.35593 10.2135 5.36925 10.1072Z" fill="#EC008C"/>
<path fill-rule="evenodd" clip-rule="evenodd" d="M5.07126 10.2334C5.12092 10.2205 5.21902 10.196 5.26747 10.1843C5.28806 10.2637 5.30986 10.3443 5.33166 10.4238C5.29775 10.4074 5.22992 10.3747 5.19601 10.3583C5.14272 10.4167 5.08943 10.474 5.03613 10.5312C5.04219 10.4308 5.05309 10.3315 5.07126 10.2334Z" fill="#EC008C"/>
<path fill-rule="evenodd" clip-rule="evenodd" d="M5.41404 10.6048C5.50246 10.5744 5.53395 10.6048 5.50851 10.6947C5.4201 10.7239 5.38861 10.6947 5.41404 10.6048Z" fill="#EC008C"/>
<path fill-rule="evenodd" clip-rule="evenodd" d="M3.911 10.7239C4.09268 11.0276 4.02243 11.3768 3.96672 11.7026C3.99699 11.7201 4.05755 11.754 4.08783 11.7715C4.0951 12.0063 4.11811 12.2399 4.15687 12.4723C4.1811 12.637 4.2138 12.8344 4.0733 12.9617C4.01153 12.9418 3.97156 12.8986 3.95218 12.8332C3.81289 12.1418 3.7923 11.4212 3.90979 10.7239H3.911Z" fill="#EC008C"/>
<path fill-rule="evenodd" clip-rule="evenodd" d="M17.7329 11.0649C17.8686 11.0731 18.0042 11.0684 18.1399 11.0603C18.1132 11.1152 18.0866 11.1712 18.0599 11.2273C18.0624 11.2623 18.0672 11.3324 18.0708 11.3674C17.9279 11.4153 17.8964 11.545 17.8988 11.6758C17.8722 11.4655 17.8964 11.2331 17.7329 11.0661V11.0649Z" fill="#EC008C"/>
<path fill-rule="evenodd" clip-rule="evenodd" d="M6.76079 12.2165C6.5452 12.1126 6.29812 11.8533 6.50039 11.6267C6.5779 11.8276 6.75837 11.9911 6.76079 12.2165Z" fill="#EC008C"/>
<path fill-rule="evenodd" clip-rule="evenodd" d="M18.0153 11.7318C18.0492 11.7342 18.1158 11.7377 18.1485 11.74C18.2636 11.9537 18.2551 12.2095 18.3423 12.4361C18.2927 12.5517 18.2466 12.6697 18.2018 12.7876C18.1752 12.8017 18.1195 12.8297 18.0928 12.8437C18.0952 12.943 18.0965 13.0423 18.0977 13.1404C18.0638 13.1053 17.9983 13.0329 17.9656 12.9979C17.9245 13.0516 17.8421 13.1602 17.8009 13.2139L17.9753 13.1626C17.9281 13.256 17.8821 13.3483 17.836 13.4429H17.8179C17.8058 13.3985 17.7815 13.3085 17.7694 13.2653C17.566 13.4148 17.7549 13.5982 17.7694 13.7804C17.7428 13.7839 17.6883 13.7897 17.6604 13.7921C17.658 13.75 17.6532 13.6636 17.6507 13.6204C17.6229 13.6227 17.5672 13.6274 17.5393 13.6286C17.5926 13.3658 17.7174 13.1135 17.9208 12.929C18.0165 12.8671 18.002 12.7538 18.0153 12.658C18.0771 12.4992 18.1546 12.3345 18.1279 12.1605C18.1122 12.0121 18.008 11.8825 18.0129 11.7318H18.0153Z" fill="#EC008C"/>
<path fill-rule="evenodd" clip-rule="evenodd" d="M6.48358 12.0682C6.5296 12.1278 6.57563 12.1873 6.62044 12.2481C6.73429 12.2948 6.84814 12.3403 6.95957 12.3917C6.96321 12.4443 6.97168 12.5494 6.97532 12.6019C6.9196 12.6522 6.86389 12.7012 6.80939 12.7514C6.80212 12.7094 6.78637 12.6241 6.77789 12.5821C6.60712 12.47 6.44966 12.2784 6.48237 12.0682H6.48358Z" fill="#EC008C"/>
<path fill-rule="evenodd" clip-rule="evenodd" d="M5.51078 12.1359C5.76028 12.0775 5.84264 12.3543 6.0328 12.4513C5.9674 12.5249 5.91047 12.6043 5.8378 12.672C5.68519 12.6825 5.53379 12.6381 5.39935 12.5716C5.28065 12.5073 5.43205 12.4151 5.48292 12.3649C5.4914 12.2878 5.50109 12.2119 5.51078 12.1359Z" fill="#EC008C"/>
<path fill-rule="evenodd" clip-rule="evenodd" d="M5.86566 12.6954C5.93954 12.6323 5.99526 12.5482 6.08246 12.5015C6.28352 12.5809 6.28473 12.8157 6.33075 12.9885C6.27625 13.0481 6.22175 13.1076 6.16845 13.1672C6.22538 13.416 6.36467 13.6939 6.1951 13.931C5.85839 13.7886 5.85234 13.4125 5.72758 13.1287C5.67066 12.9979 5.62463 12.8624 5.60889 12.7199C5.69367 12.7164 5.77966 12.7082 5.86445 12.6942L5.86566 12.6954Z" fill="#EC008C"/>
<path fill-rule="evenodd" clip-rule="evenodd" d="M5.16446 12.8554C5.14023 12.7374 5.21654 12.6393 5.30616 12.5681C5.42244 12.6241 5.60533 12.6487 5.59927 12.8098C5.50843 12.7806 5.42002 12.7491 5.33039 12.7187C5.34371 12.769 5.36794 12.8671 5.38126 12.9173C5.32675 12.9021 5.21896 12.8706 5.16446 12.8554Z" fill="#EC008C"/>
<path fill-rule="evenodd" clip-rule="evenodd" d="M5.39815 12.7701C5.69974 12.9149 5.7179 13.2712 5.82207 13.5409C5.86082 13.7313 6.00859 13.868 6.15635 13.9871C6.33198 14.3702 6.30775 14.8128 6.53303 15.176C6.63962 15.329 6.97512 15.433 6.79828 15.6537C6.42282 15.6969 6.21086 15.2788 5.84508 15.3033C5.71064 15.1422 5.56893 14.9845 5.39331 14.8654C5.31942 14.5477 5.17166 14.2405 5.18619 13.91C5.13775 13.562 5.10383 13.2104 5.08203 12.86C5.19104 12.8998 5.30126 12.9383 5.41269 12.9768C5.40905 12.9254 5.40178 12.8227 5.39815 12.7713V12.7701Z" fill="#EC008C"/>
<path fill-rule="evenodd" clip-rule="evenodd" d="M16.9724 13.2011C17.0221 13.1544 17.0742 13.1088 17.1274 13.0668C17.297 13.1053 17.32 13.2852 17.3769 13.416C17.2873 13.5024 17.1989 13.5888 17.1093 13.6753C17.0766 13.5141 17.0342 13.3541 16.9724 13.2011Z" fill="#EC008C"/>
<path fill-rule="evenodd" clip-rule="evenodd" d="M5.43209 14.9518C5.58591 15.0733 5.71793 15.2181 5.84632 15.3653C6.15396 15.315 6.45312 15.5942 6.47008 15.8873C6.13821 15.8897 5.85843 15.6771 5.59318 15.5089C5.3897 15.3968 5.4333 15.1398 5.43209 14.9518Z" fill="#EC008C"/>
<path fill-rule="evenodd" clip-rule="evenodd" d="M6.49438 15.0382C6.57916 15.078 6.66273 15.1188 6.7463 15.1609C6.80928 15.1445 6.93525 15.113 6.99823 15.0966C6.94494 15.1889 6.89286 15.2812 6.83956 15.3734C6.70028 15.2858 6.56947 15.1831 6.49316 15.0371L6.49438 15.0382Z" fill="#EC008C"/>
<path fill-rule="evenodd" clip-rule="evenodd" d="M6.84564 15.3874C6.90136 15.3512 6.95949 15.3162 7.01642 15.28C7.1448 15.4634 7.32769 15.6094 7.40521 15.8231C7.16418 15.8838 6.93769 16.0648 6.6785 15.9749C6.50772 15.9399 6.47502 15.7624 6.43384 15.6269C6.53679 15.6537 6.63974 15.6841 6.74511 15.6993C6.83716 15.6876 6.86502 15.586 6.92195 15.5299C6.90257 15.4937 6.86502 15.4225 6.84564 15.3863V15.3874Z" fill="#EC008C"/>
<path fill-rule="evenodd" clip-rule="evenodd" d="M16.8028 15.7752C16.6308 15.6479 16.7967 15.4552 16.89 15.3326C16.8888 15.4844 16.8658 15.6362 16.8028 15.7752Z" fill="#EC008C"/>
<path fill-rule="evenodd" clip-rule="evenodd" d="M5.1815 15.7962C5.26749 15.7577 5.3765 15.9574 5.26507 15.9667C5.18998 15.9259 5.16212 15.8698 5.1815 15.7962Z" fill="#EC008C"/>
<path fill-rule="evenodd" clip-rule="evenodd" d="M12.9197 16.4036C12.9912 16.226 13.2298 16.2003 13.3255 16.0333C13.4963 16.1454 13.4866 16.3498 13.3425 16.476C13.3352 16.5133 13.3194 16.5858 13.311 16.622C13.472 16.6091 13.5629 16.7107 13.6186 16.8427C13.6937 16.8754 13.77 16.9081 13.8475 16.9408C13.6477 17.0541 13.4115 17.1277 13.271 17.3169C13.3534 17.3916 13.4357 17.4664 13.5181 17.5423C13.489 17.5948 13.4599 17.6474 13.4297 17.6988C13.3848 17.6089 13.334 17.5236 13.2746 17.4418C13.1523 17.5318 13.0251 17.6346 12.8604 17.6159C12.8931 17.3718 12.7308 17.1639 12.4934 17.095C12.577 16.8275 12.8277 16.6628 12.921 16.4024L12.9197 16.4036Z" fill="#EC008C"/>
<path fill-rule="evenodd" clip-rule="evenodd" d="M16.8694 16.2202C16.9336 16.1898 17.0003 16.1629 17.0681 16.1396C17.0584 16.2926 16.9894 16.4339 16.9785 16.5869C16.9615 16.6687 16.9457 16.7516 16.9264 16.8333C16.9276 16.7749 16.93 16.6581 16.9312 16.5998H16.8149C16.8283 16.4713 16.8367 16.3428 16.8707 16.219L16.8694 16.2202Z" fill="#EC008C"/>
<path fill-rule="evenodd" clip-rule="evenodd" d="M14.091 16.7481C14.2848 16.6687 14.4798 16.5893 14.6627 16.4876C14.7293 16.5472 14.7971 16.6068 14.8649 16.6663C14.7499 16.7936 14.6457 16.9361 14.6191 17.1078C14.5791 17.0681 14.5016 16.9887 14.4628 16.9478C14.4168 16.9793 14.3708 17.0097 14.3259 17.0412C14.5573 17.0728 14.7571 17.2047 14.934 17.3449C14.9279 17.4745 14.7559 17.4652 14.6663 17.5189C14.6651 17.4734 14.6639 17.3811 14.6627 17.3356C14.6396 17.3356 14.5936 17.3321 14.5706 17.3309C14.5415 17.2923 14.4834 17.2153 14.4531 17.1767C14.504 17.2912 14.5755 17.3963 14.6409 17.5037C14.4555 17.5458 14.269 17.5972 14.1128 17.7058C14.1249 17.7397 14.1467 17.8051 14.1576 17.8378C14.0353 17.8167 13.9141 17.7934 13.7918 17.7712C13.7361 17.8401 13.6804 17.9078 13.6271 17.9756C13.6344 17.8144 13.4805 17.6848 13.5581 17.5236C13.4842 17.4442 13.3703 17.3834 13.3655 17.2643C13.4612 17.1697 13.5956 17.123 13.7131 17.0588C13.7785 17.0891 13.8451 17.1183 13.9117 17.1487C13.9117 17.2223 13.9093 17.297 13.9093 17.3718C14.0595 17.269 14.2375 17.2246 14.4132 17.1802L14.4059 17.1358C14.2593 17.1709 14.1164 17.2164 13.9783 17.2713C13.9662 17.2106 13.9541 17.1487 13.9432 17.088C13.9057 17.0833 13.8318 17.0739 13.7942 17.0693C13.8621 16.9431 14.0062 16.8777 14.0595 16.7422C14.1007 16.7808 14.1431 16.8193 14.1842 16.8579C14.315 16.8836 14.4434 16.9093 14.5755 16.935C14.4337 16.831 14.246 16.8287 14.0922 16.7458L14.091 16.7481Z" fill="#EC008C"/>
<path fill-rule="evenodd" clip-rule="evenodd" d="M14.9485 17.1861C15.0527 17.2585 15.2404 17.297 15.221 17.457C15.2525 17.7362 14.9013 17.8004 14.7014 17.8927C14.745 17.8214 14.7886 17.7502 14.8322 17.6789C14.6978 17.7712 14.5755 17.8903 14.4144 17.937C14.2896 17.9289 14.2218 17.8191 14.1431 17.7432C14.3732 17.5656 14.682 17.5762 14.9485 17.4851C14.9255 17.5703 14.9025 17.6556 14.8819 17.7397C15.0539 17.6018 14.9509 17.3659 14.9473 17.1861H14.9485Z" fill="#EC008C"/>
<path fill-rule="evenodd" clip-rule="evenodd" d="M16.3715 17.5983C16.5871 17.6018 16.3642 17.8471 16.2455 17.756C16.208 17.6824 16.3073 17.6147 16.3715 17.5983Z" fill="#EC008C"/>
<path fill-rule="evenodd" clip-rule="evenodd" d="M16.2045 17.7724C16.2578 17.7981 16.3644 17.8483 16.4165 17.8728C16.2905 18.0457 16.1512 18.2138 15.9744 18.34C15.7564 18.4416 15.5214 18.5012 15.2998 18.5934C15.2356 18.5467 15.1714 18.4988 15.1072 18.4533C15.2973 18.4322 15.4911 18.3914 15.6316 18.2571C15.7418 18.2407 15.8496 18.208 15.9441 18.1473C15.8412 18.166 15.7394 18.1858 15.6365 18.2057C15.7649 18.0912 15.9029 17.9861 16.0531 17.9008C16.0228 17.9826 15.9926 18.0632 15.9635 18.1449C16.0628 18.034 16.1633 17.9172 16.2033 17.7724H16.2045Z" fill="#EC008C"/>
<path fill-rule="evenodd" clip-rule="evenodd" d="M16.6356 17.9008C16.6731 17.8529 16.8499 17.8786 16.7531 17.9487C16.6925 17.9896 16.6295 18.0258 16.5653 18.0573C16.4648 18.0445 16.5847 17.9113 16.6356 17.9008Z" fill="#EC008C"/>
<path fill-rule="evenodd" clip-rule="evenodd" d="M10.4114 18.1776C10.5361 18.2372 10.6403 18.3259 10.7335 18.4264C10.6306 18.4556 10.4634 18.5245 10.4089 18.389C10.4089 18.3365 10.4114 18.2313 10.4114 18.1776Z" fill="#EC008C"/>
<path fill-rule="evenodd" clip-rule="evenodd" d="M13.4575 18.2687C13.5653 18.0573 13.7664 18.2664 13.8112 18.403C13.6913 18.361 13.5738 18.3166 13.4575 18.2687Z" fill="#EC008C"/>
<path fill-rule="evenodd" clip-rule="evenodd" d="M13.7893 18.4649C13.9455 18.4603 14.0994 18.4322 14.2556 18.4124C14.2629 18.4941 14.2714 18.5771 14.2798 18.6588C14.0945 18.6635 13.8801 18.6495 13.7905 18.4649H13.7893Z" fill="#EC008C"/>
<path fill-rule="evenodd" clip-rule="evenodd" d="M12.979 18.6191C13.1159 18.6144 13.2552 18.5981 13.3896 18.632C13.7614 18.7312 14.149 18.7546 14.5184 18.862C14.6735 18.9228 14.8358 18.9053 14.9908 18.855C14.8648 18.8901 14.7413 18.9368 14.6274 18.9987C14.5959 18.9742 14.5657 18.9508 14.5342 18.9286C13.9843 19.1377 13.495 18.7371 12.979 18.6203V18.6191Z" fill="#EC008C"/>
<path fill-rule="evenodd" clip-rule="evenodd" d="M27.7205 1.0231H31.1445V19.5768H37.5383H31.1445L27.758 22.499H27.7205V1.0231Z" fill="#EC008C"/>
<path fill-rule="evenodd" clip-rule="evenodd" d="M31.1445 19.5768H37.5384V22.499H27.7581L31.1445 19.5768Z" fill="white"/>
<path fill-rule="evenodd" clip-rule="evenodd" d="M66.2581 1.0231H69.6821V19.5768H76.0759H69.6821L66.2956 22.499H66.2581V1.0231Z" fill="#EC008C"/>
<path fill-rule="evenodd" clip-rule="evenodd" d="M69.6821 19.5768H76.076V22.499H66.2957L69.6821 19.5768Z" fill="white"/>
</g>
<defs>
<clipPath id="clip0_107_9962">
<rect width="88" height="23" fill="white"/>
</clipPath>
</defs>
</svg>
