<svg width="80" height="80" viewBox="0 0 80 80" fill="none" xmlns="http://www.w3.org/2000/svg">
<rect width="80" height="80" fill="white" fill-opacity="0.01" style="mix-blend-mode:multiply"/>
<path d="M78.4001 40C78.4001 38.3625 77.2351 36.9925 75.6926 36.6725C75.0101 29.2925 72.1301 22.4575 67.3201 16.805C67.6501 16.28 67.8501 15.665 67.8501 15C67.8501 13.125 66.3251 11.6 64.4501 11.6C62.5751 11.6 61.0501 13.125 61.0501 15C61.0501 16.875 62.5751 18.4 64.4501 18.4C65.0051 18.4 65.5251 18.2525 65.9876 18.015C66.9601 19.1625 67.8601 20.355 68.6626 21.6H57.9326C54.8501 12.75 49.6001 6.34498 43.3626 4.62248C43.1726 2.92748 41.7451 1.59998 40.0001 1.59998C38.3576 1.59998 36.9851 2.76998 36.6701 4.32248C18.3476 6.01998 4.1001 21.5225 4.1001 40C4.1001 58.4775 18.3476 73.98 36.6676 75.68C36.9826 77.23 38.3551 78.4025 39.9976 78.4025C41.6376 78.4025 43.0101 77.235 43.3276 75.6875C60.3926 74.1 74.0876 60.4025 75.6776 43.3325C77.2301 43.015 78.4001 41.6425 78.4001 40ZM62.8526 15C62.8526 14.1175 63.5701 13.4 64.4526 13.4C65.3351 13.4 66.0501 14.1175 66.0501 15C66.0501 15.8825 65.3326 16.6 64.4501 16.6C63.5676 16.6 62.8526 15.8825 62.8526 15ZM69.7326 23.4C72.0351 27.5025 73.4526 32.0275 73.8976 36.8C72.8451 37.1625 72.0351 38.02 71.7351 39.1H60.8751C60.7926 33.47 59.9526 28.135 58.5076 23.4H69.7326ZM60.7651 56.6C60.5151 55.6925 59.9001 54.945 59.0876 54.51C60.2051 50.1625 60.8051 45.595 60.8726 40.9H71.7351C72.0326 41.975 72.8401 42.8325 73.8851 43.1975C73.4326 48.02 71.9751 52.56 69.7026 56.6H60.7651ZM40.9001 71.735V58.4H54.2351C54.4251 59.0875 54.8226 59.6825 55.3626 60.1225C52.3851 67.325 47.9726 72.1475 43.0876 73.5925C42.6726 72.6875 41.8726 72.005 40.9001 71.735ZM36.9176 73.5875C31.4701 71.9875 26.8251 66.3175 23.9676 58.4025H39.1001V71.7375C38.1301 72.005 37.3326 72.685 36.9176 73.5875ZM5.9426 40.9H16.7351C17.0651 42.09 18.0151 43.02 19.2226 43.3025C19.4751 48.0575 20.2676 52.55 21.5001 56.5975H10.2926C7.6526 51.9125 6.0951 46.57 5.9426 40.9ZM39.1001 8.26248V21.6H23.9676C26.8251 13.6825 31.4701 8.01248 36.9176 6.41248C37.3326 7.31498 38.1301 7.99498 39.1001 8.26248ZM39.1001 23.4V39.1H23.2626C22.9576 37.9925 22.1101 37.12 21.0226 36.775C21.2776 31.9625 22.0851 27.43 23.3476 23.4H39.1001ZM57.3301 54.1175C55.8451 54.1925 54.6201 55.2175 54.2376 56.6H40.9001V40.9H59.0701C59.0026 45.46 58.4201 49.8975 57.3301 54.1175ZM40.9001 39.1V23.4H56.6551C58.1276 28.0875 58.9926 33.4325 59.0776 39.1H40.9001ZM20.0001 41.6C19.1176 41.6 18.4001 40.8825 18.4001 40C18.4001 39.1175 19.1176 38.4 20.0001 38.4C20.8826 38.4 21.6001 39.1175 21.6001 40C21.6001 40.8825 20.8826 41.6 20.0001 41.6ZM19.2251 36.6975C18.0176 36.9825 17.0676 37.91 16.7376 39.1H5.9426C6.0926 33.43 7.6526 28.085 10.2926 23.4H21.5026C20.2701 27.4475 19.4776 31.9425 19.2251 36.6975ZM21.0226 43.2275C22.1126 42.88 22.9576 42.0075 23.2626 40.9H39.1001V56.6H23.3476C22.0826 52.57 21.2776 48.0375 21.0226 43.2275ZM55.9001 57.5C55.9001 56.6175 56.6176 55.9 57.5001 55.9C58.3826 55.9 59.1001 56.6175 59.1001 57.5C59.1001 58.3825 58.3826 59.1 57.5001 59.1C56.6176 59.1 55.9001 58.3825 55.9001 57.5ZM56.0526 21.6H40.9001V8.26248C41.8726 7.99498 42.6676 7.31498 43.0826 6.41248C48.5651 8.01998 53.2001 13.705 56.0526 21.6ZM40.0001 3.39998C40.8826 3.39998 41.6001 4.11748 41.6001 4.99998C41.6001 5.88248 40.8826 6.59998 40.0001 6.59998C39.1176 6.59998 38.4001 5.88248 38.4001 4.99998C38.4001 4.11748 39.1176 3.39998 40.0001 3.39998ZM31.8851 6.94248C27.7751 9.91998 24.3576 15.1025 22.0926 21.6H11.3476C16.0001 14.405 23.2976 9.05248 31.8851 6.94248ZM11.3501 58.4H22.0951C24.3601 64.8975 27.7776 70.08 31.8901 73.055C23.2976 70.9475 16.0001 65.5975 11.3501 58.4ZM40.0001 76.6C39.1176 76.6 38.4001 75.8825 38.4001 75C38.4001 74.1175 39.1176 73.4 40.0001 73.4C40.8826 73.4 41.6001 74.1175 41.6001 75C41.6001 75.8825 40.8826 76.6 40.0001 76.6ZM48.0826 73.075C51.6351 70.525 54.7326 66.33 57.0076 60.85C57.1701 60.875 57.3326 60.9 57.5026 60.9C59.0626 60.9 60.3701 59.8375 60.7676 58.4H68.5976C63.9251 65.6125 56.6326 70.975 48.0826 73.075ZM75.0001 41.6C74.1176 41.6 73.4001 40.8825 73.4001 40C73.4001 39.1175 74.1176 38.4 75.0001 38.4C75.8826 38.4 76.6001 39.1175 76.6001 40C76.6001 40.8825 75.8826 41.6 75.0001 41.6Z" fill="#EC008C"/>
</svg>
