<svg width="40" height="40" viewBox="0 0 40 40" fill="none" xmlns="http://www.w3.org/2000/svg">
<rect width="40" height="40" fill="white" fill-opacity="0.01" style="mix-blend-mode:multiply"/>
<path d="M26.7001 38.75H25.8L25.7988 36.785C25.7988 34.345 24.2313 32.155 21.8975 31.335C21.7275 31.275 21.6113 31.1213 21.5975 30.9425C21.585 30.7638 21.6788 30.595 21.8388 30.5113C23.18 29.8125 24.0125 28.4538 24.0125 26.965C24.0125 24.7513 22.2125 22.9513 19.9988 22.9513C17.785 22.9513 15.9838 24.7513 15.9838 26.965C15.9838 28.4538 16.8175 29.8138 18.1588 30.5125C18.3175 30.595 18.4125 30.765 18.4 30.9438C18.3875 31.1238 18.27 31.2775 18.1013 31.3363C15.7688 32.1563 14.2013 34.3463 14.2013 36.785L14.1988 38.75H13.2988V36.785C13.2988 34.345 11.73 32.155 9.3963 31.335C9.22755 31.275 9.11005 31.1213 9.09755 30.9425C9.08505 30.7638 9.1788 30.595 9.33755 30.5113C10.6788 29.8125 11.5113 28.4538 11.5113 26.965C11.5113 24.7513 9.71005 22.9513 7.49755 22.9513C5.2838 22.9513 3.48255 24.7513 3.48255 26.965C3.48255 28.4538 4.3163 29.8138 5.65755 30.5125C5.8163 30.595 5.9113 30.765 5.8988 30.9438C5.8863 31.1238 5.7688 31.2775 5.60005 31.3363C3.26755 32.1563 1.70005 34.3463 1.70005 36.785V38.75H0.800049V36.785C0.800049 34.2575 2.25255 31.9625 4.49255 30.8313C3.29755 29.91 2.5838 28.4938 2.5838 26.9638C2.5838 24.2538 4.7888 22.0488 7.4988 22.0488C10.2075 22.0488 12.4125 24.2538 12.4125 26.9638C12.4125 28.4925 11.6988 29.9063 10.505 30.8288C12.0075 31.5875 13.1575 32.87 13.75 34.3963C14.3438 32.8713 15.4913 31.59 16.9938 30.8313C15.7988 29.91 15.085 28.4938 15.085 26.9638C15.085 24.2538 17.29 22.0488 20 22.0488C22.71 22.0488 24.915 24.2538 24.915 26.9638C24.915 28.4925 24.2013 29.9063 23.0063 30.8288C24.51 31.5875 25.6588 32.8713 26.2526 34.3963C26.8463 32.87 27.9951 31.5888 29.4963 30.83C28.3013 29.9088 27.5875 28.4925 27.5875 26.9625C27.5875 24.2525 29.7926 22.0475 32.5026 22.0475C35.2126 22.0475 37.4175 24.2525 37.4175 26.9625C37.4175 28.4913 36.7038 29.905 35.5101 30.8275C37.7513 31.9588 39.2051 34.255 39.2051 36.7838V38.75H38.3V36.785C38.3 34.345 36.7325 32.155 34.3988 31.335C34.2288 31.275 34.1125 31.1213 34.0988 30.9425C34.0863 30.7638 34.18 30.595 34.34 30.5113C35.68 29.8125 36.5126 28.4538 36.5126 26.965C36.5126 24.7513 34.7126 22.9513 32.4988 22.9513C30.285 22.9513 28.4851 24.7513 28.4851 26.965C28.4851 28.455 29.3176 29.8138 30.6588 30.5125C30.8188 30.595 30.9125 30.765 30.9 30.9438C30.8863 31.1238 30.77 31.2775 30.6 31.3363C28.2675 32.1563 26.7013 34.3463 26.7013 36.785L26.7001 38.75ZM38.75 19.2H20V18.3H38.3V1.7H17.95V9.21H21.2988C22.2363 9.21 22.9988 9.9725 22.9988 10.91C22.9988 11.8475 22.2363 12.61 21.2988 12.61H12.95V18.75H12.05V12.16C12.05 11.9113 12.2513 11.71 12.5 11.71H21.2988C21.74 11.71 22.0988 11.3513 22.0988 10.91C22.0988 10.4688 21.74 10.11 21.2988 10.11H9.52005C9.31255 10.11 9.13255 9.96875 9.08255 9.7675C9.0338 9.565 9.1288 9.35625 9.31255 9.26C10.6488 8.5625 11.48 7.20375 11.48 5.715C11.48 3.50125 9.6938 1.7 7.50005 1.7C5.28255 1.7 3.47755 3.50125 3.47755 5.715C3.47755 7.205 4.3088 8.56375 5.6463 9.26125C5.80505 9.34375 5.90005 9.51375 5.8863 9.6925C5.8738 9.87125 5.7563 10.0263 5.58755 10.085C3.26255 10.905 1.70005 13.095 1.70005 15.535V18.75H0.800049V15.535C0.800049 13.0075 2.2488 10.7125 4.4813 9.58125C3.29005 8.66 2.57755 7.24375 2.57755 5.715C2.57755 3.005 4.7863 0.800003 7.50005 0.800003C10.19 0.800003 12.3788 3.005 12.3788 5.715C12.3788 7.05125 11.835 8.30125 10.9025 9.21H17.05V1.25C17.05 1.00125 17.2513 0.800003 17.5 0.800003H38.75C38.9988 0.800003 39.2001 1.00125 39.2001 1.25V18.75C39.2001 18.9988 38.9988 19.2 38.75 19.2ZM32.5 14.2C31.3788 14.2 30.3238 13.7625 29.5301 12.97C28.7363 12.1763 28.3 11.1213 28.3 10C28.3 8.87875 28.7376 7.82375 29.5301 7.03125C31.1175 5.44375 33.8825 5.44375 35.47 7.03125C36.2638 7.82375 36.7001 8.87875 36.7001 10C36.7001 11.1213 36.2626 12.1763 35.47 12.9688C34.6763 13.7625 33.6213 14.2 32.5 14.2ZM32.1188 13.2788C33.1075 13.3938 34.12 13.0475 34.8326 12.3338C35.4563 11.71 35.8 10.8813 35.8 10C35.8 9.275 35.5676 8.58625 35.14 8.0175L32.9063 10.2325L32.1188 13.2788ZM29.4525 8.73C29.2875 9.1275 29.2001 9.5575 29.2001 10C29.2001 10.8813 29.5425 11.71 30.1663 12.3338C30.48 12.6475 30.8475 12.8913 31.2463 13.055L31.9788 10.2163L29.4525 8.73ZM29.91 7.955L32.43 9.43625L34.5063 7.37875C33.245 6.41 31.3088 6.52375 30.1676 7.66625C30.0751 7.75875 29.9888 7.855 29.91 7.955ZM25 6.7H20V5.8H25V6.7ZM26.25 4.2H20V3.3H26.25V4.2Z" fill="#EC008C"/>
</svg>
