<svg width="40" height="40" viewBox="0 0 40 40" fill="none" xmlns="http://www.w3.org/2000/svg">
<g clip-path="url(#clip0_293_5516)">
<rect width="40" height="40" fill="white" fill-opacity="0.01" style="mix-blend-mode:multiply"/>
<path d="M23.3 17.9499H26.7013V13.2999H23.3V17.9499ZM24.2001 14.1999H25.7988V17.0499H24.2001V14.1999ZM28.3 17.9499H31.7013V9.54993H28.3V17.9499ZM29.2001 10.4499H30.7988V17.0499H29.2001V10.4499ZM36.7001 5.79993H33.3V17.9499H36.7013L36.7001 5.79993ZM35.8 17.0499H34.2001V6.69993H35.7988L35.8 17.0499ZM38.75 19.5499H20.45V10.4499H26.25V9.54993H20.45V1.75493C22.745 2.03118 24.9363 4.14118 26.5213 7.68368L27.3413 7.31618C26.2625 4.90493 24.8938 3.11493 23.3788 2.02118C26.1238 2.53118 28.71 3.65243 30.9825 5.35993L31.5226 4.64118C28.18 2.12868 24.195 0.799927 20 0.799927C19.9875 0.799927 19.975 0.802427 19.9625 0.802427C19.9563 0.802427 19.95 0.799927 19.9438 0.799927C19.9238 0.799927 19.905 0.804927 19.885 0.806177C9.3513 0.868677 0.800049 9.45118 0.800049 19.9999C0.800049 20.2487 1.0013 20.4499 1.25005 20.4499H19.55V38.2499C17.2313 38.0024 15.0163 35.8824 13.4175 32.3062L12.5963 32.6724C13.6663 35.0687 15.0238 36.8512 16.525 37.9499C12.5913 37.1874 8.9738 35.1612 6.2788 32.1087L5.6038 32.7049C9.2488 36.8324 14.4963 39.1999 20 39.1999C30.5875 39.1999 39.2001 30.5862 39.2001 19.9999C39.2001 19.7512 38.9988 19.5499 38.75 19.5499ZM28.9138 20.4499C28.8738 23.7812 28.3976 26.8862 27.5988 29.5499H20.45V20.4499H28.9138ZM20.45 30.4499H27.3163C25.7826 34.9499 23.29 37.9599 20.45 38.2524V30.4499ZM19.55 9.54993H12.6275C14.1713 5.01993 16.6875 1.99868 19.55 1.73993V9.54993ZM16.4775 2.05743C14.5113 3.51368 12.845 6.15493 11.7125 9.54993H4.99255C7.66005 5.73243 11.745 2.98618 16.4775 2.05743ZM4.41755 10.4499H11.4325C10.6375 13.1437 10.17 16.2424 10.13 19.5499H1.70505C1.7863 16.2174 2.7788 13.1149 4.41755 10.4499ZM11.03 19.5499C11.07 16.2187 11.5463 13.1137 12.345 10.4499H19.55V19.5499H11.03ZM23.4501 37.9549C25.4238 36.5024 27.0963 33.8549 28.2313 30.4499H35.0063C32.3263 34.2874 28.2125 37.0412 23.4501 37.9549ZM35.5826 29.5499H28.5113C29.3063 26.8562 29.7738 23.7574 29.8138 20.4499H38.295C38.2138 23.7824 37.2213 26.8849 35.5826 29.5499ZM17.95 29.9999V22.4999C17.95 22.2512 17.7488 22.0499 17.5 22.0499H2.50005C2.2513 22.0499 2.05005 22.2512 2.05005 22.4999V29.9999C2.05005 30.2487 2.2513 30.4499 2.50005 30.4499H17.5C17.7488 30.4499 17.95 30.2487 17.95 29.9999ZM14.5963 29.5499H5.4038C5.20755 28.2849 4.2138 27.2912 2.9488 27.0949V25.4049C4.2138 25.2087 5.20755 24.2149 5.4038 22.9499H14.595C14.7913 24.2149 15.785 25.2087 17.05 25.4049V27.0949C15.7863 27.2912 14.7913 28.2849 14.5963 29.5499ZM17.05 24.4962C16.2813 24.3224 15.6763 23.7187 15.5038 22.9499H17.05V24.4962ZM4.4963 22.9499C4.32255 23.7187 3.71755 24.3224 2.95005 24.4962V22.9499H4.4963ZM2.95005 28.0037C3.7188 28.1774 4.3238 28.7812 4.4963 29.5499H2.95005V28.0037ZM15.5038 29.5499C15.6775 28.7812 16.2825 28.1774 17.05 28.0037V29.5499H15.5038ZM10 24.5499C9.06255 24.5499 8.30005 25.3124 8.30005 26.2499C8.30005 27.1874 9.06255 27.9499 10 27.9499C10.9375 27.9499 11.7 27.1874 11.7 26.2499C11.7 25.3124 10.9375 24.5499 10 24.5499ZM10 27.0499C9.5588 27.0499 9.20005 26.6912 9.20005 26.2499C9.20005 25.8087 9.5588 25.4499 10 25.4499C10.4413 25.4499 10.8 25.8087 10.8 26.2499C10.8 26.6912 10.4413 27.0499 10 27.0499ZM5.00005 25.7999H6.25005V26.7012H5.00005V25.7999ZM13.75 25.7999H15V26.7012H13.75V25.7999Z" fill="#EC008C"/>
</g>
<defs>
<clipPath id="clip0_293_5516">
<rect width="40" height="40" fill="white"/>
</clipPath>
</defs>
</svg>
