<svg width="40" height="40" viewBox="0 0 40 40" fill="none" xmlns="http://www.w3.org/2000/svg">
<g clip-path="url(#clip0_293_5509)">
<rect width="39.8799" height="40" fill="white" fill-opacity="0.01" style="mix-blend-mode:multiply"/>
<path d="M19.9399 39.2C9.38424 39.2 0.797607 30.5875 0.797607 20C0.797607 9.41249 9.38424 0.799988 19.9399 0.799988C30.4957 0.799988 39.0823 9.41249 39.0823 20C39.0823 30.5875 30.4957 39.2 19.9399 39.2ZM2.12984 23.9812C3.92693 32.0775 11.0879 38.1712 19.6633 38.2987L20.7774 36.0587C20.7999 36.015 20.8273 35.975 20.8622 35.94L24.5486 32.2412L25.7637 29.8187C25.8247 29.695 25.9406 29.6075 26.0752 29.5812L32.3065 28.3187C32.4523 28.2887 32.6056 28.3362 32.7127 28.4412L34.8301 30.5662C36.9425 27.58 38.185 23.9325 38.185 20.0012C38.185 11.0687 31.7718 3.60874 23.3185 2.01624L26.5451 7.27249C26.6223 7.39749 26.6323 7.55124 26.575 7.68499L22.8362 16.435C22.7652 16.6012 22.6019 16.7075 22.4237 16.7075H16.3782L14.4041 18.6875L17.688 20.8837C17.8562 20.9962 17.9285 21.2075 17.8649 21.4012L16.6187 25.1512C16.5801 25.2687 16.4941 25.365 16.3819 25.4162C16.2698 25.4687 16.1401 25.4725 16.0267 25.4262L9.79551 22.9262C9.6821 22.8812 9.59112 22.7912 9.54501 22.6762L7.23447 16.88L5.36261 17.8187L4.16621 22.6175C4.13755 22.735 4.06277 22.835 3.95933 22.8962L2.12984 23.9812ZM21.5476 36.525L20.6715 38.285C26.1886 38.0662 31.0839 35.3787 34.2855 31.2937L32.2454 29.2462L26.4641 30.4187L25.315 32.7112C25.2938 32.7537 25.2664 32.7925 25.2328 32.8275L21.5476 36.525ZM10.3077 22.1612L15.9183 24.4137L16.9053 21.4425L13.452 19.1312C13.3398 19.0562 13.2675 18.935 13.2538 18.8012C13.2414 18.6675 13.2875 18.5337 13.3834 18.4387L15.8759 15.9387C15.9594 15.8537 16.0741 15.8075 16.1925 15.8075H22.1271L25.6577 7.54499L22.1533 1.83374C21.428 1.74499 20.6889 1.69999 19.9399 1.69999C9.879 1.69999 1.6949 9.90874 1.6949 20C1.6949 21.0362 1.7809 22.0537 1.94789 23.0437L3.3412 22.2175L4.54258 17.4C4.57373 17.2725 4.65972 17.165 4.77687 17.1075L7.26936 15.8575C7.38277 15.8012 7.51238 15.795 7.62953 15.8387C7.74668 15.8837 7.84015 15.975 7.8875 16.0925L10.3077 22.1612ZM22.4237 30.4587H18.685C18.5155 30.4587 18.3597 30.3625 18.2837 30.21L17.0374 27.71C16.9677 27.5712 16.9751 27.405 17.0574 27.2712C17.1384 27.14 17.283 27.0575 17.4387 27.0575H19.6907L22.0498 23.5087C22.1234 23.3987 22.2393 23.3262 22.3714 23.3112C22.501 23.2925 22.6318 23.3387 22.729 23.4287L23.9753 24.5875C24.0949 24.6987 24.1448 24.8662 24.1049 25.025L22.8587 30.1162C22.8113 30.3175 22.6306 30.4587 22.4237 30.4587ZM18.9629 29.5575H22.0723L23.1715 25.0662L22.506 24.4462L20.3051 27.7562C20.2228 27.8825 20.082 27.9575 19.9325 27.9575H18.1665L18.9629 29.5575Z" fill="#EC008C"/>
</g>
<defs>
<clipPath id="clip0_293_5509">
<rect width="39.8799" height="40" fill="white"/>
</clipPath>
</defs>
</svg>
