<svg width="80" height="80" viewBox="0 0 80 80" fill="none" xmlns="http://www.w3.org/2000/svg">
<rect width="80" height="80" fill="white" fill-opacity="0.01" style="mix-blend-mode:multiply"/>
<path d="M39.9998 78.4C39.7698 78.4 39.5398 78.3125 39.3648 78.1375L31.5798 70.3525C30.5398 69.3125 29.9623 67.93 29.9548 66.455C29.9498 64.965 30.5248 63.565 31.5773 62.51C32.6223 61.465 34.0123 60.89 35.4873 60.885C35.4923 60.885 35.4948 60.885 35.4998 60.885C36.9798 60.885 38.3698 61.46 39.4198 62.5075L39.9998 63.0875L40.5798 62.5075C42.6723 60.415 46.3198 60.4075 48.4198 62.5075C49.4973 63.5825 50.0723 65.01 50.0448 66.53C50.0148 67.9725 49.4398 69.33 48.4223 70.35L40.6348 78.135C40.4598 78.3125 40.2298 78.4 39.9998 78.4ZM35.4998 62.685C35.4973 62.685 35.4948 62.685 35.4923 62.685C34.4948 62.685 33.5548 63.075 32.8498 63.78C32.1373 64.4925 31.7498 65.4375 31.7523 66.4425C31.7573 67.4375 32.1473 68.3725 32.8498 69.075L39.9998 76.225L47.1473 69.075C47.8348 68.3875 48.2273 67.47 48.2423 66.495C48.2623 65.47 47.8748 64.505 47.1473 63.78C45.7298 62.36 43.2673 62.365 41.8498 63.78L40.6348 64.995C40.2823 65.3475 39.7148 65.3475 39.3623 64.995L38.1473 63.78C37.4398 63.0725 36.4998 62.685 35.4998 62.685ZM65.8998 77.5H64.0998C64.0998 66.625 56.7573 57.065 46.2448 54.2475C45.8848 54.1525 45.6248 53.85 45.5823 53.48C45.5373 53.115 45.7273 52.7575 46.0523 52.585C50.2448 50.3425 52.8498 45.9975 52.8498 41.25C52.8498 34.165 47.0848 28.4 39.9998 28.4C32.9148 28.4 27.1498 34.165 27.1498 41.25C27.1498 45.9975 29.7548 50.3425 33.9473 52.585C34.2748 52.76 34.4623 53.12 34.4173 53.4875C34.3723 53.855 34.1048 54.16 33.7423 54.25C23.2373 56.9025 15.8998 66.4625 15.8998 77.5H14.0998C14.0998 66.3275 21.1023 56.565 31.3598 53.08C27.6098 50.3425 25.3498 45.97 25.3498 41.25C25.3498 33.1725 31.9198 26.6 39.9998 26.6C48.0798 26.6 54.6498 33.17 54.6498 41.25C54.6498 45.985 52.3798 50.365 48.6148 53.0975C58.8873 56.7175 65.8998 66.4825 65.8998 77.5ZM69.9998 58.4C65.3673 58.4 61.5998 54.63 61.5998 50C61.5998 45.37 65.3698 41.6 69.9998 41.6C74.6298 41.6 78.3998 45.3675 78.3998 50C78.3998 54.6325 74.6323 58.4 69.9998 58.4ZM69.9998 43.4C66.3598 43.4 63.3998 46.36 63.3998 50C63.3998 53.64 66.3598 56.6 69.9998 56.6C73.6398 56.6 76.5998 53.64 76.5998 50C76.5998 46.36 73.6398 43.4 69.9998 43.4ZM19.9998 55.9H2.49979C2.17729 55.9 1.87979 55.7275 1.71979 55.4475C1.55979 55.1675 1.55979 54.8225 1.72229 54.545L10.4723 39.545C10.7948 38.99 11.7048 38.99 12.0273 39.545L20.7773 54.545C20.9398 54.8225 20.9398 55.1675 20.7798 55.4475C20.6198 55.7275 20.3223 55.9 19.9998 55.9ZM4.06729 54.1H18.4323L11.2498 41.785L4.06729 54.1ZM68.7498 30.9C68.5948 30.9 68.4423 30.86 68.3023 30.7825L59.5523 25.7825C59.2723 25.6225 59.0998 25.3225 59.0998 25V15C59.0998 14.6775 59.2723 14.3775 59.5548 14.22L68.3048 9.21998C68.5823 9.06248 68.9198 9.06248 69.1973 9.21998L77.9473 14.22C78.2273 14.3775 78.3998 14.6775 78.3998 15V25C78.3998 25.3225 78.2273 25.6225 77.9448 25.78L69.1948 30.78C69.0573 30.86 68.9048 30.9 68.7498 30.9ZM60.8998 24.4775L68.7498 28.9625L76.5998 24.4775V15.5225L68.7498 11.0375L60.8998 15.5225V24.4775ZM19.9998 28.4H4.99979C4.50229 28.4 4.09979 27.9975 4.09979 27.5V12.5C4.09979 12.0025 4.50229 11.6 4.99979 11.6H19.9998C20.4973 11.6 20.8998 12.0025 20.8998 12.5V27.5C20.8998 27.9975 20.4973 28.4 19.9998 28.4ZM5.89979 26.6H19.0998V13.4H5.89979V26.6ZM39.9998 18.4C35.3673 18.4 31.5998 14.6325 31.5998 9.99998C31.5998 5.36748 35.3673 1.59998 39.9998 1.59998C44.6323 1.59998 48.3998 5.36748 48.3998 9.99998C48.3998 14.6325 44.6323 18.4 39.9998 18.4ZM39.9998 3.39998C36.3598 3.39998 33.3998 6.36248 33.3998 9.99998C33.3998 13.6375 36.3598 16.6 39.9998 16.6C43.6398 16.6 46.5998 13.6375 46.5998 9.99998C46.5998 6.36248 43.6398 3.39998 39.9998 3.39998Z" fill="#EC008C"/>
</svg>
