<svg width="80" height="80" viewBox="0 0 80 80" fill="none" xmlns="http://www.w3.org/2000/svg">
<rect width="80" height="80" fill="white" fill-opacity="0.01" style="mix-blend-mode:multiply"/>
<path d="M40.0001 75.9001C31.2326 75.9001 24.1001 68.7651 24.1001 60.0001C24.1001 55.5651 25.9526 51.3501 29.2051 48.3401C29.1376 48.0726 29.1001 47.7901 29.1001 47.5001C29.1001 46.4051 29.6176 45.4326 30.4226 44.8101L24.5026 34.2901C22.3851 35.3251 20.0051 35.9001 17.5001 35.9001C8.7326 35.9001 1.6001 28.7676 1.6001 20.0001C1.6001 11.2326 8.7326 4.1001 17.5001 4.1001C25.0501 4.1001 31.4601 9.3276 33.0251 16.6401C34.3526 16.8476 35.4276 17.8251 35.7776 19.1001H46.6251C47.0926 10.7501 54.0351 4.1001 62.5001 4.1001C71.2676 4.1001 78.4001 11.2326 78.4001 20.0001C78.4001 28.7676 71.2651 35.9001 62.5001 35.9001C60.8926 35.9001 59.3176 35.6626 57.8026 35.1951C57.0126 36.1826 55.5801 36.6901 54.3201 36.3776L48.5626 46.6101C52.9726 49.4401 55.9001 54.3851 55.9001 60.0001C55.9001 68.7676 48.7676 75.9001 40.0001 75.9001ZM30.1351 49.9401C27.4326 52.5876 25.9001 56.2001 25.9001 60.0001C25.9001 67.7751 32.2251 74.1001 40.0001 74.1001C47.7751 74.1001 54.1001 67.7776 54.1001 60.0001C54.1001 55.0551 51.5451 50.6976 47.6826 48.1801L40.7876 60.4401C40.4676 61.0076 39.5376 61.0076 39.2176 60.4401L33.7226 50.6726C32.5301 51.1326 31.0326 50.8126 30.1351 49.9401ZM35.1776 49.5926L40.0001 58.1651L46.1126 47.2951C43.0451 45.8151 39.2451 45.4576 35.7676 46.5576C35.8526 46.8576 35.9001 47.1726 35.9001 47.5001C35.9001 48.2876 35.6301 49.0151 35.1776 49.5926ZM32.5001 45.9001C31.6176 45.9001 30.9001 46.6176 30.9001 47.5001C30.9001 48.3826 31.6176 49.1001 32.5001 49.1001C33.3826 49.1001 34.1001 48.3826 34.1001 47.5001C34.1001 46.6176 33.3826 45.9001 32.5001 45.9001ZM40.0001 44.1001C42.5101 44.1001 44.8851 44.6851 46.9976 45.7251L52.7551 35.4901C52.1326 34.8726 51.7451 34.0201 51.7451 33.0751C51.7451 32.6601 51.8201 32.2651 51.9551 31.8976C48.7701 29.0751 46.8651 25.1376 46.6276 20.8976H35.7801C35.4301 22.1726 34.3551 23.1501 33.0276 23.3576C32.1151 27.6251 29.5501 31.1801 26.0751 33.4051L32.1026 44.1226C33.0726 44.0051 34.0926 44.3501 34.7901 44.9876C36.4776 44.4001 38.2276 44.1001 40.0001 44.1001ZM55.1451 31.4751C54.2626 31.4751 53.5451 32.1926 53.5451 33.0751C53.5451 33.9576 54.2626 34.6751 55.1451 34.6751C56.0276 34.6751 56.7451 33.9576 56.7451 33.0751C56.7451 32.1926 56.0251 31.4751 55.1451 31.4751ZM58.5126 33.5301C59.8026 33.9101 61.1401 34.1026 62.5001 34.1026C70.2751 34.1026 76.6001 27.7776 76.6001 20.0026C76.6001 12.2276 70.2751 5.9001 62.5001 5.9001C55.0276 5.9001 48.8951 11.7426 48.4276 19.1001H62.5001C62.8201 19.1001 63.1151 19.2701 63.2776 19.5451C63.4401 19.8201 63.4426 20.1626 63.2851 20.4401L57.5376 30.6626C58.1601 31.2801 58.5451 32.1326 58.5451 33.0751C58.5451 33.2301 58.5326 33.3826 58.5126 33.5301ZM17.5001 5.9001C9.7251 5.9001 3.4001 12.2251 3.4001 20.0001C3.4001 27.7751 9.7251 34.1001 17.5001 34.1001C19.6851 34.1001 21.7626 33.6051 23.6201 32.7151L16.7151 20.4401C16.5601 20.1626 16.5626 19.8226 16.7226 19.5451C16.8851 19.2701 17.1801 19.1001 17.5001 19.1001H29.2201C29.5026 18.0751 30.2526 17.2401 31.2276 16.8476C29.7776 10.4551 24.1351 5.9001 17.5001 5.9001ZM19.0401 20.9001L25.1876 31.8326C28.1776 29.8901 30.3951 26.8251 31.2276 23.1526C30.2526 22.7576 29.5026 21.9251 29.2201 20.9001H19.0401ZM48.4276 20.9001C48.6601 24.5601 50.2926 27.9576 53.0101 30.4301C53.7951 29.7951 54.9501 29.5176 55.9701 29.7776L60.9626 20.9001H48.4276ZM32.5001 18.4001C31.6176 18.4001 30.9001 19.1176 30.9001 20.0001C30.9001 20.8826 31.6176 21.6001 32.5001 21.6001C33.3826 21.6001 34.1001 20.8826 34.1001 20.0001C34.1001 19.1176 33.3826 18.4001 32.5001 18.4001Z" fill="#EC008C"/>
</svg>
