<svg width="80" height="80" viewBox="0 0 80 80" fill="none" xmlns="http://www.w3.org/2000/svg">
<rect width="80" height="80" fill="white" fill-opacity="0.01" style="mix-blend-mode:multiply"/>
<path d="M51.2501 78.4001C47.3076 78.4001 44.1001 75.1926 44.1001 71.2501C44.1001 67.3076 47.3076 64.1001 51.2501 64.1001C55.1926 64.1001 58.4001 67.3076 58.4001 71.2501C58.4001 75.1926 55.1926 78.4001 51.2501 78.4001ZM51.2501 65.9001C48.3001 65.9001 45.9001 68.3001 45.9001 71.2501C45.9001 74.2001 48.3001 76.6001 51.2501 76.6001C54.2001 76.6001 56.6001 74.2001 56.6001 71.2501C56.6001 68.3001 54.2001 65.9001 51.2501 65.9001ZM28.7501 78.4001C24.8076 78.4001 21.6001 75.1926 21.6001 71.2501C21.6001 67.3076 24.8076 64.1001 28.7501 64.1001C32.6926 64.1001 35.9001 67.3076 35.9001 71.2501C35.9001 75.1926 32.6926 78.4001 28.7501 78.4001ZM28.7501 65.9001C25.8001 65.9001 23.4001 68.3001 23.4001 71.2501C23.4001 74.2001 25.8001 76.6001 28.7501 76.6001C31.7001 76.6001 34.1001 74.2001 34.1001 71.2501C34.1001 68.3001 31.7001 65.9001 28.7501 65.9001ZM68.7501 65.9001C64.8076 65.9001 61.6001 62.6926 61.6001 58.7501C61.6001 54.8076 64.8076 51.6001 68.7501 51.6001C72.6926 51.6001 75.9001 54.8076 75.9001 58.7501C75.9001 62.6926 72.6926 65.9001 68.7501 65.9001ZM68.7501 53.4001C65.8001 53.4001 63.4001 55.8001 63.4001 58.7501C63.4001 61.7001 65.8001 64.1001 68.7501 64.1001C71.7001 64.1001 74.1001 61.7001 74.1001 58.7501C74.1001 55.8001 71.7001 53.4001 68.7501 53.4001ZM11.2501 65.9001C7.3076 65.9001 4.1026 62.6926 4.1026 58.7501C4.1026 54.8076 7.3101 51.6001 11.2501 51.6001C15.1926 51.6001 18.4001 54.8076 18.4001 58.7501C18.4001 62.6926 15.1926 65.9001 11.2501 65.9001ZM11.2501 53.4001C8.3001 53.4001 5.9001 55.8001 5.9001 58.7501C5.9001 61.7001 8.3001 64.1001 11.2501 64.1001C14.2001 64.1001 16.6026 61.7001 16.6026 58.7501C16.6026 55.8001 14.2001 53.4001 11.2501 53.4001ZM71.2501 43.4001C67.3076 43.4001 64.1001 40.1926 64.1001 36.2501C64.1001 32.3076 67.3076 29.1001 71.2501 29.1001C75.1926 29.1001 78.4001 32.3076 78.4001 36.2501C78.4001 40.1926 75.1926 43.4001 71.2501 43.4001ZM71.2501 30.9001C68.3001 30.9001 65.9001 33.3001 65.9001 36.2501C65.9001 39.2001 68.3001 41.6001 71.2501 41.6001C74.2001 41.6001 76.6001 39.2001 76.6001 36.2501C76.6001 33.3001 74.2001 30.9001 71.2501 30.9001ZM8.7501 43.4001C4.8076 43.4001 1.6001 40.1926 1.6001 36.2501C1.6001 32.3076 4.8076 29.1001 8.7501 29.1001C12.6926 29.1001 15.9001 32.3076 15.9001 36.2501C15.9001 40.1926 12.6926 43.4001 8.7501 43.4001ZM8.7501 30.9001C5.8001 30.9001 3.4001 33.3001 3.4001 36.2501C3.4001 39.2001 5.8001 41.6001 8.7501 41.6001C11.7001 41.6001 14.1001 39.2001 14.1001 36.2501C14.1001 33.3001 11.7001 30.9001 8.7501 30.9001ZM61.2501 23.4001C57.3076 23.4001 54.1001 20.1926 54.1001 16.2501C54.1001 12.3076 57.3076 9.1001 61.2501 9.1001C65.1926 9.1001 68.4001 12.3076 68.4001 16.2501C68.4001 20.1926 65.1926 23.4001 61.2501 23.4001ZM61.2501 10.9001C58.3001 10.9001 55.9001 13.3001 55.9001 16.2501C55.9001 19.2001 58.3001 21.6001 61.2501 21.6001C64.2001 21.6001 66.6001 19.2001 66.6001 16.2501C66.6001 13.3001 64.2001 10.9001 61.2501 10.9001ZM18.7501 23.4001C14.8076 23.4001 11.6001 20.1926 11.6001 16.2501C11.6001 12.3076 14.8076 9.1001 18.7501 9.1001C22.6926 9.1001 25.9001 12.3076 25.9001 16.2501C25.9001 20.1926 22.6926 23.4001 18.7501 23.4001ZM18.7501 10.9001C15.8001 10.9001 13.4001 13.3001 13.4001 16.2501C13.4001 19.2001 15.8001 21.6001 18.7501 21.6001C21.7001 21.6001 24.1001 19.2001 24.1001 16.2501C24.1001 13.3001 21.7001 10.9001 18.7501 10.9001ZM40.0001 15.9001C36.0576 15.9001 32.8501 12.6926 32.8501 8.7501C32.8501 4.8076 36.0576 1.6001 40.0001 1.6001C43.9426 1.6001 47.1501 4.8076 47.1501 8.7501C47.1501 12.6926 43.9426 15.9001 40.0001 15.9001ZM40.0001 3.4001C37.0501 3.4001 34.6501 5.8001 34.6501 8.7501C34.6501 11.7001 37.0501 14.1001 40.0001 14.1001C42.9501 14.1001 45.3501 11.7001 45.3501 8.7501C45.3501 5.8001 42.9501 3.4001 40.0001 3.4001ZM21.2501 36.2501C21.2501 36.9401 20.6901 37.5001 20.0001 37.5001C19.3101 37.5001 18.7501 36.9401 18.7501 36.2501C18.7501 35.5601 19.3101 35.0001 20.0001 35.0001C20.6901 35.0001 21.2501 35.5601 21.2501 36.2501ZM27.5001 38.7501C26.8101 38.7501 26.2501 39.3101 26.2501 40.0001C26.2501 40.6901 26.8101 41.2501 27.5001 41.2501C28.1901 41.2501 28.7501 40.6901 28.7501 40.0001C28.7501 39.3101 28.1901 38.7501 27.5001 38.7501ZM53.7501 23.7501C53.0601 23.7501 52.5001 24.3101 52.5001 25.0001C52.5001 25.6901 53.0601 26.2501 53.7501 26.2501C54.4401 26.2501 55.0001 25.6901 55.0001 25.0001C55.0001 24.3101 54.4401 23.7501 53.7501 23.7501ZM50.0001 36.2501C49.3101 36.2501 48.7501 36.8101 48.7501 37.5001C48.7501 38.1901 49.3101 38.7501 50.0001 38.7501C50.6901 38.7501 51.2501 38.1901 51.2501 37.5001C51.2501 36.8101 50.6901 36.2501 50.0001 36.2501ZM53.7501 48.7501C53.0601 48.7501 52.5001 49.3101 52.5001 50.0001C52.5001 50.6901 53.0601 51.2501 53.7501 51.2501C54.4401 51.2501 55.0001 50.6901 55.0001 50.0001C55.0001 49.3101 54.4401 48.7501 53.7501 48.7501ZM51.2501 42.5001C50.5601 42.5001 50.0001 43.0601 50.0001 43.7501C50.0001 44.4401 50.5601 45.0001 51.2501 45.0001C51.9401 45.0001 52.5001 44.4401 52.5001 43.7501C52.5001 43.0601 51.9401 42.5001 51.2501 42.5001ZM51.2501 30.0001C50.5601 30.0001 50.0001 30.5601 50.0001 31.2501C50.0001 31.9401 50.5601 32.5001 51.2501 32.5001C51.9401 32.5001 52.5001 31.9401 52.5001 31.2501C52.5001 30.5601 51.9401 30.0001 51.2501 30.0001ZM41.2501 18.7501C40.5601 18.7501 40.0001 19.3101 40.0001 20.0001C40.0001 20.6901 40.5601 21.2501 41.2501 21.2501C41.9401 21.2501 42.5001 20.6901 42.5001 20.0001C42.5001 19.3101 41.9401 18.7501 41.2501 18.7501ZM45.0001 25.0001C44.3101 25.0001 43.7501 25.5601 43.7501 26.2501C43.7501 26.9401 44.3101 27.5001 45.0001 27.5001C45.6901 27.5001 46.2501 26.9401 46.2501 26.2501C46.2501 25.5601 45.6901 25.0001 45.0001 25.0001ZM58.7501 32.5001C58.0601 32.5001 57.5001 33.0601 57.5001 33.7501C57.5001 34.4401 58.0601 35.0001 58.7501 35.0001C59.4401 35.0001 60.0001 34.4401 60.0001 33.7501C60.0001 33.0601 59.4401 32.5001 58.7501 32.5001ZM58.7501 53.7501C58.0601 53.7501 57.5001 54.3101 57.5001 55.0001C57.5001 55.6901 58.0601 56.2501 58.7501 56.2501C59.4401 56.2501 60.0001 55.6901 60.0001 55.0001C60.0001 54.3101 59.4401 53.7501 58.7501 53.7501ZM35.0001 60.0001C34.3101 60.0001 33.7501 60.5601 33.7501 61.2501C33.7501 61.9401 34.3101 62.5001 35.0001 62.5001C35.6901 62.5001 36.2501 61.9401 36.2501 61.2501C36.2501 60.5601 35.6901 60.0001 35.0001 60.0001ZM35.0001 52.5001C34.3101 52.5001 33.7501 53.0601 33.7501 53.7501C33.7501 54.4401 34.3101 55.0001 35.0001 55.0001C35.6901 55.0001 36.2501 54.4401 36.2501 53.7501C36.2501 53.0601 35.6901 52.5001 35.0001 52.5001ZM32.5001 45.0001C31.8101 45.0001 31.2501 45.5601 31.2501 46.2501C31.2501 46.9401 31.8101 47.5001 32.5001 47.5001C33.1901 47.5001 33.7501 46.9401 33.7501 46.2501C33.7501 45.5601 33.1901 45.0001 32.5001 45.0001Z" fill="#EC008C"/>
</svg>
