<svg width="80" height="80" viewBox="0 0 80 80" fill="none" xmlns="http://www.w3.org/2000/svg">
<rect width="80" height="80" fill="white" fill-opacity="0.01" style="mix-blend-mode:multiply"/>
<path d="M40.0001 78.4001H15.0001C14.7601 78.4001 14.5326 78.3051 14.3651 78.1376L1.8651 65.6376C1.6951 65.4701 1.6001 65.2401 1.6001 65.0001V27.5001C1.6001 27.0026 2.0026 26.6001 2.4976 26.6001L14.1151 26.5926C14.5951 12.7301 26.0226 1.60013 40.0001 1.60013C54.2826 1.60013 65.9001 13.2176 65.9001 27.5001C65.9001 34.1151 63.4351 40.3526 58.9376 45.1651L78.1376 64.3626L76.8626 65.6376L57.6651 46.4376C53.0701 50.7301 47.1801 53.1701 40.8976 53.3826V77.5001C40.9001 77.9976 40.4976 78.4001 40.0001 78.4001ZM15.9001 76.6001H39.1001V53.3851C25.5301 52.9176 14.5751 41.9651 14.1151 28.3926L3.4001 28.4001V64.1001H15.0001C15.4976 64.1001 15.9001 64.5026 15.9001 65.0001V76.6001ZM4.6726 65.9001L14.1001 75.3276V65.9001H4.6726ZM40.0001 3.40013C26.7126 3.40013 15.9001 14.2126 15.9001 27.5001C15.9001 40.7876 26.7126 51.6001 40.0001 51.6001C46.4351 51.6001 52.4851 49.0926 57.0376 44.5401C61.5901 39.9876 64.1001 33.9326 64.1001 27.5001C64.1001 14.2126 53.2876 3.40013 40.0001 3.40013ZM23.9451 34.7676L22.3876 33.8676L29.2176 22.0426C29.3951 21.7351 29.7201 21.5551 30.0901 21.5976C30.4426 21.6351 30.7426 21.8751 30.8526 22.2151L33.3001 29.7276L39.2126 19.5426C39.3801 19.2526 39.7101 19.0801 40.0326 19.0951C40.3676 19.1101 40.6651 19.3101 40.8076 19.6151L45.6676 30.0101L54.2276 15.7826L55.7701 16.7101L46.3401 32.3876C46.1701 32.6701 45.8526 32.8376 45.5226 32.8226C45.1901 32.8051 44.8951 32.6076 44.7526 32.3051L39.9076 21.9401L33.8476 32.3776C33.6676 32.6851 33.3276 32.8601 32.9726 32.8201C32.6201 32.7826 32.3226 32.5426 32.2126 32.2026L29.7676 24.6976L23.9451 34.7676Z" fill="#EC008C"/>
</svg>
