<svg width="40" height="40" viewBox="0 0 40 40" fill="none" xmlns="http://www.w3.org/2000/svg">
<g clip-path="url(#clip0_293_5528)">
<rect width="40" height="40" fill="white" fill-opacity="0.01" style="mix-blend-mode:multiply"/>
<path d="M35.7025 24.6662C36.365 22.7687 36.7013 20.7812 36.7013 18.75C36.7013 8.85249 28.6488 0.799988 18.7513 0.799988C8.8538 0.799988 0.800049 8.85249 0.800049 18.75C0.800049 28.6475 8.85255 36.7 18.75 36.7C20.7813 36.7 22.77 36.3637 24.6663 35.7012C26.0975 37.8112 28.5138 39.2 31.25 39.2C35.6338 39.2 39.2001 35.6325 39.2001 31.25C39.2001 28.515 37.8113 26.0975 35.7025 24.6662ZM18.75 35.8C9.3488 35.8 1.70005 28.1512 1.70005 18.75C1.70005 9.34874 9.3488 1.69999 18.75 1.69999C28.1513 1.69999 35.8 9.34874 35.8 18.75C35.8 20.6175 35.5025 22.4462 34.9125 24.1937C33.8163 23.6225 32.57 23.2987 31.25 23.2987C27.0163 23.2987 23.5463 26.6237 23.3125 30.8H22.5C20.2488 30.8 19.2 29.7512 19.2 27.5V22.9387C22.3413 22.765 24.2001 20.76 24.2001 17.5V11.25C24.2001 11.0012 23.9988 10.8 23.75 10.8H21.7001V7.49999C21.7001 7.25124 21.4988 7.04999 21.25 7.04999C21.0013 7.04999 20.8 7.25124 20.8 7.49999V10.8H16.7V7.50124C16.7 7.25249 16.4988 7.05124 16.25 7.05124C16.0013 7.05124 15.8 7.25249 15.8 7.50124V10.8H13.75C13.5013 10.8 13.3 11.0012 13.3 11.25V17.5C13.3 20.76 15.1588 22.765 18.3 22.9387V27.5C18.3 30.2475 19.7525 31.7 22.5 31.7H23.3125C23.3775 32.8537 23.6888 33.9412 24.1938 34.9112C22.4463 35.5012 20.6175 35.8 18.75 35.8ZM16.2438 11.7C16.2463 11.7 16.2475 11.7012 16.25 11.7012C16.2525 11.7012 16.2538 11.7 16.2563 11.7H23.3V13.3H14.2V11.7H16.2438ZM23.3 14.2V17.5C23.3 18.8675 22.8575 22.05 18.75 22.05C14.6425 22.05 14.2 18.8687 14.2 17.5V14.2H23.3ZM31.25 38.3C27.3625 38.3 24.2001 35.1387 24.2001 31.25C24.2001 27.3612 27.3613 24.2 31.25 24.2C35.1388 24.2 38.3 27.3612 38.3 31.25C38.3 35.1387 35.1375 38.3 31.25 38.3ZM31.7001 32.5H30.8V26.25H31.7013L31.7001 32.5ZM31.875 35C31.875 35.345 31.595 35.625 31.25 35.625C30.905 35.625 30.625 35.345 30.625 35C30.625 34.655 30.905 34.375 31.25 34.375C31.595 34.375 31.875 34.655 31.875 35Z" fill="#EC008C"/>
</g>
<defs>
<clipPath id="clip0_293_5528">
<rect width="40" height="40" fill="white"/>
</clipPath>
</defs>
</svg>
