<svg width="40" height="40" viewBox="0 0 40 40" fill="none" xmlns="http://www.w3.org/2000/svg">
<g clip-path="url(#clip0_293_5534)">
<rect width="40" height="40" fill="white" fill-opacity="0.01" style="mix-blend-mode:multiply"/>
<path d="M27.3188 36.7775L27.68 37.6025C25.2538 38.6625 22.67 39.2 20 39.2C9.41255 39.2 0.800049 30.5875 0.800049 20C0.800049 14.325 3.2488 9.10375 7.52005 5.45H3.75005V4.55H9.20005V10H8.30005V5.96625C4.1088 9.45625 1.70005 14.5063 1.70005 20C1.70005 30.09 9.9088 38.3 20 38.3C22.545 38.3 25.0088 37.7875 27.3188 36.7775ZM39.2001 20C39.2001 9.4125 30.5875 0.800003 20 0.800003C17.33 0.800003 14.7463 1.3375 12.32 2.3975L12.68 3.2225C14.9925 2.2125 17.455 1.7 20 1.7C30.09 1.7 38.3 9.90875 38.3 20C38.3 25.4925 35.8926 30.5425 31.7013 34.0325V30H30.8V35.45H36.25V34.55H32.48C36.7513 30.895 39.2001 25.6738 39.2001 20ZM32.9501 13.75C32.9501 18.9088 28.9088 22.95 23.75 22.95H20.45V35H19.55V26.7H16.25C11.0913 26.7 7.05005 22.6588 7.05005 17.5V13.75C7.05005 13.5013 7.2513 13.3 7.50005 13.3H11.25C14.9563 13.3 18.085 15.385 19.5538 18.4725C19.695 13.4463 23.6838 9.55 28.75 9.55H32.5C32.7488 9.55 32.9501 9.75125 32.9501 10V13.75ZM19.55 22.5C19.55 17.8463 15.9038 14.2 11.25 14.2H7.95005V17.5C7.95005 22.155 11.5963 25.8 16.25 25.8H18.9138L12.1813 19.065L12.8175 18.4288L19.55 25.1638V22.5ZM32.05 10.45H28.75C24.095 10.45 20.45 14.0963 20.45 18.75V21.4138L27.1813 14.6825L27.8188 15.3188L21.0863 22.05H23.75C28.4051 22.05 32.05 18.4038 32.05 13.75V10.45Z" fill="#EC008C"/>
</g>
<defs>
<clipPath id="clip0_293_5534">
<rect width="40" height="40" fill="white"/>
</clipPath>
</defs>
</svg>
