<svg width="80" height="80" viewBox="0 0 80 80" fill="none" xmlns="http://www.w3.org/2000/svg">
<rect width="80" height="80" fill="white" fill-opacity="0.01" style="mix-blend-mode:multiply"/>
<path d="M40.0001 78.4001C38.3826 78.4001 37.0251 77.2651 36.6826 75.7476C29.4476 75.0876 22.7126 72.3051 17.1126 67.6601C16.5326 68.1226 15.7976 68.4001 15.0001 68.4001C13.1251 68.4001 11.6001 66.8751 11.6001 65.0001C11.6001 64.2026 11.8751 63.4676 12.3376 62.8851C7.6951 57.2851 4.9101 50.5501 4.2501 43.3176C2.7351 42.9751 1.6001 41.6176 1.6001 40.0001C1.6001 38.3826 2.7351 37.0251 4.2526 36.6826C4.9126 29.4476 7.6951 22.7151 12.3401 17.1126C11.8751 16.5326 11.6001 15.7976 11.6001 15.0001C11.6001 13.1251 13.1251 11.6001 15.0001 11.6001C15.7976 11.6001 16.5326 11.8751 17.1151 12.3376C22.7151 7.6951 29.4501 4.9101 36.6851 4.2501C37.0251 2.7351 38.3826 1.6001 40.0001 1.6001C41.6176 1.6001 42.9751 2.7351 43.3176 4.2526C50.5526 4.9126 57.2851 7.6951 62.8851 12.3401C63.4676 11.8751 64.2026 11.6001 65.0001 11.6001C66.8751 11.6001 68.4001 13.1251 68.4001 15.0001C68.4001 15.7976 68.1226 16.5326 67.6601 17.1151C72.3051 22.7151 75.0901 29.4501 75.7476 36.6851C77.2626 37.0276 78.4001 38.3851 78.4001 40.0026C78.4001 41.6201 77.2651 42.9776 75.7476 43.3201C75.0876 50.5551 72.3026 57.2901 67.6601 62.8876C68.1226 63.4676 68.4001 64.2026 68.4001 65.0026C68.4001 66.8776 66.8751 68.4026 65.0001 68.4026C64.2026 68.4026 63.4676 68.1251 62.8851 67.6626C57.2876 72.3051 50.5501 75.0926 43.3176 75.7501C42.9751 77.2651 41.6176 78.4001 40.0001 78.4001ZM40.0001 73.4001C39.1176 73.4001 38.4001 74.1176 38.4001 75.0001C38.4001 75.8826 39.1176 76.6001 40.0001 76.6001C40.8826 76.6001 41.6001 75.8826 41.6001 75.0001C41.6001 74.1176 40.8826 73.4001 40.0001 73.4001ZM18.1776 66.2051C23.4926 70.6401 29.8901 73.3051 36.7651 73.9501C37.2076 72.5876 38.4901 71.6001 39.9976 71.6001C41.5051 71.6001 42.7876 72.5901 43.2326 73.9501C50.1076 73.3051 56.5051 70.6426 61.8201 66.2051C61.6776 65.8301 61.6001 65.4251 61.6001 65.0001C61.6001 63.1251 63.1251 61.6001 65.0001 61.6001C65.4251 61.6001 65.8301 61.6776 66.2051 61.8226C70.6401 56.5076 73.3051 50.1101 73.9501 43.2351C72.5876 42.7901 71.6001 41.5076 71.6001 40.0001C71.6001 38.4926 72.5901 37.2101 73.9501 36.7676C73.3051 29.8926 70.6426 23.4951 66.2051 18.1801C65.8301 18.3226 65.4251 18.4001 65.0001 18.4001C63.1251 18.4001 61.6001 16.8751 61.6001 15.0001C61.6001 14.5776 61.6776 14.1701 61.8226 13.7951C56.5076 9.3601 50.1101 6.6951 43.2351 6.0501C42.7901 7.4126 41.5076 8.4001 40.0001 8.4001C38.4926 8.4001 37.2101 7.4126 36.7676 6.0526C29.8926 6.6976 23.4951 9.3626 18.1801 13.7976C18.3226 14.1701 18.4001 14.5776 18.4001 15.0001C18.4001 16.8751 16.8751 18.4001 15.0001 18.4001C14.5751 18.4001 14.1676 18.3226 13.7951 18.1801C9.3601 23.4951 6.6976 29.8926 6.0526 36.7676C7.4126 37.2101 8.4001 38.4926 8.4001 40.0001C8.4001 41.5076 7.4126 42.7901 6.0526 43.2351C6.6976 50.1101 9.3626 56.5076 13.7976 61.8226C14.1701 61.6776 14.5776 61.6001 15.0001 61.6001C16.8751 61.6001 18.4001 63.1251 18.4001 65.0001C18.4001 65.4251 18.3226 65.8301 18.1776 66.2051ZM65.0001 63.4001C64.1176 63.4001 63.4001 64.1176 63.4001 65.0001C63.4001 65.8826 64.1176 66.6001 65.0001 66.6001C65.8826 66.6001 66.6001 65.8826 66.6001 65.0001C66.6001 64.1176 65.8826 63.4001 65.0001 63.4001ZM15.0001 63.4001C14.1176 63.4001 13.4001 64.1176 13.4001 65.0001C13.4001 65.8826 14.1176 66.6001 15.0001 66.6001C15.8826 66.6001 16.6001 65.8826 16.6001 65.0001C16.6001 64.1176 15.8826 63.4001 15.0001 63.4001ZM75.0001 38.4001C74.1176 38.4001 73.4001 39.1176 73.4001 40.0001C73.4001 40.8826 74.1176 41.6001 75.0001 41.6001C75.8826 41.6001 76.6001 40.8826 76.6001 40.0001C76.6001 39.1176 75.8826 38.4001 75.0001 38.4001ZM5.0001 38.4001C4.1176 38.4001 3.4001 39.1176 3.4001 40.0001C3.4001 40.8826 4.1176 41.6001 5.0001 41.6001C5.8826 41.6001 6.6001 40.8826 6.6001 40.0001C6.6001 39.1176 5.8826 38.4001 5.0001 38.4001ZM65.0001 13.4001C64.1176 13.4001 63.4001 14.1176 63.4001 15.0001C63.4001 15.8826 64.1176 16.6001 65.0001 16.6001C65.8826 16.6001 66.6001 15.8826 66.6001 15.0001C66.6001 14.1176 65.8826 13.4001 65.0001 13.4001ZM15.0001 13.4001C14.1176 13.4001 13.4001 14.1176 13.4001 15.0001C13.4001 15.8826 14.1176 16.6001 15.0001 16.6001C15.8826 16.6001 16.6001 15.8826 16.6001 15.0001C16.6001 14.1176 15.8826 13.4001 15.0001 13.4001ZM40.0001 3.4001C39.1176 3.4001 38.4001 4.1176 38.4001 5.0001C38.4001 5.8826 39.1176 6.6001 40.0001 6.6001C40.8826 6.6001 41.6001 5.8826 41.6001 5.0001C41.6001 4.1176 40.8826 3.4001 40.0001 3.4001ZM42.5001 63.4001C41.5126 63.4001 40.6226 62.9751 40.0001 62.3026C39.3776 62.9776 38.4876 63.4001 37.5001 63.4001C35.6251 63.4001 34.1001 61.8751 34.1001 60.0001V33.4001H23.9576L28.2976 42.0826C28.3626 42.2076 28.4001 42.3501 28.4001 42.5001C28.4001 45.7551 25.7526 48.4001 22.5001 48.4001C19.2476 48.4001 16.6001 45.7551 16.6001 42.5001C16.6001 42.3476 16.6376 42.2051 16.7026 42.0826L21.1776 33.1326C19.9576 32.6151 19.1001 31.4051 19.1001 30.0001C19.1001 28.1251 20.6251 26.6001 22.5001 26.6001H35.1676C34.4801 25.6251 34.1001 24.4251 34.1001 23.1251C34.1001 19.8726 36.7476 17.2251 40.0001 17.2251C43.2551 17.2251 45.9001 19.8726 45.9001 23.1251C45.9001 24.4251 45.5201 25.6251 44.8326 26.6001H57.5001C59.3751 26.6001 60.9001 28.1251 60.9001 30.0001C60.9001 31.4051 60.0401 32.6151 58.8226 33.1326L63.2951 42.0826C63.3601 42.2076 63.4001 42.3501 63.4001 42.5001C63.4001 45.7551 60.7526 48.4001 57.5001 48.4001C54.2476 48.4001 51.6001 45.7526 51.6001 42.5001C51.6001 42.3476 51.6401 42.2051 51.7051 42.0826L56.0451 33.4001H45.9001V60.0001C45.9001 61.8751 44.3751 63.4001 42.5001 63.4001ZM40.9001 60.0001C40.9001 60.8826 41.6176 61.6001 42.5001 61.6001C43.3826 61.6001 44.1001 60.8826 44.1001 60.0001V32.5001C44.1001 32.0026 44.5026 31.6001 45.0001 31.6001H57.5001C58.3826 31.6001 59.1001 30.8826 59.1001 30.0001C59.1001 29.1176 58.3826 28.4001 57.5001 28.4001H42.5001C42.0876 28.4001 41.7301 28.1226 41.6276 27.7226C41.5251 27.3226 41.7101 26.9051 42.0701 26.7101C43.3426 26.0201 44.1001 24.6801 44.1001 23.1251C44.1001 20.8651 42.2626 19.0251 40.0001 19.0251C37.7376 19.0251 35.9001 20.8651 35.9001 23.1251C35.9001 24.6776 36.6601 26.0176 37.9301 26.7101C38.2926 26.9076 38.4751 27.3251 38.3726 27.7226C38.2701 28.1226 37.9101 28.4001 37.5001 28.4001H22.5001C21.6176 28.4001 20.9001 29.1176 20.9001 30.0001C20.9001 30.8826 21.6176 31.6001 22.5001 31.6001H35.0001C35.4976 31.6001 35.9001 32.0026 35.9001 32.5001V60.0001C35.9001 60.8826 36.6176 61.6001 37.5001 61.6001C38.3826 61.6001 39.1001 60.8826 39.1001 60.0001V45.0001H40.9001V60.0001ZM53.4976 43.4001C53.9101 45.2276 55.5476 46.5976 57.5001 46.5976C59.4526 46.5976 61.0901 45.2276 61.5026 43.4001H53.4976ZM18.5001 43.4001C18.9101 45.2301 20.5476 46.6001 22.5001 46.6001C24.4526 46.6001 26.0901 45.2301 26.5001 43.4026L18.5001 43.4001ZM53.9551 41.6001H61.0451L57.5001 34.5126L53.9551 41.6001ZM18.9576 41.6001H26.0451L22.5001 34.5126L18.9576 41.6001Z" fill="#EC008C"/>
</svg>
