<svg width="80" height="80" viewBox="0 0 80 80" fill="none" xmlns="http://www.w3.org/2000/svg">
<rect width="80" height="80" fill="white" fill-opacity="0.01" style="mix-blend-mode:multiply"/>
<path d="M47.5001 78.4001H32.5001V76.6001H47.5001V78.4001ZM50.0001 73.4001H30.0001V71.6001H50.0001V73.4001ZM50.0001 68.4001H30.0001V66.6001H50.0001V68.4001ZM50.0001 63.4001H30.0001C29.5026 63.4001 29.1001 62.9976 29.1001 62.5001V58.8676C29.1001 54.8126 29.1001 48.6851 23.9976 43.3801C19.2276 38.4151 16.6001 32.1226 16.6001 25.6626C16.6001 12.1701 26.8776 1.60263 40.0001 1.60263C53.1226 1.60263 63.4001 12.1701 63.4001 25.6626C63.4001 32.1226 60.7726 38.4176 56.0026 43.3776C50.9001 48.6851 50.9001 54.8126 50.9001 58.8676V62.5001C50.9001 62.9976 50.4976 63.4001 50.0001 63.4001ZM30.9001 61.6001H49.1001V58.8676C49.1001 54.7876 49.1001 47.9601 54.7051 42.1301C59.1501 37.5026 61.6001 31.6551 61.6001 25.6601C61.6001 13.1776 52.1126 3.40013 40.0001 3.40013C27.8876 3.40013 18.4001 13.1776 18.4001 25.6601C18.4001 31.6551 20.8476 37.5026 25.2951 42.1301C30.9001 47.9601 30.9001 54.7876 30.9001 58.8676V61.6001ZM42.9576 42.1501H37.0451C36.5476 42.1501 36.1451 41.7476 36.1451 41.2501V37.9776L34.4426 37.2651L32.1226 39.5851C31.9551 39.7551 31.7251 39.8476 31.4876 39.8476C31.2476 39.8476 31.0201 39.7526 30.8526 39.5851L26.6726 35.4026C26.3201 35.0501 26.3201 34.4826 26.6726 34.1301L28.9851 31.8151L28.2851 30.1076H25.0001C24.5026 30.1076 24.1001 29.7051 24.1001 29.2076V23.2926C24.1001 22.7951 24.5026 22.3926 25.0001 22.3926H28.2726L28.9851 20.6901L26.6676 18.3701C26.3151 18.0176 26.3151 17.4501 26.6676 17.0976L30.8476 12.9151C31.1851 12.5751 31.7826 12.5751 32.1201 12.9151L34.4351 15.2301L36.1451 14.5301V11.2501C36.1451 10.7526 36.5476 10.3501 37.0451 10.3501H42.9576C43.4551 10.3501 43.8576 10.7526 43.8576 11.2501V14.5226L45.5601 15.2351L47.8801 12.9151C48.2326 12.5626 48.8026 12.5626 49.1551 12.9151L53.3376 17.0976C53.6901 17.4501 53.6901 18.0176 53.3376 18.3701L51.0226 20.6851L51.7226 22.3926H55.0001C55.4976 22.3926 55.9001 22.7951 55.9001 23.2926V29.2076C55.9001 29.7051 55.4976 30.1076 55.0001 30.1076H51.7251L51.0151 31.8101L53.3351 34.1301C53.6876 34.4826 53.6876 35.0501 53.3351 35.4026L49.1526 39.5851C48.9851 39.7551 48.7551 39.8476 48.5151 39.8476C48.2751 39.8476 48.0451 39.7526 47.8776 39.5851L45.5651 37.2701L43.8551 37.9701V41.2501C43.8576 41.7476 43.4551 42.1501 42.9576 42.1501ZM37.9426 40.3501H42.0576V37.3651C42.0576 37.0001 42.2776 36.6701 42.6151 36.5326L45.4376 35.3776C45.7726 35.2401 46.1601 35.3176 46.4176 35.5751L48.5176 37.6751L51.4276 34.7651L49.3151 32.6551C49.0576 32.3976 48.9801 32.0076 49.1226 31.6701L50.3001 28.8576C50.4401 28.5226 50.7676 28.3051 51.1301 28.3051H54.1001V24.1926H51.1201C50.7551 24.1926 50.4276 23.9726 50.2876 23.6351L49.1301 20.8151C48.9926 20.4801 49.0701 20.0926 49.3251 19.8376L51.4276 17.7351L48.5151 14.8251L46.4051 16.9351C46.1451 17.1951 45.7551 17.2701 45.4201 17.1301L42.6076 15.9526C42.2726 15.8126 42.0551 15.4851 42.0551 15.1226V12.1501H37.9401V15.1326C37.9401 15.4976 37.7201 15.8276 37.3826 15.9651L34.5626 17.1226C34.2226 17.2601 33.8401 17.1801 33.5851 16.9251L31.4826 14.8251L28.5751 17.7351L30.6851 19.8451C30.9451 20.1026 31.0201 20.4926 30.8801 20.8301L29.7026 23.6426C29.5626 23.9776 29.2351 24.1951 28.8726 24.1951H25.9001V28.3101H28.8851C29.2501 28.3101 29.5801 28.5301 29.7176 28.8676L30.8726 31.6876C31.0101 32.0226 30.9326 32.4101 30.6751 32.6651L28.5751 34.7676L31.4851 37.6776L33.5951 35.5676C33.8526 35.3076 34.2401 35.2276 34.5801 35.3726L37.3926 36.5501C37.7276 36.6901 37.9451 37.0176 37.9451 37.3801L37.9426 40.3501ZM40.0001 33.4001C36.0576 33.4001 32.8501 30.1926 32.8501 26.2501C32.8501 22.3076 36.0576 19.1001 40.0001 19.1001C43.9426 19.1001 47.1501 22.3076 47.1501 26.2501C47.1501 30.1926 43.9426 33.4001 40.0001 33.4001ZM40.0001 20.9001C37.0501 20.9001 34.6501 23.3001 34.6501 26.2501C34.6501 29.2001 37.0501 31.6001 40.0001 31.6001C42.9501 31.6001 45.3501 29.2001 45.3501 26.2501C45.3501 23.3001 42.9501 20.9001 40.0001 20.9001Z" fill="#EC008C"/>
</svg>
