<svg width="16" height="17" viewBox="0 0 16 17" fill="none" xmlns="http://www.w3.org/2000/svg">
<path fill-rule="evenodd" clip-rule="evenodd" d="M3 2.66187C2.44771 2.66187 2 3.10958 2 3.66187V13.6619C2 14.2141 2.44771 14.6619 3 14.6619H13C13.5523 14.6619 14 14.2141 14 13.6619V3.66187C14 3.10958 13.5523 2.66187 13 2.66187H3ZM5.68051 5.33035C5.68426 5.96785 5.20707 6.36066 4.64082 6.35785C4.10738 6.35503 3.64238 5.93035 3.64519 5.33129C3.64801 4.76785 4.09332 4.31503 4.67176 4.32816C5.25863 4.34129 5.68426 4.7716 5.68051 5.33035ZM8.18647 7.16971H6.50647H6.50553V12.8763H8.28113V12.7431C8.28113 12.4899 8.28093 12.2365 8.28073 11.9831C8.2802 11.3073 8.2796 10.6307 8.28307 9.955C8.284 9.79093 8.29147 9.62033 8.33367 9.46373C8.49207 8.87873 9.01807 8.50093 9.60493 8.5938C9.9818 8.6528 10.2311 8.87127 10.3361 9.2266C10.4009 9.44873 10.4299 9.6878 10.4327 9.9194C10.4403 10.6178 10.4393 11.3162 10.4382 12.0147C10.4378 12.2612 10.4374 12.5079 10.4374 12.7544V12.8753H12.2187V12.7385C12.2187 12.4371 12.2185 12.1359 12.2183 11.8346C12.218 11.0816 12.2176 10.3286 12.2196 9.57533C12.2205 9.235 12.184 8.8994 12.1005 8.57033C11.9759 8.08093 11.7181 7.67593 11.299 7.38347C11.0018 7.17533 10.6755 7.04127 10.3109 7.02627C10.2693 7.02454 10.2275 7.02228 10.1854 7.02001C9.99893 7.00993 9.8094 6.99969 9.63113 7.03564C9.12113 7.13783 8.67307 7.37127 8.3346 7.7828C8.29527 7.83 8.2568 7.87793 8.1994 7.94947L8.18647 7.96567V7.16971ZM3.78776 12.8781H5.55495V7.17342H3.78776V12.8781Z" fill="#EC008C"/>
</svg>
