<svg width="24" height="25" viewBox="0 0 24 25" fill="none" xmlns="http://www.w3.org/2000/svg">
<rect width="24" height="24" transform="translate(0 0.750488)" fill="white" fill-opacity="0.01" style="mix-blend-mode:multiply"/>
<path d="M22.5 14.2505V12.7505H18V20.2505H19.5V17.2505H21.75V15.7505H19.5V14.2505H22.5Z" fill="#EC008C"/>
<path d="M14.25 20.2505H11.25V12.7505H14.25C14.8465 12.7512 15.4185 12.9884 15.8403 13.4102C16.2621 13.8321 16.4993 14.404 16.5 15.0005V18.0005C16.4993 18.597 16.2621 19.169 15.8403 19.5908C15.4185 20.0126 14.8465 20.2498 14.25 20.2505ZM12.75 18.7505H14.25C14.4488 18.7503 14.6395 18.6712 14.7801 18.5306C14.9207 18.39 14.9998 18.1993 15 18.0005V15.0005C14.9998 14.8017 14.9207 14.611 14.7801 14.4704C14.6395 14.3298 14.4488 14.2507 14.25 14.2505H12.75V18.7505Z" fill="#EC008C"/>
<path d="M8.25 12.7505H4.5V20.2505H6V18.0005H8.25C8.64766 18 9.02888 17.8418 9.31007 17.5606C9.59126 17.2794 9.74946 16.8982 9.75 16.5005V14.2505C9.74954 13.8528 9.59136 13.4716 9.31016 13.1903C9.02895 12.9091 8.64769 12.751 8.25 12.7505ZM6 16.5005V14.2505H8.25L8.25075 16.5005H6Z" fill="#EC008C"/>
<path d="M16.5 11.2505V8.2505C16.5027 8.15193 16.484 8.05395 16.4451 7.96331C16.4063 7.87267 16.3482 7.79154 16.275 7.7255L11.025 2.4755C10.959 2.40225 10.8778 2.34419 10.7872 2.30535C10.6966 2.2665 10.5986 2.24779 10.5 2.2505H3C2.60253 2.25167 2.22168 2.41008 1.94063 2.69113C1.65958 2.97218 1.50117 3.35304 1.5 3.7505V21.7505C1.5 22.1483 1.65804 22.5299 1.93934 22.8112C2.22064 23.0925 2.60218 23.2505 3 23.2505H15V21.7505H3V3.7505H9V8.2505C9.00117 8.64797 9.15958 9.02882 9.44063 9.30987C9.72168 9.59092 10.1025 9.74933 10.5 9.7505H15V11.2505H16.5ZM10.5 8.2505V4.0505L14.7 8.2505H10.5Z" fill="#EC008C"/>
</svg>
