<svg width="80" height="80" viewBox="0 0 80 80" fill="none" xmlns="http://www.w3.org/2000/svg">
<rect width="80" height="80" fill="white" fill-opacity="0.01" style="mix-blend-mode:multiply"/>
<path d="M10.9001 77.5001H9.1001V2.50013C9.1001 2.00263 9.5026 1.60013 10.0001 1.60013H70.0001C70.3276 1.60013 70.6276 1.77763 70.7851 2.06513C70.9426 2.35013 70.9376 2.70013 70.7626 2.97763L58.5626 22.5001L70.7651 42.0226C70.9376 42.3001 70.9451 42.6476 70.7876 42.9376C70.6276 43.2226 70.3276 43.4001 70.0001 43.4001H10.9001V77.5001ZM10.9001 41.6001H68.3776L56.7376 22.9776C56.5576 22.6851 56.5576 22.3151 56.7376 22.0226L68.3776 3.40013H10.9001V41.6001Z" fill="#EC008C"/>
</svg>
