<svg width="80" height="80" viewBox="0 0 80 80" fill="none" xmlns="http://www.w3.org/2000/svg">
<rect width="80" height="80" fill="white" fill-opacity="0.01" style="mix-blend-mode:multiply"/>
<path d="M68.75 12.5001C68.75 13.1901 68.19 13.7501 67.5 13.7501C66.8125 13.7501 66.25 13.1901 66.25 12.5001C66.25 11.8101 66.8125 11.2501 67.5 11.2501C68.19 11.2501 68.75 11.8101 68.75 12.5001ZM72.5 6.25012C71.8125 6.25012 71.25 6.81012 71.25 7.50012C71.25 8.19012 71.8125 8.75012 72.5 8.75012C73.19 8.75012 73.75 8.19012 73.75 7.50012C73.75 6.81012 73.19 6.25012 72.5 6.25012ZM62.5 16.2501C61.8125 16.2501 61.25 16.8101 61.25 17.5001C61.25 18.1901 61.8125 18.7501 62.5 18.7501C63.19 18.7501 63.75 18.1901 63.75 17.5001C63.75 16.8101 63.19 16.2501 62.5 16.2501ZM17.5 61.2501C16.8125 61.2501 16.25 61.8101 16.25 62.5001C16.25 63.1901 16.8125 63.7501 17.5 63.7501C18.19 63.7501 18.75 63.1901 18.75 62.5001C18.75 61.8101 18.19 61.2501 17.5 61.2501ZM12.5 66.2501C11.8125 66.2501 11.25 66.8101 11.25 67.5001C11.25 68.1901 11.8125 68.7501 12.5 68.7501C13.19 68.7501 13.75 68.1901 13.75 67.5001C13.75 66.8101 13.19 66.2501 12.5 66.2501ZM7.5 71.2501C6.8125 71.2501 6.25 71.8101 6.25 72.5001C6.25 73.1901 6.8125 73.7501 7.5 73.7501C8.19 73.7501 8.75 73.1901 8.75 72.5001C8.75 71.8101 8.19 71.2501 7.5 71.2501ZM73.1375 71.8626L58.9375 57.6651C63.435 52.8526 65.9 46.6151 65.9 40.0001C65.9 25.7201 54.2825 14.1001 40 14.1001C25.72 14.1001 14.1 25.7201 14.1 40.0001C14.1 54.2826 25.7175 65.9001 40 65.9001C46.615 65.9001 52.855 63.4351 57.665 58.9376L71.8625 73.1376L73.1375 71.8626ZM64.1 40.0001C64.1 46.4351 61.5925 52.4851 57.04 57.0376C52.4875 61.5901 46.435 64.1001 40 64.1001C26.7125 64.1001 15.9 53.2901 15.9 40.0001C15.9 26.7101 26.7125 15.9001 40 15.9001C53.2875 15.9001 64.1 26.7126 64.1 40.0001ZM33.4 52.5001V47.5001C33.4 47.0026 32.9975 46.6001 32.5 46.6001H27.5C27.0025 46.6001 26.6 47.0026 26.6 47.5001V52.5001C26.6 52.9976 27.0025 53.4001 27.5 53.4001H32.5C32.9975 53.4001 33.4 52.9976 33.4 52.5001ZM28.4 48.4001H31.6V51.5976H28.4V48.4001ZM43.4 42.5001V37.5001C43.4 37.0026 42.9975 36.6001 42.5 36.6001H37.5C37.0025 36.6001 36.6 37.0026 36.6 37.5001V42.5001C36.6 42.9976 37.0025 43.4001 37.5 43.4001H42.5C42.9975 43.4001 43.4 42.9976 43.4 42.5001ZM38.4 38.4001H41.6V41.6001H38.4V38.4001ZM53.4 32.5001V27.5001C53.4 27.0026 52.9975 26.6001 52.5 26.6001H47.5C47.0025 26.6001 46.6 27.0026 46.6 27.5001V32.5001C46.6 32.9976 47.0025 33.4001 47.5 33.4001H52.5C52.9975 33.4001 53.4 32.9976 53.4 32.5001ZM48.4 28.4001H51.5975V31.6001H48.4V28.4001Z" fill="#EC008C"/>
</svg>
